<svg width="12" height="12" viewBox="0 0 12 12" fill="none" xmlns="http://www.w3.org/2000/svg">
<path d="M6 3.37875V1L1 3.75V3.75L6 3.37875V3.37875Z" fill="#9BD5EF"/>
<path d="M3.1645 4.93938L6 3.37875L1 3.75V3.75L3.1645 4.93938V4.93938Z" fill="#38ABDF"/>
<path d="M3.1645 4.93938L1 3.75V9.25V9.25L3.1645 4.93938V4.93938Z" fill="#9BD5EF"/>
<path d="M3.1645 8.06064V4.93939L1 9.25002V9.25002L3.1645 8.06064V8.06064Z" fill="#38ABDF"/>
<path d="M3.1645 8.06061L1 9.24998L6 12V12L3.1645 8.06061V8.06061Z" fill="#9BD5EF"/>
<path d="M5.99999 9.62123L3.16449 8.06061L5.99999 12V12V9.62123V9.62123Z" fill="#38ABDF"/>
<path d="M6 9.62125V12L11 9.25V9.25L6 9.62125V9.62125Z" fill="#9BD5EF"/>
<path d="M8.8355 8.06061L6 9.62123L11 9.24998V9.24998L8.8355 8.06061V8.06061Z" fill="#38ABDF"/>
<path d="M8.83545 8.06062L11 9.25V3.75V3.75L8.83545 8.06062V8.06062Z" fill="#9BD5EF"/>
<path d="M8.83545 4.93938V8.06062L11 3.75V3.75L8.83545 4.93938V4.93938Z" fill="#38ABDF"/>
<path d="M8.8355 4.93938L11 3.75L6 1V1L8.8355 4.93938V4.93938Z" fill="#9BD5EF"/>
<path d="M6 3.37875L8.8355 4.93938L6 1V1V3.37875V3.37875Z" fill="#38ABDF"/>
</svg>
