<?xml version="1.0" encoding="UTF-8"?>
<svg width="20px" height="20px" viewBox="0 0 20 20" version="1.1" xmlns="http://www.w3.org/2000/svg" xmlns:xlink="http://www.w3.org/1999/xlink">
    <!-- Generator: Sketch 64 (93537) - https://sketch.com -->
    <title>medium-low-density/alert-24</title>
    <desc>Created with Sketch.</desc>
    <g id="Notifications" stroke="none" stroke-width="1" fill="none" fill-rule="evenodd">
        <g id="One-Line" transform="translate(-27.000000, -16.000000)" fill="#EC4A41">
            <g id="24px/error-24" transform="translate(25.000000, 14.000000)">
                <path d="M12,2 L22,12 L12,22 L2,12 L12,2 Z M12,3.41 L3.41,12 L12,20.59 L20.59,12 L12,3.41 Z M12,14 C12.5522847,14 13,14.4477153 13,15 C13,15.5522847 12.5522847,16 12,16 C11.4477153,16 11,15.5522847 11,15 C11,14.4477153 11.4477153,14 12,14 Z M12.33,7 C12.47,7 13,7.48 13,7.67 L13,7.67 L12.5,12.49 C12.5,12.67 12.39,12.82 12.25,12.82 L12.25,12.82 L11.75,12.82 C11.61,12.82 11.5,12.67 11.5,12.49 L11.5,12.49 L11,7.67 C11,7.48 11.53,7 11.67,7 L11.67,7 Z" id="🌈--icon-color"></path>
            </g>
        </g>
    </g>
</svg>