<?xml version="1.0" encoding="UTF-8"?>
<svg width="22px" height="17px" viewBox="0 0 22 17" version="1.1" xmlns="http://www.w3.org/2000/svg" xmlns:xlink="http://www.w3.org/1999/xlink">
    <!-- Generator: Sketch 62 (91390) - https://sketch.com -->
    <title>medium-low-density/alert-24 copy 2</title>
    <desc>Created with Sketch.</desc>
    <defs>
        <path d="M12,16 C12.5522847,16 13,16.4477153 13,17 C13,17.5522847 12.5522847,18 12,18 C11.4477153,18 11,17.5522847 11,17 C11,16.4477153 11.4477153,16 12,16 Z M12.45,7.99999919 C12.5879736,7.99975141 12.7199173,8.05652772 12.8145977,8.15688898 C12.9092781,8.25725023 12.9582787,8.39227481 12.95,8.53 L12.61,14.75 C12.6010903,14.8804542 12.499982,14.9857752 12.37,14.9999992 L11.6,14.9999992 C11.4622176,14.9952667 11.3501308,14.887491 11.34,14.75 L11,8.53 C10.9917213,8.39227481 11.0407219,8.25725023 11.1354023,8.15688898 C11.2300827,8.05652772 11.3620264,7.99975141 11.5,7.99999919 L12.45,7.99999919 Z M22,18.46 L12.84,4.3 C12.6557966,4.0148272 12.3394914,3.8425864 12,3.8425864 C11.6605086,3.8425864 11.3442034,4.0148272 11.16,4.3 L2,18.46 C1.80271169,18.7675001 1.78882099,19.1581163 1.96376856,19.4788535 C2.13871612,19.7995907 2.47465271,19.999392 2.84,20 L21.16,20 C21.5253473,19.999392 21.8612839,19.7995907 22.0362314,19.4788535 C22.211179,19.1581163 22.1972883,18.7675001 22,18.46 Z M2.84,19 L12,4.84 L21.16,19 L2.84,19 Z" id="path-1"></path>
    </defs>
    <g id="Notifications" stroke="none" stroke-width="1" fill="none" fill-rule="evenodd">
        <g id="Icons" transform="translate(-53.000000, -3.000000)">
            <g id="02-medium-low-density/issue-warning-24" transform="translate(52.000000, 0.000000)">
                <mask id="mask-2" fill="white">
                    <use xlink:href="#path-1"></use>
                </mask>
                <use id="🌈-color" fill="#FAA21B" fill-rule="evenodd" xlink:href="#path-1"></use>
            </g>
        </g>
    </g>
</svg>