<?xml version="1.0" encoding="UTF-8"?>
<svg width="16px" height="14px" viewBox="0 0 16 14" version="1.1" xmlns="http://www.w3.org/2000/svg" xmlns:xlink="http://www.w3.org/1999/xlink">
    <title>icon</title>
    <g id="First-Experience" stroke="none" stroke-width="1" fill="none" fill-rule="evenodd">
        <g id="Personal-1-Copy" transform="translate(-703.000000, -756.000000)" fill="#FAA21B">
            <g id="Group" transform="translate(558.000000, 450.000000)">
                <g id="modals/high-density/type/notification-copy" transform="translate(129.000000, 290.000000)">
                    <g id="icon" transform="translate(16.000000, 15.000000)">
                        <path d="M7,11 L9,11 L9,13 L7,13 L7,11 Z M7,5 L9,5 L9,10 L7,10 L7,5 Z M7.73,1.14 L5.40026357e-13,14.72 C-0.12,14.91 5.40026357e-13,15 0.28,15 L15.68,15 C15.91,15 16.08,14.91 15.96,14.72 L8.27,1.14 C8.20820889,1.0520697 8.10747036,0.99973666 8,0.99973666 C7.89252964,0.99973666 7.79179111,1.0520697 7.73,1.14 Z" id="🌈--icon-color"></path>
                    </g>
                </g>
            </g>
        </g>
    </g>
</svg>