<?xml version="1.0" encoding="UTF-8"?>
<svg width="20px" height="17px" viewBox="0 0 20 17" version="1.1" xmlns="http://www.w3.org/2000/svg" xmlns:xlink="http://www.w3.org/1999/xlink">
    <!-- Generator: Sketch 64 (93537) - https://sketch.com -->
    <title>medium-low-density/alert-24</title>
    <desc>Created with Sketch.</desc>
    <g id="Notifications" stroke="none" stroke-width="1" fill="none" fill-rule="evenodd">
        <g id="Two-lines" transform="translate(-27.000000, -17.000000)" fill="#FAA21B">
            <g id="24px/alert-24" transform="translate(25.000000, 14.000000)">
                <path d="M11.75,13.82 L12.25,13.82 C12.39,13.82 12.5,13.67 12.5,13.49 L13,8.67 C13,8.48 12.47,8 12.33,8 L11.67,8 C11.53,8 11,8.48 11,8.67 L11.5,13.49 C11.5,13.67 11.61,13.82 11.75,13.82 Z M12,3.14621978 C12.437789,3.14621978 12.8436737,3.37525265 13.07,3.75 L13.07,3.75 L21.84,18.1 C22.075139,18.486244 22.0833441,18.969367 21.8614566,19.3633729 C21.639569,19.7573788 21.2221881,20.0008297 20.77,20.0000021 L20.77,20.0000021 L3.23,20.0000021 C2.77781192,20.0008297 2.36043099,19.7573788 2.13854344,19.3633729 C1.9166559,18.969367 1.92486104,18.486244 2.16,18.1 L2.16,18.1 L10.93,3.75 C11.1563263,3.37525265 11.562211,3.14621978 12,3.14621978 Z M12,4.1461895 C11.9126905,4.1461895 11.8322685,4.1936042 11.79,4.27 L11.79,4.27 L3,18.62 C2.95075646,18.6960586 2.95075646,18.7939414 3,18.87 C3.04377087,18.9554293 3.13423462,19.006561 3.23,19 L3.23,19 L20.77,19 C20.8622247,19.0025546 20.9477495,18.9520171 20.99,18.87 L20.99,18.87 L21,18.87 C21.0492435,18.7939414 21.0492435,18.6960586 21,18.62 L21,18.62 L12.21,4.27 C12.1677315,4.1936042 12.0873095,4.1461895 12,4.1461895 Z M12,15 C12.5522847,15 13,15.4477153 13,16 C13,16.5522847 12.5522847,17 12,17 C11.4477153,17 11,16.5522847 11,16 C11,15.4477153 11.4477153,15 12,15 Z" id="🌈--icon-color"></path>
            </g>
        </g>
    </g>
</svg>