<svg width="12" height="12" viewBox="0 0 12 12" fill="none" xmlns="http://www.w3.org/2000/svg">
<path d="M12 6C12 9.31373 9.31373 12 6 12C2.68629 12 0 9.31373 0 6C0 2.68629 2.68629 0 6 0C9.31373 0 12 2.68629 12 6Z" fill="#FAA21B"/>
<path fill-rule="evenodd" clip-rule="evenodd" d="M2 5.99998C2 3.79087 3.6999 2 5.7968 2C6.7888 2 7.69661 2.41013 8.37293 3.06638L9.74194 2.0379L10 6.21709L6.00426 4.83897L7.4599 3.75151C6.99847 3.36855 6.42977 3.14286 5.7968 3.14286C4.29901 3.14286 3.0848 4.42201 3.0848 5.99998C3.0848 7.57798 4.29901 8.85714 5.7968 8.85714C7.04562 8.85714 8.0973 7.96777 8.4124 6.75751L9.43632 7.14284C8.96959 8.79512 7.51674 10 5.7968 10C3.6999 10 2 8.20914 2 5.99998Z" fill="white"/>
</svg>
