<svg width="16" height="16" viewBox="0 0 16 16" fill="none" xmlns="http://www.w3.org/2000/svg">
<path fill-rule="evenodd" clip-rule="evenodd" d="M8 16C12.4183 16 16 12.4183 16 8C16 3.58172 12.4183 0 8 0C3.58172 0 0 3.58172 0 8C0 12.4183 3.58172 16 8 16ZM7.70874 2.78825C4.70221 2.78825 2.26489 5.22557 2.26489 8.2321C2.26489 11.2387 4.70221 13.676 7.70874 13.676C10.1748 13.676 12.2579 12.0362 12.9271 9.78749L11.459 9.26307C11.0072 10.9102 9.4993 12.1206 7.70874 12.1206C5.56121 12.1206 3.82028 10.3797 3.82028 8.2321C3.82028 6.08453 5.56121 4.34364 7.70874 4.34364C8.6163 4.34364 9.4317 4.65081 10.0933 5.172L8.0062 6.652L13.7353 8.52758L13.3653 2.83983L11.4024 4.23956C10.4327 3.34643 9.13108 2.78825 7.70874 2.78825Z" fill="#FAA21B"/>
</svg>
