<?xml version="1.0" encoding="UTF-8"?>
<svg width="32px" height="32px" viewBox="0 0 32 32" version="1.1" xmlns="http://www.w3.org/2000/svg" xmlns:xlink="http://www.w3.org/1999/xlink">
    <!-- Generator: Sketch 46.2 (44496) - http://www.bohemiancoding.com/sketch -->
    <title>Group</title>
    <desc>Created with Sketch.</desc>
    <defs></defs>
    <g id="Symbols" stroke="none" stroke-width="1" fill="none" fill-rule="evenodd">
        <g id="#5---hub-to-be-activated" transform="translate(-51.000000, -177.000000)">
            <g id="Group" transform="translate(51.000000, 177.000000)">
                <path d="M16,0.0132648468 C17.6631833,0.162934805 18.9665869,1.56065471 18.9665869,3.26280083 C18.9665869,4.75836288 17.9603642,6.01890903 16.5879803,6.40437787 L16.5879803,10.6964332 C18.0634263,10.8600439 19.3572295,11.6258942 20.2180639,12.742658 L25.4905699,10.106405 C25.4798745,9.99888949 25.4743983,9.88983795 25.4743983,9.77950738 C25.4743983,7.97751224 26.935204,6.51670655 28.7371992,6.51670655 C30.5391943,6.51670655 32,7.97751224 32,9.77950738 C32,11.5815025 30.5391943,13.0423082 28.7371992,13.0423082 C27.6822142,13.0423082 26.744174,12.541608 26.1477497,11.7648786 L21.0533761,14.3120654 C21.2290406,14.8407701 21.324149,15.4062408 21.324149,15.9939253 C21.324149,16.5826438 21.2287056,17.1490703 21.0524481,17.6785755 L26.1526942,20.2286986 C26.7493511,19.4556329 27.6851249,18.9576918 28.7371992,18.9576918 C30.5391943,18.9576918 32,20.4184975 32,22.2204926 C32,24.0224878 30.5391943,25.4832934 28.7371992,25.4832934 C26.935204,25.4832934 25.4743983,24.0224878 25.4743983,22.2204926 C25.4743983,22.1072643 25.480166,21.995383 25.4914234,21.8851266 L20.2162525,19.2475412 C19.3554151,20.3630301 18.0623918,21.1279214 16.5879803,21.2914174 L16.5879803,25.5956221 C17.9603642,25.981091 18.9665869,27.2416371 18.9665869,28.7371992 C18.9665869,30.4393453 17.6631833,31.8370652 16,31.9867352 L16,0.0132648468 Z" id="Combined-Shape" fill="#00AEEE"></path>
                <path d="M16,0.0132648468 C15.9024366,0.00448510755 15.8036351,0 15.7037861,0 C13.9017909,0 12.4409852,1.46080569 12.4409852,3.26280083 C12.4409852,4.75512985 13.4428622,6.01345798 14.8106967,6.40186575 L14.8106967,10.7954955 C13.5822311,11.0739326 12.514837,11.7766546 11.7706922,12.7414836 L6.509006,10.1106405 C6.51998069,10.0017538 6.52560165,9.89128702 6.52560165,9.77950738 C6.52560165,7.97751224 5.06479596,6.51670655 3.26280083,6.51670655 C1.46080569,6.51670655 0,7.97751224 0,9.77950738 C0,11.5815025 1.46080569,13.0423082 3.26280083,13.0423082 C4.31633064,13.0423082 5.25323803,12.5429883 5.84978034,11.7680912 L10.9349383,14.3106701 C10.7589774,14.8397752 10.6637016,15.4057238 10.6637016,15.9939253 C10.6637016,16.5831608 10.7593127,17.1500651 10.935867,17.6799704 L5.84482668,20.2254906 C5.24805861,19.4542556 4.31341907,18.9576918 3.26280083,18.9576918 C1.46080569,18.9576918 0,20.4184975 0,22.2204926 C0,24.0224878 1.46080569,25.4832934 3.26280083,25.4832934 C5.06479596,25.4832934 6.52560165,24.0224878 6.52560165,22.2204926 C6.52560165,22.1058159 6.51968555,21.992521 6.50814191,21.8808964 L11.7725044,19.2487152 C12.5165694,20.2123361 13.583228,20.914144 14.8106967,21.1923551 L14.8106967,25.5981343 C13.4428622,25.986542 12.4409852,27.2448701 12.4409852,28.7371992 C12.4409852,30.5391943 13.9017909,32 15.7037861,32 C15.8036351,32 15.9024366,31.9955149 16,31.9867352 L16,0.0132648468 Z" id="Combined-Shape" fill="#999999"></path>
            </g>
        </g>
    </g>
</svg>