<?xml version="1.0" encoding="UTF-8"?>
<svg width="32px" height="32px" viewBox="0 0 32 32" version="1.1" xmlns="http://www.w3.org/2000/svg" xmlns:xlink="http://www.w3.org/1999/xlink">
    <!-- Generator: Sketch 46.2 (44496) - http://www.bohemiancoding.com/sketch -->
    <title>Combined Shape</title>
    <desc>Created with Sketch.</desc>
    <defs></defs>
    <g id="Page-1" stroke="none" stroke-width="1" fill="none" fill-rule="evenodd">
        <g id="email-needs-verification-#1" transform="translate(-60.000000, -170.000000)" fill="#00ABEB">
            <g id="Group" transform="translate(49.000000, 161.000000)">
                <path d="M22.7706922,21.7414836 C23.514837,20.7766546 24.5822311,20.0739326 25.8106967,19.7954955 L25.8106967,15.4018657 C24.4428622,15.013458 23.4409852,13.7551299 23.4409852,12.2628008 C23.4409852,10.4608057 24.9017909,9 26.7037861,9 C28.5057812,9 29.9665869,10.4608057 29.9665869,12.2628008 C29.9665869,13.7583629 28.9603642,15.018909 27.5879803,15.4043779 L27.5879803,19.6964332 C29.0634263,19.8600439 30.3572295,20.6258942 31.2180639,21.742658 L36.4905699,19.106405 C36.4798745,18.9988895 36.4743983,18.889838 36.4743983,18.7795074 C36.4743983,16.9775122 37.935204,15.5167066 39.7371992,15.5167066 C41.5391943,15.5167066 43,16.9775122 43,18.7795074 C43,20.5815025 41.5391943,22.0423082 39.7371992,22.0423082 C38.6822142,22.0423082 37.744174,21.541608 37.1477497,20.7648786 L32.0533761,23.3120654 C32.2290406,23.8407701 32.324149,24.4062408 32.324149,24.9939253 C32.324149,25.5826438 32.2287056,26.1490703 32.0524481,26.6785755 L37.1526942,29.2286986 C37.7493511,28.4556329 38.6851249,27.9576918 39.7371992,27.9576918 C41.5391943,27.9576918 43,29.4184975 43,31.2204926 C43,33.0224878 41.5391943,34.4832934 39.7371992,34.4832934 C37.935204,34.4832934 36.4743983,33.0224878 36.4743983,31.2204926 C36.4743983,31.1072643 36.480166,30.995383 36.4914234,30.8851266 L31.2162525,28.2475412 C30.3554151,29.3630301 29.0623918,30.1279214 27.5879803,30.2914174 L27.5879803,34.5956221 C28.9603642,34.981091 29.9665869,36.2416371 29.9665869,37.7371992 C29.9665869,39.5391943 28.5057812,41 26.7037861,41 C24.9017909,41 23.4409852,39.5391943 23.4409852,37.7371992 C23.4409852,36.2448701 24.4428622,34.986542 25.8106967,34.5981343 L25.8106967,30.1923551 C24.583228,29.914144 23.5165694,29.2123361 22.7725044,28.2487152 L17.5081419,30.8808964 C17.5196855,30.992521 17.5256017,31.1058159 17.5256017,31.2204926 C17.5256017,33.0224878 16.064796,34.4832934 14.2628008,34.4832934 C12.4608057,34.4832934 11,33.0224878 11,31.2204926 C11,29.4184975 12.4608057,27.9576918 14.2628008,27.9576918 C15.3134191,27.9576918 16.2480586,28.4542556 16.8448267,29.2254906 L21.935867,26.6799704 C21.7593127,26.1500651 21.6637016,25.5831608 21.6637016,24.9939253 C21.6637016,24.4057238 21.7589774,23.8397752 21.9349383,23.3106701 L16.8497803,20.7680912 C16.253238,21.5429883 15.3163306,22.0423082 14.2628008,22.0423082 C12.4608057,22.0423082 11,20.5815025 11,18.7795074 C11,16.9775122 12.4608057,15.5167066 14.2628008,15.5167066 C16.064796,15.5167066 17.5256017,16.9775122 17.5256017,18.7795074 C17.5256017,18.891287 17.5199807,19.0017538 17.509006,19.1106405 L22.7706922,21.7414836 Z" id="Combined-Shape"></path>
            </g>
        </g>
    </g>
</svg>