<?xml version="1.0" encoding="UTF-8"?>
<svg width="14px" height="13px" viewBox="0 0 14 13" version="1.1" xmlns="http://www.w3.org/2000/svg" xmlns:xlink="http://www.w3.org/1999/xlink">
    <!-- Generator: Sketch 55.2 (78181) - https://sketchapp.com -->
    <title>Checkbox_Off_disabled</title>
    <desc>Created with Sketch.</desc>
    <g id="Checkbox_Off_disabled" stroke="none" stroke-width="1" fill="none" fill-rule="evenodd" opacity="0.2">
        <g id="Checkbox_Off" transform="translate(1.000000, 0.000000)">
            <path d="M11.4,2.1 C11,1.7 10.6,1.5 10,1.5 L2,1.5 C1.4,1.5 0.9,1.7 0.6,2.1 C0.2,2.4 0,2.9 0,3.5 L0,11.5 C0,12.1 0.2,12.5 0.6,12.9 C0.9,13.3 1.4,13.5 2,13.5 L10,13.5 C10.6,13.4 11,13.2 11.4,12.9 C11.8,12.5 12,12.1 12,11.5 L12,3.5 C11.9,2.9 11.7,2.4 11.4,2.1" id="Path" stroke="#FFFFFF" opacity="0.8" stroke-linecap="round" stroke-linejoin="round"></path>
            <path d="M12,10.5 L12,2.5 C11.9,1.9 11.7,1.4 11.4,1.1 C11,0.7 10.6,0.5 10,0.5 L2,0.5 C1.4,0.5 0.9,0.7 0.6,1.1 C0.2,1.4 0,1.9 0,2.5 L0,10.5 C0,11 0.2,11.5 0.6,11.9 C0.9,12.3 1.4,12.5 2,12.5 L10,12.5 C10.6,12.4 11,12.2 11.4,11.9 C11.8,11.5 12,11 12,10.5 Z" id="Path" fill-rule="nonzero"></path>
            <path d="M12,2.5 C11.9,1.9 11.7,1.4 11.4,1.1 C11,0.7 10.6,0.5 10,0.5 L2,0.5 C1.4,0.5 0.9,0.7 0.6,1.1 C0.2,1.4 0,1.9 0,2.5 L0,10.5 C0,11 0.2,11.5 0.6,11.9 C0.9,12.3 1.4,12.5 2,12.5 L10,12.5 C10.6,12.4 11,12.2 11.4,11.9 C11.8,11.5 12,11 12,10.5 L12,2.5" id="Path" stroke="#404040" stroke-linecap="round" stroke-linejoin="round"></path>
        </g>
    </g>
</svg>