<svg viewBox="0 0 16 16" fill="none" xmlns="http://www.w3.org/2000/svg">
<g clip-path="url(#clip0)">
<rect width="18" height="18" rx="1" fill="#808080" fill-opacity="0.25"/>
<path d="M7.272 3.924C7.548 3.924 7.824 3.96 8.04 4.02L8.304 3.12C8.088 3.06 7.644 2.976 7.152 2.976C5.664 2.976 5.124 3.792 4.944 5.016L4.86 5.652H3.948L3.828 6.564H4.728L3.948 12H5.148L5.904 6.564H7.5L7.632 5.652H6.036L6.144 4.812C6.228 4.236 6.552 3.924 7.272 3.924ZM13.884 5.652H12.6L10.776 8.028L9.636 5.652H8.364L9.996 8.772L7.392 12H8.688L10.56 9.648L11.796 12H13.092L11.34 8.856L13.884 5.652Z" fill="#BBBBBB"/>
</g>
<defs>
<clipPath id="clip0">
<path d="M0 1C0 0.447715 0.447715 0 1 0H15C15.5523 0 16 0.447715 16 1V15C16 15.5523 15.5523 16 15 16H1C0.447715 16 0 15.5523 0 15V1Z" fill="white"/>
</clipPath>
</defs>
</svg>
