<?xml version="1.0" encoding="UTF-8"?>
<svg viewBox="0 0 16 16" version="1.1" xmlns="http://www.w3.org/2000/svg" xmlns:xlink="http://www.w3.org/1999/xlink">
    <!-- Generator: Sketch 49 (51002) - http://www.bohemiancoding.com/sketch -->
    <title>Group 5</title>
    <desc>Created with Sketch.</desc>
    <defs></defs>
    <rect id="Rectangle-2" fill-opacity="0" x="0" y="0" width="16" height="16"></rect>
    <path d="M4.106,9.212 C3.49,9.212 3,8.722 3,8.106 C3,7.504 3.49,7 4.106,7 C4.722,7 5.198,7.504 5.198,8.106 C5.198,8.722 4.722,9.212 4.106,9.212 Z M8.068,9.212 C7.452,9.212 6.962,8.722 6.962,8.106 C6.962,7.504 7.452,7 8.068,7 C8.684,7 9.16,7.504 9.16,8.106 C9.16,8.722 8.684,9.212 8.068,9.212 Z M12.03,9.212 C11.414,9.212 10.924,8.722 10.924,8.106 C10.924,7.504 11.414,7 12.03,7 C12.646,7 13.122,7.504 13.122,8.106 C13.122,8.722 12.646,9.212 12.03,9.212 Z" id="..." transform="translate(8.061000, 8.106000) rotate(90.000000) translate(-8.061000, -8.106000) "></path>
</svg>
