<?xml version="1.0" standalone="no"?>
<!DOCTYPE svg PUBLIC "-//W3C//DTD SVG 1.1//EN" "http://www.w3.org/Graphics/SVG/1.1/DTD/svg11.dtd">
<svg xmlns="http://www.w3.org/2000/svg">
<metadata>Autodesk A360 Rendering</metadata>
<defs>
<font id="vx360fonticon" horiz-adv-x="1000" >
<font-face font-family="vx360fonticon" font-weight="400" font-stretch="normal" units-per-em="1000" ascent="850" descent="-150" />
<missing-glyph horiz-adv-x="1000" />
<glyph glyph-name="info-small" unicode="&#xe800;" d="M500 2c-192 0-348 156-348 348s156 348 348 348 348-156 348-348-156-348-348-348z m0 652c-168 0-304-136-304-304s136-304 304-304 304 136 304 304-136 304-304 304z m0-477c-12 0-22 10-22 22v217c0 12 10 22 22 22s22-10 22-22v-217c0-13-10-22-22-22z m33 323c0-18-15-32-33-32-18 0-33 14-33 32 0 18 15 33 33 33 18 0 33-15 33-33z" horiz-adv-x="1000" />

<glyph glyph-name="filter-thick" unicode="&#xe801;" d="M63 788h875v-125l-313-313h-250l-312 313v125z m562-500h-250v-250l250-126v376z" horiz-adv-x="1000" />

<glyph glyph-name="share-thick" unicode="&#xe802;" d="M938 6c0-86-70-156-157-156s-156 70-156 156c0 13 2 26 5 38l-309 189c-28-24-63-39-102-39-87 0-156 70-156 156s69 156 156 156c39 0 74-15 102-39l309 189c-3 12-5 25-5 38 0 86 70 156 156 156s157-70 157-156-70-156-157-156c-39 0-74 15-102 38l-309-188c3-13 5-25 5-38s-2-25-5-37l309-189c28 24 63 39 102 39 87 0 157-70 157-157z" horiz-adv-x="1000" />

<glyph glyph-name="info-thick" unicode="&#xe803;" d="M500 850c-276 0-500-224-500-500 0-276 224-500 500-500 276 0 500 224 500 500 0 276-224 500-500 500z m0-125c69 0 125-56 125-125s-56-125-125-125c-69 0-125 56-125 125s56 125 125 125z m188-687h-375v62l62 63v187h-62v63h312v-250l63-63v-62z" horiz-adv-x="1000" />

<glyph glyph-name="thumbnail-thick" unicode="&#xe804;" d="M63 788h375v-375h-375v375z m500 0v-375h375v375h-375z m-500-876h375v376h-375v-376z m500 0h375v376h-375v-376z" horiz-adv-x="1000" />

<glyph glyph-name="download-thick" unicode="&#xe805;" d="M502 131l-250 250h187v438c0 34 28 62 63 62 34 0 62-28 62-62v-438h188l-250-250z m437-62h-875c-34 0-62-28-62-63s28-62 62-62h875c35 0 63 28 63 62s-28 63-63 63z" horiz-adv-x="1000" />

<glyph glyph-name="motion-study-thick" unicode="&#xe806;" d="M531 881c-276 0-500-224-500-500s224-500 500-500c276 0 500 224 500 500s-224 500-500 500z m-125-718v437l375-219-375-218z" horiz-adv-x="1000" />

<glyph glyph-name="actions-thick" unicode="&#xe807;" d="M536 136l219-250 219 250h-438z m-62 688v-313h312l-312 313z m0-625h312v250h-375v375h-250c-69 0-125-56-125-125v-750h563l-125 143v107z" horiz-adv-x="1000" />

<glyph glyph-name="turntable-thick" unicode="&#xe808;" d="M499 571l-251 139 251 140 251-140-251-139z m32-456l313 162v380l-313-163v-379z m-62 379l-313 163v-380l313-162v379z m454-263c-23 11-51 2-63-21-12-23-2-51 21-63 37-19 41-32 41-32-2-14-63-60-227-82-25-4-43-28-40-53 3-24 23-41 46-41 2 0 5 0 7 1 92 12 308 54 308 175 0 31-16 77-93 116z m-454-209c-248 0-386 65-391 93 0 0 4 13 41 32 23 12 33 40 21 63-12 23-40 32-63 21-77-39-93-85-93-116 0-128 251-187 485-187v-78l125 125-125 125v-78l0 0z" horiz-adv-x="1000" />

<glyph glyph-name="actual-size-thick" unicode="&#xe809;" d="M984-5l-157 157c67 81 108 185 108 299 0 125-49 243-137 331-89 89-207 138-332 138-125 0-243-49-331-138-89-88-138-206-138-331 0-125 49-243 138-331 88-89 206-138 331-138h0c100 0 193 32 269 86l161-161c12-13 28-19 44-19s32 6 44 19c25 24 25 64 0 88z m-518 112h0c-92 0-178 36-243 101-65 65-101 151-100 243 0 92 35 178 100 243 65 65 151 101 243 101 92 0 178-36 243-101 65-65 101-151 101-243 0-190-154-344-344-344z m-104 455v-187c0-18-14-32-31-32s-31 14-31 32v156h-32c-17 0-31 14-31 31s14 31 31 31h63c17 0 31-14 31-31z m312 0v-187c0-18-13-32-31-32-17 0-31 14-31 32v156h-31c-17 0-32 14-32 31s15 31 32 31h62c18 0 31-14 31-31z m-187-62c0-18-14-32-31-32s-31 14-31 32 14 31 31 31 31-14 31-31z m0-125c0-18-14-32-31-32s-31 14-31 32 14 31 31 31 31-14 31-31z" horiz-adv-x="1000" />

<glyph glyph-name="fit-window-thick" unicode="&#xe80a;" d="M857 160l112 112h-250v250h250l-112 112 125 125c24 24 24 64 0 88s-64 25-89 0l-125-125-112 112v-250h-250v250l-112-112-125 125c-24 25-64 25-88 0s-25-64 0-88l125-125-112-112h250v-250h-250l112-112-125-125c-25-25-25-64 0-89 12-12 28-18 44-18s32 6 44 18l125 125 112-112v250h250v-250l112 112 125-125c13-12 29-18 45-18s32 6 44 18c24 25 24 64 0 89l-125 125z m-263 174h-125v125h125v-125z" horiz-adv-x="1000" />

<glyph glyph-name="badge-small" unicode="&#xe80b;" d="M612 609c-32 23-72 35-122 35-20 0-39-2-59-6-19-4-36-11-51-20-15-10-27-22-36-38-9-15-14-35-14-58 0-22 7-40 20-54 13-13 30-25 52-33 21-9 46-16 73-22 27-6 55-12 84-19 28-6 56-14 83-23 27-9 52-21 74-37 21-15 39-34 52-58 13-23 19-52 19-88 0-38-9-70-26-97-16-27-38-49-65-66-27-17-57-30-90-37-33-8-65-12-98-12-40 0-78 5-114 15-35 10-67 26-94 46-27 20-48 46-63 78-16 32-24 69-24 113l90-1c0-29 6-55 18-77s27-40 45-53c19-15 42-25 67-32 25-6 51-10 78-10 21 0 43 2 64 6 22 4 42 11 59 21 17 9 31 23 42 39 11 17 16 38 16 64 0 25-6 45-19 60s-31 28-53 38c-21 10-46 17-73 24-27 6-55 12-83 18-29 6-57 14-84 22-27 9-52 20-73 33s-39 32-52 53-20 49-20 82c0 36 8 67 22 93 15 27 34 48 59 65 24 17 52 30 83 38 31 8 63 13 95 13 37 0 71-5 102-14 32-8 59-22 83-41 23-18 42-42 56-70s21-62 22-102l-90 0c-5 52-24 89-55 112z" horiz-adv-x="1000" />

<glyph glyph-name="badge-medium" unicode="&#xe80c;" d="M275 707l224-600 227 600 130 0-1-714-90 0 1 594h-2l-224-594-81 0-222 594h-2l-1-594-90 0 1 714 130 0z" horiz-adv-x="1000" />

<glyph glyph-name="badge-large" unicode="&#xe80d;" d="M359 707l0-634 378 0v-80l-473 0 0 714 95 0z" horiz-adv-x="1000" />

<glyph glyph-name="zoom-in" unicode="&#xe80e;" d="M685 397c0-17-14-31-31-31h-157v-157c0-17-14-31-31-31s-31 14-31 31v157h-156c-18 0-32 14-32 31s14 31 32 31h156v156c0 18 14 32 31 32s31-14 31-32v-156h157c17 0 31-14 31-31z m277-522c-6-6-14-9-22-9s-16 3-22 9l-180 180c-75-60-169-96-272-96h0c-117 0-227 46-309 129-83 82-128 192-128 309 0 117 45 227 128 309s192 128 309 128 227-45 310-128 128-192 128-309c0-116-46-221-120-300l178-178c12-12 12-32 0-44z m-121 522c0 100-39 194-110 265s-165 110-265 110c-100 0-194-39-265-110-71-71-110-165-110-265 0-100 39-194 110-265 71-71 165-110 265-110v-31l0 31c207 0 375 168 375 375z" horiz-adv-x="1000" />

<glyph glyph-name="image-thick" unicode="&#xe80f;" d="M31 819v-750-63-125h938v125 63 750h-938z m63-750v687h812v-687h-812z m68 186l250 250 375-374h-625v124z m687 283c0-52-42-94-94-94s-94 42-94 94c0 51 42 93 94 93s94-42 94-93z" horiz-adv-x="1000" />

<glyph glyph-name="zoom-in-thick" unicode="&#xe810;" d="M716 397c0-35-28-63-62-63h-125v-125c0-34-28-62-63-62-34 0-62 28-62 62v125h-125c-35 0-63 28-63 63s28 62 63 62h125v125c0 35 28 63 62 63 35 0 63-28 63-63v-125h125c34 0 62-28 62-62z m268-544c-12-13-28-19-44-19s-32 6-44 19l-161 161c-76-54-169-86-269-86h0c-125 0-243 49-331 138s-138 206-138 331c0 125 49 243 138 331s206 138 331 138 243-49 332-138c88-88 137-206 137-331 0-113-41-218-108-299l157-157c25-24 25-64 0-88z m-518 200c190 0 344 154 344 344 0 92-36 178-101 243-65 65-151 101-243 101-92 0-178-36-243-101-65-65-101-151-101-243 0-92 36-178 101-243 65-65 151-101 243-101" horiz-adv-x="1000" />

<glyph glyph-name="zoom-out-thick" unicode="&#xe811;" d="M716 397c0-35-28-63-62-63h-375c-35 0-63 28-63 63s28 62 63 62h375c34 0 62-28 62-62z m268-544c-12-13-28-19-44-19s-32 6-44 19l-161 161c-76-54-169-86-269-86h0c-125 0-243 49-331 138s-138 206-138 331c0 125 49 243 138 331s206 138 331 138 243-49 332-138c88-88 137-206 137-331 0-113-41-218-108-299l157-157c25-24 25-64 0-88z m-518 200c190 0 344 154 344 344 0 92-36 178-101 243-65 65-151 101-243 101-92 0-178-36-243-101-65-65-101-151-101-243 0-92 36-178 101-243 65-65 151-101 243-101" horiz-adv-x="1000" />

<glyph glyph-name="star-thick" unicode="&#xe812;" d="M500 641l76-166 21-44 49-6 181-22-134-123-36-34 9-48 36-179-159 89-43 24-43-24-159-89 36 179 9 48-36 34-134 123 181 22 49 6 21 44 76 166m0 209l-156-338-370-44 274-253-73-365 325 182 325-182-73 365 274 253-370 44-156 338 0 0z" horiz-adv-x="1000" />

<glyph glyph-name="star-filled-thick" unicode="&#xe813;" d="M500 32l-325-182 73 365-274 253 370 44 156 338 156-338 370-44-274-253 73-365-325 182z" horiz-adv-x="1000" />

<glyph glyph-name="more-thick" unicode="&#xe814;" d="M625 725c0-69-56-125-125-125s-125 56-125 125 56 125 125 125 125-56 125-125z m-125-250c-69 0-125-56-125-125 0-69 56-125 125-125s125 56 125 125c0 69-56 125-125 125z m0-375c-69 0-125-56-125-125s56-125 125-125 125 56 125 125-56 125-125 125z" horiz-adv-x="1000" />

<glyph glyph-name="camera" unicode="&#xe815;" d="M500 116c-116 0-211 94-211 211 0 116 95 211 211 211s211-95 211-211c0-117-95-211-211-211z m0 375c-90 0-164-74-164-164 0-91 74-164 164-164s164 73 164 164c0 90-73 164-164 164z m375 117c-26 0-47-21-47-47 0-26 21-47 47-47s47 21 47 47c0 26-21 47-47 47z m8 94h-524v23c0 13-10 23-23 23h-234c-13 0-24-10-24-23v-30c-45-16-78-60-78-111v-515c0-65 53-117 117-117h766c64 0 117 52 117 117v515c0 65-53 118-117 118z m70-633c0-39-31-71-70-71h-766c-39 0-70 32-70 71v515c0 39 31 71 70 71h766c39 0 70-32 70-71v-515z" horiz-adv-x="1000" />

<glyph glyph-name="color" unicode="&#xe816;" d="M211-41c-56 0-102 46-102 102s46 102 102 102 102-46 102-102-46-102-102-102z m0 157c-30 0-55-25-55-55s25-55 55-55 55 25 55 55-25 55-55 55z m699 132c10 13 17 27 21 43 9 30 4 62-11 89l-78 135c-21 36-60 59-102 59-6 0-12-1-17-2 7 47-15 95-58 120l-135 78c-18 10-38 15-58 15-27 0-53-9-74-25-17 43-59 74-109 74h-156c-65 0-117-52-117-117v-734c0-65 52-117 117-117l734 0c65 0 117 52 117 117v156c0 50-31 92-74 109z m-109 244l78-135c10-17 12-35 7-54s-16-33-32-42l-8-5h0l0 0-440-254v7l95 164 197 340 7 5c11 6 23 9 35 9 25 0 49-13 61-35z m-329 247c12 0 24-4 35-10l135-78c34-19 45-62 26-96l-5-7 0 0 0 0-257-446v594l5 8c12 21 35 35 61 35z m-339-827c-39 0-70 32-70 71v734c0 39 31 71 70 71h156c39 0 70-32 70-71v-734c0-39-31-71-70-71h-156z m805 71c0-39-32-71-71-71l-484 0c0 1 0 1 0 1 7 10 13 20 17 31l237 137 222 128h8c39 0 71-31 71-70v-156z" horiz-adv-x="1000" />

<glyph glyph-name="environment" unicode="&#xe817;" d="M191 373c-6 0-12 4-14 10-3 8 1 17 9 20 20 8 41 15 64 22 8 2 17-3 19-11 2-8-3-17-11-19-21-6-42-13-61-21-2 0-4-1-6-1z m632 10c3 8-1 17-9 21-20 7-42 15-64 21-8 2-17-3-19-11-3-8 2-17 11-19 21-6 42-13 61-21 2 0 4-1 5-1 7 0 13 4 15 10z m177-161c0-137-220-244-500-244-280 0-500 107-500 244 0 275 224 500 500 500s500-225 500-500z m-47 0c0 13-1 26-2 40-12 25-35 50-67 71l0 0c-5 4-11 7-16 10-8 5-10 14-6 22 5 7 14 9 22 5 6-4 13-8 19-12l0 0c4-2 7-5 10-7 1-1 1-1 2-1 4-4 8-7 12-10 0 0 0 0 0 0 5-4 9-8 13-12-48 199-227 347-440 347-213 0-392-148-440-347 0 0 0 0 0 0 0 0 0 0 0 1 1 0 1 0 1 1 4 3 7 6 11 9 0 0 1 1 1 1 3 3 6 5 10 8l0 0c10 7 21 15 33 22 7 4 17 2 21-6 5-7 2-17-5-21-10-6-20-13-29-19l0 0c-25-19-44-40-54-62-1-13-2-27-2-40 0-107 207-197 453-197 246 0 453 90 453 197z m-273 247v-233l-181-87-179 87v233l180 88 180-88z m-205-106l-108 53v-151l108-53v151z m25 40l104 51-104 51-103-51 103-51z m133 13l-111-55v-149l111 53v151z" horiz-adv-x="1000" />

<glyph glyph-name="favorite" unicode="&#xe818;" d="M823-146l-323 180-323-180 73 362-272 251 367 44 155 335 155-335 367-44-271-251 72-362z m-323 234l257-144-58 289 217 200-293 34-123 268-123-268-292-34 216-200-58-289 257 144z" horiz-adv-x="1000" />

<glyph glyph-name="material" unicode="&#xe819;" d="M508 779c233 0 422-190 422-422s-189-422-422-422c-233 0-422 189-422 422s189 422 422 422m0 47c-259 0-469-210-469-469 0-259 210-469 469-469s469 210 469 469c0 259-210 469-469 469l0 0z m-276-306c58 97 164 157 276 157 13 0 23 11 23 24s-10 23-23 23c-129 0-250-69-316-180-6-11-3-26 8-32 4-2 8-3 12-3 8 0 16 4 20 11z" horiz-adv-x="1000" />

<glyph glyph-name="search" unicode="&#xe81a;" d="M708 163c163 109 216 328 117 500-67 116-191 187-325 187-66 0-130-17-187-50-87-50-149-131-175-227s-13-198 37-285c67-116 192-188 325-188 58 0 115 14 167 40l161-279c4-7 12-11 20-11 4 0 8 1 12 3 11 6 15 20 8 32l-160 278z m-492 148c-44 76-55 165-33 249 23 85 77 156 153 200 50 28 107 44 164 44 117 0 226-63 284-165 91-156 37-357-120-448 0 0 0 0 0 0 0 0 0 0 0 0-50-28-106-44-163-44-118 0-227 63-285 164z" horiz-adv-x="1000" />

<glyph glyph-name="arrow-left-thick" unicode="&#xe81b;" d="M719-150c-16 0-32 6-44 18l-438 438c-12 12-18 27-18 44s6 33 18 44l438 438c24 24 64 24 88 0s24-64 0-89l-393-393 393-393c24-25 24-64 0-89-12-12-28-18-44-18z" horiz-adv-x="1000" />

<glyph glyph-name="gift-thick" unicode="&#xe81c;" d="M63-25c0-34 28-63 62-63h313v313h-375v-250z m437-63h313c34 0 62 29 62 63v250h-375v-313z m375 563h-143c48 0 96 18 132 55 73 73 73 192 0 266-73 73-191 72-264-2l-131-131-132 131c-73 74-190 75-264 2-73-74-73-193 0-266 37-37 85-55 132-55h-142c-35 0-63-28-63-62v-63c0-34 28-62 63-62h375v187h62v-187h375c34 0 63 28 63 62v63c0 34-29 62-63 62z m-735 121c-37 37-37 96 0 133 36 37 96 37 133 0l96-96 0 0c6-7 11-16 11-27 0-20-17-37-38-37h-136c-24 0-48 9-66 27z m426 34l99 99c37 37 96 37 133 0 36-37 36-96 0-133-19-18-43-27-66-27h-137c-21 0-37 17-37 38 0 9 3 17 8 23z" horiz-adv-x="1000" />

<glyph glyph-name="tick-thick" unicode="&#xe81d;" d="M391 14c-16 0-32 6-45 18l-328 329c-24 24-24 63 0 88s64 24 89 0l284-284 502 503c25 24 64 24 89 0s24-64 0-89l-547-547c-12-12-28-18-44-18z" horiz-adv-x="1000" />

<glyph glyph-name="texture" unicode="&#xe81e;" d="M914 545v-140h-141v140h141m16 47h-172c-17 0-31-14-31-31v-172c0-17 14-31 31-31h172c17 0 31 14 31 31v172c0 17-14 31-31 31l0 0z m-250-281v-141h-141v141h141m15 47h-172c-17 0-31-14-31-31v-172c0-17 14-32 31-32h172c18 0 32 15 32 32v172c0 17-14 31-32 31l0 0z m219-281v-141h-141v141h141m16 46h-172c-17 0-31-14-31-31v-172c0-17 14-31 31-31h172c17 0 31 14 31 31v172c0 17-14 31-31 31l0 0z m-719 188v-141h-141v141h141m16 47h-172c-17 0-32-14-32-31v-172c0-17 15-32 32-32h172c17 0 31 15 31 32v172c0 17-14 31-31 31l0 0z m453 422v-141h-141v141h141m15 47h-172c-17 0-31-14-31-32v-172c0-17 14-31 31-31h172c18 0 32 14 32 31v172c0 18-14 32-32 32l0 0z m-484-47v-141h-141v141h141m16 47h-172c-17 0-32-14-32-32v-172c0-17 15-31 32-31h172c17 0 31 14 31 31v172c0 18-14 32-31 32l0 0z m218-750v-141h-140v141h140m16 46h-172c-17 0-31-14-31-31v-172c0-17 14-31 31-31h172c17 0 31 14 31 31v172c0 17-14 31-31 31l0 0z m-16 422v-140h-140v140h140m16 47h-172c-17 0-31-14-31-31v-172c0-17 14-31 31-31h172c17 0 31 14 31 31v172c0 17-14 31-31 31l0 0z" horiz-adv-x="1000" />

<glyph glyph-name="error-thick" unicode="&#xe81f;" d="M469 749c17 30 45 30 62 0l188-329c17-30 45-78 62-108l188-329c17-30 3-55-31-55h-375c-35 0-91 0-125 0h-375c-35 0-49 25-32 55l188 329c17 30 45 78 62 108l188 329z m92-258h-125v-250h125v250z m0-313h-125v-125h125v125z" horiz-adv-x="1000" />

<glyph glyph-name="arrow-down" unicode="&#xe820;" d="M72 571c-8-8-8-21 0-29l413-413c8-8 22-8 30 0l413 413c8 8 8 21 0 29s-22 8-30 0l-398-398-398 398c-8 8-22 8-30 0z" horiz-adv-x="1000" />

<glyph glyph-name="arrow-left" unicode="&#xe821;" d="M721-78c-8-8-21-8-29 0l-413 413c-8 8-8 22 0 30l413 413c8 8 21 8 29 0 8-8 8-22 0-30l-398-398 398-398c8-8 8-22 0-30z" horiz-adv-x="1000" />

<glyph glyph-name="arrow-right" unicode="&#xe822;" d="M279-78c8-8 21-8 29 0l413 413c8 8 8 22 0 30l-413 413c-8 8-21 8-29 0-8-8-8-22 0-30l398-398-398-398c-8-8-8-22 0-30z" horiz-adv-x="1000" />

<glyph glyph-name="arrow-up" unicode="&#xe823;" d="M72 129c-8 8-8 21 0 29l413 413c8 8 22 8 30 0l413-413c8-8 8-21 0-29-8-8-22-8-30 0l-398 398-398-398c-8-8-22-8-30 0z" horiz-adv-x="1000" />

<glyph glyph-name="box" unicode="&#xe824;" d="M927 609l-417 240c-6 4-14 4-20 0l-417-240c-6-4-10-11-10-18v-482c0-7 4-14 10-18l417-240c3-2 6-3 10-3s7 1 10 3l417 241c7 3 11 10 11 18v481c0 7-4 14-11 18z m-448-704l-375 216v433l375-216v-433z m21 469l-375 217 375 216 375-216-375-217z m396-252l-375-217v433l375 216v-432z" horiz-adv-x="1000" />

<glyph glyph-name="bug" unicode="&#xe825;" d="M958 329h-146c0 49-2 96-12 138 86 58 138 153 138 258 0 12-10 21-21 21s-21-9-21-21c0-87-41-166-110-217-13 30-32 57-60 78-7 40-23 86-57 123 25 35 39 77 39 120 0 12-9 21-20 21s-21-9-21-21c0-33-11-65-29-92-34 24-79 40-138 40s-104-16-138-40c-18 27-29 59-29 92 0 12-9 21-20 21s-21-9-21-21c0-43 14-85 39-120-33-37-50-83-57-123-28-21-47-48-60-78-69 51-110 130-110 217 0 12-9 21-21 21s-20-9-20-21c0-105 51-200 138-258-11-42-13-89-13-138h-146c-12 0-21-9-21-21s9-20 21-20h146c0-47 8-91 22-132-91-57-147-156-147-264 0-12 9-21 20-21s21 9 21 21c0 91 47 175 122 225 53-109 156-184 274-184s221 75 274 184c76-50 122-134 122-225 0-12 9-21 21-21s21 9 21 21c0 108-57 207-148 264 14 41 23 85 23 132h145c12 0 21 9 21 20s-9 21-21 21z m-458 406c148 0 188-122 188-187 0-56-86-104-188-104-102 0-187 48-187 104 0 65 39 187 187 187z m-271-447c0 101 1 184 45 239 15-67 98-118 205-124v-427c-139 13-250 147-250 312z m292-312v427c107 6 190 57 205 124 44-55 45-138 45-239 0-165-110-299-250-312z" horiz-adv-x="1000" />

<glyph glyph-name="camera-interactions" unicode="&#xe826;" d="M604 663h-500c-57 0-104-47-104-105v-416c0-58 47-104 104-104h500c58 0 104 46 104 104v416c0 58-46 105-104 105z m63-521c0-35-28-63-63-63h-500c-34 0-62 28-62 63v416c0 35 28 63 62 63h500c35 0 63-28 63-63v-416z m83 258v-100l250-250v600l-250-250z m208-250l-166 167v66l166 167v-400z" horiz-adv-x="1000" />

<glyph glyph-name="close-circle-filled" unicode="&#xe827;" d="M500 788c-242 0-437-196-437-438s195-438 437-438 438 196 438 438-196 438-438 438z m174-612c-5-5-12-8-19-8s-14 3-20 8l-135 135-135-135c-6-5-13-8-20-8s-14 3-19 8c-11 11-11 28 0 39l135 135-135 135c-11 11-11 28 0 39 11 11 28 11 39 0l135-135 135 135c11 11 28 11 39 0 11-11 11-28 0-39l-135-135 135-135c11-11 11-28 0-39z" horiz-adv-x="1000" />

<glyph glyph-name="close-circle" unicode="&#xe828;" d="M500 788c-241 0-437-197-437-438s196-438 437-438 438 197 438 438-197 438-438 438z m0-834c-218 0-396 178-396 396 0 218 178 396 396 396 218 0 396-178 396-396 0-218-178-396-396-396z m177 543l-147-147 147-147c8-8 8-22 0-30-4-4-10-6-15-6-5 0-11 2-15 6l-147 148-147-148c-4-4-10-6-15-6s-11 2-15 6c-8 8-8 22 0 30l148 147-148 147c-8 8-8 22 0 30 8 8 22 8 30 0l147-148 147 148c8 8 22 8 30 0 8-8 8-22 0-30z" horiz-adv-x="1000" />

<glyph glyph-name="close" unicode="&#xe829;" d="M824 55l-295 295 295 295c8 8 8 21 0 29-8 8-21 8-29 0l-295-294-295 294c-8 8-21 8-29 0-8-8-8-21 0-29l295-295-295-295c-8-8-8-21 0-29 4-4 9-6 15-6 5 0 10 2 14 6l295 295 295-295c4-4 9-6 14-6 6 0 11 2 15 6 8 8 8 21 0 29z" horiz-adv-x="1000" />

<glyph glyph-name="error" unicode="&#xe82a;" d="M973-32l-455 790c-8 13-29 13-36 0l-459-794c-3-7-3-15 0-21 4-6 11-10 19-10h916c1 0 1 0 1 0 11 0 21 9 21 20 0 6-3 11-7 15z m-896 6l423 732 422-732h-845l0 0z m421 529c12 0 21-9 21-21v-263c0-12-9-21-21-21-11 0-21 9-21 21v263c0 12 10 21 21 21z m0-361c23 0 42-19 42-41 0-24-19-42-42-42-23 0-42 19-42 42 0 22 19 41 42 41z" horiz-adv-x="1000" />

<glyph glyph-name="explode" unicode="&#xe82b;" d="M842 702h-352l-248-250h351l249 250z m-500-208l165 167h235l-166-167h-234z m-113 71l-250-249v-352l209 208v-178h416v417h-375v154z m-208-500v234l167 166v-54-181l-167-165z m542 304v-333h-334v177 156h334z m166-53v-352l250 249v352l-250-249z m209-85l-167-166v234l167 166v-234z" horiz-adv-x="1000" />

<glyph glyph-name="exposure-max" unicode="&#xe82c;" d="M500 146c-113 0-204 91-204 204s91 204 204 204c113 0 204-91 204-204 0-113-91-204-204-204z m0 369c-91 0-164-74-164-165 0-91 73-164 164-164s164 74 164 164c0 91-73 165-164 165z m0 146c-11 0-21 10-21 21v128c0 11 10 20 21 20 11 0 21-9 21-20v-128c0-11-9-21-21-21z m0-791c-11 0-21 9-21 20v128c0 11 10 21 21 21 11 0 21-10 21-21v-128c0-11-9-20-21-20z m314 480c0 11 9 21 21 21h125c11 0 20-9 20-21 0-11-9-21-20-21h-125c-12 0-21 10-21 21z m-794 0c0 11 9 21 21 21h127c11 0 21-9 21-21 0-11-10-21-21-21h-127c-12 0-21 10-21 21z m699 221c-8 8-8 21 0 30l90 90c8 8 22 8 30 0 8-8 8-22 0-30l-90-90c-8-8-22-8-30 0z m-560-560c-8 8-8 22 0 30l91 90c8 8 21 8 29 0 8-8 8-22 0-30l-90-90c-8-8-21-8-30 0z m562 120c8 8 21 8 29 0l91-90c8-9 8-22 0-30s-22-8-30 0l-90 90c-8 8-8 22 0 30z m-560 560c8 8 22 8 30 0l90-91c8-8 8-21 0-29-8-8-22-8-30 0l-90 90c-8 8-8 21 0 30z" horiz-adv-x="1000" />

<glyph glyph-name="exposure-min" unicode="&#xe82d;" d="M500 579c-11 0-21 9-21 20v84c0 11 10 21 21 21 11 0 21-10 21-21v-84c0-11-10-20-21-20z m0-583c-11 0-21 10-21 21v84c0 11 10 21 21 21 11 0 21-10 21-21v-84c0-11-10-21-21-21z m333 334h-83c-11 0-21 9-21 21s10 21 21 21h83c12 0 21-10 21-21s-9-21-21-21z m-583 0h-83c-12 0-21 9-21 21s9 21 21 21h83c12 0 21-10 21-21s-9-21-21-21z m251-125c-81 0-146 65-146 145s65 146 146 146 145-65 145-146-65-145-145-145z m0 253c-60 0-108-48-108-108s48-108 108-108c59 0 108 49 108 108s-49 108-108 108z m161 54c-8 8-8 21 0 29l59 59c8 8 22 8 30 0 8-8 8-21 0-29l-59-59c-8-8-22-8-30 0z m-411-412c-8 8-8 21 0 29l59 59c8 8 21 8 29 0 8-8 8-21 0-29l-59-59c-8-8-21-8-29 0z m469-1l-59 59c-8 8-8 21 0 30 9 8 22 8 30 0l59-59c8-8 8-22 0-30-8-8-22-8-30 0z m-411 412l-59 59c-8 8-8 21 0 29 8 8 21 8 29 0l59-59c8-8 8-21 0-29-8-8-21-8-29 0z" horiz-adv-x="1000" />

<glyph glyph-name="solarstudy-preview" unicode="&#xe82e;" d="M500 719c19 0 31 12 31 31v131c0 19-12 32-31 32-19 0-31-13-31-32v-131c0-19 12-31 31-31z m0-738c-19 0-31-12-31-31v-131c0-19 12-32 31-32 19 0 31 13 31 32v131c0 19-12 31-31 31z m281 619c7 0 19 0 25 6l94 94c13 13 13 31 0 44s-31 12-44 0l-93-94c-13-12-13-31 0-44 0-6 12-6 18-6z m-581-506l-94-94c-12-13-12-31 0-44 7-6 13-6 25-6s19 0 25 6l94 94c13 13 13 31 0 44s-44 12-50 0z m831 287h-131c-19 0-31-12-31-31s12-31 31-31h131c19 0 32 12 32 31s-13 31-32 31z m-900-31c0 19-12 31-31 31h-131c-19 0-32-12-32-31s13-31 32-31h131c19 0 31 12 31 31z m669-256c-12 12-31 12-44 0s-12-31 0-44l94-94c6-6 13-6 25-6s19 0 25 6c13 13 13 31 0 44l-100 94z m-656 656c-13 13-31 13-44 0s-12-31 0-44l94-93c12-13 19-13 25-13s19 0 25 6c12 13 12 32 0 44l-100 100z m531-225c-44 44-106 75-175 75-137 0-250-112-250-250 0-69 25-131 75-175 44-44 106-75 175-75 138 0 250 113 250 250 0 69-31 131-75 175z m-175-362c-50 0-94 18-131 56l0 0 262 262 0 0c38-37 57-81 57-131 0-100-88-187-188-187z" horiz-adv-x="1000" />

<glyph glyph-name="filed-of-view-max" unicode="&#xe82f;" d="M958 746h-562c-12 0-21-9-21-21s9-21 21-21h542v-408c0-12 9-21 20-21s21 9 21 21v429c0 12-9 21-21 21z m-352-750h-543v408c0 11-10 21-21 21s-21-10-21-21v-429c0-12 9-21 21-21h564c11 0 20 9 20 21s-9 21-20 21z m36 375h-121v119c0 11-9 21-21 21s-21-10-21-21v-119h-118c-12 0-21-9-21-21s9-21 21-21h118v-121c0-11 10-21 21-21s21 10 21 21v121h121c12 0 21 10 21 21s-9 21-21 21z" horiz-adv-x="1000" />

<glyph glyph-name="filed-of-view-min" unicode="&#xe830;" d="M875 663h-455c-11 0-21-10-21-21s10-21 21-21h434v-306c0-11 10-21 21-21s21 10 21 21v327c0 11-9 21-21 21z m-295-584h-434v306c0 11-9 20-21 20s-21-9-21-20v-327c0-11 10-20 21-20h455c12 0 21 9 21 20s-9 21-21 21z m55 292h-114v112c0 12-9 21-21 21-11 0-21-9-21-21v-112h-113c-12 0-21-9-21-21s9-21 21-21h113v-115c0-11 10-21 21-21 12 0 21 10 21 21v115h114c11 0 20 10 20 21s-9 21-20 21z" horiz-adv-x="1000" />

<glyph glyph-name="first-person" unicode="&#xe831;" d="M500 652c-57 0-104 47-104 104 0 58 47 104 104 104 58 0 104-46 104-104 0-57-46-104-104-104z m0 167c-34 0-62-28-62-63 0-34 28-62 62-62 35 0 63 28 63 62 0 35-28 63-63 63z m84-979c-35 0-63 28-63 62v292c0 11-9 21-21 21s-21-10-21-21v-292c0-34-28-62-62-62s-63 28-63 62v426l-46-80c-15-28-54-38-82-22-14 8-24 21-28 37-4 15-2 31 6 45l158 274c3 4 6 8 8 10 7 7 13 11 19 14 1 0 4 1 4 2 5 1 11 2 17 3-2 0 1 1 5 1l170 0c2 0 6-1 8-2 4 0 9-1 14-3l-6-20 10 19c6-3 12-7 17-12 0-1 2-2 2-3 2-2 6-5 8-10l158-273c8-14 10-30 6-46-4-15-14-28-28-36-9-5-20-8-30-8l0 0c-22 0-42 11-52 30l-46 79v-425c0-34-28-62-62-62z m-84 416c35 0 63-28 63-62v-292c0-11 9-21 21-21s20 10 20 21v503c0 10 7 18 16 20 9 3 18-1 23-9l85-147c3-6 10-9 16-9l0 0c3 0 6 0 10 2 4 3 7 7 8 11 1 5 1 10-2 14l-157 274c-1 0-4 3-4 3-1 2-3 3-5 4-3 1-4 1-6 1-1 0-5 1-6 1l-167 0c2 0 0-1-2-1-3 0-4 0-5-1-3-1-5-2-6-4l-4-4-158-273c-2-4-3-9-2-14 2-4 5-8 9-11 9-5 21-2 25 7l85 146c5 9 14 13 24 10 9-2 15-10 15-20v-503c0-11 9-21 21-21s21 10 21 21v292c0 34 28 62 62 62z" horiz-adv-x="1000" />

<glyph glyph-name="fit-to-view" unicode="&#xe832;" d="M917 559l-209-1v209l90-90 125 125c8 8 21 8 29 0 8-8 8-21 0-29l-125-125 90-89z m-209-1v-416h-416v416h416z m-41-41h-334v-334h334v334z m160-465l90 90h-209l1-209 89 90 125-125c4-4 9-6 15-6s10 2 14 6c8 8 8 21 0 29l-125 125z m-654 0l-125-125c-8-8-8-21 0-29 4-4 9-6 15-6s10 2 14 6l125 125 90-90v209l-209 0 90-90z m29 625l-125 125c-8 8-21 8-29 0s-8-21 0-29l125-125-90-90h209l0 209-90-90z" horiz-adv-x="1000" />

<glyph glyph-name="focal-length" unicode="&#xe833;" d="M917 658l-10 18-536-310-308 178-11-18c-34-55-52-119-52-184 0-65 18-128 52-184l11-18 308 178 536-310 10 19c54 96 83 205 83 315 0 110-29 219-83 316z m-26-592l-479 276 479 277c44-86 67-181 67-277 0-96-23-191-67-276z m-516 722h42v-125h-42v125z m0-209h42v-125h-42v125z m0-333h42v-125h-42v125z m0-208h42v-126h-42v126z" horiz-adv-x="1000" />

<glyph glyph-name="fullscreen-exit" unicode="&#xe834;" d="M899-20c9-8 9-21 0-29-4-4-9-6-14-6-6 0-11 2-15 6l-189 189-76-77 0 182h182l-76-76 188-189z m-768 768c-8 8-21 8-29 0-8-8-8-21 0-29l189-189-76-76h181v181l-76-76-189 189z m159-579l-189-189c-9-8-9-21 0-30 4-4 9-6 14-6s11 2 15 6l189 189 76-76 0 182-182 0 77-76z m315 286l182 0-76 76 189 189c8 8 8 21 0 30-9 8-22 8-30 0l-189-189-76 76 0-182z" horiz-adv-x="1000" />

<glyph glyph-name="fullscreen" unicode="&#xe835;" d="M381 231c9-8 9-21 0-29l-171-172 76-76-182 0 0 182 76-76 172 171c8 9 21 9 29 0z m267 0c-8 8-21 8-29 0s-8-21 0-29l171-172-76-76h182v182l-76-76-172 171z m-296 238c4-4 9-6 15-6s10 2 14 6c9 8 9 21 0 29l-171 172 76 76h-182v-182l76 76 172-171z m362 277l76-76-171-172c-8-8-8-21 0-29 4-4 9-6 15-6s10 2 14 6l172 171 76-76v182l-182 0z" horiz-adv-x="1000" />

<glyph glyph-name="home" unicode="&#xe836;" d="M964 342l-449 450c-8 8-22 8-30 0l-449-450c-8-8-8-21 0-29 8-8 21-8 30 0l80 80v-470c0-11 9-21 21-21h208c12 0 21 10 21 21v229h208v-229c0-11 10-21 21-21h208c12 0 21 10 21 21v470l81-80c4-4 9-6 14-6 6 0 11 2 15 6 8 8 8 21 0 29z m-151-398h-167v229c0 12-10 21-21 21h-250c-11 0-21-9-21-21v-229h-166v491l312 313 313-313 0-491h0z" horiz-adv-x="1000" />

<glyph glyph-name="image" unicode="&#xe837;" d="M750 374c-80 0-145 65-145 144s65 145 145 145 144-65 144-145-65-144-144-144z m0 249c-58 0-105-47-105-105s47-105 105-105c58 0 105 47 105 105s-47 105-105 105z m-708-586c-5 0-9 2-13 5-9 7-11 20-4 29l344 454c8 10 25 10 33 0l327-432 98 129c8 11 25 11 33 0l115-151c7-9 5-22-4-29s-22-6-29 4l-98 129-98-129c-8-11-26-11-34 0l-327 432-327-432c-4-6-10-9-16-9z" horiz-adv-x="1000" />

<glyph glyph-name="layer" unicode="&#xe838;" d="M500 258c-4 0-7 1-10 3l-459 265c-6 3-10 10-10 18s4 14 10 18l459 264c6 4 14 4 20 0l459-264c6-4 10-11 10-18s-4-15-10-18l-459-265c-3-2-6-3-10-3z m-417 286l417-241 417 241-417 240-417-240z m427-477l459 265c10 6 13 19 7 29-5 10-18 13-28 7l-448-258-448 258c-10 6-23 2-28-8-6-9-3-22 7-28l459-265c3-2 6-2 10-2s7 1 10 2z m0-193l459 264c10 6 13 19 7 29-5 10-18 13-28 7l-448-258-448 258c-10 6-23 3-28-7-6-10-3-23 7-29l459-264c3-2 7-3 10-3s7 1 10 3z" horiz-adv-x="1000" />

<glyph glyph-name="live-review" unicode="&#xe839;" d="M979 71c0 13-5 42-18 58-34 45-79 67-147 74-1 0-3 1-4 3 3 3 8 9 20 21l15 16 0 1c28 37 40 86 40 122 0 72-58 131-130 131-44 0-83-22-107-56-26 16-58 26-98 30-1 0-3 1-4 2 3 4 8 10 20 22l18 18-2 1c27 37 40 85 40 120 0 72-59 131-131 131-72 0-130-59-130-131 0-41 16-100 53-137 9-8 18-18 22-24-1-1-2-2-3-2-35-4-63-12-87-23-23 30-60 49-101 49-72 0-130-58-130-131 0-41 16-99 53-137 8-8 18-18 22-23-1-2-2-3-4-3-69-7-113-29-147-74-13-16-18-44-18-59 0-5 0-52 0-52 0-34 28-62 62-62h323c35 0 63 28 63 62 0 0 0 48 0 53 0 14-6 42-18 58-35 45-79 68-148 74-1 0-2 1-3 3 2 3 8 9 20 22l15 15-1 1c28 37 41 86 41 122 0 16-3 31-8 45 19 9 41 15 70 18 24 3 41 23 41 47 0 6 0 18-35 51-28 28-40 75-40 107 0 50 39 90 88 90 49 0 89-40 89-90 0-31-13-78-41-107l-2-2c-5-5-8-8-12-12l0 0v0c-16-17-21-27-21-37 0-22 16-42 40-46 37-4 65-12 87-27-4-12-6-24-6-37 0-41 16-99 53-137 9-8 18-18 22-23-1-2-2-3-4-3-69-7-113-29-147-74-12-16-18-44-18-59 0-4 0-52 0-52 0-34 28-62 63-62h323c34 0 62 28 62 62 0 0 0 49 0 53z m-686 188l-3-2c-24-25-32-37-32-49 0-22 16-41 39-46 59-6 94-23 121-58 5-6 9-24 9-33 0-3 0-53 0-53 0-11-9-21-21-21h-323c-11 0-20 10-20 21 0 0 0 50 0 52 0 10 4 27 9 34 27 35 61 52 119 58 23 3 41 23 41 46 0 6 0 19-35 51-28 29-41 76-41 108 0 49 40 89 89 89 49 0 89-40 89-89 0-32-13-79-41-108z m645-241c0-11-10-21-21-21h-323c-12 0-21 10-21 21 0 0 0 50 0 52 0 10 4 27 9 34 27 35 62 52 119 58 24 2 41 23 41 46 0 6 0 18-35 51-28 29-40 76-40 108 0 49 39 89 88 89 49 0 89-40 89-89 0-32-13-79-41-107l-3-3c-24-25-32-37-32-49 0-22 16-41 40-46 58-6 93-22 120-58 5-6 10-24 10-33 0-4 0-53 0-53z" horiz-adv-x="1000" />

<glyph glyph-name="measure" unicode="&#xe83a;" d="M21 38h958v291h-958v-291z m42 250h83v-84h42v84h125v-84h41v84h125v-84h42v84h125v-84h42v84h125v-84h41v84h84v-209h-875v209z m0 125h-42v291h42v-291z m916 291v-291h-41v291h41z m-728-294l-147 147 147 147v-128h498v128l147-147-147-147v128h-498v-128z" horiz-adv-x="1000" />

<glyph glyph-name="more" unicode="&#xe83b;" d="M563 642c0-35-28-63-63-63s-62 28-62 63 28 62 62 62 63-28 63-62z m-63-229c-34 0-62-28-62-63s28-62 62-62 63 28 63 62-28 63-63 63z m0-292c-34 0-62-28-62-63s28-62 62-62 63 28 63 62-28 63-63 63z" horiz-adv-x="1000" />

<glyph glyph-name="orbit-constrained" unicode="&#xe83c;" d="M521 99v-207c0-12-9-21-21-21-11 0-21 9-21 21v207c0 12 10 21 21 21 12 0 21-9 21-21z m-21 146c12 0 21 9 21 21v542c0 12-9 21-21 21-11 0-21-9-21-21v-542c0-12 10-21 21-21z m-359 10c-62 23-99 51-99 76 0 48 129 107 346 124 12 1 20 11 20 22-1 11-11 20-23 19-177-13-385-64-385-165 0-31 22-77 127-115 2-1 5-1 7-1 9 0 17 5 20 13 4 11-2 23-13 27z m474 241c-11 1-22-8-22-19-1-11 7-21 19-22 217-17 346-76 346-124 0-53-174-127-458-127-35 0-70 1-104 4l0 124-147-147 147-147 0 128c34-2 69-4 104-4 242 0 500 59 500 169 0 101-207 152-385 165z" horiz-adv-x="1000" />

<glyph glyph-name="orbit-free" unicode="&#xe83d;" d="M1000 350c0-110-258-169-500-169-35 0-70 1-104 4l0-130-147 148 147 147 0-123c34-3 69-4 104-4 284 0 458 74 458 127 0 23-34 58-132 87-12 3-18 15-14 26 3 11 14 17 26 14 106-31 162-75 162-127z m-847-80c-70 23-111 53-111 80 0 50 143 113 375 125 12 1 20 11 20 22-1 12-9 21-22 20-207-11-415-67-415-167 0-47 48-89 139-120 3 0 5-1 7-1 9 0 17 6 20 14 3 11-2 23-13 27z m481-130c-11 2-23-6-24-17-27-159-76-231-110-231-26 0-56 41-80 110-4 11-15 16-26 13-11-4-17-16-13-27 31-90 72-138 119-138 67 0 122 97 151 266 2 11-6 22-17 24z m-268 419c12-2 22 5 24 17 27 160 76 232 110 232 44 0 99-112 119-301l-141 0 147-147 147 147-111 0c-18 165-69 343-161 343-67 0-122-97-151-267-2-12 6-22 17-24z" horiz-adv-x="1000" />

<glyph glyph-name="pan" unicode="&#xe83e;" d="M422-93c-4 0-8 1-11 3-1 1-32 19-64 49-34 32-81 119-95 156-13 34-54 88-86 120l-80 79c-31 32-31 84 0 116 32 32 84 32 116 0l77-78c15-15 31-30 45-44v58l-75 274c-11 42 14 86 56 97 21 6 42 3 60-8 18-10 32-27 37-48l63-240v269c0 46 37 83 83 83 45 0 82-37 82-83v-5c11 34 42 58 79 58 46 0 83-37 83-83v-140l6 19c11 38 50 60 88 49 38-11 60-51 49-89l-78-257c-12-56-53-246-64-268-26-49-55-79-57-80-8-9-21-9-29-1-8 8-8 22 0 30 0 0 26 27 49 71 6 14 36 144 61 258l78 259c4 16-5 32-20 37-16 4-33-5-37-20l-47-156c-4-10-13-16-24-14-10 1-17 10-17 21l0 10v271c0 23-18 41-41 41s-41-18-41-41v-277c0-22-18-39-39-39-22 0-40 17-40 39v307c0 23-19 41-41 41-23 0-41-18-41-41v-309c0-21-17-37-37-37-19 0-34 15-36 33l-16 59-56 214c-3 10-9 18-18 23-8 5-18 6-28 4-20-6-32-26-26-46l75-277c0-1 1-3 1-5v-109c0-9-5-16-13-19-8-4-17-2-23 4 0 0-44 42-80 78l-78 77c-15 16-41 16-56 0-16-15-16-40 0-56l79-79c36-36 80-94 96-135 14-37 59-116 85-141 28-26 56-43 56-43 10-6 13-19 8-28-4-7-11-11-18-11z" horiz-adv-x="1000" />

<glyph glyph-name="plane-x" unicode="&#xe83f;" d="M428 199c6-10 3-23-7-29l-317-182c-3-2-7-3-10-3s-7 1-11 3c-6 3-10 10-10 18l0 481c0 7 4 14 10 18l417 241c6 3 14 3 21 0 6-4 10-11 10-18v-362c0-11-9-21-21-21-11 0-20 10-20 21v325l-375-216 0-433 285 165c10 5 23 2 28-8z m499-193l-54 201-63-110-497 288c-10 6-23 2-29-8-6-10-2-23 8-28l497-288-63-109 201 54z" horiz-adv-x="1000" />

<glyph glyph-name="plane-y" unicode="&#xe840;" d="M938 120c0-8-5-14-11-18l-416-241c-4-2-7-3-11-3s-7 1-10 3l-417 241c-6 4-10 10-10 18 0 7 4 14 10 18l313 181c10 6 23 2 29-8 5-10 2-23-8-28l-282-163 375-217 375 217-285 165c-10 5-13 18-8 28 6 10 19 13 29 8l316-183c6-4 11-11 11-18z m-459 0c0-11 10-21 21-21s21 10 21 21v574h127l-148 148-147-148h126v-574z" horiz-adv-x="1000" />

<glyph glyph-name="plane-z" unicode="&#xe841;" d="M927 487v-481c0-8-4-15-10-18-3-2-7-3-11-3s-7 1-10 3l-313 180c-10 6-14 19-8 29 6 10 19 13 29 8l281-163v433l-375 216v-329c0-11-9-21-20-21s-21 10-21 21v365c0 8 4 15 10 18 7 4 15 4 21 0l417-240c6-4 10-11 10-18z m-219-139c10 6 14 19 8 29-6 10-19 13-29 8l-497-288-63 110-54-201 201-54-63 109 497 287z" horiz-adv-x="1000" />

<glyph glyph-name="plus" unicode="&#xe842;" d="M917 329h-396v-396c0-11-9-21-21-21s-21 10-21 21v396h-396c-11 0-20 10-20 21s9 21 20 21h396v396c0 11 10 21 21 21s21-10 21-21v-396h396c11 0 21-9 21-21s-10-21-21-21z" horiz-adv-x="1000" />

<glyph glyph-name="properties" unicode="&#xe843;" d="M917 788h-834c-11 0-20-10-20-21v-834c0-11 9-21 20-21h834c11 0 21 10 21 21v834c0 11-10 21-21 21z m-21-834h-792v625h792v-625z m0 667h-792v125h792v-125z m-500-354c0 11 9 21 21 21h375c11 0 21-10 21-21s-10-21-21-21h-375c-12 0-21 9-21 21z m0 166c0 12 9 21 21 21h375c11 0 21-9 21-21s-10-20-21-20h-375c-12 0-21 9-21 20z m0-333c0 12 9 21 21 21h375c11 0 21-9 21-21s-10-21-21-21h-375c-12 0-21 10-21 21z m-208 167c0 11 9 21 20 21h84c11 0 21-10 21-21s-10-21-21-21h-84c-11 0-20 9-20 21z m0 166c0 12 9 21 20 21h84c11 0 21-9 21-21s-10-20-21-20h-84c-11 0-20 9-20 20z m0-333c0 12 9 21 20 21h84c11 0 21-9 21-21s-10-21-21-21h-84c-11 0-20 10-20 21z" horiz-adv-x="1000" />

<glyph glyph-name="reset" unicode="&#xe844;" d="M104 350c0-11-9-21-21-21s-20 10-20 21c0 241 196 438 437 438 117 0 227-47 309-129l87 87 0-208-208 0 92 92c-74 74-174 116-280 116-218 0-396-178-396-396z m813 21c-12 0-21-9-21-21 0-218-178-396-396-396-106 0-206 42-280 116l93 93h-209l0-209 87 87c81-82 192-129 309-129 241 0 438 197 438 438 0 12-10 21-21 21z" horiz-adv-x="1000" />

<glyph glyph-name="roll" unicode="&#xe845;" d="M500 788c-118 0-227-47-309-129l-87 87 0-208 209 0-93 92c74 74 173 116 280 116 218 0 396-178 396-396 0-218-178-396-396-396-143 0-276 78-346 203-5 10-18 14-28 8-10-5-14-18-8-28 77-139 224-225 382-225 241 0 438 197 438 438s-197 438-438 438z m0-334c58 0 104-46 104-104s-46-104-104-104-104 47-104 104 47 104 104 104z" horiz-adv-x="1000" />

<glyph glyph-name="screen" unicode="&#xe846;" d="M979 79h-958v625h958v-625z m-916 42h875v542h-875v-542z m666-83h-458v-42h458v42z" horiz-adv-x="1000" />

<glyph glyph-name="section-analysis" unicode="&#xe847;" d="M240 236l250-145c3-1 6-2 10-2s7 1 10 2c7 4 11 11 11 19v288c0 8-4 15-11 18l-250 145c-6 3-14 3-20 0s-11-11-11-19v-288c0-8 4-14 11-18z m31 270l208-120v-95l-91 53c-10 6-23 2-28-8-6-10-3-22 7-28l112-65v-97l-208 120v240z m614 127l-333 192c-6 4-14 4-21 0l-239-138-157 90c-6 4-14 4-20 0-7-4-11-11-11-18v-577c0-8 4-15 11-18l500-289c3-2 6-3 10-3s7 1 10 3c7 4 11 10 11 18v180l239 139c7 3 11 10 11 18v385c0 7-4 14-11 18z m-281-704l-458 265v529l458-265v-529z m-271 734l209 120 312-180v-167l-208-121v155c0 8-4 15-11 18l-302 175z m313-541v145l208 121v-146l-208-120z" horiz-adv-x="1000" />

<glyph glyph-name="settings" unicode="&#xe848;" d="M563-129h-125c-23 0-42 18-42 41v100c-21 6-42 15-61 25l-71-70c-15-16-43-16-59 0l-88 88c-8 8-12 19-12 30 0 11 4 21 12 29l70 71c-10 19-19 40-25 61h-99c-23 0-42 19-42 42v125c0 23 19 41 42 41h99c6 21 15 42 25 62l-70 70c-8 8-12 18-12 29 0 11 4 22 12 30l88 88c16 16 44 16 59 0l71-70c19 10 40 19 61 25v100c0 23 19 41 42 41h125c23 0 41-18 41-41v-100c21-6 42-15 62-25l70 70c16 16 43 16 59 0l88-88c8-8 12-19 12-30 0-11-4-21-12-29l-70-70c10-20 19-41 25-62h100c23 0 41-18 41-41v-125c0-23-18-42-41-42h-100c-6-21-15-42-25-61l70-71c8-8 12-18 12-29 0-11-4-22-12-30l-88-88c-16-16-43-16-59 0l-70 70c-20-10-41-18-62-25v-100c0-23-18-41-41-41z m0 41v-20 20l0 0z m-232 172c4 0 7-1 11-3 25-15 52-26 80-33 9-3 16-11 16-20v-116h125v116c0 9 6 18 15 20 29 7 55 18 81 33 8 5 18 4 25-3l81-82 89 89-82 81c-6 7-8 17-3 26 15 25 26 52 33 80 3 9 11 16 20 16h116v125h-116c-9 0-17 6-20 15-7 28-18 55-33 81-5 8-3 18 3 25l82 81-89 89-81-82c-7-6-17-8-25-3-26 15-52 26-81 33-9 3-15 11-15 20v116h-125v-116c0-9-7-17-16-20-28-7-55-18-80-33-9-5-19-3-26 3l-81 82-88-89 81-81c7-7 8-17 3-25-15-26-26-53-33-81-3-9-11-15-20-15h-115v-125h115c9 0 18-7 20-16 7-28 18-55 33-80 5-9 4-19-3-26l-81-81 88-89 81 82c4 4 10 6 15 6z m169 120c-80 0-146 66-146 146 0 80 66 146 146 146 81 0 146-66 146-146 0-80-65-146-146-146z m0 250c-57 0-104-46-104-104s47-104 104-104c58 0 104 47 104 104s-46 104-104 104z" horiz-adv-x="1000" />

<glyph glyph-name="star-filled" unicode="&#xe849;" d="M796-126c-3 0-7 1-10 3l-286 160-286-160c-7-4-16-4-22 1-7 5-10 13-9 21l64 321-240 223c-6 5-9 14-6 22s9 13 17 14l326 38 137 298c7 15 31 15 38 0l137-298 326-38c8-1 14-7 17-14 3-8 0-17-6-22l-240-223 63-316c1-2 2-6 2-9 0-12-9-21-21-21 0 0 0 0-1 0z" horiz-adv-x="1000" />

<glyph glyph-name="star" unicode="&#xe84a;" d="M796-126c-3 0-7 1-10 3l-286 160-286-160c-7-4-16-4-22 1-7 5-10 13-8 21l63 321-240 223c-6 5-9 14-6 22s9 13 17 14l326 38 137 298c7 15 31 15 38 0l137-298 326-38c8-1 14-7 17-14s0-17-6-22l-240-223 63-316c1-2 2-6 2-9 0-12-9-21-21-21 0 0-1 0-1 0z m-296 208c4 0 7-1 10-3l257-144-57 289c-2 7 1 14 6 19l216 200-292 35c-7 0-14 5-17 12l-123 267-123-268c-3-6-9-11-17-12l-292-34 216-200c6-5 8-12 6-19l-57-289 257 144c3 2 7 3 10 3z" horiz-adv-x="1000" />

<glyph glyph-name="structure" unicode="&#xe84b;" d="M771 204v125h-250v84h167v375h-375v-375h166v-84h-250v-125h-125v-292h292v292h-125v84h460v-84h-127v-292h292v292h-125z m-417 542h292v-292h-292v292z m0-792h-208v209h208v-209z m500 0h-208v209h208v-209z" horiz-adv-x="1000" />

<glyph glyph-name="tick" unicode="&#xe84c;" d="M391 56c-6 0-11 2-15 6l-328 328c-8 8-8 21 0 29s21 9 29 0l314-313 532 532c8 8 21 8 29 0s8-21 0-29l-547-547c-4-4-9-6-14-6z" horiz-adv-x="1000" />

<glyph glyph-name="turn-ccw" unicode="&#xe84d;" d="M438 158v-116l134 134-134 134v-110c-197 15-355 104-355 207 0 113 191 209 417 209s417-96 417-209c0-68-67-132-179-172-11-4-17-16-13-26 4-11 16-17 27-13 129 46 206 125 206 211 0 141-201 251-458 251-257 0-458-110-458-251 0-130 170-233 396-249z" horiz-adv-x="1000" />

<glyph glyph-name="turn-cw" unicode="&#xe84e;" d="M562 158v-116l-134 134 134 134v-110c198 15 355 104 355 207 0 113-191 209-417 209s-417-96-417-209c0-68 67-132 179-172 11-4 17-16 13-26-4-11-16-17-27-13-129 46-206 125-206 211 0 141 201 251 458 251 257 0 458-110 458-251 0-130-169-233-396-249z" horiz-adv-x="1000" />

<glyph glyph-name="turntable" unicode="&#xe84f;" d="M981 218c0-74-117-135-311-161-1 0-2 0-3 0-10 0-19 7-21 18-1 11 7 22 18 23 181 25 275 79 275 121 0 31-52 65-135 91-11 3-17 15-14 26 4 11 15 17 26 13 108-32 165-77 165-131z m-460-45l210 122v284l-210-122v-284z m-42 285l-210 121v-284l210-122v-81c-242 6-418 72-418 131 0 32 55 68 144 94 11 3 18 14 15 25-4 12-15 18-26 15-114-33-174-79-174-134 0-107 229-167 459-173v-83l104 105-104 104 0 282 0 0z m239 155l-218 120-218-120 218-120 218 120z" horiz-adv-x="1000" />

<glyph glyph-name="walk" unicode="&#xe850;" d="M239 131l-7 4c-4 2-98 60-115 156-13 76-6 151 20 213 27 64 72 106 124 115 47 8 95-18 134-71 51-68 76-166 58-227-24-82-33-143-33-144l-3-14-178-32z m39 448c-3 0-7-1-10-1-38-7-71-40-93-90-23-54-29-122-17-190 12-64 70-110 90-123l133 23c4 24 14 73 32 135 15 49-8 132-51 190-27 36-57 56-84 56z m67-708c-74 0-111 59-113 114-2 42 4 90 4 92l2 16 185 33 8-13c1-2 30-52 37-89 4-20 6-51-5-81-9-26-33-59-90-70-10-1-19-2-28-2z m-69 186c-1-17-3-45-2-70 0-8 7-88 92-73 30 6 49 20 58 44 8 21 5 46 3 59-3 19-16 45-25 62l-126-22z m500 286l-180 20-3 14c0 1-13 61-43 142-23 63-3 165 48 238 35 51 79 77 124 72 52-6 100-44 131-106 30-60 42-135 34-212-11-96-100-160-104-163l-7-5z m-146 58l135-15c18 15 74 65 81 130 7 68-4 135-30 188-25 49-61 79-99 83-38 5-71-33-86-54-42-61-61-150-42-200 22-60 36-109 41-132z m49-325l0 0c-6 0-12 1-19 1-74 8-114 62-105 144 4 38 30 89 31 92l7 13 187-21 3-15c0-2 9-50 10-91 1-13-1-58-33-91-20-21-48-32-81-32z m-62 205c-7-18-18-45-20-64-5-41 3-91 68-98 4-1 9-1 14-1l0 0c22 0 39 6 52 19 16 17 21 42 21 60-1 25-5 53-8 70l-127 14z" horiz-adv-x="1000" />

<glyph glyph-name="zoom" unicode="&#xe851;" d="M959 413h-317c-10 162-145 290-310 290-172 0-311-140-311-312 0-172 139-311 311-311 45 0 89 10 128 27l130-226c4-7 11-10 18-10 4 0 7 1 10 2 10 6 14 19 8 29l-130 225c83 51 140 141 147 244h317c11 0 20 9 20 21-1 11-9 21-21 21z m-626-294c-149 0-271 122-271 271 0 150 122 272 271 272 150 0 271-122 271-272 0-149-121-271-271-271z m272 523c0 11 9 21 20 21h146v145c0 12 10 21 21 21s21-9 21-21v-145h146c11 0 21-10 21-21 0-12-10-21-21-21h-146v-146c0-11-9-21-21-21s-21 10-21 21v146h-146c-11 0-20 9-20 21z" horiz-adv-x="1000" />

<glyph glyph-name="material-document" unicode="&#xe852;" d="M371 400c0-13-11-24-24-24-76 0-147-41-186-106-5-8-13-12-21-12-4 0-8 1-12 4-11 6-14 21-8 32 48 80 135 129 227 129 13 0 24-10 24-23z m629-472h-460c-57-49-131-78-212-78-181 0-328 147-328 328 0 171 130 311 297 327v345h427l276-275v-647z m-266 641h206l-206 204v-204z m-406-672c155 0 281 126 281 281 0 155-126 281-281 281-155 0-281-126-281-281 0-155 126-281 281-281z m625 625h-265v281h-344v-297c174-9 312-152 312-328 0-77-26-147-70-203h367v547z" horiz-adv-x="1000" />

<glyph glyph-name="cloud-render-thick" unicode="&#xe853;" d="M339 163h-97c0 0-28 35-51 78v0c0 0-54 77-73 171s-18 95-18 95-13 45-39 84c-23 35-45 48-45 48h89l101-125c25 68 50 124 50 124s9 9 80 24c72 14 106 20 106 20l-12 106h45 46l-13-106c0 0 35-6 107-20 71-15 80-24 80-24s5-11 12-28c19 4 82 16 144 16 40 0 97-5 122-47 19-32 14-75-15-130-22-40-52-76-83-106-15 15-32 27-51 37 30 28 59 61 79 98 25 48 19 65 16 69-3 5-15 16-68 16-47 0-96-8-120-12 17-46 36-102 47-151-24 7-49 13-75 13-91 0-173-50-217-128-68-11-124-59-147-122z m540-65c7 20 12 42 12 65 0 103-84 187-188 187-82 0-151-53-176-126-4 0-8 1-11 1-69 0-125-56-125-125 0-2 0-4 0-6-10 4-20 6-32 6-51 0-93-42-93-94s42-94 93-94c48 0 455 0 500 0 52 0 94 42 94 94 0 45-32 83-74 92z" horiz-adv-x="1000" />

<glyph glyph-name="game-controller" unicode="&#xe854;" d="M825-25c-68 0-141 49-199 135l-8 12c-12 14-31 23-51 23h-134c-20 0-39-9-51-24l-8-11c-69-101-158-151-235-130-39 10-72 38-97 79-48 83-55 217-19 349 50 184 168 317 282 317 12 0 24-1 35-5 33-8 55-29 80-54 19-19 46-29 80-29 34 0 61 10 81 29 24 25 46 46 79 54 11 4 23 5 35 5 114 0 233-133 282-317 36-132 29-265-19-349-24-41-58-69-97-79-12-4-24-5-36-5z m-392 212h134c33 0 63-15 84-40l9-14c58-84 131-128 190-113 29 8 53 28 72 60 42 74 48 195 15 317-44 163-148 286-242 286-8 0-17-1-25-3-22-6-38-22-60-43-28-28-66-42-110-42h0c-44 0-82 14-110 42-22 21-38 37-60 43-8 2-17 3-25 3-94 0-198-123-242-286-33-122-27-243 15-317 19-32 43-53 72-60 59-16 132 29 190 113l8 13c22 26 52 41 85 41z m-16 246h-84v84h-83v-84h-83v-83h83v-83h83v83h84v83z m332 84c-23-1-41-20-41-43s20-41 43-41 41 20 41 43c-1 23-20 41-43 41z m-82-125c-23 0-42-19-42-42s19-42 42-42 41 19 41 42-18 42-41 42z" horiz-adv-x="1000" />

<glyph glyph-name="clock-thick" unicode="&#xe855;" d="M540 311c-22-22-58-22-80 0s-195 274-195 274 253-173 275-195c21-22 21-57 0-79z m460 39c0 276-224 500-500 500-17 0-31-14-31-31v-139c0-17 14-31 31-31s31 14 31 31v106c227-16 407-205 407-436 0-241-197-438-438-438s-437 197-437 438c0 117 45 227 127 309 13 13 13 32 0 44-12 13-32 13-44 0-94-94-146-220-146-353 0-276 224-500 500-500s500 224 500 500z" horiz-adv-x="1000" />

<glyph glyph-name="clock" unicode="&#xe856;" d="M535 315c-19-20-51-20-71 0s-173 244-173 244 225-154 244-173c20-20 20-52 0-71z m403 35c0 241-197 438-438 438-11 0-21-10-21-21v-124c0-11 10-20 21-20s21 9 21 20v102c209-11 375-184 375-395 0-218-178-396-396-396s-396 178-396 396c0 106 41 205 116 280 8 8 8 21 0 29-8 8-21 8-29 0-83-82-128-192-128-309 0-241 196-438 437-438s438 197 438 438z" horiz-adv-x="1000" />

<glyph glyph-name="settings-render" unicode="&#xe857;" d="M415 183v-41h-129-20l-13 15c-1 2-28 35-51 77-10 14-57 87-75 174l-18 89c0 0-3 12-17 40-17 31-44 71-44 71l-46 66h80 73 20l12-16 53-65c12 30 21 50 22 52l3 6 5 5c6 7 17 18 98 34 27 5 48 9 64 13l-8 59-6 46h48 44 44 47l-6-46-7-59c16-4 37-8 63-13 81-16 92-27 98-33l5-6 4-6c1-4 5-12 9-22 24 3 52 5 80 5 42 0 101-5 128-50 30-51-4-113-15-134-9-15-18-29-29-43l-6 6c-8 8-18 13-29 17 10 13 19 26 27 40 58 106-9 123-76 123-22 0-43-2-63-4 11-26 40-115 40-115l-44 4-56 144-4 11c0 0-9 8-77 22s-102 20-102 20l13 98h-44-44l12-98c0 0-33-6-102-20-68-14-76-22-76-22s-25-52-48-116l-97 121h-73c0 0 29-41 47-76 19-37 21-51 21-51s0 0 18-88c18-88 69-161 69-161v0c22-40 49-73 49-73h129z m379-259v47c7 3 15 6 22 9l33-33c12-12 35-12 46 0l48 48c13 13 13 33 0 46l-33 33c3 7 6 15 9 22h47c18 0 32 15 32 32v69c0 17-14 32-32 32h-47c-3 7-6 15-9 22l33 33c6 6 10 14 10 23 0 9-4 17-10 23l-48 48c-12 12-34 12-46 0l-33-33c-7 3-15 6-22 9v47c0 18-15 32-32 32h-68c-18 0-33-14-33-32v-47c-7-3-15-6-22-9l-33 33c-13 12-34 12-46 0l-48-48c-13-13-12-33 0-46l33-33c-3-7-6-15-9-22h-47c-18 0-32-15-32-32v-69c0-17 14-32 32-32h47c3-7 6-15 9-22l-33-33c-12-13-13-33 0-46l48-48c12-12 33-12 46 0l33 33c7-3 15-6 22-9v-47c0-18 15-32 33-32h68c17 0 32 14 32 32z m-91 63c0 9-6 18-16 20-14 4-28 9-41 17-8 5-19 3-25-3l-38-38-35 35 38 38c7 6 8 17 3 25-8 13-13 27-17 41-2 9-11 16-20 16h-53v49h53c9 0 18 7 20 16 4 14 9 28 17 41 5 8 4 19-3 25l-38 38 35 35 38-38c6-6 17-8 25-3 13 8 27 13 41 17 10 3 16 11 16 20v54h49v-54c0-9 7-17 16-20 14-3 28-9 41-17 8-5 19-3 25 3l38 38 35-35-38-37c-6-7-8-18-3-26 8-13 14-27 17-41 3-9 11-16 20-16h54v-49h-54c-9 0-17-7-20-16-3-14-9-28-17-41-5-8-3-19 3-25l38-38-35-35-38 38c-6 7-17 8-25 3-13-8-27-13-41-17-9-2-16-11-16-20v-54h-49v54z m114 176c0 49-40 89-89 89-49 0-89-40-89-89 0-50 40-89 89-89 49 0 89 39 89 89z m-42 0c0-27-21-48-47-48-26 0-48 21-48 48s22 47 48 47c26 0 47-21 47-47z" horiz-adv-x="1000" />

<glyph glyph-name="dropper" unicode="&#xe858;" d="M802 466l134 134c53 53 53 139 0 192-53 53-140 53-193 0l-133-133c-25 15-59 11-81-10l-23-24c-27-27-27-70 0-96l4-5-404-405c-25-24-28-49-31-68-2-20-5-37-27-59l-51-51 88-88 51 51c22 22 39 24 58 27 20 3 44 7 69 31l405 405 2-3c27-26 70-26 96 0l24 24c21 21 25 53 12 78z m101 293c34-35 34-91 0-126l-131-131-126 126 130 131c35 35 92 35 127 0z m-673-764c-14-13-25-15-42-17-24-4-52-8-86-41l-17-17-21 21 17 18c33 33 37 62 41 85 2 18 4 29 17 42l405 405 90-91-404-405z m503 402c-8-8-21-8-30 0l-164 165c-8 8-8 21 0 30l23 23c9 8 22 8 30 0l165-164c8-9 8-22 0-30l-24-24z" horiz-adv-x="1000" />

<glyph glyph-name="offline-thick" unicode="&#xe859;" d="M809 85l-454 454c3 0 6 1 9 1 5 0 10-2 16-2 37 107 137 184 256 184 151 0 273-123 273-273 0-33-7-65-18-94 62-13 109-68 109-134 0-75-61-136-136-136-9 0-29 0-55 0z m-627 273c0-3 1-6 1-9-15 5-30 9-47 9-75 0-136-61-136-137 0-75 61-136 136-136 51 0 386 0 585 0l-436 436c-61-29-103-91-103-163z m-129 483c-12 12-32 12-44 0s-12-32 0-44l276-276c21 10 45 17 70 18l-302 302z m756-756c-24 0-54 0-88 0l226-226c6-6 14-9 22-9s16 3 22 9c12 12 12 32 0 44l-182 182z" horiz-adv-x="1000" />

<glyph glyph-name="upload-thick" unicode="&#xe85a;" d="M892 339c10 29 17 60 17 93 0 151-122 273-273 273-119 0-219-77-256-183-6 0-11 1-16 1-101 0-182-81-182-182 0-2 1-5 1-8-15 5-30 8-47 8-75 0-136-61-136-136 0-75 61-136 136-136 30 0 160 0 302 0v140h-128l188 250 188-250h-123v-140c142 0 272 0 301 0 75 0 136 61 136 136 0 66-47 121-108 134z" horiz-adv-x="1000" />

<glyph glyph-name="progress-thick" unicode="&#xe85b;" d="M500-150c-134 0-259 52-354 146-12 13-12 32 0 45s32 12 45 0c82-83 192-129 309-129 241 0 438 197 438 438s-197 438-438 438c-17 0-31 14-31 31s14 31 31 31c276 0 500-224 500-500s-224-500-500-500z" horiz-adv-x="1000" />

<glyph glyph-name="fullscreen-thick" unicode="&#xe85c;" d="M241 670l117 118h-295v-296l117 118 200-200c8-9 19-13 30-13s22 4 30 13c17 16 17 44 0 60l-199 200z m379-380c-16 17-44 17-60 0-17-16-17-44 0-60l199-200-117-117h296v295l-118-117-200 199z m-240 1l-200-200-117 117v-295h295l-117 117 199 200c17 17 17 44 0 61-17 16-44 16-60 0z m262 497l118-118-200-200c-17-16-17-43 0-60 8-9 19-13 30-13 11 0 22 4 31 13l199 200 118-118v296h-296l0 0z" horiz-adv-x="1000" />

<glyph glyph-name="exit-fullscreen-thick" unicode="&#xe85d;" d="M144 766c-16 17-43 17-60 0-17-17-17-44 0-60l150-150-119-118h295v294l-116-116-150 150z m618-617l117 116h-294v-294l116 117 155-154c8-8 19-13 30-13 11 0 22 5 30 13 17 17 17 44 0 60l-154 155z m2 404l152 153c17 16 17 43 0 60-17 17-44 17-61 0l-152-153-118 119v-294h294l-115 115z m-529-407l-151-152c-17-16-17-44 0-60 9-8 19-13 30-13 11 0 22 5 31 13l151 151 114-114v294h-295l120-119z" horiz-adv-x="1000" />

<glyph glyph-name="plus-thick" unicode="&#xe85e;" d="M923 235h-308v-308h-230v308h-308v230h308v308h230v-308h308v-230z" horiz-adv-x="1000" />

<glyph glyph-name="minus-medium" unicode="&#xe85f;" d="M895 393h-790c-23 0-42-20-42-43s19-43 42-43h790c23 0 42 19 42 43s-19 43-42 43z" horiz-adv-x="1000" />

<glyph glyph-name="info-nocircle" unicode="&#xe860;" d="M500 509c-23 0-43-20-43-43v-570c0-24 20-43 43-43 24 0 43 19 43 43v570c0 23-20 43-43 43z m0 338c-47 0-85-38-85-86 0-46 38-85 85-85 47 0 86 39 86 85-1 48-39 86-86 86z" horiz-adv-x="1000" />

<glyph glyph-name="plus-medium" unicode="&#xe861;" d="M895 393h-352v352c0 23-19 42-43 42-24 0-43-19-43-42v-352h-352c-23 0-42-20-42-43s19-43 42-43h352v-352c0-23 20-42 43-42 24 0 43 19 43 42v352h352c23 0 43 19 43 43s-20 43-43 43z" horiz-adv-x="1000" />

<glyph glyph-name="help" unicode="&#xe862;" d="M505 26c-48 0-86-38-86-85 0-47 38-86 86-86 47 0 85 39 85 86 0 47-38 85-85 85z m1 92c-1 0-1 0-1 0-26 1-47 22-46 48 2 128 76 197 135 253 50 46 89 83 93 144 4 57-8 102-36 133-49 53-133 55-134 55-65 0-115-18-150-54-56-58-55-147-55-148 1-25-19-47-45-48-25-2-48 20-49 45 0 6-3 129 82 217 53 54 126 82 218 82 5 0 124-1 201-85 47-51 68-120 62-204-8-98-69-155-122-205-57-53-105-98-107-187 0-25-21-46-46-46z" horiz-adv-x="1000" />

<glyph glyph-name="help-thick" unicode="&#xe863;" d="M502 851c-276 0-500-224-500-500 0-276 224-500 500-500 277 0 500 224 500 500 0 276-223 500-500 500z m-208-303c11 28 26 51 45 72 19 19 42 35 69 46 28 12 58 17 92 17 43 0 79-6 108-17 29-12 53-27 70-45s31-36 39-57c7-20 11-39 11-57 0-29-4-53-12-72-7-19-17-35-28-48-11-13-24-25-38-34-13-10-26-19-38-28-13-10-23-21-33-33-9-12-15-27-18-45v-35h-124v41c2 26 7 48 16 66 8 17 17 32 28 45 11 12 23 23 35 32 12 9 24 18 34 27 11 10 19 20 25 30 7 11 10 25 9 42 0 28-7 48-21 62-13 13-32 20-57 20-16 0-31-4-43-10-11-6-21-15-29-25s-13-24-17-38-5-30-5-46h-135c1 33 6 63 17 90z m274-391v-140h-143v140h143z" horiz-adv-x="1000" />

<glyph glyph-name="date-thick" unicode="&#xe864;" d="M469 319h250v-250h-250v250z m312 375v125h-125v-125h-312v125h-125v-125h-125v-813h812v813h-125z m63-750h-688v562h688v-562z" horiz-adv-x="1000" />

<glyph glyph-name="time-thick" unicode="&#xe865;" d="M500-119c-258 0-469 211-469 469s211 469 469 469 469-210 469-469-210-469-469-469z m0 875c-224 0-406-182-406-406s182-406 406-406 406 182 406 406-182 406-406 406z m175-540l-144 147v206h-62v-232l161-165 45 44z" horiz-adv-x="1000" />

<glyph glyph-name="tick-circle-small" unicode="&#xe866;" d="M457 154c-6 0-12 3-16 7l-163 163c-8 8-8 22 0 31s22 8 31 0l148-148 256 256c8 9 22 9 31 0s8-22 0-31l-272-271c-4-4-10-7-15-7z m43-152c-192 0-348 156-348 348s156 348 348 348 348-156 348-348-156-348-348-348z m0 652c-168 0-304-136-304-304s136-304 304-304 304 136 304 304-136 304-304 304z" horiz-adv-x="1000" />

<glyph glyph-name="tick-circle" unicode="&#xe867;" d="M438 143c-6 0-11 2-15 6l-188 188c-8 8-8 21 0 29 8 8 22 8 30 0l173-173 297 298c8 8 22 8 30 0 8-8 8-21 0-29l-313-313c-4-4-9-6-14-6z m62-231c-241 0-437 197-437 438s196 438 437 438c241 0 438-197 438-438s-197-438-438-438z m0 834c-218 0-396-178-396-396 0-218 178-396 396-396 218 0 396 178 396 396 0 218-178 396-396 396z" horiz-adv-x="1000" />

<glyph glyph-name="info" unicode="&#xe868;" d="M500-88c-241 0-437 197-437 438s196 438 437 438 438-197 438-438-197-438-438-438z m0 834c-218 0-396-178-396-396 0-218 178-396 396-396 218 0 396 178 396 396 0 218-178 396-396 396z m0-627c-11 0-21 9-21 21v254c0 11 10 21 21 21s21-10 21-21v-254c0-12-9-21-21-21z m42 398c0-23-19-42-42-42-23 0-42 19-42 42 0 23 19 41 42 41 23 0 42-18 42-41z" horiz-adv-x="1000" />

<glyph glyph-name="illuminance" unicode="&#xe869;" d="M779 114l111 111-222 0-208 210c-13 12-32 12-45 0-12-13-12-32 0-45l210-210 0-220 110 110 180-181c7-6 15-9 23-9 8 0 16 3 22 9 12 12 12 32 0 44l-181 181z m-295 397l344-188c5-3 10-4 16-4 5 0 10 1 15 4 10 5 16 16 16 27v313l125 0-157 187-155-187 125 0v-258l-297 159c-15 9-34 4-43-10-9-15-4-34 11-43z m-145-145c-8 15-28 20-42 11-15-9-20-28-11-43l157-296-256-1 1 126-188-157 187-156 0 125 311 0c11 0 22 6 27 16 6 10 6 22 0 31l-186 344z m-271 274l12-227c0 0 3-25 11-33 33-33 144 25 249 130 105 105 163 216 130 249-8 8-33 11-33 11l-227 12-38 39c-40 39-103 39-143 0-39-40-39-103 0-142l39-39z m171-29c126 126 181 117 181 117s8-55-117-181c-131-130-181-117-181-117s-13 51 117 181z" horiz-adv-x="1000" />

<glyph glyph-name="panorama" unicode="&#xe86a;" d="M500 534c-202 0-382 38-500 97v-562c118 59 298 97 500 97s382-38 500-97v562c-118-59-298-97-500-97z" horiz-adv-x="1000" />

<glyph glyph-name="stereo-panorama" unicode="&#xe86b;" d="M1000 585v-470c0-25-21-46-46-46h-175-17c-146 0-149 227-262 230-113 4-113-230-261-230h-18-174c-26 0-47 21-47 46v470c0 26 21 46 47 46h907c25 0 46-20 46-46z m-219-141c-51 0-93-42-93-94 0-52 42-94 93-94s94 42 94 94c0 52-42 94-94 94z m-562 0c-52 0-94-42-94-94 0-52 42-94 94-94s94 42 94 94c0 52-42 94-94 94z" horiz-adv-x="1000" />

<glyph glyph-name="solar-study" unicode="&#xe86c;" d="M748 350c0-137-111-248-248-248s-248 111-248 248c0 137 111 248 248 248s248-111 248-248z m-248 366c17 0 31 14 31 31v134c0 18-14 32-31 32-17 0-31-14-31-32v-134c0-17 14-31 31-31z m0-732c-17 0-31-14-31-31v-134c0-18 14-32 31-32 17 0 31 14 31 32v134c0 17-14 31-31 31z m281 616c8 0 16 3 22 9l95 95c12 12 12 32 0 44s-32 12-44 0l-95-95c-12-12-12-32 0-44 6-6 14-9 22-9z m-584-509l-95-95c-12-12-12-32 0-44 6-6 14-9 22-9s16 3 23 9l94 95c13 12 13 32 0 44s-32 12-44 0z m834 290h-134c-17 0-31-14-31-31s14-31 31-31h134c18 0 32 14 32 31s-14 31-32 31z m-897-31c0 17-14 31-31 31h-134c-18 0-32-14-32-31s14-31 32-31h134c17 0 31 14 31 31z m669-259c-12 12-32 12-44 0s-12-32 0-44l95-95c6-6 14-9 22-9s16 3 22 9c12 12 12 32 0 44l-95 95z m-656 657c-13 12-32 12-45 0s-12-32 0-44l95-95c6-6 14-9 22-9s16 3 22 9c13 12 13 32 0 44l-94 95z" horiz-adv-x="1000" />

<glyph glyph-name="refresh-16" unicode="&#xe86d;" d="M63 563c81 168 256 281 443 281 144 0 282-63 375-175l119 119 0-375-375 0 169 168c0 0 0 0 0 0-69 88-175 132-281 132-138 0-269-82-332-207-12-18-37-31-62-31-6 0-13 0-25 6-31 13-44 50-31 82z m843-344c-31 12-68 0-81-31-62-125-194-207-331-207-113 0-213 50-281 132 0 0 0 0 0 0l162 175-375 0 0-376 119 119c94-106 231-175 375-175 187 0 362 113 444 282 12 31 0 68-32 81z" horiz-adv-x="1000" />

<glyph glyph-name="rename-16" unicode="&#xe86e;" d="M125 413h375v-125h-375v125z m875 62v-250c0-37-25-62-62-62h-188v-132c0-6 0-12 6-12l88-50c31-19 37-57 25-88-13-19-38-31-56-31-13 0-19 0-32 6l-87 56c0 0 0 0-6 0 0 0 0 0-7 0l-87-50c-13-12-19-12-31-12-19 0-44 12-57 31-12 31-6 69 25 88l88 50c0 0 6 6 6 12v638c0 6 0 12-6 12l-88 50c-31 19-37 57-25 88 19 31 57 37 88 25l87-56c0 0 0 0 7 0 0 0 0 0 6 0l87 50c32 18 69 12 88-19 12-31 6-69-25-88l-88-50c0 0-6-6-6-12v-131h188c37 0 62-25 62-63z m-62-31c0 19-13 31-32 31h-156v-250h156c19 0 32 13 32 31v188z m-375-281v62h-469c-19 0-31 13-31 31v188c0 19 12 31 31 31h469v63h-500c-38 0-63-25-63-63v-250c0-37 25-62 63-62h500z" horiz-adv-x="1000" />

<glyph glyph-name="trash-16" unicode="&#xe86f;" d="M844 631h-125c0 7 0 13 0 19v44c0 69-56 125-125 125h-188c-68 0-125-56-125-125v-44c0-6 0-12 0-19h-125c-37 0-62-25-62-62 0-38 25-63 62-63v-562c0-38 25-63 63-63h562c38 0 63 25 63 63v562c37 0 62 25 62 63 0 37-25 62-62 62z m-438 63h188v-63h-188v63z m-125-688v500h63v-500h-63z m188 0v500h62v-500h-62z m250 0h-63v500h63v-500z" horiz-adv-x="1000" />

<glyph glyph-name="refresh-14" unicode="&#xe870;" d="M7 550c86 179 272 293 472 293 142 0 271-57 371-150l150 157 0-429-429 0 172 172c-72 71-164 107-264 107-143 0-279-86-343-214-15-29-43-43-65-43-7 0-21 0-28 7-43 21-57 64-36 100z m957-307c-35 14-78 0-93-36-64-128-192-214-335-214-100 0-193 43-265 107l158 179-429 0 0-429 157 157c100-100 229-150 364-150 200 0 379 114 465 293 28 36 14 79-22 93z" horiz-adv-x="1000" />

<glyph glyph-name="rename-14" unicode="&#xe871;" d="M143 421h343v-142h-343v142z m857 72v-286c0-43-29-71-71-71h-143v-79c0-7 0-14 7-14l100-57c36-22 43-65 28-100-14-22-42-36-64-36-14 0-21 0-36 7l-100 64c0 0 0 0-7 0 0 0 0 0-7 0l-100-57c-14-14-21-14-36-14-21 0-50 14-64 36-14 35-7 78 29 100l100 57c0 0 7 7 7 14v586c0 7 0 14-7 14l-100 57c-36 22-43 65-29 100 22 36 64 43 100 29l100-64c0 0 0 0 7 0 0 0 0 0 7 0l100 57c36 21 79 14 100-22 15-35 8-78-28-100l-100-57c0 0-7-7-7-14v-79h143c42 0 71-28 71-71z m-71-36c0 22-15 36-36 36h-107v-286h107c21 0 36 14 36 36v214z m-372-321v71h-450c-21 0-36 14-36 36v214c0 22 15 36 36 36h450v71h-486c-42 0-71-28-71-71v-286c0-43 29-71 71-71h486z" horiz-adv-x="1000" />

<glyph glyph-name="trash-14" unicode="&#xe872;" d="M857 636h-143c0 7 0 14 0 21v50c0 79-64 143-143 143h-142c-79 0-143-64-143-143v-50c0-7 0-14 0-21h-143c-43 0-72-29-72-72 0-43 29-71 72-71v-572c0-42 28-71 71-71h572c43 0 71 29 71 71v572c43 0 72 28 72 71 0 43-29 72-72 72z m-428-643h-143v500h143v-500z m142 643h-142v71h142v-71z m143-643h-143v500h143v-500z" horiz-adv-x="1000" />

<glyph glyph-name="edit" unicode="&#xe873;" d="M634 672l-509-509-111-279c-2-6-1-12 3-17 5-4 11-5 17-3l279 111 509 509-188 188z m322 35l-99 99c-24 24-64 24-88 0l-91-90 188-188 90 90c12 12 18 28 18 45 0 16-6 32-18 44z" horiz-adv-x="1000" />

<glyph glyph-name="adjust-exposure" unicode="&#xe874;" d="M1000-150h-1000v1000h1000v-1000z m-62 938l-875-876h875v876z m-63-563h-125v125h-125v-125h-125v-125h125v-125h125v125h125v125z m-375 375h-375v-125h375v125z" horiz-adv-x="1000" />

<glyph glyph-name="lock" unicode="&#xe875;" d="M788 413h-38v125c0 137-112 250-250 250s-250-113-250-250v-125h-37c-50 0-88-38-88-88v-350c0-38 25-63 63-63h625c37 0 62 25 62 63v350c0 50-37 88-87 88z m-413 125c0 68 56 125 125 125s125-57 125-125v-125h-250v125z m188-313c0-25-13-44-32-50v-106c0-19-12-31-31-31-19 0-31 12-31 31v106c-19 6-31 25-31 50 0 38 25 63 62 63s63-25 63-63z" horiz-adv-x="1000" />

<glyph glyph-name="unlock" unicode="&#xe876;" d="M750 850c-137 0-250-112-250-250v-187h-412c-50 0-88-38-88-88v-350c0-38 25-63 63-63h625c37 0 62 25 62 63v350c0 50-37 88-87 88h-38v187c0 69 56 125 125 125s125-56 125-125v-125c0-37 25-62 63-62s62 25 62 62v125c0 138-112 250-250 250z m-344-675v-106c0-19-12-31-31-31-19 0-31 12-31 31v106c-19 6-31 25-31 50 0 38 25 63 62 63s63-25 63-63c0-25-13-44-32-50z" horiz-adv-x="1000" />

<glyph glyph-name="device-mobile" unicode="&#xe877;" d="M438 663h-125v125c0 37 25 62 62 62h563c37 0 62-25 62-62v-876c0-37-25-62-62-62h-563c-37 0-62 25-62 62v188h62 63v-62h437l0 687h-437v-62z m312-751v63h-187v-63h187z m-419 482l-143 144h375v-375l-144 143-331-331-88 88 331 331z" horiz-adv-x="1000" />

<glyph glyph-name="lab" unicode="&#xe878;" d="M920 50l-320 560v140h65c15 0 25 10 25 25s-10 25-25 25h-330c-15 0-25-10-25-25s10-25 25-25h65v-140l-320-560c-25-40-25-90 0-135 25-40 70-65 115-65h605c50 0 90 25 115 65 30 45 30 95 5 135z m-695 150l225 390 0 5v155h100v-155l225-395h-550z" horiz-adv-x="1000" />

<glyph glyph-name="feedback" unicode="&#xe879;" d="M438 113l0-276c0-25 25-50 50-50l75 0 0 376-75 0c-25 0-50-25-50-50z m318 150c38 75-6 187 69 187 81 0 81-144 50-287h138c25 0 50-19 50-50 0-25-19-50-50-50 25 0 50-19 50-50s-19-38-50-38h-25c25 0 43-19 43-50 0-25-18-44-43-44h-25c25 0 43-19 43-50 0-25-18-50-43-50h-338v375c0 7 94 32 131 107z m-193 325l0 275c0 25-25 50-50 50l-75 0 0-375 75 0c25 0 50 25 50 50z m-319-150c-38-75 6-188-69-188-81 0-81 150-50 288h-138c-31 0-50 18-50 50 0 25 19 50 50 50-31-7-50 12-50 37s19 50 50 50h26c-26 0-44 19-44 50 0 25 18 44 44 44h25c-25 0-44 19-44 50-7 25 12 44 37 44h344v-375c0 0-94-25-131-100z" horiz-adv-x="1000" />

<glyph glyph-name="menu" unicode="&#xe87a;" d="M844 600h-688c-31 0-62 25-62 63v0c0 31 25 62 62 62h688c31 0 62-25 62-62v0c0-38-25-63-62-63z m62-250l0 0c0 38-25 63-62 63h-688c-31 0-62-25-62-63v0c0-31 25-62 62-62h688c37 0 62 25 62 62z m0-312l0 0c0 37-25 62-62 62h-688c-31 0-62-25-62-62v0c0-32 25-63 62-63h688c37 0 62 25 62 63z" horiz-adv-x="1000" />

<glyph glyph-name="light-analysis" unicode="&#xe87b;" d="M781 381c0-18-12-31-31-31h-100c-12 0-25-12-25-31v-94c38 0 63-31 63-62v-63c0-37-32-62-63-62h-250c-37 0-62 31-62 62v63c0 37 25 62 62 62v94c0 19-12 31-25 31h-100c0 0 0 0 0 0 0 0 0 0 0 0 0 0 0 0 0 0-6 0-12 0-19 6 0 0 0 0 0 0-6 7-6 7-12 13 0 0 0 0 0 0 0 0 0 0 0 6 0 0 0 0 0 6 0 0 0 0 0 0 0 0 0 7 0 7 0 0 0 6 0 6 0 0 0 6 6 6 0 0 0 6 6 6 0 0 0 0 7 7 0 0 6 0 6 0 0 0 0 0 0 0l500 131c19 6 31-6 37-25 7-19-6-31-25-38l-350-93c19-13 32-38 32-69v-94h125v94c0 50 37 94 87 94h100c19 0 31-13 31-32z m-562 163c6-13 19-25 31-25 0 0 6 0 6 0l500 131c19 6 25 19 25 38-6 18-18 25-37 25l-500-132c-19-6-31-25-25-37z m31 150c0 0 6 0 6 0l250 69c19 6 25 18 25 37-6 13-25 25-37 19l-250-69c-19 0-31-19-25-37 6-13 19-19 31-19z m250-844c69 0 125 56 125 125h-250c0-69 56-125 125-125z" horiz-adv-x="1000" />
</font>
</defs>
</svg>
