<svg width="290" height="175" viewBox="0 0 290 175" fill="none" xmlns="http://www.w3.org/2000/svg">
<circle cx="115.011" cy="65.6682" r="17.8689" fill="#D8D8D8" stroke="#989898" stroke-width="0.795761"/>
<circle cx="115.011" cy="119.738" r="17.8689" fill="#D8D8D8" stroke="#989898" stroke-width="0.795761"/>
<circle cx="169.08" cy="65.6682" r="17.8689" fill="#D8D8D8" stroke="#989898" stroke-width="0.795761"/>
<circle cx="169.08" cy="119.738" r="17.8689" fill="#D8D8D8" stroke="#989898" stroke-width="0.795761"/>
<path d="M99.9021 79.3767L95.7843 83.4862L96.5662 84.2683L100.684 80.1588L99.9021 79.3767Z" fill="#8D9EB0"/>
<path d="M68.303 79.4789C67.1487 79.4789 66.2332 79.8769 65.5566 80.5734V75.618H63.0888V90.345H65.0192L65.2182 89.4295C65.9546 90.1858 66.8701 90.6037 68.0044 90.6037C70.4324 90.6037 72.323 88.4942 72.323 85.5687V84.494C72.323 81.4292 70.7309 79.4789 68.303 79.4789ZM69.8553 85.6483C69.8553 87.6782 68.9597 88.7529 67.5865 88.7529C66.7706 88.7529 66.0939 88.4344 65.5566 87.8573V82.484C66.0939 81.8073 66.8502 81.3496 67.8054 81.3496C69.1587 81.3496 69.8553 82.3447 69.8553 84.4144V85.6483ZM79.6227 88.4543V76.4141H77.7719L73.8713 78.6828L74.7867 80.3147L77.1948 79.1206V88.4543H74.3489V90.345H77.1948H82.0706V88.4543H79.6227Z" fill="#8D9EB0"/>
<path d="M96.5409 83.1665L86.1235 83.1606L86.1229 84.2665L96.5403 84.2724L96.5409 83.1665Z" fill="#8D9EB0"/>
<path d="M126.204 53.6662L116.822 58.357L121.513 63.0478L126.204 53.6662Z" fill="#8D9EB0"/>
<path d="M103.031 76.6761L112.413 71.9853L107.722 67.2945L103.031 76.6761Z" fill="#8D9EB0"/>
<path d="M110.458 70.0308L119.947 60.5417L119.165 59.7599L109.676 69.249L110.458 70.0308Z" fill="#8D9EB0"/>
<path d="M48.999 77.1187C45.2377 77.1187 43.4266 79.5466 43.4266 82.7905V85.8951C43.4266 89.0594 45.2377 91.5272 48.999 91.5272C52.7802 91.5272 54.5714 89.0594 54.5714 85.8951V82.7905C54.5714 79.5466 52.7802 77.1187 48.999 77.1187ZM48.999 78.7307C51.4469 78.7307 52.5613 80.4223 52.5613 82.7507V85.9349C52.5613 88.2037 51.4469 89.9152 48.999 89.9152C46.5511 89.9152 45.4566 88.2037 45.4566 85.9349V82.7507C45.4566 80.4024 46.571 78.7307 48.999 78.7307Z" fill="#8D9EB0"/>
<path d="M53.5028 75.3889L43.5396 92.634L44.497 93.1875L54.4603 75.9424L53.5028 75.3889Z" fill="#8D9EB0"/>
</svg>
