<svg width="290" height="175" viewBox="0 0 290 175" fill="none" xmlns="http://www.w3.org/2000/svg">
<path d="M73.6026 40.6349C74.3066 40.6349 75.0326 40.3489 75.5166 39.9419L74.9556 39.1389C74.5926 39.3919 74.2076 39.6119 73.6686 39.6119C72.7886 39.6119 72.3046 39.0179 72.3046 37.8299V37.2909C72.3046 36.0919 72.8216 35.5199 73.6796 35.5199C74.1966 35.5199 74.5486 35.6629 74.9116 35.9819L75.5606 35.2559C75.0216 34.7389 74.4166 34.4859 73.6246 34.4859C71.8976 34.4859 70.9406 35.6189 70.9406 37.3129V37.8079C70.9406 39.5019 71.9196 40.6349 73.6026 40.6349Z" fill="#8D9EB0"/>
<rect x="98.2178" y="29.8224" width="33.4399" height="15.7434" fill="#D8D8D8" stroke="#989898" stroke-width="0.756583"/>
<rect x="170.218" y="29.8224" width="33.4399" height="15.7434" fill="#D8D8D8" stroke="#989898" stroke-width="0.756583"/>
<rect x="98.2178" y="133.302" width="33.4399" height="15.7434" fill="#D8D8D8" stroke="#989898" stroke-width="0.756583"/>
<rect x="170.218" y="133.302" width="33.4399" height="15.7434" fill="#D8D8D8" stroke="#989898" stroke-width="0.756583"/>
<rect x="98.2178" y="64.3155" width="33.4399" height="15.7434" fill="#D8D8D8" stroke="#989898" stroke-width="0.756583"/>
<rect x="170.218" y="64.3155" width="33.4399" height="15.7434" fill="#D8D8D8" stroke="#989898" stroke-width="0.756583"/>
<rect x="98.2178" y="98.809" width="33.4399" height="15.7434" fill="#D8D8D8" stroke="#989898" stroke-width="0.756583"/>
<rect x="170.218" y="98.809" width="33.4399" height="15.7434" fill="#D8D8D8" stroke="#989898" stroke-width="0.756583"/>
<path d="M96.5677 29.4441H79.1663" stroke="#A9B6C3" stroke-width="0.756583"/>
<path d="M96.6425 45.5483H79.2411" stroke="#A9B6C3" stroke-width="0.756583"/>
<path d="M82.3333 34.0134L82.3333 40.6334L81.8501 40.6334L81.8501 34.0134L82.3333 34.0134Z" fill="#8D9EB0"/>
<path d="M82.1666 30.0024L83.616 34.8338L80.4756 34.8338L82.1666 30.0024Z" fill="#8D9EB0"/>
<path d="M81.9251 44.9895L80.4757 40.1582L83.6161 40.1582L81.9251 44.9895Z" fill="#8D9EB0"/>
<path d="M213.482 76.894L213.482 82.894L212.999 82.894L212.999 76.894L213.482 76.894Z" fill="#8D9EB0"/>
<path d="M213.362 73.0591L214.811 77.8904L211.671 77.8904L213.362 73.0591Z" fill="#8D9EB0"/>
<path d="M213.241 100.424L213.241 94.4241L213.724 94.4241L213.724 100.424L213.241 100.424Z" fill="#8D9EB0"/>
<path d="M213.362 105.114L211.912 100.283L215.053 100.283L213.362 105.114Z" fill="#8D9EB0"/>
<path d="M132.036 148.996L137.472 147.249V150.549L132.036 148.996Z" fill="#8D9EB0"/>
<path d="M137.106 148.7H146.106V149.088H137.106V148.7Z" fill="#8D9EB0"/>
<path d="M169.981 148.996L164.545 147.249V150.549L169.981 148.996Z" fill="#8D9EB0"/>
<path d="M164.911 148.7H155.911V149.088H164.911V148.7Z" fill="#8D9EB0"/>
<path d="M152.2 145.697L152.101 146.214C151.683 145.774 151.188 145.543 150.506 145.543C149.307 145.543 148.185 146.467 148.185 148.315V148.81C148.185 150.746 149.208 151.549 150.429 151.549C151.1 151.549 151.617 151.252 151.991 150.823V151.56C151.991 152.473 151.496 152.869 150.627 152.869C149.945 152.869 149.461 152.748 148.966 152.517L148.537 153.342C149.109 153.683 149.835 153.892 150.726 153.892C152.189 153.892 153.322 153.078 153.322 151.571V145.697H152.2ZM150.66 150.515C150 150.515 149.549 150.141 149.549 148.81V148.282C149.549 146.962 150.077 146.577 150.748 146.577C151.265 146.577 151.639 146.786 151.947 147.16V149.844C151.628 150.273 151.177 150.515 150.66 150.515Z" fill="#8D9EB0"/>
<path d="M222.062 72.1873H204.661" stroke="#A9B6C3" stroke-width="0.756583"/>
<path d="M222.062 106.681H204.661" stroke="#A9B6C3" stroke-width="0.756583"/>
<path d="M215.828 89.1721C215.828 87.3131 214.893 86.3231 213.298 86.3231C211.67 86.3231 210.68 87.5221 210.68 89.1061V89.7111C210.68 91.2951 211.692 92.4721 213.474 92.4721C214.321 92.4721 215.113 92.1531 215.608 91.7791L215.124 90.9651C214.673 91.2181 214.2 91.4491 213.562 91.4491C212.55 91.4491 212.033 90.9541 212.011 89.8321H215.784C215.806 89.6561 215.828 89.4141 215.828 89.1721ZM214.607 88.9411H212.011C212.033 87.8741 212.473 87.3241 213.309 87.3241C214.156 87.3241 214.607 87.8741 214.607 88.8861V88.9411Z" fill="#8D9EB0"/>
<path d="M115.527 17.6405H114.163V24.6145C114.163 25.4835 114.702 25.9235 115.516 25.9235C115.824 25.9235 116.077 25.8575 116.297 25.7805L116.154 24.8455C116.066 24.8565 115.989 24.8675 115.923 24.8675C115.626 24.8675 115.527 24.7355 115.527 24.4165V17.6405Z" fill="#8D9EB0"/>
<path d="M97.8395 21.6047L103.312 19.7805V23.4289L97.8395 21.6047Z" fill="#8D9EB0"/>
<path d="M103.276 21.3528L108.218 21.3528V21.7411L103.276 21.7411V21.3528Z" fill="#8D9EB0"/>
<path d="M132.036 21.6047L126.563 19.7805V23.4289L132.036 21.6047Z" fill="#8D9EB0"/>
<path d="M126.6 21.3528L121.657 21.3528V21.7411L126.6 21.7411V21.3528Z" fill="#8D9EB0"/>
</svg>
