<svg width="290" height="175" viewBox="0 0 290 175" fill="none" xmlns="http://www.w3.org/2000/svg">
<path d="M74.2389 42.6349C74.9429 42.6349 75.6689 42.3489 76.1529 41.9419L75.5919 41.1389C75.2289 41.3919 74.8439 41.6119 74.3049 41.6119C73.4249 41.6119 72.9409 41.0179 72.9409 39.8299V39.2909C72.9409 38.0919 73.4579 37.5199 74.3159 37.5199C74.8329 37.5199 75.1849 37.6629 75.5479 37.9819L76.1969 37.2559C75.6579 36.7389 75.0529 36.4859 74.2609 36.4859C72.5339 36.4859 71.5769 37.6189 71.5769 39.3129V39.8079C71.5769 41.5019 72.5559 42.6349 74.2389 42.6349ZM79.9308 41.4469V34.7919H78.9078L76.7518 36.0459L77.2578 36.9479L78.5888 36.2879V41.4469H77.0158V42.4919H78.5888H81.2838V41.4469H79.9308Z" fill="#8D9EB0"/>
<path d="M74.3988 78.5842C75.1028 78.5842 75.8288 78.2982 76.3128 77.8912L75.7518 77.0882C75.3888 77.3412 75.0038 77.5612 74.4648 77.5612C73.5848 77.5612 73.1008 76.9672 73.1008 75.7792V75.2402C73.1008 74.0412 73.6178 73.4692 74.4758 73.4692C74.9928 73.4692 75.3448 73.6122 75.7078 73.9312L76.3568 73.2052C75.8178 72.6882 75.2128 72.4352 74.4208 72.4352C72.6938 72.4352 71.7368 73.5682 71.7368 75.2622V75.7572C71.7368 77.4512 72.7158 78.5842 74.3988 78.5842Z" fill="#8D9EB0"/>
<rect x="99.4215" y="27.3024" width="33.4399" height="22.7434" fill="#D8D8D8" stroke="#989898" stroke-width="0.756583"/>
<rect x="171.422" y="27.3024" width="33.4399" height="22.7434" fill="#D8D8D8" stroke="#989898" stroke-width="0.756583"/>
<rect x="99.4215" y="133.302" width="33.4399" height="22.7434" fill="#D8D8D8" stroke="#989898" stroke-width="0.756583"/>
<rect x="171.422" y="133.302" width="33.4399" height="22.7434" fill="#D8D8D8" stroke="#989898" stroke-width="0.756583"/>
<rect x="99.4215" y="67.3024" width="33.4399" height="15.7434" fill="#D8D8D8" stroke="#989898" stroke-width="0.756583"/>
<rect x="171.422" y="67.3024" width="33.4399" height="15.7434" fill="#D8D8D8" stroke="#989898" stroke-width="0.756583"/>
<rect x="99.4215" y="100.302" width="33.4399" height="15.7434" fill="#D8D8D8" stroke="#989898" stroke-width="0.756583"/>
<rect x="171.422" y="100.302" width="33.4399" height="15.7434" fill="#D8D8D8" stroke="#989898" stroke-width="0.756583"/>
<path d="M97.7713 27.6033H80.3699" stroke="#A9B6C3" stroke-width="0.756583"/>
<path d="M97.8462 67.6033H80.4448" stroke="#A9B6C3" stroke-width="0.756583"/>
<path d="M97.8462 49.9333H80.4448" stroke="#A9B6C3" stroke-width="0.756583"/>
<path d="M97.8462 82.9724H80.4448" stroke="#A9B6C3" stroke-width="0.756583"/>
<path d="M89.433 32.9314L89.433 44.5485L88.9498 44.5485L88.9498 32.9314L89.433 32.9314Z" fill="#8D9EB0"/>
<path d="M89.1914 29.0339L90.6408 33.8653L87.5004 33.8653L89.1914 29.0339Z" fill="#8D9EB0"/>
<path d="M89.1914 48.4641L87.742 43.6328L90.8824 43.6328L89.1914 48.4641Z" fill="#8D9EB0"/>
<path d="M214.686 80.894L214.686 85.894L214.203 85.894L214.203 80.894L214.686 80.894Z" fill="#8D9EB0"/>
<path d="M214.565 77.0591L216.015 81.8904L212.874 81.8904L214.565 77.0591Z" fill="#8D9EB0"/>
<path d="M214.928 97.7437L214.928 102.744L214.445 102.744L214.445 97.7437L214.928 97.7437Z" fill="#8D9EB0"/>
<path d="M214.565 107.114L213.116 102.283L216.256 102.283L214.565 107.114Z" fill="#8D9EB0"/>
<path d="M89.433 73.6772L89.433 80.4411L88.9498 80.4411L88.9498 73.6772L89.433 73.6772Z" fill="#8D9EB0"/>
<path d="M89.1914 69.0342L90.6408 73.8655L87.5004 73.8655L89.1914 69.0342Z" fill="#8D9EB0"/>
<path d="M89.1914 82.3062L87.742 77.4748L90.8824 77.4748L89.1914 82.3062Z" fill="#8D9EB0"/>
<path d="M133.24 154.751L138.676 153.004V156.305L133.24 154.751Z" fill="#8D9EB0"/>
<path d="M138.31 154.456H147.31V154.844H138.31V154.456Z" fill="#8D9EB0"/>
<path d="M171.185 154.751L165.749 153.004V156.305L171.185 154.751Z" fill="#8D9EB0"/>
<path d="M166.115 154.456H157.115V154.844H166.115V154.456Z" fill="#8D9EB0"/>
<path d="M153.404 151.453L153.305 151.97C152.887 151.53 152.392 151.299 151.71 151.299C150.511 151.299 149.389 152.223 149.389 154.071V154.566C149.389 156.502 150.412 157.305 151.633 157.305C152.304 157.305 152.821 157.008 153.195 156.579V157.316C153.195 158.229 152.7 158.625 151.831 158.625C151.149 158.625 150.665 158.504 150.17 158.273L149.741 159.098C150.313 159.439 151.039 159.648 151.93 159.648C153.393 159.648 154.526 158.834 154.526 157.327V151.453H153.404ZM151.864 156.271C151.204 156.271 150.753 155.897 150.753 154.566V154.038C150.753 152.718 151.281 152.333 151.952 152.333C152.469 152.333 152.843 152.542 153.151 152.916V155.6C152.832 156.029 152.381 156.271 151.864 156.271Z" fill="#8D9EB0"/>
<path d="M223.266 75.8984H205.865" stroke="#A9B6C3" stroke-width="0.756583"/>
<path d="M223.266 108.174H205.865" stroke="#A9B6C3" stroke-width="0.756583"/>
<path d="M217.032 92.1721C217.032 90.3131 216.097 89.3231 214.502 89.3231C212.874 89.3231 211.884 90.5221 211.884 92.1061V92.7111C211.884 94.2951 212.896 95.4721 214.678 95.4721C215.525 95.4721 216.317 95.1531 216.812 94.7791L216.328 93.9651C215.877 94.2181 215.404 94.4491 214.766 94.4491C213.754 94.4491 213.237 93.9541 213.215 92.8321H216.988C217.01 92.6561 217.032 92.4141 217.032 92.1721ZM215.811 91.9411H213.215C213.237 90.8741 213.677 90.3241 214.513 90.3241C215.36 90.3241 215.811 90.8741 215.811 91.8861V91.9411Z" fill="#8D9EB0"/>
<path d="M116.731 14.6405H115.367V21.6145C115.367 22.4835 115.906 22.9235 116.72 22.9235C117.028 22.9235 117.281 22.8575 117.501 22.7805L117.358 21.8455C117.27 21.8565 117.193 21.8675 117.127 21.8675C116.83 21.8675 116.731 21.7355 116.731 21.4165V14.6405Z" fill="#8D9EB0"/>
<path d="M99.0432 19.6047L104.516 17.7805V21.4289L99.0432 19.6047Z" fill="#8D9EB0"/>
<path d="M104.479 19.3528L109.422 19.3528V19.7411L104.479 19.7411V19.3528Z" fill="#8D9EB0"/>
<path d="M133.24 19.6047L127.767 17.7805V21.4289L133.24 19.6047Z" fill="#8D9EB0"/>
<path d="M127.804 19.3528L122.861 19.3528V19.7411L127.804 19.7411V19.3528Z" fill="#8D9EB0"/>
</svg>
