<?xml version="1.0" encoding="UTF-8"?>
<svg width="290px" height="175px" viewBox="0 0 290 175" version="1.1" xmlns="http://www.w3.org/2000/svg" xmlns:xlink="http://www.w3.org/1999/xlink">
    <title>Chip-LED-Labeled</title>
    <g id="Chip-LED-Labeled" stroke="none" stroke-width="1" fill="none" fill-rule="evenodd">
        <g id="Chip-LED" transform="translate(40.000000, 12.132568)">
            <g id="Group-2" transform="translate(55.000000, 55.000000)">
                <g id="Group" fill="#D8D8D8" stroke="#FFFFFF" stroke-width="0.75">
                    <rect id="Rectangle-445" x="0.870117188" y="0.893554688" width="86.7597656" height="46.2128906" rx="1.5"></rect>
                </g>
                <path d="M18,1.125 L72,1.125 L72,46.875 L18,46.875 C18,46.875 18,61.625 18,46.5 L18,1.125 Z" id="Rectangle-445" fill="#585858"></path>
                <rect id="Rectangle-445" fill-opacity="0.493662587" fill="#CE2621" x="18" y="1.125" width="54" height="45.75"></rect>
                <g id="Group-3" transform="translate(18.000000, 1.125000)" fill="#CE2621">
                    <polygon id="Path-23" fill-opacity="0.49885271" points="3.375 2.625 50.625 2.625 50.625 42.375 3.375 42.375"></polygon>
                    <polygon id="Path-24" fill-opacity="0.748688811" points="54 0 50.625 2.625 50.625 42.375 54 45.75"></polygon>
                    <polygon id="Path-25" fill-opacity="0.751502404" points="0 45.75 3.375 42.375 50.625 42.375 54 45.75"></polygon>
                    <rect id="Rectangle-Copy" x="17.25" y="19.125" width="18.75" height="7.5"></rect>
                </g>
            </g>
            <g id="Group-4" transform="translate(153.000000, 56.000000)">
                <polygon id="Rectangle" fill-opacity="0.500437063" fill="#CE2621" points="-1.99840144e-14 2.72916667 22.5 1.5 22.5 45.75 0.489130435 44.5208333"></polygon>
                <rect id="Rectangle" fill="#CE2621" x="18.75" y="19.5" width="3" height="7.5"></rect>
                <rect id="Rectangle-445" stroke="#FFFFFF" stroke-width="0.75" fill="#D8D8D8" x="22.125" y="0.375" width="21.75" height="46.2128906" rx="1.5"></rect>
            </g>
            <g id="Group-4-Copy" transform="translate(24.500000, 79.500000) rotate(-180.000000) translate(-24.500000, -79.500000) translate(2.000000, 56.000000)">
                <path d="M22.5,1.5 L22.5009775,16.0000826 C24.0701624,18.0892197 25,20.6860223 25,23.5 C25,26.3139777 24.0701624,28.9107803 22.5009775,30.9999174 L22.5,45.75 L8.80434783,44.5208333 L8.73807463,35.423995 C3.67285048,33.8274881 0,29.0926641 0,23.5 C0,17.9711481 3.58951426,13.2806722 8.56523934,11.6318757 L8.5,2.72916667 L22.5,1.5 Z" id="Combined-Shape" fill-opacity="0.500437063" fill="#CE2621"></path>
                <rect id="Rectangle" fill="#CE2621" x="18.75" y="19.5" width="3" height="7.5"></rect>
                <rect id="Rectangle-445" stroke="#FFFFFF" stroke-width="0.75" fill="#D8D8D8" x="22.125" y="0.375" width="21.75" height="46.2128906" rx="1.5"></rect>
            </g>
        </g>
        <path d="M160.431729,69 L162.756902,69 L162.756902,82.8760332 L160.938017,82.8760332 L160.694248,81.7884523 C160.03795,82.5947623 159.175385,83.1198014 157.956545,83.1198014 C155.631371,83.1198014 154,81.2634132 154,78.4132009 L154,77.3631227 C154,74.6254189 155.650123,72.6377709 158.069053,72.6377709 C159.044126,72.6377709 159.794181,72.9377932 160.431729,73.5190865 L160.431729,69 Z M158.369075,81.3759215 C159.287894,81.3759215 159.90669,80.925888 160.431729,80.213335 L160.431729,75.2254636 C160.019198,74.7754301 159.325397,74.4004021 158.462832,74.4004021 C157.131483,74.4004021 156.325173,75.4129775 156.325173,77.3068685 L156.325173,78.4507037 C156.325173,80.4383517 157.112732,81.3759215 158.369075,81.3759215 Z" id="d" fill="#8D9EB0"></path>
        <g id="Group-9" transform="translate(193.000000, 45.000000)" fill="#8D9EB0">
            <path d="M26.0006702,13.1259774 L24.9130892,9.67572047 L20.3752513,9.67572047 L19.3814273,13.1259774 L17,13.1259774 L21.0127988,1.95399252e-14 L24.2192876,1.95399252e-14 L28.4383517,13.1259774 L26.0006702,13.1259774 Z M22.6066675,1.65012287 L20.9002904,7.78182945 L24.3505473,7.78182945 L22.6066675,1.65012287 Z" id="A"></path>
            <path d="M44.0565186,4.49044323 C44.0565186,4.21957891 44.2884521,4 44.5565186,4 L44.5565186,4 C44.8326609,4 45.0565186,4.21494281 45.0565186,4.49044323 L45.0565186,20.5095568 C45.0565186,20.7804211 44.824585,21 44.5565186,21 L44.5565186,21 C44.2803762,21 44.0565186,20.7850572 44.0565186,20.5095568 L44.0565186,4.49044323 Z" id="Rectangle-93"></path>
            <path d="M0,4.50403339 C0,4.22566344 0.231933594,4 0.5,4 L0.5,4 C0.776142375,4 1,4.22089887 1,4.50403339 L1,20.9670359 C1,21.2454059 0.768066406,21.4710693 0.5,21.4710693 L0.5,21.4710693 C0.223857625,21.4710693 0,21.2501705 0,20.9670359 L0,4.50403339 Z" id="Rectangle-93"></path>
            <g id="left-arrow" transform="translate(1.000000, 4.000000)">
                <g id="triangle" transform="translate(3.000000, 2.500000) scale(-1, 1) translate(-3.000000, -2.500000) ">
                    <path d="M2.88775351,-0.425866237 C2.98755721,-0.684554916 3.15206769,-0.677565105 3.24917468,-0.425866237 L5.40050076,5.1503168 C5.50030446,5.40900548 5.36527212,5.61871408 5.08097484,5.61871408 L1.05595335,5.61871408 C0.779680363,5.61871408 0.639320451,5.40201566 0.736427439,5.1503168 L2.88775351,-0.425866237 Z" id="Triangle-1" transform="translate(3.069450, 2.500722) rotate(90.000000) translate(-3.069450, -2.500722) "></path>
                </g>
                <path d="M2.85259834,2.39596207 C2.85259834,2.11622249 3.08234897,1.88944875 3.35382917,1.88944875 L13.3513675,1.88944875 C13.6281896,1.88944875 13.8525983,2.10428865 13.8525983,2.39596207 L13.8525983,2.3092346 C13.8525983,2.58897418 13.6228477,2.81574792 13.3513675,2.81574792 L3.35382917,2.81574792 C3.07700703,2.81574792 2.85259834,2.60090803 2.85259834,2.3092346 L2.85259834,2.39596207 Z" id="Rectangle-144"></path>
            </g>
            <g id="left-arrow-copy" transform="translate(37.500000, 6.500000) scale(-1, 1) translate(-37.500000, -6.500000) translate(30.000000, 4.000000)">
                <g id="triangle" transform="translate(3.000000, 2.500000) scale(-1, 1) translate(-3.000000, -2.500000) ">
                    <path d="M2.88775351,-0.425866237 C2.98755721,-0.684554916 3.15206769,-0.677565105 3.24917468,-0.425866237 L5.40050076,5.1503168 C5.50030446,5.40900548 5.36527212,5.61871408 5.08097484,5.61871408 L1.05595335,5.61871408 C0.779680363,5.61871408 0.639320451,5.40201566 0.736427439,5.1503168 L2.88775351,-0.425866237 Z" id="Triangle-1" transform="translate(3.069450, 2.500722) rotate(90.000000) translate(-3.069450, -2.500722) "></path>
                </g>
                <path d="M2.85259834,2.39596207 C2.85259834,2.11622249 3.0815989,1.88944875 3.35294565,1.88944875 L14.352251,1.88944875 C14.6285852,1.88944875 14.8525983,2.10428865 14.8525983,2.39596207 L14.8525983,2.3092346 C14.8525983,2.58897418 14.6235978,2.81574792 14.352251,2.81574792 L3.35294565,2.81574792 C3.07661146,2.81574792 2.85259834,2.60090803 2.85259834,2.3092346 L2.85259834,2.39596207 Z" id="Rectangle-144"></path>
            </g>
        </g>
        <g id="Group-9-Copy" transform="translate(41.000000, 45.000000)" fill="#8D9EB0">
            <path d="M27.0006702,13.1259774 L25.9130892,9.67572047 L21.3752513,9.67572047 L20.3814273,13.1259774 L18,13.1259774 L22.0127988,1.95399252e-14 L25.2192876,1.95399252e-14 L29.4383517,13.1259774 L27.0006702,13.1259774 Z M23.6066675,1.65012287 L21.9002904,7.78182945 L25.3505473,7.78182945 L23.6066675,1.65012287 Z" id="A"></path>
            <path d="M46.0565186,4.49044323 C46.0565186,4.21957891 46.2884521,4 46.5565186,4 L46.5565186,4 C46.8326609,4 47.0565186,4.21494281 47.0565186,4.49044323 L47.0565186,20.5095568 C47.0565186,20.7804211 46.824585,21 46.5565186,21 L46.5565186,21 C46.2803762,21 46.0565186,20.7850572 46.0565186,20.5095568 L46.0565186,4.49044323 Z" id="Rectangle-93"></path>
            <path d="M0,4.50403339 C0,4.22566344 0.231933594,4 0.5,4 L0.5,4 C0.776142375,4 1,4.22089887 1,4.50403339 L1,20.9670359 C1,21.2454059 0.768066406,21.4710693 0.5,21.4710693 L0.5,21.4710693 C0.223857625,21.4710693 0,21.2501705 0,20.9670359 L0,4.50403339 Z" id="Rectangle-93"></path>
            <g id="left-arrow" transform="translate(1.000000, 4.000000)">
                <g id="triangle" transform="translate(3.000000, 2.500000) scale(-1, 1) translate(-3.000000, -2.500000) ">
                    <path d="M2.88775351,-0.425866237 C2.98755721,-0.684554916 3.15206769,-0.677565105 3.24917468,-0.425866237 L5.40050076,5.1503168 C5.50030446,5.40900548 5.36527212,5.61871408 5.08097484,5.61871408 L1.05595335,5.61871408 C0.779680363,5.61871408 0.639320451,5.40201566 0.736427439,5.1503168 L2.88775351,-0.425866237 Z" id="Triangle-1" transform="translate(3.069450, 2.500722) rotate(90.000000) translate(-3.069450, -2.500722) "></path>
                </g>
                <path d="M2.85259834,2.39596207 C2.85259834,2.11622249 3.08234897,1.88944875 3.35382917,1.88944875 L13.3513675,1.88944875 C13.6281896,1.88944875 13.8525983,2.10428865 13.8525983,2.39596207 L13.8525983,2.3092346 C13.8525983,2.58897418 13.6228477,2.81574792 13.3513675,2.81574792 L3.35382917,2.81574792 C3.07700703,2.81574792 2.85259834,2.60090803 2.85259834,2.3092346 L2.85259834,2.39596207 Z" id="Rectangle-144"></path>
            </g>
            <g id="left-arrow-copy" transform="translate(39.500000, 6.500000) scale(-1, 1) translate(-39.500000, -6.500000) translate(32.000000, 4.000000)">
                <g id="triangle" transform="translate(3.000000, 2.500000) scale(-1, 1) translate(-3.000000, -2.500000) ">
                    <path d="M2.88775351,-0.425866237 C2.98755721,-0.684554916 3.15206769,-0.677565105 3.24917468,-0.425866237 L5.40050076,5.1503168 C5.50030446,5.40900548 5.36527212,5.61871408 5.08097484,5.61871408 L1.05595335,5.61871408 C0.779680363,5.61871408 0.639320451,5.40201566 0.736427439,5.1503168 L2.88775351,-0.425866237 Z" id="Triangle-1" transform="translate(3.069450, 2.500722) rotate(90.000000) translate(-3.069450, -2.500722) "></path>
                </g>
                <path d="M2.85259834,2.39596207 C2.85259834,2.11622249 3.0815989,1.88944875 3.35294565,1.88944875 L14.352251,1.88944875 C14.6285852,1.88944875 14.8525983,2.10428865 14.8525983,2.39596207 L14.8525983,2.3092346 C14.8525983,2.58897418 14.6235978,2.81574792 14.352251,2.81574792 L3.35294565,2.81574792 C3.07661146,2.81574792 2.85259834,2.60090803 2.85259834,2.3092346 L2.85259834,2.39596207 Z" id="Rectangle-144"></path>
            </g>
        </g>
        <g id="Group-2" transform="translate(96.000000, 45.000000)" fill="#8D9EB0">
            <g id="Group-3" transform="translate(0.000000, 4.000000)">
                <g id="triangle" transform="translate(3.026855, 2.500000) scale(-1, 1) translate(-3.026855, -2.500000) translate(0.026855, 0.000000)">
                    <path d="M2.88775351,-0.425866237 C2.98755721,-0.684554916 3.15206769,-0.677565105 3.24917468,-0.425866237 L5.40050076,5.1503168 C5.50030446,5.40900548 5.36527212,5.61871408 5.08097484,5.61871408 L1.05595335,5.61871408 C0.779680363,5.61871408 0.639320451,5.40201566 0.736427439,5.1503168 L2.88775351,-0.425866237 Z" id="Triangle-1" transform="translate(3.069450, 2.500722) rotate(90.000000) translate(-3.069450, -2.500722) "></path>
                </g>
                <path d="M2.8794538,2.39596207 C2.8794538,2.11622249 3.11287036,1.88944875 3.37113772,1.88944875 L29.3877699,1.88944875 C29.6593194,1.88944875 29.8794538,2.10428865 29.8794538,2.39596207 L29.8794538,2.3092346 C29.8794538,2.58897418 29.6460372,2.81574792 29.3877699,2.81574792 L3.37113772,2.81574792 C3.09958819,2.81574792 2.8794538,2.60090803 2.8794538,2.3092346 L2.8794538,2.39596207 Z" id="Rectangle-144"></path>
            </g>
            <g id="Group-3" transform="translate(71.000000, 6.500000) scale(-1, 1) translate(-71.000000, -6.500000) translate(53.000000, 4.000000)">
                <g id="triangle" transform="translate(4.026855, 2.500000) scale(-1, 1) translate(-4.026855, -2.500000) translate(0.026855, 0.000000)">
                    <path d="M3.88775351,-0.425866237 C3.98755721,-0.684554916 4.15206769,-0.677565105 4.24917468,-0.425866237 L6.40050076,5.1503168 C6.50030446,5.40900548 6.36527212,5.61871408 6.08097484,5.61871408 L2.05595335,5.61871408 C1.77968036,5.61871408 1.63932045,5.40201566 1.73642744,5.1503168 L3.88775351,-0.425866237 Z" id="Triangle-1" transform="translate(4.069450, 2.500722) rotate(90.000000) translate(-4.069450, -2.500722) "></path>
                </g>
                <path d="M3.8794538,2.39596207 C3.8794538,2.11622249 4.10088506,1.88944875 4.38209739,1.88944875 L35.3768102,1.88944875 C35.6544126,1.88944875 35.8794538,2.10428865 35.8794538,2.39596207 L35.8794538,2.3092346 C35.8794538,2.58897418 35.6580225,2.81574792 35.3768102,2.81574792 L4.38209739,2.81574792 C4.104495,2.81574792 3.8794538,2.60090803 3.8794538,2.3092346 L3.8794538,2.39596207 Z" id="Rectangle-144"></path>
            </g>
            <path d="M41.2940697,1.95399252e-14 C44.856835,1.95399252e-14 46.6382177,2.10015638 46.6382177,5.25039095 L46.6382177,7.57556409 C46.6382177,10.9883182 44.6130669,13.1259774 40.8252848,13.1259774 L37,13.1259774 L37,1.95399252e-14 L41.2940697,1.95399252e-14 Z M44.2755418,7.61306688 L44.2755418,5.19413677 C44.2755418,3.05647759 43.2629664,1.81888544 41.1815614,1.81888544 L39.3626759,1.81888544 L39.3626759,11.3070919 L40.8440362,11.3070919 C43.1317066,11.3070919 44.2755418,10.1070026 44.2755418,7.61306688 Z" id="D"></path>
            <path d="M0.0394435293,4.60958385 C0.0394435293,4.33871954 0.271377123,4.11914062 0.539443529,4.11914062 L0.539443529,4.11914062 C0.815585904,4.11914062 1.03944353,4.33408344 1.03944353,4.60958385 L1.03944353,20.6286974 C1.03944353,20.8995617 0.807509936,21.1191406 0.539443529,21.1191406 L0.539443529,21.1191406 C0.263301154,21.1191406 0.0394435293,20.9041978 0.0394435293,20.6286974 L0.0394435293,4.60958385 Z" id="Rectangle-93"></path>
            <path d="M87,4.60958385 C87,4.33871954 87.2319336,4.11914062 87.5,4.11914062 L87.5,4.11914062 C87.7761424,4.11914062 88,4.33408344 88,4.60958385 L88,20.6286974 C88,20.8995617 87.7680664,21.1191406 87.5,21.1191406 L87.5,21.1191406 C87.2238576,21.1191406 87,20.9041978 87,20.6286974 L87,4.60958385 Z" id="Rectangle-93-Copy-3"></path>
        </g>
        <g id="Group-6" transform="translate(238.000000, 67.000000)" fill="#8D9EB0">
            <polygon id="E" points="16.6693211 19.8188854 11.3626759 19.8188854 11.3626759 23.5504133 16.2567904 23.5504133 16.2567904 25.3692987 11.3626759 25.3692987 11.3626759 29.2883406 16.6693211 29.2883406 16.6693211 31.1259774 9 31.1259774 9 18 16.6693211 18"></polygon>
            <g id="Group-4" transform="translate(0.500000, 0.329379)">
                <path d="M0.5,1.17062114 C0.5,0.894478762 0.725220317,0.670621137 0.996446004,0.670621137 L22.7591692,0.670621137 C23.0333488,0.670621137 23.2556152,0.902554731 23.2556152,1.17062114 L23.2556152,1.17062114 C23.2556152,1.44676351 23.0303949,1.67062114 22.7591692,1.67062114 L0.996446004,1.67062114 C0.722266447,1.67062114 0.5,1.43868754 0.5,1.17062114 L0.5,1.17062114 Z" id="Rectangle-132-Copy"></path>
                <path d="M0.5,47.1706211 C0.5,46.8944788 0.725220317,46.6706211 0.996446004,46.6706211 L22.7591692,46.6706211 C23.0333488,46.6706211 23.2556152,46.9025547 23.2556152,47.1706211 L23.2556152,47.1706211 C23.2556152,47.4467635 23.0303949,47.6706211 22.7591692,47.6706211 L0.996446004,47.6706211 C0.722266447,47.6706211 0.5,47.4386875 0.5,47.1706211 L0.5,47.1706211 Z" id="Rectangle-132-Copy-2"></path>
                <g id="Group" transform="translate(10.167480, 1.670621)">
                    <g id="triangle" transform="translate(2.184082, 2.484497) rotate(-90.000000) translate(-2.184082, -2.484497) translate(-0.815918, -0.015503)">
                        <path d="M2.88775351,-0.425866237 C2.98755721,-0.684554916 3.15206769,-0.677565105 3.24917468,-0.425866237 L5.40050076,5.1503168 C5.50030446,5.40900548 5.36527212,5.61871408 5.08097484,5.61871408 L1.05595335,5.61871408 C0.779680363,5.61871408 0.639320451,5.40201566 0.736427439,5.1503168 L2.88775351,-0.425866237 Z" id="Triangle-1" transform="translate(3.069450, 2.500722) rotate(90.000000) translate(-3.069450, -2.500722) "></path>
                    </g>
                    <path d="M1.68408203,2.98938234 C1.68408203,2.71054191 1.91601562,2.48449707 2.18408203,2.48449707 L2.18408203,2.48449707 C2.46022441,2.48449707 2.68408203,2.7159228 2.68408203,2.98938234 L2.68408203,13.059812 C2.68408203,13.3386524 2.45214844,13.5646973 2.18408203,13.5646973 L2.18408203,13.5646973 C1.90793966,13.5646973 1.68408203,13.3332715 1.68408203,13.059812 L1.68408203,2.98938234 Z" id="Rectangle-134"></path>
                </g>
                <g id="Group-Copy" transform="translate(12.167480, 39.670621) scale(1, -1) translate(-12.167480, -39.670621) translate(10.167480, 32.670621)">
                    <g id="triangle" transform="translate(2.184082, 2.484497) rotate(-90.000000) translate(-2.184082, -2.484497) translate(-0.815918, -0.015503)">
                        <path d="M2.88775351,-0.425866237 C2.98755721,-0.684554916 3.15206769,-0.677565105 3.24917468,-0.425866237 L5.40050076,5.1503168 C5.50030446,5.40900548 5.36527212,5.61871408 5.08097484,5.61871408 L1.05595335,5.61871408 C0.779680363,5.61871408 0.639320451,5.40201566 0.736427439,5.1503168 L2.88775351,-0.425866237 Z" id="Triangle-1" transform="translate(3.069450, 2.500722) rotate(90.000000) translate(-3.069450, -2.500722) "></path>
                    </g>
                    <path d="M1.68408203,2.98938234 C1.68408203,2.71054191 1.91601562,2.48449707 2.18408203,2.48449707 L2.18408203,2.48449707 C2.46022441,2.48449707 2.68408203,2.7159228 2.68408203,2.98938234 L2.68408203,13.059812 C2.68408203,13.3386524 2.45214844,13.5646973 2.18408203,13.5646973 L2.18408203,13.5646973 C1.90793966,13.5646973 1.68408203,13.3332715 1.68408203,13.059812 L1.68408203,2.98938234 Z" id="Rectangle-134"></path>
                </g>
            </g>
        </g>
        <g id="Group-6-Copy" transform="translate(17.000000, 67.000000)" fill="#8D9EB0">
            <polygon id="E" points="16.6693211 19.8188854 11.3626759 19.8188854 11.3626759 23.5504133 16.2567904 23.5504133 16.2567904 25.3692987 11.3626759 25.3692987 11.3626759 29.2883406 16.6693211 29.2883406 16.6693211 31.1259774 9 31.1259774 9 18 16.6693211 18"></polygon>
            <g id="Group-4" transform="translate(0.500000, 0.329379)">
                <path d="M0.5,1.17062114 C0.5,0.894478762 0.725220317,0.670621137 0.996446004,0.670621137 L22.7591692,0.670621137 C23.0333488,0.670621137 23.2556152,0.902554731 23.2556152,1.17062114 L23.2556152,1.17062114 C23.2556152,1.44676351 23.0303949,1.67062114 22.7591692,1.67062114 L0.996446004,1.67062114 C0.722266447,1.67062114 0.5,1.43868754 0.5,1.17062114 L0.5,1.17062114 Z" id="Rectangle-132-Copy"></path>
                <path d="M0.5,47.1706211 C0.5,46.8944788 0.725220317,46.6706211 0.996446004,46.6706211 L22.7591692,46.6706211 C23.0333488,46.6706211 23.2556152,46.9025547 23.2556152,47.1706211 L23.2556152,47.1706211 C23.2556152,47.4467635 23.0303949,47.6706211 22.7591692,47.6706211 L0.996446004,47.6706211 C0.722266447,47.6706211 0.5,47.4386875 0.5,47.1706211 L0.5,47.1706211 Z" id="Rectangle-132-Copy-2"></path>
                <g id="Group" transform="translate(10.167480, 1.670621)">
                    <g id="triangle" transform="translate(2.184082, 2.484497) rotate(-90.000000) translate(-2.184082, -2.484497) translate(-0.815918, -0.015503)">
                        <path d="M2.88775351,-0.425866237 C2.98755721,-0.684554916 3.15206769,-0.677565105 3.24917468,-0.425866237 L5.40050076,5.1503168 C5.50030446,5.40900548 5.36527212,5.61871408 5.08097484,5.61871408 L1.05595335,5.61871408 C0.779680363,5.61871408 0.639320451,5.40201566 0.736427439,5.1503168 L2.88775351,-0.425866237 Z" id="Triangle-1" transform="translate(3.069450, 2.500722) rotate(90.000000) translate(-3.069450, -2.500722) "></path>
                    </g>
                    <path d="M1.68408203,2.98938234 C1.68408203,2.71054191 1.91601562,2.48449707 2.18408203,2.48449707 L2.18408203,2.48449707 C2.46022441,2.48449707 2.68408203,2.7159228 2.68408203,2.98938234 L2.68408203,13.059812 C2.68408203,13.3386524 2.45214844,13.5646973 2.18408203,13.5646973 L2.18408203,13.5646973 C1.90793966,13.5646973 1.68408203,13.3332715 1.68408203,13.059812 L1.68408203,2.98938234 Z" id="Rectangle-134"></path>
                </g>
                <g id="Group-Copy" transform="translate(12.167480, 39.670621) scale(1, -1) translate(-12.167480, -39.670621) translate(10.167480, 32.670621)">
                    <g id="triangle" transform="translate(2.184082, 2.484497) rotate(-90.000000) translate(-2.184082, -2.484497) translate(-0.815918, -0.015503)">
                        <path d="M2.88775351,-0.425866237 C2.98755721,-0.684554916 3.15206769,-0.677565105 3.24917468,-0.425866237 L5.40050076,5.1503168 C5.50030446,5.40900548 5.36527212,5.61871408 5.08097484,5.61871408 L1.05595335,5.61871408 C0.779680363,5.61871408 0.639320451,5.40201566 0.736427439,5.1503168 L2.88775351,-0.425866237 Z" id="Triangle-1" transform="translate(3.069450, 2.500722) rotate(90.000000) translate(-3.069450, -2.500722) "></path>
                    </g>
                    <path d="M1.68408203,2.98938234 C1.68408203,2.71054191 1.91601562,2.48449707 2.18408203,2.48449707 L2.18408203,2.48449707 C2.46022441,2.48449707 2.68408203,2.7159228 2.68408203,2.98938234 L2.68408203,13.059812 C2.68408203,13.3386524 2.45214844,13.5646973 2.18408203,13.5646973 L2.18408203,13.5646973 C1.90793966,13.5646973 1.68408203,13.3332715 1.68408203,13.059812 L1.68408203,2.98938234 Z" id="Rectangle-134"></path>
                </g>
            </g>
        </g>
        <g id="Group-5" transform="translate(159.000000, 116.000000)" fill="#8D9EB0">
            <g id="Group-7">
                <path d="M23.9128418,0.504266051 C23.9128418,0.225767601 24.1447754,0 24.4128418,0 L24.4128418,0 C24.6889842,0 24.9128418,0.222554023 24.9128418,0.504266051 L24.9128418,13.6642799 C24.9128418,13.9427783 24.6809082,14.1685459 24.4128418,14.1685459 L24.4128418,14.1685459 C24.1366994,14.1685459 23.9128418,13.9459919 23.9128418,13.6642799 L23.9128418,0.504266051 Z" id="Rectangle-93"></path>
                <path d="M78,1.50426605 C78,1.2257676 78.2319336,1 78.5,1 L78.5,1 C78.7761424,1 79,1.22255402 79,1.50426605 L79,14.6642799 C79,14.9427783 78.7680664,15.1685459 78.5,15.1685459 L78.5,15.1685459 C78.2238576,15.1685459 78,14.9459919 78,14.6642799 L78,1.50426605 Z" id="Rectangle-93-Copy"></path>
                <path d="M9,0.504266051 C9,0.225767601 9.23193359,1.13686838e-13 9.5,1.13686838e-13 L9.5,1.13686838e-13 C9.77614237,1.13686838e-13 10,0.222554023 10,0.504266051 L10,13.6642799 C10,13.9427783 9.76806641,14.1685459 9.5,14.1685459 L9.5,14.1685459 C9.22385763,14.1685459 9,13.9459919 9,13.6642799 L9,0.504266051 Z" id="Rectangle-93"></path>
                <path d="M56,1.50426605 C56,1.2257676 56.2319336,1 56.5,1 L56.5,1 C56.7761424,1 57,1.22255402 57,1.50426605 L57,14.6642799 C57,14.9427783 56.7680664,15.1685459 56.5,15.1685459 L56.5,15.1685459 C56.2238576,15.1685459 56,14.9459919 56,14.6642799 L56,1.50426605 Z" id="Rectangle-93-Copy-2"></path>
                <path d="M53.182039,9.36019871 C53.2818427,9.10151004 53.4463532,9.10849985 53.5434601,9.36019871 L55.6947862,14.9363817 C55.7945899,15.1950704 55.6595576,15.404779 55.3752603,15.404779 L51.3502388,15.404779 C51.0739658,15.404779 50.9336059,15.1880806 51.0307129,14.9363817 L53.182039,9.36019871 Z" id="Triangle-1-Copy" transform="translate(53.363735, 12.286787) rotate(90.000000) translate(-53.363735, -12.286787) "></path>
                <path d="M51,12.4230512 C51,12.6991936 50.7849426,12.9230512 50.5095215,12.9230512 L47.4904785,12.9230512 C47.2195947,12.9230512 47,12.6911177 47,12.4230512 C47,12.1469089 47.2150574,11.9230512 47.4904785,11.9230512 L50.5095215,11.9230512 C50.7804053,11.9230512 51,12.1549848 51,12.4230512 L52.5,12.2545053" id="Rectangle-144-Copy"></path>
                <g id="left-arrow" transform="translate(24.126953, 8.483798)">
                    <g id="triangle" transform="translate(3.500000, 3.000000) scale(-1, 1) translate(-3.500000, -3.000000) ">
                        <path d="M2.97491172,0.181933144 C3.07471542,-0.0767555347 3.2392259,-0.0697657233 3.33633289,0.181933144 L5.48765896,5.75811618 C5.58746266,6.01680486 5.45243033,6.22651347 5.16813305,6.22651347 L1.14311156,6.22651347 C0.866838566,6.22651347 0.726478654,6.00981505 0.823585642,5.75811618 L2.97491172,0.181933144 Z" id="Triangle-1" transform="translate(3.156608, 3.108521) rotate(90.000000) translate(-3.156608, -3.108521) "></path>
                    </g>
                    <rect id="Rectangle-144" x="5.9128418" y="2.60779938" width="4" height="1" rx="0.5"></rect>
                </g>
                <g id="left-arrow-copy-2" transform="translate(78.126953, 10.091597)">
                    <g id="triangle" transform="translate(4.000000, 2.500000) scale(-1, 1) translate(-4.000000, -2.500000) ">
                        <path d="M3.88775351,-0.425866237 C3.98755721,-0.684554916 4.15206769,-0.677565105 4.24917468,-0.425866237 L6.40050076,5.1503168 C6.50030446,5.40900548 6.36527212,5.61871408 6.08097484,5.61871408 L2.05595335,5.61871408 C1.77968036,5.61871408 1.63932045,5.40201566 1.73642744,5.1503168 L3.88775351,-0.425866237 Z" id="Triangle-1" transform="translate(4.069450, 2.500722) rotate(90.000000) translate(-4.069450, -2.500722) "></path>
                    </g>
                    <rect id="Rectangle-144" x="6" y="2" width="4" height="1" rx="0.5"></rect>
                </g>
                <g id="triangle" transform="translate(6.087158, 11.560747) scale(-1, 1) rotate(180.000000) translate(-6.087158, -11.560747) translate(2.087158, 8.560747)">
                    <path d="M3.80059531,0.0432831337 C3.90039901,-0.215405545 4.06490949,-0.208415734 4.16201648,0.0432831337 L6.31334255,5.61946617 C6.41314625,5.87815485 6.27811392,6.08786346 5.99381664,6.08786346 L1.96879515,6.08786346 C1.69252216,6.08786346 1.55216225,5.87116503 1.64926924,5.61946617 L3.80059531,0.0432831337 Z" id="Triangle-1" transform="translate(3.982292, 2.969871) rotate(90.000000) translate(-3.982292, -2.969871) "></path>
                </g>
                <path d="M4,11.5915972 C4,11.8677396 3.78494263,12.0915972 3.50952148,12.0915972 L0.490478516,12.0915972 C0.219594711,12.0915972 0,11.8596636 0,11.5915972 L0,11.5915972 C0,11.3154548 0.215057373,11.0915972 0.490478516,11.0915972 L3.50952148,11.0915972 C3.78040529,11.0915972 4,11.3235308 4,11.5915972 L4,11.5915972" id="Rectangle-144"></path>
            </g>
        </g>
        <path d="M226.00067,147.125977 L224.913089,143.67572 L220.375251,143.67572 L219.381427,147.125977 L217,147.125977 L221.012799,134 L224.219288,134 L228.438352,147.125977 L226.00067,147.125977 Z M222.606667,135.650123 L220.90029,141.781829 L224.350547,141.781829 L222.606667,135.650123 Z M234.813826,145.344595 L237.120248,145.344595 L237.120248,147.125977 L229.844706,147.125977 L229.844706,145.344595 L232.526156,145.344595 L232.526156,136.55019 L230.257237,137.675274 L229.394673,136.137659 L233.069947,134 L234.813826,134 L234.813826,145.344595 Z" id="A1" fill="#8D9EB0"></path>
        <polygon id="L1" fill="#8D9EB0" points="105.362676 145.213335 110.688072 145.213335 110.688072 147.125977 103 147.125977 103 134 105.362676 134"></polygon>
        <polygon id="L1-Copy" fill="#8D9EB0" points="176.362676 144.213335 181.688072 144.213335 181.688072 146.125977 174 146.125977 174 133 176.362676 133"></polygon>
        <path d="M112.912842,116.504266 C112.912842,116.225768 113.144775,116 113.412842,116 L113.412842,116 C113.688984,116 113.912842,116.222554 113.912842,116.504266 L113.912842,129.66428 C113.912842,129.942778 113.680908,130.168546 113.412842,130.168546 L113.412842,130.168546 C113.136699,130.168546 112.912842,129.945992 112.912842,129.66428 L112.912842,116.504266 Z" id="Rectangle-93" fill="#8D9EB0"></path>
        <path d="M97,116.504266 C97,116.225768 97.2319336,116 97.5,116 L97.5,116 C97.7761424,116 98,116.222554 98,116.504266 L98,129.66428 C98,129.942778 97.7680664,130.168546 97.5,130.168546 L97.5,130.168546 C97.2238576,130.168546 97,129.945992 97,129.66428 L97,116.504266 Z" id="Rectangle-93" fill="#8D9EB0"></path>
        <g id="left-arrow" transform="translate(113.126953, 124.483798)" fill="#8D9EB0">
            <g id="triangle" transform="translate(3.500000, 3.000000) scale(-1, 1) translate(-3.500000, -3.000000) ">
                <path d="M2.97491172,0.181933144 C3.07471542,-0.0767555347 3.2392259,-0.0697657233 3.33633289,0.181933144 L5.48765896,5.75811618 C5.58746266,6.01680486 5.45243033,6.22651347 5.16813305,6.22651347 L1.14311156,6.22651347 C0.866838566,6.22651347 0.726478654,6.00981505 0.823585642,5.75811618 L2.97491172,0.181933144 Z" id="Triangle-1" transform="translate(3.156608, 3.108521) rotate(90.000000) translate(-3.156608, -3.108521) "></path>
            </g>
            <rect id="Rectangle-144" x="5.9128418" y="2.60779938" width="4" height="1" rx="0.5"></rect>
        </g>
        <g id="triangle" transform="translate(94.087158, 127.560747) scale(-1, 1) rotate(180.000000) translate(-94.087158, -127.560747) translate(90.087158, 124.560747)" fill="#8D9EB0">
            <path d="M3.80059531,0.0432831337 C3.90039901,-0.215405545 4.06490949,-0.208415734 4.16201648,0.0432831337 L6.31334255,5.61946617 C6.41314625,5.87815485 6.27811392,6.08786346 5.99381664,6.08786346 L1.96879515,6.08786346 C1.69252216,6.08786346 1.55216225,5.87116503 1.64926924,5.61946617 L3.80059531,0.0432831337 Z" id="Triangle-1" transform="translate(3.982292, 2.969871) rotate(90.000000) translate(-3.982292, -2.969871) "></path>
        </g>
        <path d="M92,127.591597 C92,127.86774 91.7849426,128.091597 91.5095215,128.091597 L88.4904785,128.091597 C88.2195947,128.091597 88,127.859664 88,127.591597 L88,127.591597 C88,127.315455 88.2150574,127.091597 88.4904785,127.091597 L91.5095215,127.091597 C91.7804053,127.091597 92,127.323531 92,127.591597 L92,127.591597" id="Rectangle-144" fill="#8D9EB0"></path>
        <path d="M64,117.504266 C64,117.225768 64.2319336,117 64.5,117 L64.5,117 C64.7761424,117 65,117.222554 65,117.504266 L65,130.66428 C65,130.942778 64.7680664,131.168546 64.5,131.168546 L64.5,131.168546 C64.2238576,131.168546 64,130.945992 64,130.66428 L64,117.504266 Z" id="Rectangle-93-Copy" fill="#8D9EB0"></path>
        <path d="M42,117.504266 C42,117.225768 42.2319336,117 42.5,117 L42.5,117 C42.7761424,117 43,117.222554 43,117.504266 L43,130.66428 C43,130.942778 42.7680664,131.168546 42.5,131.168546 L42.5,131.168546 C42.2238576,131.168546 42,130.945992 42,130.66428 L42,117.504266 Z" id="Rectangle-93-Copy-2" fill="#8D9EB0"></path>
        <path d="M39.182039,125.360199 C39.2818427,125.10151 39.4463532,125.1085 39.5434601,125.360199 L41.6947862,130.936382 C41.7945899,131.19507 41.6595576,131.404779 41.3752603,131.404779 L37.3502388,131.404779 C37.0739658,131.404779 36.9336059,131.188081 37.0307129,130.936382 L39.182039,125.360199 Z" id="Triangle-1-Copy" fill="#8D9EB0" transform="translate(39.363735, 128.286787) rotate(90.000000) translate(-39.363735, -128.286787) "></path>
        <path d="M37,128.423051 C37,128.699194 36.7849426,128.923051 36.5095215,128.923051 L33.4904785,128.923051 C33.2195947,128.923051 33,128.691118 33,128.423051 C33,128.146909 33.2150574,127.923051 33.4904785,127.923051 L36.5095215,127.923051 C36.7804053,127.923051 37,128.154985 37,128.423051 L38.5,128.254505" id="Rectangle-144-Copy" fill="#8D9EB0"></path>
        <path d="M53.0006702,147.125977 L51.9130892,143.67572 L47.3752513,143.67572 L46.3814273,147.125977 L44,147.125977 L48.0127988,134 L51.2192876,134 L55.4383517,147.125977 L53.0006702,147.125977 Z M49.6066675,135.650123 L47.9002904,141.781829 L51.3505473,141.781829 L49.6066675,135.650123 Z M61.8138265,145.344595 L64.1202482,145.344595 L64.1202482,147.125977 L56.8447064,147.125977 L56.8447064,145.344595 L59.5261561,145.344595 L59.5261561,136.55019 L57.2572372,137.675274 L56.3946729,136.137659 L60.0699466,134 L61.8138265,134 L61.8138265,145.344595 Z" id="A1" fill="#8D9EB0"></path>
        <path d="M67.9362958,125.437147 C68.0360995,125.178459 68.20061,125.185449 68.297717,125.437147 L70.4490431,131.01333 C70.5488468,131.272019 70.4138144,131.481728 70.1295171,131.481728 L66.1044956,131.481728 C65.8282227,131.481728 65.6878627,131.265029 65.7849697,131.01333 L67.9362958,125.437147 Z" id="Triangle-1" fill="#8D9EB0" transform="translate(68.117992, 128.363735) scale(-1, 1) rotate(90.000000) translate(-68.117992, -128.363735) "></path>
        <rect id="Rectangle-144" fill="#8D9EB0" x="70.0604892" y="127.771417" width="4" height="1" rx="0.5"></rect>
        <circle id="Oval" stroke="#8D9EB0" cx="139.5" cy="91.5" r="15.5"></circle>
        <path d="M148.428231,79.2913744 C148.528034,79.0326857 148.692545,79.0396755 148.789652,79.2913744 L150.940978,84.8675574 C151.040782,85.1262461 150.905749,85.3359547 150.621452,85.3359547 L146.596431,85.3359547 C146.320158,85.3359547 146.179798,85.1192563 146.276905,84.8675574 L148.428231,79.2913744 Z" id="Triangle-1" fill="#8D9EB0" transform="translate(148.608941, 82.079466) rotate(45.000000) translate(-148.608941, -82.079466) "></path>
        <path d="M143.096194,81.3233244 C143.096194,81.0469903 143.328128,80.8229771 143.596194,80.8229771 L143.596194,80.8229771 C143.872336,80.8229771 144.096194,81.0519777 144.096194,81.3233244 L144.096194,92.3226298 C144.096194,92.598964 143.86426,92.8229771 143.596194,92.8229771 L143.596194,92.8229771 C143.320052,92.8229771 143.096194,92.5939766 143.096194,92.3226298 L143.096194,81.3233244 Z" id="Rectangle-134" fill="#8D9EB0" transform="translate(143.596194, 86.822977) rotate(45.000000) translate(-143.596194, -86.822977) "></path>
        <path d="M130.332037,97.4683973 C130.43184,97.2097086 130.596351,97.2166984 130.693458,97.4683973 L132.844784,103.04458 C132.944588,103.303269 132.809555,103.512978 132.525258,103.512978 L128.500236,103.512978 C128.223964,103.512978 128.083604,103.296279 128.180711,103.04458 L130.332037,97.4683973 Z" id="Triangle-1" fill="#8D9EB0" transform="translate(130.512747, 100.256489) rotate(225.000000) translate(-130.512747, -100.256489) "></path>
        <path d="M136,88.5003473 C136,88.2240131 136.231934,88 136.5,88 L136.5,88 C136.776142,88 137,88.2290006 137,88.5003473 L137,99.4996527 C137,99.7759869 136.768066,100 136.5,100 L136.5,100 C136.223858,100 136,99.7709994 136,99.4996527 L136,88.5003473 Z" id="Rectangle-134" fill="#8D9EB0" transform="translate(136.500000, 94.000000) rotate(45.000000) translate(-136.500000, -94.000000) "></path>
    </g>
</svg>