<svg width="290" height="175" viewBox="0 0 290 175" fill="none" xmlns="http://www.w3.org/2000/svg">
<path d="M77.6505 60.3947C78.3545 60.3947 79.0805 60.1087 79.5645 59.7017L79.0035 58.8987C78.6405 59.1517 78.2555 59.3717 77.7165 59.3717C76.8365 59.3717 76.3525 58.7777 76.3525 57.5897V57.0507C76.3525 55.8517 76.8695 55.2797 77.7275 55.2797C78.2445 55.2797 78.5965 55.4227 78.9595 55.7417L79.6085 55.0157C79.0695 54.4987 78.4645 54.2457 77.6725 54.2457C75.9455 54.2457 74.9885 55.3787 74.9885 57.0727V57.5677C74.9885 59.2617 75.9675 60.3947 77.6505 60.3947Z" fill="#8D9EB0"/>
<rect x="89.4293" y="51.4874" width="27.0393" height="12.6534" fill="#D8D8D8" stroke="#989898" stroke-width="0.756583"/>
<path d="M85.0117 69.5745L85.0117 74.5745L85.4949 74.5745L85.4949 69.5745L85.0117 69.5745Z" fill="#8D9EB0"/>
<path d="M85.1325 65.7395L83.6831 69.8193L86.8235 69.8193L85.1325 65.7395Z" fill="#8D9EB0"/>
<path d="M85.0117 46.5515L85.0117 41.5515L85.4949 41.5515L85.4949 46.5515L85.0117 46.5515Z" fill="#8D9EB0"/>
<path d="M85.1325 50.3865L83.6831 46.3067L86.8235 46.3067L85.1325 50.3865Z" fill="#8D9EB0"/>
<path d="M82.3876 64.0146L88.7222 64.0146" stroke="#A9B6C3" stroke-width="0.756583"/>
<path d="M82.3876 51.4812L88.7222 51.4812" stroke="#A9B6C3" stroke-width="0.756583"/>
<rect x="166.116" y="51.4874" width="27.0393" height="12.6534" fill="#D8D8D8" stroke="#989898" stroke-width="0.756583"/>
<rect x="89.4293" y="121.622" width="27.0393" height="12.6534" fill="#D8D8D8" stroke="#989898" stroke-width="0.756583"/>
<rect x="166.116" y="121.622" width="27.0393" height="12.6534" fill="#D8D8D8" stroke="#989898" stroke-width="0.756583"/>
<rect x="89.4293" y="74.8644" width="27.0393" height="12.6551" fill="#D8D8D8" stroke="#989898" stroke-width="0.756583"/>
<rect x="166.116" y="74.8644" width="27.0393" height="12.6551" fill="#D8D8D8" stroke="#989898" stroke-width="0.756583"/>
<rect x="147.258" y="23.1049" width="27.0393" height="12.6551" transform="rotate(90 147.258 23.1049)" fill="#D8D8D8" stroke="#989898" stroke-width="0.756583"/>
<rect x="147.258" y="139.017" width="27.0393" height="12.6551" transform="rotate(90 147.258 139.017)" fill="#D8D8D8" stroke="#989898" stroke-width="0.756583"/>
<rect x="89.4293" y="98.243" width="27.0393" height="12.6551" fill="#D8D8D8" stroke="#989898" stroke-width="0.756583"/>
<rect x="166.116" y="98.243" width="27.0393" height="12.6551" fill="#D8D8D8" stroke="#989898" stroke-width="0.756583"/>
<path d="M208.096 88.1794L208.096 93.1794L207.613 93.1794L207.613 88.1794L208.096 88.1794Z" fill="#8D9EB0"/>
<path d="M207.975 84.3445L209.424 89.1758L206.284 89.1758L207.975 84.3445Z" fill="#8D9EB0"/>
<path d="M208.096 90.3677L208.096 99.0734L207.613 99.0734L207.613 90.3677L208.096 90.3677Z" fill="#8D9EB0"/>
<path d="M207.733 103.026L206.284 98.1948L209.424 98.1948L207.733 103.026Z" fill="#8D9EB0"/>
<path d="M129.037 18.603H124.037V19.0862H129.037V18.603Z" fill="#8D9EB0"/>
<path d="M132.872 18.7238L128.792 17.2744V20.4148L132.872 18.7238Z" fill="#8D9EB0"/>
<path d="M152.06 18.603H157.06V19.0862H152.06V18.603Z" fill="#8D9EB0"/>
<path d="M148.225 18.7238L152.305 17.2744V20.4148L148.225 18.7238Z" fill="#8D9EB0"/>
<path d="M117.811 103.994L123.247 102.247V105.547L117.811 103.994Z" fill="#8D9EB0"/>
<path d="M122.882 103.698H134.882V104.087H122.882V103.698Z" fill="#8D9EB0"/>
<path d="M141.028 137.372L139.281 131.935L142.581 131.935L141.028 137.372Z" fill="#8D9EB0"/>
<path d="M140.732 132.301L140.732 113.301L141.12 113.301L141.12 132.301L140.732 132.301Z" fill="#8D9EB0"/>
<path d="M165.738 103.994L160.302 102.247V105.547L165.738 103.994Z" fill="#8D9EB0"/>
<path d="M160.667 103.698H145.667V104.087H160.667V103.698Z" fill="#8D9EB0"/>
<path d="M141.028 52.9927L139.281 58.4288L142.581 58.4288L141.028 52.9927Z" fill="#8D9EB0"/>
<path d="M140.732 58.063L140.732 74.063L141.12 74.063L141.12 58.063L140.732 58.063Z" fill="#8D9EB0"/>
<path d="M142.188 100.805L142.089 101.322C141.671 100.882 141.176 100.651 140.494 100.651C139.295 100.651 138.173 101.575 138.173 103.423V103.918C138.173 105.854 139.196 106.657 140.417 106.657C141.088 106.657 141.605 106.36 141.979 105.931V106.668C141.979 107.581 141.484 107.977 140.615 107.977C139.933 107.977 139.449 107.856 138.954 107.625L138.525 108.45C139.097 108.791 139.823 109 140.714 109C142.177 109 143.31 108.186 143.31 106.679V100.805H142.188ZM140.648 105.623C139.988 105.623 139.537 105.249 139.537 103.918V103.39C139.537 102.07 140.065 101.685 140.736 101.685C141.253 101.685 141.627 101.894 141.935 102.268V104.952C141.616 105.381 141.165 105.623 140.648 105.623Z" fill="#8D9EB0"/>
<path d="M139.373 76.8909L139.274 77.4079C138.856 76.9679 138.361 76.7369 137.679 76.7369C136.48 76.7369 135.358 77.6609 135.358 79.5089V80.0039C135.358 81.9399 136.381 82.7429 137.602 82.7429C138.273 82.7429 138.79 82.4459 139.164 82.0169V82.7539C139.164 83.6669 138.669 84.0629 137.8 84.0629C137.118 84.0629 136.634 83.9419 136.139 83.7109L135.71 84.5359C136.282 84.8769 137.008 85.0859 137.899 85.0859C139.362 85.0859 140.495 84.2719 140.495 82.7649V76.8909H139.373ZM137.833 81.7089C137.173 81.7089 136.722 81.3349 136.722 80.0039V79.4759C136.722 78.1559 137.25 77.7709 137.921 77.7709C138.438 77.7709 138.812 77.9799 139.12 78.3539V81.0379C138.801 81.4669 138.35 81.7089 137.833 81.7089ZM145 81.6979V75.0429H143.977L141.821 76.2969L142.327 77.1989L143.658 76.5389V81.6979H142.085V82.7429H143.658H146.353V81.6979H145Z" fill="#8D9EB0"/>
<path d="M210.935 83.6619H193.534" stroke="#A9B6C3" stroke-width="0.756583"/>
<path d="M134.597 15.9789L134.597 22.3135" stroke="#A9B6C3" stroke-width="0.756583"/>
<path d="M210.935 103.819H193.534" stroke="#A9B6C3" stroke-width="0.756583"/>
<path d="M147.13 15.9789L147.13 22.3135" stroke="#A9B6C3" stroke-width="0.756583"/>
<path d="M154.559 23.145H148.225" stroke="#A9B6C3" stroke-width="0.756583"/>
<path d="M154.559 50.3066H148.225" stroke="#A9B6C3" stroke-width="0.756583"/>
<path d="M218.062 93.5049C218.062 91.6459 217.127 90.6559 215.532 90.6559C213.904 90.6559 212.914 91.8549 212.914 93.4389V94.0439C212.914 95.6279 213.926 96.8049 215.708 96.8049C216.555 96.8049 217.347 96.4859 217.842 96.1119L217.358 95.2979C216.907 95.5509 216.434 95.7819 215.796 95.7819C214.784 95.7819 214.267 95.2869 214.245 94.1649H218.018C218.04 93.9889 218.062 93.7469 218.062 93.5049ZM216.841 93.2739H214.245C214.267 92.2069 214.707 91.6569 215.543 91.6569C216.39 91.6569 216.841 92.2069 216.841 93.2189V93.2739Z" fill="#8D9EB0"/>
<path d="M152.006 28.2305L152.006 45.5625L151.523 45.5625L151.523 28.2305L152.006 28.2305Z" fill="#8D9EB0"/>
<path d="M151.886 24.3955L153.335 29.2268L150.195 29.2268L151.886 24.3955Z" fill="#8D9EB0"/>
<path d="M151.523 45.4524L151.523 42.4524L152.006 42.4524L152.006 45.4524L151.523 45.4524Z" fill="#8D9EB0"/>
<path d="M151.644 49.4011L150.195 44.5698L153.335 44.5698L151.644 49.4011Z" fill="#8D9EB0"/>
<path d="M156.677 32.3395H155.313V39.3135C155.313 40.1825 155.852 40.6225 156.666 40.6225C156.974 40.6225 157.227 40.5565 157.447 40.4795L157.304 39.5445C157.216 39.5555 157.139 39.5665 157.073 39.5665C156.776 39.5665 156.677 39.4345 156.677 39.1155V32.3395ZM161.425 39.4345V32.7795H160.402L158.246 34.0335L158.752 34.9355L160.083 34.2755V39.4345H158.51V40.4795H160.083H162.778V39.4345H161.425Z" fill="#8D9EB0"/>
<path d="M163.073 21.7079C163.777 21.7079 164.503 21.4219 164.987 21.0149L164.426 20.2119C164.063 20.4649 163.678 20.6849 163.139 20.6849C162.259 20.6849 161.775 20.0909 161.775 18.9029V18.3639C161.775 17.1649 162.292 16.5929 163.15 16.5929C163.667 16.5929 164.019 16.7359 164.382 17.0549L165.031 16.3289C164.492 15.8119 163.887 15.5589 163.095 15.5589C161.368 15.5589 160.411 16.6919 160.411 18.3859V18.8809C160.411 20.5749 161.39 21.7079 163.073 21.7079ZM168.765 20.5199V13.8649H167.742L165.586 15.1189L166.092 16.0209L167.423 15.3609V20.5199H165.85V21.5649H167.423H170.118V20.5199H168.765Z" fill="#8D9EB0"/>
<path d="M103.129 137.513H101.765V144.487C101.765 145.356 102.304 145.796 103.118 145.796C103.426 145.796 103.679 145.73 103.899 145.653L103.756 144.718C103.668 144.729 103.591 144.74 103.525 144.74C103.228 144.74 103.129 144.608 103.129 144.289V137.513Z" fill="#8D9EB0"/>
<path d="M89.0508 142.341L94.5234 140.517V144.165L89.0508 142.341Z" fill="#8D9EB0"/>
<path d="M94.4868 142.089H98.4868V142.477H94.4868V142.089Z" fill="#8D9EB0"/>
<path d="M116.847 142.283L111.374 140.459V144.107L116.847 142.283Z" fill="#8D9EB0"/>
<path d="M111.411 142.031H107.411V142.419H111.411V142.031Z" fill="#8D9EB0"/>
<path d="M140.732 97.0925L140.732 88.0925L141.12 88.0925L141.12 97.0925L140.732 97.0925Z" fill="#8D9EB0"/>
</svg>
