<svg width="290" height="175" viewBox="0 0 290 175" fill="none" xmlns="http://www.w3.org/2000/svg">
<path d="M47.5487 82.9124C48.9547 82.9124 50.4048 82.3412 51.3714 81.5283L50.251 79.9245C49.526 80.4298 48.757 80.8692 47.6805 80.8692C45.9229 80.8692 44.9562 79.6829 44.9562 77.3101V76.2336C44.9562 73.8388 45.9888 72.6964 47.7024 72.6964C48.735 72.6964 49.4381 72.982 50.1631 73.6191L51.4593 72.1691C50.3828 71.1365 49.1744 70.6312 47.5926 70.6312C44.1433 70.6312 42.2319 72.8941 42.2319 76.2775V77.2662C42.2319 80.6495 44.1872 82.9124 47.5487 82.9124Z" fill="#8D9EB0"/>
<path d="M46.6912 34.6857L50.1985 45.5974L43.5735 45.5974L46.6912 34.6857Z" fill="#8D9EB0"/>
<path d="M47.4706 45.5974L47.4705 63.5239L46.6911 63.5239L46.6911 45.5974L47.4706 45.5974Z" fill="#8D9EB0"/>
<path d="M157.859 30.4094L157.661 31.442C156.826 30.5632 155.837 30.1018 154.475 30.1018C152.081 30.1018 149.84 31.9473 149.84 35.6382V36.6269C149.84 40.4936 151.883 42.0974 154.321 42.0974C155.662 42.0974 156.694 41.5042 157.441 40.6474V42.1194C157.441 43.9429 156.453 44.7338 154.717 44.7338C153.355 44.7338 152.388 44.4921 151.399 44.0308L150.543 45.6785C151.685 46.3596 153.135 46.777 154.915 46.777C157.837 46.777 160.1 45.1512 160.1 42.1414V30.4094H157.859ZM154.783 40.0322C153.465 40.0322 152.564 39.2853 152.564 36.6269V35.5723C152.564 32.9359 153.618 32.167 154.959 32.167C155.991 32.167 156.738 32.5844 157.353 33.3314V38.6921C156.716 39.5489 155.815 40.0322 154.783 40.0322Z" fill="#8D9EB0"/>
<path d="M90.893 130.281H88.1687V144.21C88.1687 145.945 89.2453 146.824 90.871 146.824C91.4862 146.824 91.9915 146.692 92.4309 146.539L92.1453 144.671C91.9695 144.693 91.8158 144.715 91.6839 144.715C91.0907 144.715 90.893 144.451 90.893 143.814V130.281Z" fill="#8D9EB0"/>
<path d="M218.239 130.281H215.515V144.21C215.515 145.945 216.591 146.824 218.217 146.824C218.832 146.824 219.338 146.692 219.777 146.539L219.491 144.671C219.316 144.693 219.162 144.715 219.03 144.715C218.437 144.715 218.239 144.451 218.239 143.814V130.281ZM227.722 144.451V131.16H225.679L221.373 133.664L222.383 135.466L225.042 134.147V144.451H221.9V146.539H225.042H230.424V144.451H227.722Z" fill="#8D9EB0"/>
<path d="M190.734 34.8338L179.749 38.4955L179.749 31.1722L190.734 34.8338Z" fill="#8D9EB0"/>
<path d="M179.971 35.8488L164.382 35.8488L164.382 35.0693L179.971 35.0693L179.971 35.8488Z" fill="#8D9EB0"/>
<path d="M63.8382 137.333L74.8232 133.671L74.8232 140.994L63.8382 137.333Z" fill="#8D9EB0"/>
<path d="M74.75 136.789L83.3235 136.789L83.3235 137.568L74.75 137.568L74.75 136.789Z" fill="#8D9EB0"/>
<path d="M196.338 137.178L207.25 134.061L207.25 140.296L196.338 137.178Z" fill="#8D9EB0"/>
<path d="M207.25 136.789L212.706 136.789L212.706 137.568L207.25 137.568L207.25 136.789Z" fill="#8D9EB0"/>
<path d="M114.5 137.333L103.515 140.994L103.515 133.671L114.5 137.333Z" fill="#8D9EB0"/>
<path d="M103.588 137.877L95.0147 137.877L95.0147 137.097L103.588 137.097L103.588 137.877Z" fill="#8D9EB0"/>
<path d="M119.956 35.5749L130.941 31.9132V39.2365L119.956 35.5749Z" fill="#8D9EB0"/>
<path d="M130.868 35.0693L147.235 35.0693V35.8487L130.868 35.8487V35.0693Z" fill="#8D9EB0"/>
<path d="M47.0809 118.083L43.5735 107.171L50.1985 107.171L47.0809 118.083Z" fill="#8D9EB0"/>
<path d="M46.6912 107.171L46.6912 89.2446L47.4706 89.2446L47.4706 107.171L46.6912 107.171Z" fill="#8D9EB0"/>
<rect x="64.4485" y="35.2959" width="49.4134" height="82.1765" fill="#D8D8D8" stroke="#989898" stroke-width="1.22056"/>
<rect x="196.949" y="35.2959" width="49.4134" height="82.1765" fill="#D8D8D8" stroke="#989898" stroke-width="1.22056"/>
<path d="M247 137.178L236.088 140.296L236.088 134.061L247 137.178Z" fill="#8D9EB0"/>
<path d="M236.088 137.568L230.632 137.568L230.632 136.789L236.088 136.789L236.088 137.568Z" fill="#8D9EB0"/>
</svg>
