<svg width="20" height="20" viewBox="0 0 20 20" xmlns="http://www.w3.org/2000/svg" role="img" title="Close">
    <g fill= "gray" fill-rule="evenodd">
        <path d="M9.978,1.935 C14.42,1.935 18.022,5.537 18.022,9.981 C18.022,14.423 14.42,18.026 9.978,18.026 C5.534,18.026 1.933,14.423 1.933,9.981 C1.933,5.536 5.535,1.935 9.978,1.935 L9.978,1.935 Z M9.979,0 C4.476,0 0,4.479 0,9.98 C0,15.481 4.476,19.959 9.979,19.959 C15.481,19.959 19.958,15.482 19.958,9.98 C19.958,4.478 15.48,0 9.979,0 L9.979,0 L9.979,0 Z"></path>
        <path d="M13.757,12.272 L11.465,9.977 L13.766,7.68 L12.284,6.196 L9.985,8.495 L7.694,6.203 L6.197,7.672 L8.503,9.977 L6.203,12.279 L7.681,13.757 L9.984,11.457 L12.279,13.752 L13.757,12.272 Z"></path>
    </g>
</svg>