<svg width="290" height="175" viewBox="0 0 290 175" fill="none" xmlns="http://www.w3.org/2000/svg">
<rect x="50.8989" y="39.7104" width="48.9545" height="85.7668" fill="#D8D8D8" stroke="#989898" stroke-width="1.04552"/>
<rect x="181.088" y="39.7104" width="48.9545" height="85.7668" fill="#D8D8D8" stroke="#989898" stroke-width="1.04552"/>
<path d="M39.7491 88.2447C40.9535 88.2447 42.1956 87.7553 43.0237 87.059L42.0639 85.6852C41.4428 86.1181 40.7841 86.4945 39.862 86.4945C38.3565 86.4945 37.5284 85.4782 37.5284 83.4457V82.5236C37.5284 80.4723 38.4129 79.4937 39.8808 79.4937C40.7653 79.4937 41.3675 79.7383 41.9886 80.2841L43.0989 79.042C42.1768 78.1575 41.1417 77.7246 39.7867 77.7246C36.8321 77.7246 35.1948 79.663 35.1948 82.5612V83.4081C35.1948 86.3063 36.8697 88.2447 39.7491 88.2447Z" fill="#8D9EB0"/>
<path d="M39.6823 40L42.6866 49.3469L37.0117 49.3469L39.6823 40Z" fill="#8D9EB0"/>
<path d="M40.3499 49.3469L40.3499 74.3469L39.6822 74.3469L39.6822 49.3469L40.3499 49.3469Z" fill="#8D9EB0"/>
<path d="M142.432 23.9881L142.263 24.8726C141.548 24.1198 140.701 23.7246 139.534 23.7246C137.483 23.7246 135.563 25.3055 135.563 28.4671V29.314C135.563 32.6262 137.313 34 139.402 34C140.55 34 141.435 33.4919 142.075 32.7579V34.0188C142.075 35.5808 141.228 36.2583 139.741 36.2583C138.574 36.2583 137.746 36.0513 136.899 35.6561L136.165 37.0676C137.144 37.651 138.386 38.0085 139.91 38.0085C142.413 38.0085 144.352 36.6159 144.352 34.0376V23.9881H142.432ZM139.798 32.231C138.668 32.231 137.897 31.5911 137.897 29.314V28.4107C137.897 26.1523 138.8 25.4937 139.948 25.4937C140.833 25.4937 141.472 25.8512 141.999 26.4911V31.083C141.454 31.817 140.682 32.231 139.798 32.231Z" fill="#8D9EB0"/>
<path d="M207.152 20.0737H204.818V32.0052C204.818 33.4919 205.74 34.2447 207.133 34.2447C207.66 34.2447 208.093 34.1317 208.469 34L208.224 32.4004C208.074 32.4192 207.942 32.438 207.829 32.438C207.321 32.438 207.152 32.2122 207.152 31.6664V20.0737Z" fill="#8D9EB0"/>
<path d="M141.181 137.725C139.976 137.725 139.035 138.176 138.358 138.948L138.226 137.988H136.231V151.764H138.565V147.435C139.223 147.962 139.976 148.245 140.879 148.245C143.194 148.245 144.963 146.269 144.963 143.465V142.467C144.963 139.588 143.401 137.725 141.181 137.725ZM142.63 143.54C142.63 145.497 141.802 146.494 140.465 146.494C139.731 146.494 139.129 146.25 138.565 145.779V140.548C139.073 139.889 139.807 139.494 140.654 139.494C141.896 139.494 142.63 140.453 142.63 142.392V143.54Z" fill="#8D9EB0"/>
<path d="M228.22 28.1365L218.81 31.2731L218.81 25L228.22 28.1365Z" fill="#8D9EB0"/>
<path d="M219 28.6772L211 28.6772L211 28.0096L219 28.0096L219 28.6772Z" fill="#8D9EB0"/>
<path d="M205.22 142.137L195.81 145.273L195.81 139L205.22 142.137Z" fill="#8D9EB0"/>
<path d="M196 142.677L151 142.677L151 142.01L196 142.01L196 142.677Z" fill="#8D9EB0"/>
<path d="M183 28.1366L192.41 25L192.41 31.2731L183 28.1366Z" fill="#8D9EB0"/>
<path d="M192.22 27.5958L200.22 27.5958L200.22 28.2635L192.22 28.2635L192.22 27.5958Z" fill="#8D9EB0"/>
<path d="M76 142.137L85.4097 139L85.4097 145.273L76 142.137Z" fill="#8D9EB0"/>
<path d="M85.22 141.596L130.22 141.596L130.22 142.263L85.22 142.263L85.22 141.596Z" fill="#8D9EB0"/>
<path d="M101 28.1366L110.41 25L110.41 31.2731L101 28.1366Z" fill="#8D9EB0"/>
<path d="M110.347 27.7034L132.347 27.7034V28.371L110.347 28.371V27.7034Z" fill="#8D9EB0"/>
<path d="M179.347 28.1365L169.937 31.2731L169.937 25L179.347 28.1365Z" fill="#8D9EB0"/>
<path d="M170 28.5697L148 28.5697L148 27.9021L170 27.9021L170 28.5697Z" fill="#8D9EB0"/>
<path d="M40.0161 125.688L37.0117 116.341L42.6866 116.341L40.0161 125.688Z" fill="#8D9EB0"/>
<path d="M39.6823 116.341L39.6823 91.3411L40.3499 91.3411L40.3499 116.341L39.6823 116.341Z" fill="#8D9EB0"/>
<path d="M181 20L181 37.4014" stroke="#A9B6C3" stroke-width="0.756583"/>
<path d="M100 20L100 37.4014" stroke="#A9B6C3" stroke-width="0.756583"/>
<path d="M75 127L75 143" stroke="#A9B6C3" stroke-width="0.756583"/>
<path d="M230 20L230 37.4014" stroke="#A9B6C3" stroke-width="0.756583"/>
<path d="M206 127L206 143" stroke="#A9B6C3" stroke-width="0.756583"/>
</svg>
