<svg width="290" height="175" viewBox="0 0 290 175" fill="none" xmlns="http://www.w3.org/2000/svg">
<path d="M51.5626 86.3374C52.9686 86.3374 54.4187 85.7661 55.3853 84.9533L54.2649 83.3494C53.5399 83.8548 52.7709 84.2942 51.6944 84.2942C49.9368 84.2942 48.9701 83.1078 48.9701 80.735V79.6585C48.9701 77.2638 50.0027 76.1213 51.7164 76.1213C52.7489 76.1213 53.452 76.4069 54.177 77.0441L55.4732 75.594C54.3967 74.5615 53.1883 74.0561 51.6065 74.0561C48.1572 74.0561 46.2458 76.3191 46.2458 79.7024V80.6911C46.2458 84.0745 48.2012 86.3374 51.5626 86.3374Z" fill="#8D9EB0"/>
<path d="M50.705 38.1106L54.2124 49.0224L47.5874 49.0224L50.705 38.1106Z" fill="#8D9EB0"/>
<path d="M51.4845 49.0223L51.4845 66.9488L50.7051 66.9488L50.7051 49.0223L51.4845 49.0223Z" fill="#8D9EB0"/>
<path d="M161.873 33.8343L161.675 34.8669C160.84 33.9881 159.851 33.5267 158.489 33.5267C156.094 33.5267 153.853 35.3722 153.853 39.0632V40.0518C153.853 43.9185 155.897 45.5223 158.335 45.5223C159.676 45.5223 160.708 44.9291 161.455 44.0723V45.5443C161.455 47.3678 160.466 48.1587 158.731 48.1587C157.369 48.1587 156.402 47.9171 155.413 47.4557L154.557 49.1034C155.699 49.7845 157.149 50.2019 158.929 50.2019C161.851 50.2019 164.113 48.5762 164.113 45.5663V33.8343H161.873ZM158.797 43.4572C157.479 43.4572 156.578 42.7102 156.578 40.0518V38.9973C156.578 36.3609 157.632 35.5919 158.972 35.5919C160.005 35.5919 160.752 36.0093 161.367 36.7563V42.117C160.73 42.9738 159.829 43.4572 158.797 43.4572Z" fill="#8D9EB0"/>
<path d="M227.247 128.706H224.523V142.635C224.523 144.371 225.599 145.249 227.225 145.249C227.84 145.249 228.345 145.118 228.785 144.964L228.499 143.096C228.323 143.118 228.17 143.14 228.038 143.14C227.445 143.14 227.247 142.877 227.247 142.239V128.706Z" fill="#8D9EB0"/>
<path d="M194.748 38.2587L183.763 41.9204L183.763 34.5971L194.748 38.2587Z" fill="#8D9EB0"/>
<path d="M183.984 39.2737L168.396 39.2737L168.396 38.4943L183.984 38.4943L183.984 39.2737Z" fill="#8D9EB0"/>
<path d="M200.192 135.758L211.177 132.096L211.177 139.42L200.192 135.758Z" fill="#8D9EB0"/>
<path d="M211.104 135.214L219.677 135.214L219.677 135.993L211.104 135.993L211.104 135.214Z" fill="#8D9EB0"/>
<path d="M250.854 135.758L239.869 139.419L239.869 132.096L250.854 135.758Z" fill="#8D9EB0"/>
<path d="M239.942 136.302L231.369 136.302L231.369 135.522L239.942 135.522L239.942 136.302Z" fill="#8D9EB0"/>
<path d="M123.97 38.9998L134.955 35.3381V42.6615L123.97 38.9998Z" fill="#8D9EB0"/>
<path d="M134.881 38.4943L151.249 38.4943V39.2737L134.881 39.2737V38.4943Z" fill="#8D9EB0"/>
<path d="M51.0948 121.508L47.5874 110.596L54.2124 110.596L51.0948 121.508Z" fill="#8D9EB0"/>
<path d="M50.7051 110.596L50.7051 92.6695L51.4845 92.6695L51.4845 110.596L50.7051 110.596Z" fill="#8D9EB0"/>
<rect x="68.4625" y="38.7209" width="49.4134" height="82.1765" fill="#D8D8D8" stroke="#989898" stroke-width="1.22056"/>
<rect x="200.962" y="38.7209" width="49.4134" height="82.1765" fill="#D8D8D8" stroke="#989898" stroke-width="1.22056"/>
</svg>
