<svg width="290" height="175" viewBox="0 0 290 175" fill="none" xmlns="http://www.w3.org/2000/svg">
<rect x="59.9185" y="49.4719" width="48.9545" height="34.1138" fill="#D8D8D8" stroke="#989898" stroke-width="1.04552"/>
<rect x="59.9185" y="101.175" width="48.9545" height="34.1138" fill="#D8D8D8" stroke="#989898" stroke-width="1.04552"/>
<rect x="190.108" y="49.5215" width="48.9545" height="85.7668" fill="#D8D8D8" stroke="#989898" stroke-width="1.04552"/>
<path d="M37.3953 33.2956C38.5998 33.2956 39.8418 32.8063 40.6699 32.1099L39.7101 30.7361C39.0891 31.169 38.4304 31.5454 37.5082 31.5454C36.0027 31.5454 35.1746 30.5291 35.1746 28.4966V27.5745C35.1746 25.5232 36.0592 24.5446 37.5271 24.5446C38.4116 24.5446 39.0138 24.7892 39.6348 25.335L40.7452 24.0929C39.823 23.2084 38.788 22.7755 37.433 22.7755C34.4783 22.7755 32.841 24.7139 32.841 27.6121V28.459C32.841 31.3572 34.516 33.2956 37.3953 33.2956Z" fill="#8D9EB0"/>
<path d="M55.6699 85.1084L58.6743 94.4553L52.9994 94.4553L55.6699 85.1084Z" fill="#8D9EB0"/>
<path d="M56.3376 94.4553L56.3376 101.332L55.67 101.332L55.67 94.4553L56.3376 94.4553Z" fill="#8D9EB0"/>
<path d="M55.1692 47.9491L58.1736 38.6022L52.4987 38.6022L55.1692 47.9491Z" fill="#8D9EB0"/>
<path d="M55.8369 38.6022L55.8369 27.4997L55.1693 27.4997L55.1693 38.6022L55.8369 38.6022Z" fill="#8D9EB0"/>
<path d="M44.4004 28.1672H55.5029V27.4996H44.4004V28.1672Z" fill="#8D9EB0"/>
<path d="M151.452 33.7993L151.283 34.6838C150.568 33.931 149.721 33.5358 148.554 33.5358C146.503 33.5358 144.583 35.1166 144.583 38.2783V39.1251C144.583 42.4373 146.333 43.8112 148.422 43.8112C149.57 43.8112 150.455 43.303 151.094 42.5691V43.83C151.094 45.392 150.248 46.0695 148.761 46.0695C147.594 46.0695 146.766 45.8625 145.919 45.4673L145.185 46.8787C146.164 47.4621 147.406 47.8197 148.93 47.8197C151.433 47.8197 153.372 46.427 153.372 43.8488V33.7993H151.452ZM148.817 42.0421C147.688 42.0421 146.917 41.4023 146.917 39.1251V38.2218C146.917 35.9635 147.82 35.3048 148.968 35.3048C149.852 35.3048 150.492 35.6624 151.019 36.3022V40.8942C150.473 41.6281 149.702 42.0421 148.817 42.0421Z" fill="#8D9EB0"/>
<path d="M85.5473 141.885H83.2137V153.816C83.2137 155.303 84.1359 156.056 85.5285 156.056C86.0555 156.056 86.4883 155.943 86.8647 155.811L86.62 154.212C86.4695 154.23 86.3378 154.249 86.2248 154.249C85.7167 154.249 85.5473 154.023 85.5473 153.478V141.885Z" fill="#8D9EB0"/>
<path d="M212.252 141.885H209.919V153.816C209.919 155.303 210.841 156.056 212.234 156.056C212.761 156.056 213.193 155.943 213.57 155.811L213.325 154.212C213.175 154.23 213.043 154.249 212.93 154.249C212.422 154.249 212.252 154.023 212.252 153.478V141.885ZM220.376 154.023V142.638H218.625L214.937 144.783L215.803 146.326L218.08 145.197V154.023H215.388V155.811H218.08H222.69V154.023H220.376Z" fill="#8D9EB0"/>
<path d="M253.596 96.5558C254.8 96.5558 256.042 96.0665 256.87 95.3702L255.91 93.9964C255.289 94.4292 254.631 94.8056 253.709 94.8056C252.203 94.8056 251.375 93.7894 251.375 91.7569V90.8347C251.375 88.7834 252.26 87.8048 253.727 87.8048C254.612 87.8048 255.214 88.0495 255.835 88.5952L256.946 87.3532C256.023 86.4686 254.988 86.0358 253.633 86.0358C250.679 86.0358 249.041 87.9742 249.041 90.8724V91.7192C249.041 94.6174 250.716 96.5558 253.596 96.5558ZM263.334 94.5233V83.1376H261.583L257.895 85.283L258.761 86.8262L261.038 85.6971V94.5233H258.347V96.3112H261.038H265.648V94.5233H263.334Z" fill="#8D9EB0"/>
<path d="M108.616 149.948L99.2061 153.084L99.2061 146.811L108.616 149.948Z" fill="#8D9EB0"/>
<path d="M99.3958 150.488L91.3958 150.488L91.3958 149.821L99.3958 149.821L99.3958 150.488Z" fill="#8D9EB0"/>
<path d="M238.805 149.948L229.396 153.084L229.396 146.811L238.805 149.948Z" fill="#8D9EB0"/>
<path d="M229.585 150.488L224.585 150.488L224.585 149.821L229.585 149.821L229.585 150.488Z" fill="#8D9EB0"/>
<path d="M256.631 51.4512L259.768 60.8608L253.494 60.8608L256.631 51.4512Z" fill="#8D9EB0"/>
<path d="M257.172 60.6711L257.172 79.6711L256.504 79.6711L256.504 60.6711L257.172 60.6711Z" fill="#8D9EB0"/>
<path d="M256.504 134.49L259.64 125.08L253.367 125.08L256.504 134.49Z" fill="#8D9EB0"/>
<path d="M257.044 125.27L257.044 106.27L256.377 106.27L256.377 125.27L257.044 125.27Z" fill="#8D9EB0"/>
<path d="M60.3958 149.948L69.8054 146.811L69.8054 153.084L60.3958 149.948Z" fill="#8D9EB0"/>
<path d="M69.6157 149.407L77.6157 149.407L77.6157 150.075L69.6157 150.075L69.6157 149.407Z" fill="#8D9EB0"/>
<path d="M190.585 149.948L199.995 146.811L199.995 153.084L190.585 149.948Z" fill="#8D9EB0"/>
<path d="M199.805 149.407L205.805 149.407L205.805 150.075L199.805 150.075L199.805 149.407Z" fill="#8D9EB0"/>
<path d="M110.02 37.9477L119.429 34.8112L119.429 41.0843L110.02 37.9477Z" fill="#8D9EB0"/>
<path d="M119.367 37.5145L141.367 37.5145V38.1822L119.367 38.1822V37.5145Z" fill="#8D9EB0"/>
<path d="M188.367 37.9477L178.957 41.0842L178.957 34.8111L188.367 37.9477Z" fill="#8D9EB0"/>
<path d="M179.02 38.3809L157.02 38.3809L157.02 37.7132L179.02 37.7132L179.02 38.3809Z" fill="#8D9EB0"/>
<path d="M59.3958 136.811L59.3958 154.213" stroke="#A9B6C3" stroke-width="0.756583"/>
<path d="M189.585 136.811L189.585 154.213" stroke="#A9B6C3" stroke-width="0.756583"/>
<path d="M109.02 29.8111L109.02 47.2125" stroke="#A9B6C3" stroke-width="0.756583"/>
<path d="M189.585 29.8111L189.585 47.2125" stroke="#A9B6C3" stroke-width="0.756583"/>
<path d="M47.5111 84.1084L58.6741 84.1084" stroke="#A9B6C3" stroke-width="0.756583"/>
<path d="M47.5111 49.392L58.6741 49.392" stroke="#A9B6C3" stroke-width="0.756583"/>
<path d="M240.631 49.9491L256.631 49.9491" stroke="#A9B6C3" stroke-width="0.756583"/>
<path d="M109.396 136.811L109.396 154.213" stroke="#A9B6C3" stroke-width="0.756583"/>
<path d="M239.585 136.811L239.585 154.213" stroke="#A9B6C3" stroke-width="0.756583"/>
<path d="M240.631 135.811L256.631 135.811" stroke="#A9B6C3" stroke-width="0.756583"/>
<path d="M31.1577 66.5287L58.196 66.5287" stroke="#A9B6C3" stroke-width="0.756583"/>
<path d="M30.5198 118.232L58.6741 118.232" stroke="#A9B6C3" stroke-width="0.756583"/>
<path d="M37.2553 91.0422C37.2553 87.8617 35.6556 86.168 32.9268 86.168C30.1416 86.168 28.4478 88.2193 28.4478 90.9293V91.9644C28.4478 94.6743 30.1792 96.688 33.2279 96.688C34.677 96.688 36.032 96.1422 36.8789 95.5024L36.0508 94.1098C35.2793 94.5426 34.47 94.9378 33.3785 94.9378C31.6471 94.9378 30.7626 94.0909 30.725 92.1714H37.18C37.2176 91.8703 37.2553 91.4562 37.2553 91.0422ZM35.1663 90.647H30.725C30.7626 88.8215 31.5154 87.8806 32.9457 87.8806C34.3947 87.8806 35.1663 88.8215 35.1663 90.5529V90.647Z" fill="#8D9EB0"/>
<path d="M31.5522 117.232L34.6887 107.822L28.4156 107.822L31.5522 117.232Z" fill="#8D9EB0"/>
<path d="M32.0928 108.012L32.0928 103.012L31.4251 103.012L31.4251 108.012L32.0928 108.012Z" fill="#8D9EB0"/>
<path d="M31.5522 68.0337L34.6887 77.4434L28.4156 77.4434L31.5522 68.0337Z" fill="#8D9EB0"/>
<path d="M32.0928 77.2537L32.0928 82.2537L31.4251 82.2537L31.4251 77.2537L32.0928 77.2537Z" fill="#8D9EB0"/>
</svg>
