<svg width="290" height="175" viewBox="0 0 290 175" fill="none" xmlns="http://www.w3.org/2000/svg">
<rect x="69.3904" y="41.0921" width="48.9545" height="34.1138" fill="#D8D8D8" stroke="#989898" stroke-width="1.04552"/>
<rect x="167.014" y="41.0921" width="48.9545" height="34.1138" fill="#D8D8D8" stroke="#989898" stroke-width="1.04552"/>
<rect x="69.3904" y="92.7947" width="48.9545" height="34.1138" fill="#D8D8D8" stroke="#989898" stroke-width="1.04552"/>
<rect x="167.014" y="92.7947" width="48.9545" height="34.1138" fill="#D8D8D8" stroke="#989898" stroke-width="1.04552"/>
<path d="M45.5807 63.0432C46.7852 63.0432 48.0273 62.5539 48.8553 61.8576L47.8955 60.4838C47.2745 60.9167 46.6158 61.293 45.6937 61.293C44.1881 61.293 43.3601 60.2768 43.3601 58.2443V57.3222C43.3601 55.2708 44.2446 54.2922 45.7125 54.2922C46.597 54.2922 47.1992 54.5369 47.8203 55.0827L48.9306 53.8406C48.0084 52.9561 46.9734 52.5232 45.6184 52.5232C42.6638 52.5232 41.0265 54.4616 41.0265 57.3598V58.2067C41.0265 61.1048 42.7014 63.0432 45.5807 63.0432Z" fill="#8D9EB0"/>
<path d="M144.839 33.4678L144.67 34.3524C143.954 33.5996 143.108 33.2044 141.941 33.2044C139.889 33.2044 137.97 34.7852 137.97 37.9469V38.7937C137.97 42.1059 139.72 43.4797 141.809 43.4797C142.957 43.4797 143.841 42.9716 144.481 42.2377V43.4986C144.481 45.0606 143.634 45.7381 142.148 45.7381C140.981 45.7381 140.153 45.531 139.306 45.1358L138.572 46.5473C139.551 47.1307 140.793 47.4883 142.317 47.4883C144.82 47.4883 146.758 46.0956 146.758 43.5174V33.4678H144.839ZM142.204 41.7107C141.075 41.7107 140.303 41.0709 140.303 38.7937V37.8904C140.303 35.6321 141.207 34.9734 142.355 34.9734C143.239 34.9734 143.879 35.331 144.406 35.9708V40.5627C143.86 41.2967 143.089 41.7107 142.204 41.7107Z" fill="#8D9EB0"/>
<path d="M95.0193 133.505H92.6857V145.436C92.6857 146.923 93.6078 147.676 95.0005 147.676C95.5274 147.676 95.9602 147.563 96.3366 147.431L96.092 145.832C95.9414 145.85 95.8097 145.869 95.6968 145.869C95.1886 145.869 95.0193 145.643 95.0193 145.098V133.505Z" fill="#8D9EB0"/>
<path d="M118.088 141.568L108.678 144.704L108.678 138.431L118.088 141.568Z" fill="#8D9EB0"/>
<path d="M108.868 142.108L100.868 142.108L100.868 141.441L108.868 141.441L108.868 142.108Z" fill="#8D9EB0"/>
<path d="M59.1197 40.5693L62.2562 49.979L55.9831 49.979L59.1197 40.5693Z" fill="#8D9EB0"/>
<path d="M59.6604 49.7893L59.6604 57.7893L58.9928 57.7893L58.9928 49.7893L59.6604 49.7893Z" fill="#8D9EB0"/>
<path d="M59.1197 75.7285L62.2562 66.3188L55.9831 66.3188L59.1197 75.7285Z" fill="#8D9EB0"/>
<path d="M59.6604 66.5085L59.6604 56.6564L58.9928 56.6564L58.9928 66.5085L59.6604 66.5085Z" fill="#8D9EB0"/>
<path d="M69.8677 141.568L79.2773 138.431L79.2773 144.704L69.8677 141.568Z" fill="#8D9EB0"/>
<path d="M79.0876 141.027L87.0876 141.027L87.0876 141.695L79.0876 141.695L79.0876 141.027Z" fill="#8D9EB0"/>
<path d="M119.492 29.5677L128.901 26.4312V32.7043L119.492 29.5677Z" fill="#8D9EB0"/>
<path d="M128.839 29.1345L150.839 29.1345V29.8022L128.839 29.8022V29.1345Z" fill="#8D9EB0"/>
<path d="M165.574 29.5677L156.164 26.4312V32.7043L165.574 29.5677Z" fill="#8D9EB0"/>
<path d="M156.227 29.1345L134.227 29.1345V29.8022L156.227 29.8022V29.1345Z" fill="#8D9EB0"/>
<path d="M68.8677 128.431L68.8677 145.833" stroke="#A9B6C3" stroke-width="0.756583"/>
<path d="M118.492 21.4311L118.492 38.8325" stroke="#A9B6C3" stroke-width="0.756583"/>
<path d="M166.492 21.4311L166.492 38.8325" stroke="#A9B6C3" stroke-width="0.756583"/>
<path d="M118.868 128.431L118.868 145.833" stroke="#A9B6C3" stroke-width="0.756583"/>
<path d="M217.649 58.1489L244.688 58.1489" stroke="#A9B6C3" stroke-width="0.756583"/>
<path d="M217.011 109.852L245.166 109.852" stroke="#A9B6C3" stroke-width="0.756583"/>
<path d="M248.747 82.6623C248.747 79.4819 247.147 77.7881 244.418 77.7881C241.633 77.7881 239.939 79.8394 239.939 82.5494V83.5845C239.939 86.2945 241.671 88.3081 244.719 88.3081C246.168 88.3081 247.523 87.7624 248.37 87.1225L247.542 85.7299C246.771 86.1627 245.961 86.5579 244.87 86.5579C243.139 86.5579 242.254 85.7111 242.216 83.7915H248.671C248.709 83.4904 248.747 83.0764 248.747 82.6623ZM246.658 82.2671H242.216C242.254 80.4416 243.007 79.5007 244.437 79.5007C245.886 79.5007 246.658 80.4416 246.658 82.173V82.2671Z" fill="#8D9EB0"/>
<path d="M243.044 108.852L246.18 99.4419L239.907 99.4419L243.044 108.852Z" fill="#8D9EB0"/>
<path d="M243.584 99.6316L243.584 94.6316L242.917 94.6316L242.917 99.6316L243.584 99.6316Z" fill="#8D9EB0"/>
<path d="M243.044 59.6538L246.18 69.0635L239.907 69.0635L243.044 59.6538Z" fill="#8D9EB0"/>
<path d="M243.584 68.8738L243.584 73.8738L242.917 73.8738L242.917 68.8738L243.584 68.8738Z" fill="#8D9EB0"/>
</svg>
