<svg width="290" height="175" viewBox="0 0 290 175" fill="none" xmlns="http://www.w3.org/2000/svg">
<path d="M81.7124 118.251H79.3761V130.196C79.3761 131.685 80.2993 132.438 81.6935 132.438C82.2211 132.438 82.6544 132.325 83.0312 132.193L82.7863 130.592C82.6356 130.611 82.5037 130.629 82.3907 130.629C81.8819 130.629 81.7124 130.403 81.7124 129.857V118.251Z" fill="#8D9EB0"/>
<path d="M207.562 116.246H205.226V128.191C205.226 129.679 206.149 130.433 207.543 130.433C208.071 130.433 208.504 130.32 208.881 130.188L208.636 128.587C208.486 128.605 208.354 128.624 208.241 128.624C207.732 128.624 207.562 128.398 207.562 127.852V116.246ZM215.695 128.398V116.999H213.943L210.25 119.147L211.117 120.692L213.396 119.562V128.398H210.702V130.188H213.396H218.012V128.398H215.695Z" fill="#8D9EB0"/>
<path d="M46.4099 123.354L55.8304 120.214L55.8304 126.494L46.4099 123.354Z" fill="#8D9EB0"/>
<path d="M55.7676 122.888L71.141 122.888L71.141 123.556L55.7676 123.556L55.7676 122.888Z" fill="#8D9EB0"/>
<path d="M176.749 123.222L186.107 120.548L186.107 125.896L176.749 123.222Z" fill="#8D9EB0"/>
<path d="M186.107 122.888L201.48 122.888L201.48 123.556L186.107 123.556L186.107 122.888Z" fill="#8D9EB0"/>
<path d="M115.924 123.354L106.504 126.494L106.504 120.214L115.924 123.354Z" fill="#8D9EB0"/>
<path d="M106.567 123.821L91.1932 123.821L91.1932 123.152L106.567 123.152L106.567 123.821Z" fill="#8D9EB0"/>
<path d="M246.264 123.222L236.906 125.896L236.906 120.548L246.264 123.222Z" fill="#8D9EB0"/>
<path d="M236.906 123.556L221.533 123.556L221.533 122.888L236.906 122.888L236.906 123.556Z" fill="#8D9EB0"/>
<rect x="46.9333" y="58.2361" width="68.4676" height="46.8156" fill="#D8D8D8" stroke="#989898" stroke-width="1.04672"/>
<rect x="177.273" y="58.2361" width="68.4676" height="46.8156" fill="#D8D8D8" stroke="#989898" stroke-width="1.04672"/>
<path d="M27.7615 87.2449C28.9673 87.2449 30.2108 86.7551 31.0398 86.0579L30.0789 84.6826C29.4572 85.1159 28.7977 85.4927 27.8745 85.4927C26.3672 85.4927 25.5382 84.4753 25.5382 82.4405V81.5173C25.5382 79.4636 26.4238 78.4839 27.8933 78.4839C28.7789 78.4839 29.3818 78.7288 30.0035 79.2752L31.1152 78.0317C30.192 77.1462 29.1557 76.7128 27.7991 76.7128C24.8411 76.7128 23.2019 78.6534 23.2019 81.5549V82.4028C23.2019 85.3043 24.8788 87.2449 27.7615 87.2449Z" fill="#8D9EB0"/>
<path d="M258.391 87.2449C259.597 87.2449 260.841 86.7551 261.67 86.0579L260.709 84.6826C260.087 85.1159 259.428 85.4927 258.504 85.4927C256.997 85.4927 256.168 84.4753 256.168 82.4405V81.5173C256.168 79.4636 257.054 78.4839 258.523 78.4839C259.409 78.4839 260.012 78.7288 260.634 79.2752L261.745 78.0317C260.822 77.1462 259.786 76.7128 258.429 76.7128C255.471 76.7128 253.832 78.6534 253.832 81.5549V82.4028C253.832 85.3043 255.509 87.2449 258.391 87.2449ZM268.141 85.2101V73.8113H266.388L262.696 75.9592L263.562 77.5041L265.842 76.3737V85.2101H263.148V87H265.842H270.458V85.2101H268.141Z" fill="#8D9EB0"/>
<path d="M27.6945 58L30.7024 67.3577L25.0209 67.3577L27.6945 58Z" fill="#8D9EB0"/>
<path d="M28.3629 67.3578L28.3629 72.705L27.6945 72.705L27.6945 67.3578L28.3629 67.3578Z" fill="#8D9EB0"/>
<path d="M262.305 58L265.313 67.3577L259.632 67.3577L262.305 58Z" fill="#8D9EB0"/>
<path d="M262.974 67.3578L262.974 72.705L262.305 72.705L262.305 67.3578L262.974 67.3578Z" fill="#8D9EB0"/>
<path d="M148.429 47.9766L148.259 48.8621C147.543 48.1085 146.696 47.7128 145.527 47.7128C143.474 47.7128 141.552 49.2955 141.552 52.4607V53.3086C141.552 56.6246 143.304 58 145.396 58C146.545 58 147.43 57.4913 148.071 56.7565V58.0188C148.071 59.5826 147.223 60.2609 145.735 60.2609C144.567 60.2609 143.738 60.0537 142.89 59.658L142.155 61.0711C143.135 61.6552 144.378 62.0131 145.904 62.0131C148.41 62.0131 150.351 60.6189 150.351 58.0377V47.9766H148.429ZM145.791 56.2289C144.661 56.2289 143.888 55.5884 143.888 53.3086V52.4042C143.888 50.1433 144.793 49.4839 145.942 49.4839C146.827 49.4839 147.468 49.8418 147.996 50.4824V55.0796C147.449 55.8144 146.677 56.2289 145.791 56.2289Z" fill="#8D9EB0"/>
<path d="M176.622 51.4953L167.202 54.6355L167.202 48.3552L176.622 51.4953Z" fill="#8D9EB0"/>
<path d="M167.392 52.3655L154.023 52.3655L154.023 51.6971L167.392 51.6971L167.392 52.3655Z" fill="#8D9EB0"/>
<path d="M115.924 52.1308L125.345 48.9906L125.345 55.2709L115.924 52.1308Z" fill="#8D9EB0"/>
<path d="M125.282 51.6971L139.319 51.6971V52.3656L125.282 52.3656V51.6971Z" fill="#8D9EB0"/>
<path d="M28.0287 105.17L25.0209 95.812L30.7023 95.812L28.0287 105.17Z" fill="#8D9EB0"/>
<path d="M262.64 105.17L259.632 95.812L265.313 95.812L262.64 105.17Z" fill="#8D9EB0"/>
<path d="M27.3603 95.812L27.3603 90.4648L28.0287 90.4648L28.0287 95.812L27.3603 95.812Z" fill="#8D9EB0"/>
<path d="M261.971 95.812L261.971 90.4648L262.64 90.4648L262.64 95.812L261.971 95.812Z" fill="#8D9EB0"/>
</svg>
