<svg width="290" height="175" viewBox="0 0 290 175" fill="none" xmlns="http://www.w3.org/2000/svg">
<rect x="62.0336" y="41.0919" width="48.9545" height="34.1138" fill="#D8D8D8" stroke="#989898" stroke-width="1.04552"/>
<rect x="159.658" y="41.0919" width="48.9545" height="34.1138" fill="#D8D8D8" stroke="#989898" stroke-width="1.04552"/>
<rect x="62.0336" y="92.7945" width="48.9545" height="34.1138" fill="#D8D8D8" stroke="#989898" stroke-width="1.04552"/>
<rect x="159.658" y="92.7945" width="48.9545" height="34.1138" fill="#D8D8D8" stroke="#989898" stroke-width="1.04552"/>
<path d="M38.2239 63.043C39.4283 63.043 40.6704 62.5537 41.4984 61.8574L40.5387 60.4836C39.9176 60.9164 39.2589 61.2928 38.3368 61.2928C36.8312 61.2928 36.0032 60.2765 36.0032 58.2441V57.3219C36.0032 55.2706 36.8877 54.292 38.3556 54.292C39.2401 54.292 39.8423 54.5367 40.4634 55.0824L41.5737 53.8403C40.6516 52.9558 39.6165 52.523 38.2615 52.523C35.3069 52.523 33.6696 54.4614 33.6696 57.3596V58.2064C33.6696 61.1046 35.3445 63.043 38.2239 63.043Z" fill="#8D9EB0"/>
<path d="M137.482 33.4676L137.313 34.3521C136.597 33.5993 135.751 33.2041 134.584 33.2041C132.533 33.2041 130.613 34.785 130.613 37.9466V38.7935C130.613 42.1057 132.363 43.4795 134.452 43.4795C135.6 43.4795 136.485 42.9714 137.124 42.2374V43.4983C137.124 45.0603 136.278 45.7378 134.791 45.7378C133.624 45.7378 132.796 45.5308 131.949 45.1356L131.215 46.547C132.194 47.1304 133.436 47.488 134.96 47.488C137.463 47.488 139.402 46.0954 139.402 43.5171V33.4676H137.482ZM134.847 41.7105C133.718 41.7105 132.947 41.0706 132.947 38.7935V37.8901C132.947 35.6318 133.85 34.9732 134.998 34.9732C135.882 34.9732 136.522 35.3307 137.049 35.9706V40.5625C136.503 41.2964 135.732 41.7105 134.847 41.7105Z" fill="#8D9EB0"/>
<path d="M87.6624 133.505H85.3288V145.436C85.3288 146.923 86.2509 147.676 87.6436 147.676C88.1705 147.676 88.6034 147.563 88.9798 147.431L88.7351 145.831C88.5845 145.85 88.4528 145.869 88.3399 145.869C87.8318 145.869 87.6624 145.643 87.6624 145.097V133.505Z" fill="#8D9EB0"/>
<path d="M110.731 141.568L101.321 144.704L101.321 138.431L110.731 141.568Z" fill="#8D9EB0"/>
<path d="M101.511 142.108L93.5108 142.108L93.5108 141.441L101.511 141.441L101.511 142.108Z" fill="#8D9EB0"/>
<path d="M51.7628 40.5691L54.8994 49.9788L48.6262 49.9788L51.7628 40.5691Z" fill="#8D9EB0"/>
<path d="M52.3035 49.7891L52.3035 57.7891L51.6358 57.7891L51.6358 49.7891L52.3035 49.7891Z" fill="#8D9EB0"/>
<path d="M51.7628 75.7283L54.8994 66.3186L48.6262 66.3186L51.7628 75.7283Z" fill="#8D9EB0"/>
<path d="M52.3035 66.5083L52.3035 56.6561L51.6358 56.6561L51.6358 66.5083L52.3035 66.5083Z" fill="#8D9EB0"/>
<path d="M62.5108 141.567L71.9205 138.431L71.9205 144.704L62.5108 141.567Z" fill="#8D9EB0"/>
<path d="M71.7308 141.027L79.7308 141.027L79.7308 141.694L71.7308 141.694L71.7308 141.027Z" fill="#8D9EB0"/>
<path d="M112.135 29.5675L121.544 26.4309L121.544 32.704L112.135 29.5675Z" fill="#8D9EB0"/>
<path d="M121.482 29.1343L143.482 29.1343V29.8019L121.482 29.8019V29.1343Z" fill="#8D9EB0"/>
<path d="M158.217 29.5675L148.807 26.4309V32.704L158.217 29.5675Z" fill="#8D9EB0"/>
<path d="M148.87 29.1343L126.87 29.1343V29.8019L148.87 29.8019V29.1343Z" fill="#8D9EB0"/>
<path d="M61.5108 128.431L61.5108 145.832" stroke="#A9B6C3" stroke-width="0.756583"/>
<path d="M111.135 21.4309L111.135 38.8323" stroke="#A9B6C3" stroke-width="0.756583"/>
<path d="M159.135 21.4309L159.135 38.8323" stroke="#A9B6C3" stroke-width="0.756583"/>
<path d="M111.511 128.431L111.511 145.832" stroke="#A9B6C3" stroke-width="0.756583"/>
<path d="M210.292 75.7283L237.331 75.7283" stroke="#A9B6C3" stroke-width="0.756583"/>
<path d="M209.654 92.2717L237.809 92.2717" stroke="#A9B6C3" stroke-width="0.756583"/>
<path d="M249.352 77.4881L249.183 78.3726C248.467 77.6198 247.62 77.2246 246.454 77.2246C244.402 77.2246 242.483 78.8055 242.483 81.9671V82.814C242.483 86.1262 244.233 87.5 246.322 87.5C247.47 87.5 248.354 86.9919 248.994 86.2579V87.5188C248.994 89.0808 248.147 89.7583 246.661 89.7583C245.494 89.7583 244.666 89.5513 243.819 89.1561L243.085 90.5676C244.064 91.151 245.306 91.5085 246.83 91.5085C249.333 91.5085 251.271 90.1159 251.271 87.5376V77.4881H249.352ZM246.717 85.731C245.588 85.731 244.816 85.0911 244.816 82.814V81.9107C244.816 79.6523 245.72 78.9937 246.868 78.9937C247.752 78.9937 248.392 79.3512 248.919 79.9911V84.583C248.373 85.317 247.602 85.731 246.717 85.731ZM258.979 85.7122V74.3265H257.229L253.54 76.4719L254.406 78.0151L256.683 76.8859V85.7122H253.992V87.5H256.683H261.293V85.7122H258.979Z" fill="#8D9EB0"/>
<path d="M234.194 72.7588L237.331 63.3491L231.058 63.3491L234.194 72.7588Z" fill="#8D9EB0"/>
<path d="M234.735 63.5388L234.735 53.5388L234.067 53.5388L234.067 63.5388L234.735 63.5388Z" fill="#8D9EB0"/>
<path d="M234.067 95.2415L237.204 104.651L230.931 104.651L234.067 95.2415Z" fill="#8D9EB0"/>
<path d="M234.608 104.461L234.608 114.461L233.94 114.461L233.94 104.461L234.608 104.461Z" fill="#8D9EB0"/>
</svg>
