<svg width="290" height="175" viewBox="0 0 290 175" fill="none" xmlns="http://www.w3.org/2000/svg">
<rect x="99.9703" y="37.9849" width="21.3422" height="41.0312" fill="#D8D8D8" stroke="#989898" stroke-width="1.04552"/>
<rect x="176.103" y="37.9849" width="21.3422" height="41.0312" fill="#D8D8D8" stroke="#989898" stroke-width="1.04552"/>
<rect x="99.9703" y="99.8597" width="21.3422" height="41.0312" fill="#D8D8D8" stroke="#989898" stroke-width="1.04552"/>
<rect x="176.103" y="99.8597" width="21.3422" height="41.0312" fill="#D8D8D8" stroke="#989898" stroke-width="1.04552"/>
<path d="M78.6128 49.0161H76.2792V60.9475C76.2792 62.4343 77.2013 63.187 78.594 63.187C79.1209 63.187 79.5538 63.0741 79.9301 62.9424L79.6855 61.3427C79.5349 61.3616 79.4032 61.3804 79.2903 61.3804C78.7822 61.3804 78.6128 61.1545 78.6128 60.6088V49.0161Z" fill="#8D9EB0"/>
<path d="M152.748 25.9231C152.748 22.7426 151.148 21.0489 148.419 21.0489C145.634 21.0489 143.94 23.1002 143.94 25.8102V26.8452C143.94 29.5552 145.672 31.5689 148.72 31.5689C150.17 31.5689 151.525 31.0231 152.371 30.3833L151.543 28.9906C150.772 29.4235 149.963 29.8187 148.871 29.8187C147.14 29.8187 146.255 28.9718 146.217 27.0522H152.673C152.71 26.7511 152.748 26.3371 152.748 25.9231ZM150.659 25.5279H146.217C146.255 23.7024 147.008 22.7614 148.438 22.7614C149.887 22.7614 150.659 23.7024 150.659 25.4338V25.5279Z" fill="#8D9EB0"/>
<path d="M219.665 83.6634H212.533V85.4324H217.162L212.288 91.9816V93.6753H219.797V91.8875H214.791L219.665 85.3007V83.6634Z" fill="#8D9EB0"/>
<path d="M74.7951 157.782C75.9995 157.782 77.2416 157.293 78.0697 156.597L77.1099 155.223C76.4888 155.656 75.8302 156.032 74.908 156.032C73.4025 156.032 72.5744 155.016 72.5744 152.983V152.061C72.5744 150.01 73.4589 149.031 74.9268 149.031C75.8113 149.031 76.4136 149.276 77.0346 149.822L78.1449 148.58C77.2228 147.695 76.1877 147.262 74.8327 147.262C71.8781 147.262 70.2408 149.201 70.2408 152.099V152.946C70.2408 155.844 71.9157 157.782 74.7951 157.782Z" fill="#8D9EB0"/>
<path d="M123.165 151.734L132.574 154.87L132.574 148.597L123.165 151.734Z" fill="#8D9EB0"/>
<path d="M132.385 152.274L140.385 152.274L140.385 151.607L132.385 151.607L132.385 152.274Z" fill="#8D9EB0"/>
<path d="M90.1995 38.2375L93.3361 47.6472L87.0629 47.6472L90.1995 38.2375Z" fill="#8D9EB0"/>
<path d="M90.7402 47.4575L90.7402 60.4668L90.0726 60.4668L90.0726 47.4575L90.7402 47.4575Z" fill="#8D9EB0"/>
<path d="M90.1995 79.5391L93.3361 70.1294L87.0629 70.1294L90.1995 79.5391Z" fill="#8D9EB0"/>
<path d="M90.7402 70.3191L90.7402 60.4669L90.0726 60.4669L90.0726 70.3191L90.7402 70.3191Z" fill="#8D9EB0"/>
<path d="M97.8676 151.607L88.4579 148.47L88.4579 154.743L97.8676 151.607Z" fill="#8D9EB0"/>
<path d="M88.6476 151.066L80.6476 151.066L80.6476 151.734L88.6476 151.734L88.6476 151.066Z" fill="#8D9EB0"/>
<path d="M111.616 27.0738L121.025 23.9373L121.025 30.2104L111.616 27.0738Z" fill="#8D9EB0"/>
<path d="M120.963 26.6406L140.963 26.6406V27.3083L120.963 27.3083V26.6406Z" fill="#8D9EB0"/>
<path d="M216.479 138.74L213.342 129.33L219.616 129.33L216.479 138.74Z" fill="#8D9EB0"/>
<path d="M216.046 129.393L216.046 99.3926L216.713 99.3926L216.713 129.393L216.046 129.393Z" fill="#8D9EB0"/>
<path d="M185.941 27.0738L176.532 23.9373V30.2104L185.941 27.0738Z" fill="#8D9EB0"/>
<path d="M176.594 26.6406L156.594 26.6406V27.3083L176.594 27.3083V26.6406Z" fill="#8D9EB0"/>
<path d="M216.479 39.7361L213.342 49.1458L219.616 49.1458L216.479 39.7361Z" fill="#8D9EB0"/>
<path d="M216.046 49.083L216.046 79.083L216.713 79.083L216.713 49.083L216.046 49.083Z" fill="#8D9EB0"/>
<path d="M99.8575 142.147L99.8575 162.147" stroke="#A9B6C3" stroke-width="0.756583"/>
<path d="M110.641 18.9372L110.641 36.3386" stroke="#A9B6C3" stroke-width="0.756583"/>
<path d="M186.774 18.9372L186.774 36.3386" stroke="#A9B6C3" stroke-width="0.756583"/>
<path d="M121.425 142.147L121.425 162.147" stroke="#A9B6C3" stroke-width="0.756583"/>
<path d="M216.845 140.638H199.443" stroke="#A9B6C3" stroke-width="0.756583"/>
<path d="M216.845 37.4622H199.443" stroke="#A9B6C3" stroke-width="0.756583"/>
</svg>
