<svg width="290" height="175" viewBox="0 0 290 175" fill="none" xmlns="http://www.w3.org/2000/svg">
<path d="M182 22.0047L222 22.0047" stroke="#A9B6C3" stroke-width="0.756583"/>
<path d="M182 149.005L222 149.005" stroke="#A9B6C3" stroke-width="0.756583"/>
<path d="M209 163.005L209 115.005" stroke="#A9B6C3" stroke-width="0.756583"/>
<path d="M65 115.005L65 161.005" stroke="#A9B6C3" stroke-width="0.756583"/>
<path d="M225.137 81.7597H219.975V83.0398H223.325L219.798 87.779V89.0047H225.232V87.7109H221.609L225.137 82.9445V81.7597Z" fill="#8D9EB0"/>
<path d="M135.892 158.76H130.73V160.04H134.08L130.553 164.779V166.005H135.987V164.711H132.364L135.892 159.944V158.76ZM140.86 164.711V156.472H139.593L136.924 158.024L137.55 159.141L139.198 158.324V164.711H137.251V166.005H139.198H142.535V164.711H140.86Z" fill="#8D9EB0"/>
<path d="M222.914 22.0047L220.644 28.8139L225.183 28.8139L222.914 22.0047Z" fill="#8D9EB0"/>
<path d="M222.535 28.814L222.535 73.814L223.292 73.814L223.292 28.814L222.535 28.814Z" fill="#8D9EB0"/>
<path d="M207.479 162.274L200.67 164.544L200.67 160.005L207.479 162.274Z" fill="#8D9EB0"/>
<path d="M200.67 162.653L145.67 162.653L145.67 161.896L200.67 161.896L200.67 162.653Z" fill="#8D9EB0"/>
<path d="M222.913 149.484L225.183 142.675L220.644 142.675L222.913 149.484Z" fill="#8D9EB0"/>
<path d="M223.292 142.675L223.292 97.6747L222.535 97.6747L222.535 142.675L223.292 142.675Z" fill="#8D9EB0"/>
<path d="M66 162.418L72.8092 160.149L72.8092 164.688L66 162.418Z" fill="#8D9EB0"/>
<path d="M72.8092 162.04L126.809 162.04L126.809 162.797L72.8092 162.797L72.8092 162.04Z" fill="#8D9EB0"/>
<rect x="94.6431" y="40.5523" width="18.3557" height="8.01153" transform="rotate(-90 94.6431 40.5523)" fill="#D8D8D8" stroke="#989898" stroke-width="0.393122"/>
<rect x="110.159" y="40.5523" width="18.3557" height="8.01153" transform="rotate(-90 110.159 40.5523)" fill="#D8D8D8" stroke="#989898" stroke-width="0.393122"/>
<rect x="125.676" y="40.5523" width="18.3557" height="8.01153" transform="rotate(-90 125.676 40.5523)" fill="#D8D8D8" stroke="#989898" stroke-width="0.393122"/>
<rect x="141.192" y="40.5523" width="18.3557" height="8.01153" transform="rotate(-90 141.192 40.5523)" fill="#D8D8D8" stroke="#989898" stroke-width="0.393122"/>
<rect x="156.708" y="40.5523" width="18.3557" height="8.01153" transform="rotate(-90 156.708 40.5523)" fill="#D8D8D8" stroke="#989898" stroke-width="0.393122"/>
<rect x="172.225" y="40.5523" width="18.3557" height="8.01153" transform="rotate(-90 172.225 40.5523)" fill="#D8D8D8" stroke="#989898" stroke-width="0.393122"/>
<rect x="94.6431" y="149.166" width="18.3557" height="8.01153" transform="rotate(-90 94.6431 149.166)" fill="#D8D8D8" stroke="#989898" stroke-width="0.393122"/>
<rect x="110.159" y="149.166" width="18.3557" height="8.01153" transform="rotate(-90 110.159 149.166)" fill="#D8D8D8" stroke="#989898" stroke-width="0.393122"/>
<rect x="125.676" y="149.166" width="18.3557" height="8.01153" transform="rotate(-90 125.676 149.166)" fill="#D8D8D8" stroke="#989898" stroke-width="0.393122"/>
<rect x="141.192" y="149.166" width="18.3557" height="8.01153" transform="rotate(-90 141.192 149.166)" fill="#D8D8D8" stroke="#989898" stroke-width="0.393122"/>
<rect x="156.708" y="149.166" width="18.3557" height="8.01153" transform="rotate(-90 156.708 149.166)" fill="#D8D8D8" stroke="#989898" stroke-width="0.393122"/>
<rect x="172.225" y="149.166" width="18.3557" height="8.01153" transform="rotate(-90 172.225 149.166)" fill="#D8D8D8" stroke="#989898" stroke-width="0.393122"/>
<rect x="208.552" y="113.608" width="18.3557" height="8.01153" transform="rotate(180 208.552 113.608)" fill="#D8D8D8" stroke="#989898" stroke-width="0.393122"/>
<rect x="208.552" y="98.0918" width="18.3557" height="8.01153" transform="rotate(180 208.552 98.0918)" fill="#D8D8D8" stroke="#989898" stroke-width="0.393122"/>
<rect x="208.552" y="82.5756" width="18.3557" height="8.01153" transform="rotate(180 208.552 82.5756)" fill="#D8D8D8" stroke="#989898" stroke-width="0.393122"/>
<rect x="208.552" y="67.0593" width="18.3557" height="8.01153" transform="rotate(180 208.552 67.0593)" fill="#D8D8D8" stroke="#989898" stroke-width="0.393122"/>
<rect x="83.5523" y="113.608" width="18.3557" height="8.01153" transform="rotate(180 83.5523 113.608)" fill="#D8D8D8" stroke="#989898" stroke-width="0.393122"/>
<rect x="83.5523" y="98.0918" width="18.3557" height="8.01153" transform="rotate(180 83.5523 98.0918)" fill="#D8D8D8" stroke="#989898" stroke-width="0.393122"/>
<rect x="83.5523" y="82.5756" width="18.3557" height="8.01153" transform="rotate(180 83.5523 82.5756)" fill="#D8D8D8" stroke="#989898" stroke-width="0.393122"/>
<rect x="83.5523" y="67.0593" width="18.3557" height="8.01153" transform="rotate(180 83.5523 67.0593)" fill="#D8D8D8" stroke="#989898" stroke-width="0.393122"/>
<path d="M92.7048 22.0047H75.3033" stroke="#A9B6C3" stroke-width="0.756583"/>
<path d="M92.7048 40.0903H75.3033" stroke="#A9B6C3" stroke-width="0.756583"/>
<path d="M71.8232 26.1367H70.1346V34.7708C70.1346 35.8467 70.8019 36.3914 71.8096 36.3914C72.1909 36.3914 72.5042 36.3097 72.7765 36.2144L72.5995 35.0568C72.4906 35.0704 72.3952 35.084 72.3135 35.084C71.9458 35.084 71.8232 34.9206 71.8232 34.5257V26.1367Z" fill="#8D9EB0"/>
<path d="M84.05 23.1806L85.4994 28.0119L82.359 28.0119L84.05 23.1806Z" fill="#8D9EB0"/>
<path d="M84.05 38.6408L82.6006 33.8095L85.7409 33.8095L84.05 38.6408Z" fill="#8D9EB0"/>
<path d="M84.2915 28.0119L84.2915 34.7758L83.8084 34.7758L83.8084 28.0119L84.2915 28.0119Z" fill="#8D9EB0"/>
<path d="M63.4014 59.0047L46 59.0047" stroke="#A9B6C3" stroke-width="0.756583"/>
<path d="M63.4014 67.0047L46 67.0047" stroke="#A9B6C3" stroke-width="0.756583"/>
<path d="M39.5351 67.1817C40.4067 67.1817 41.3055 66.8277 41.9047 66.3238L41.2102 65.3296C40.7608 65.6429 40.2841 65.9152 39.6168 65.9152C38.5273 65.9152 37.9281 65.1798 37.9281 63.709V63.0417C37.9281 61.5573 38.5682 60.8491 39.6304 60.8491C40.2705 60.8491 40.7063 61.0262 41.1557 61.4211L41.9592 60.5223C41.2919 59.8822 40.5429 59.569 39.5623 59.569C37.4242 59.569 36.2394 60.9717 36.2394 63.069V63.6818C36.2394 65.779 37.4515 67.1817 39.5351 67.1817Z" fill="#8D9EB0"/>
<path d="M129.681 21.3654L129.681 14.2808" stroke="#A9B6C3" stroke-width="0.756583"/>
<path d="M114.165 21.3654L114.165 14.2808" stroke="#A9B6C3" stroke-width="0.756583"/>
<path d="M124.97 8.57016C124.97 6.26863 123.812 5.04297 121.838 5.04297C119.822 5.04297 118.596 6.52738 118.596 8.48845V9.23746C118.596 11.1985 119.849 12.6557 122.056 12.6557C123.104 12.6557 124.085 12.2608 124.698 11.7977L124.098 10.79C123.54 11.1032 122.954 11.3892 122.164 11.3892C120.912 11.3892 120.272 10.7764 120.244 9.38727H124.915C124.943 9.16937 124.97 8.86976 124.97 8.57016ZM123.458 8.28417H120.244C120.272 6.96318 120.816 6.28225 121.851 6.28225C122.9 6.28225 123.458 6.96318 123.458 8.21608V8.28417Z" fill="#8D9EB0"/>
<path d="M129.061 17.9439L124.229 19.3932L124.229 16.2529L129.061 17.9439Z" fill="#8D9EB0"/>
<path d="M114.865 17.7023L119.696 16.2529L119.696 19.3932L114.865 17.7023Z" fill="#8D9EB0"/>
<path d="M124.229 18.0646L119.304 18.0646L119.304 17.5815L124.229 17.5815L124.229 18.0646Z" fill="#8D9EB0"/>
</svg>
