<svg width="290" height="175" viewBox="0 0 290 175" fill="none" xmlns="http://www.w3.org/2000/svg">
<mask id="path-1-inside-1" fill="white">
<path fill-rule="evenodd" clip-rule="evenodd" d="M133.027 148.764C166.862 148.764 194.291 121.335 194.291 87.5C194.291 53.6646 166.862 26.2356 133.027 26.2356C99.1916 26.2356 71.7626 53.6646 71.7626 87.5C71.7626 121.335 99.1916 148.764 133.027 148.764ZM133.027 121.059C151.561 121.059 166.587 106.034 166.587 87.4999C166.587 68.9655 151.561 53.9404 133.027 53.9404C114.493 53.9404 99.4676 68.9655 99.4676 87.4999C99.4676 106.034 114.493 121.059 133.027 121.059Z"/>
</mask>
<path fill-rule="evenodd" clip-rule="evenodd" d="M133.027 148.764C166.862 148.764 194.291 121.335 194.291 87.5C194.291 53.6646 166.862 26.2356 133.027 26.2356C99.1916 26.2356 71.7626 53.6646 71.7626 87.5C71.7626 121.335 99.1916 148.764 133.027 148.764ZM133.027 121.059C151.561 121.059 166.587 106.034 166.587 87.4999C166.587 68.9655 151.561 53.9404 133.027 53.9404C114.493 53.9404 99.4676 68.9655 99.4676 87.4999C99.4676 106.034 114.493 121.059 133.027 121.059Z" fill="#D8D8D8"/>
<path d="M192.621 87.5C192.621 120.413 165.94 147.094 133.027 147.094V150.434C167.785 150.434 195.961 122.258 195.961 87.5H192.621ZM133.027 27.9056C165.94 27.9056 192.621 54.5869 192.621 87.5H195.961C195.961 52.7423 167.785 24.5656 133.027 24.5656V27.9056ZM73.4326 87.5C73.4326 54.5869 100.114 27.9056 133.027 27.9056V24.5656C98.2693 24.5656 70.0926 52.7423 70.0926 87.5H73.4326ZM133.027 147.094C100.114 147.094 73.4326 120.413 73.4326 87.5H70.0926C70.0926 122.258 98.2693 150.434 133.027 150.434V147.094ZM164.917 87.4999C164.917 105.112 150.639 119.389 133.027 119.389V122.729C152.484 122.729 168.257 106.957 168.257 87.4999H164.917ZM133.027 55.6104C150.639 55.6104 164.917 69.8878 164.917 87.4999H168.257C168.257 68.0432 152.484 52.2704 133.027 52.2704V55.6104ZM101.138 87.4999C101.138 69.8878 115.415 55.6104 133.027 55.6104V52.2704C113.57 52.2704 97.7976 68.0432 97.7976 87.4999H101.138ZM133.027 119.389C115.415 119.389 101.138 105.112 101.138 87.4999H97.7976C97.7976 106.957 113.57 122.729 133.027 122.729V119.389Z" fill="#989898" mask="url(#path-1-inside-1)"/>
<path d="M111.498 108.654L115.934 99.7824L120.37 104.218L111.498 108.654Z" fill="#8D9EB0"/>
<path d="M117.801 101.738L133.358 86.1819L133.83 86.654L118.273 102.21L117.801 101.738Z" fill="#8D9EB0"/>
<path d="M153.806 66.3463L144.934 70.7821L149.37 75.2178L153.806 66.3463Z" fill="#8D9EB0"/>
<path d="M146.89 72.6494L131.334 88.2058L131.806 88.6779L147.362 73.1215L146.89 72.6494Z" fill="#8D9EB0"/>
<path d="M140.13 91.7502L144.248 95.8597L143.466 96.6418L139.348 92.5323L140.13 91.7502Z" fill="#8D9EB0"/>
<path d="M241.397 91.8478C240.243 91.8478 239.328 92.2458 238.651 92.9423V87.9869H236.183V102.714H238.114L238.313 101.798C239.049 102.555 239.964 102.973 241.099 102.973C243.527 102.973 245.417 100.863 245.417 97.9376V96.8629C245.417 93.7981 243.825 91.8478 241.397 91.8478ZM242.95 98.0172C242.95 100.047 242.054 101.122 240.681 101.122C239.865 101.122 239.188 100.803 238.651 100.226V94.8529C239.188 94.1762 239.944 93.7185 240.9 93.7185C242.253 93.7185 242.95 94.7135 242.95 96.7833V98.0172ZM252.717 100.823V88.783H250.866L246.966 91.0517L247.881 92.6836L250.289 91.4895V100.823H247.443V102.714H250.289H255.165V100.823H252.717Z" fill="#8D9EB0"/>
<path d="M143.492 95.54L207.312 95.5341L207.315 96.6401L143.494 96.6459L143.492 95.54Z" fill="#8D9EB0"/>
<path d="M221.487 88.3645C217.726 88.3645 215.915 90.7925 215.915 94.0364V97.141C215.915 100.305 217.726 102.773 221.487 102.773C225.269 102.773 227.06 100.305 227.06 97.141V94.0364C227.06 90.7925 225.269 88.3645 221.487 88.3645ZM221.487 89.9765C223.935 89.9765 225.05 91.6681 225.05 93.9966V97.1808C225.05 99.4495 223.935 101.161 221.487 101.161C219.039 101.161 217.945 99.4495 217.945 97.1808V93.9966C217.945 91.6482 219.059 89.9765 221.487 89.9765Z" fill="#8D9EB0"/>
<path d="M225.991 86.6348L216.028 103.88L216.985 104.433L226.949 87.1882L225.991 86.6348Z" fill="#8D9EB0"/>
<path d="M46.6736 80.8807C45.4 80.8807 44.405 81.3583 43.6886 82.1742L43.5493 81.1593H41.4399V95.7261H43.9075V91.1491C44.604 91.7063 45.4 92.0048 46.3552 92.0048C48.8029 92.0048 50.6735 89.9153 50.6735 86.9502V85.8955C50.6735 82.8508 49.0218 80.8807 46.6736 80.8807ZM48.2059 87.0298C48.2059 89.0994 47.3303 90.1541 45.9174 90.1541C45.1413 90.1541 44.5045 89.8954 43.9075 89.3979V83.8657C44.4448 83.1692 45.2209 82.7513 46.1164 82.7513C47.4298 82.7513 48.2059 83.7662 48.2059 85.8159V87.0298Z" fill="#8D9EB0"/>
<path d="M45.3816 145.674L42.2451 136.264L48.5182 136.264L45.3816 145.674Z" fill="#8D9EB0"/>
<path d="M44.9485 136.327L44.9485 102.327L45.6161 102.327L45.6161 136.327L44.9485 136.327Z" fill="#8D9EB0"/>
<path d="M45.1471 29.5068L42.0106 38.9165L48.2837 38.9165L45.1471 29.5068Z" fill="#8D9EB0"/>
<path d="M44.714 38.8538L44.714 72.8538L45.3816 72.8538L45.3816 38.8538L44.714 38.8538Z" fill="#8D9EB0"/>
<path d="M111.558 148.764L39.837 148.764" stroke="#A9B6C3" stroke-width="0.756583"/>
<path d="M111.558 26.2356L39.837 26.2356" stroke="#A9B6C3" stroke-width="0.756583"/>
</svg>
