<svg width="290" height="175" viewBox="0 0 290 175" fill="none" xmlns="http://www.w3.org/2000/svg">
<path d="M190.5 25.0047L230.5 25.0047" stroke="#A9B6C3" stroke-width="0.756583"/>
<path d="M190.5 152.005L230.5 152.005" stroke="#A9B6C3" stroke-width="0.756583"/>
<path d="M217.5 166.005L217.5 118.005" stroke="#A9B6C3" stroke-width="0.756583"/>
<path d="M73.5 118.005L73.5 164.005" stroke="#A9B6C3" stroke-width="0.756583"/>
<path d="M230.392 84.7597H225.23V86.0398H228.58L225.053 90.779V92.0047H230.487V90.7109H226.864L230.392 85.9445V84.7597ZM235.36 90.7109V82.4718H234.093L231.424 84.0243L232.05 85.141L233.698 84.3239V90.7109H231.751V92.0047H233.698H237.035V90.7109H235.36Z" fill="#8D9EB0"/>
<path d="M148.637 161.76H143.475V163.04H146.825L143.298 167.779V169.005H148.732V167.711H145.109L148.637 162.945V161.76Z" fill="#8D9EB0"/>
<path d="M231.413 25.0047L229.144 31.8139L233.683 31.8139L231.413 25.0047Z" fill="#8D9EB0"/>
<path d="M231.035 31.814L231.035 76.814L231.792 76.814L231.792 31.814L231.035 31.814Z" fill="#8D9EB0"/>
<path d="M215.979 165.275L209.17 167.544L209.17 163.005L215.979 165.275Z" fill="#8D9EB0"/>
<path d="M209.17 165.653L154.17 165.653L154.17 164.896L209.17 164.896L209.17 165.653Z" fill="#8D9EB0"/>
<path d="M231.413 152.484L233.683 145.675L229.144 145.675L231.413 152.484Z" fill="#8D9EB0"/>
<path d="M231.792 145.675L231.792 100.675L231.035 100.675L231.035 145.675L231.792 145.675Z" fill="#8D9EB0"/>
<path d="M74.5 165.418L81.3092 163.149L81.3092 167.688L74.5 165.418Z" fill="#8D9EB0"/>
<path d="M81.3093 165.04L136.309 165.04L136.309 165.797L81.3093 165.797L81.3093 165.04Z" fill="#8D9EB0"/>
<rect x="103.143" y="43.5523" width="18.3557" height="8.01153" transform="rotate(-90 103.143 43.5523)" fill="#D8D8D8" stroke="#989898" stroke-width="0.393122"/>
<rect x="118.659" y="43.5523" width="18.3557" height="8.01153" transform="rotate(-90 118.659 43.5523)" fill="#D8D8D8" stroke="#989898" stroke-width="0.393122"/>
<rect x="134.176" y="43.5523" width="18.3557" height="8.01153" transform="rotate(-90 134.176 43.5523)" fill="#D8D8D8" stroke="#989898" stroke-width="0.393122"/>
<rect x="149.692" y="43.5523" width="18.3557" height="8.01153" transform="rotate(-90 149.692 43.5523)" fill="#D8D8D8" stroke="#989898" stroke-width="0.393122"/>
<rect x="165.208" y="43.5523" width="18.3557" height="8.01153" transform="rotate(-90 165.208 43.5523)" fill="#D8D8D8" stroke="#989898" stroke-width="0.393122"/>
<rect x="180.725" y="43.5523" width="18.3557" height="8.01153" transform="rotate(-90 180.725 43.5523)" fill="#D8D8D8" stroke="#989898" stroke-width="0.393122"/>
<rect x="103.143" y="152.166" width="18.3557" height="8.01153" transform="rotate(-90 103.143 152.166)" fill="#D8D8D8" stroke="#989898" stroke-width="0.393122"/>
<rect x="118.659" y="152.166" width="18.3557" height="8.01153" transform="rotate(-90 118.659 152.166)" fill="#D8D8D8" stroke="#989898" stroke-width="0.393122"/>
<rect x="134.176" y="152.166" width="18.3557" height="8.01153" transform="rotate(-90 134.176 152.166)" fill="#D8D8D8" stroke="#989898" stroke-width="0.393122"/>
<rect x="149.692" y="152.166" width="18.3557" height="8.01153" transform="rotate(-90 149.692 152.166)" fill="#D8D8D8" stroke="#989898" stroke-width="0.393122"/>
<rect x="165.208" y="152.166" width="18.3557" height="8.01153" transform="rotate(-90 165.208 152.166)" fill="#D8D8D8" stroke="#989898" stroke-width="0.393122"/>
<rect x="180.725" y="152.166" width="18.3557" height="8.01153" transform="rotate(-90 180.725 152.166)" fill="#D8D8D8" stroke="#989898" stroke-width="0.393122"/>
<rect x="217.052" y="116.608" width="18.3557" height="8.01153" transform="rotate(180 217.052 116.608)" fill="#D8D8D8" stroke="#989898" stroke-width="0.393122"/>
<rect x="217.052" y="101.092" width="18.3557" height="8.01153" transform="rotate(180 217.052 101.092)" fill="#D8D8D8" stroke="#989898" stroke-width="0.393122"/>
<rect x="217.052" y="85.5756" width="18.3557" height="8.01153" transform="rotate(180 217.052 85.5756)" fill="#D8D8D8" stroke="#989898" stroke-width="0.393122"/>
<rect x="217.052" y="70.0593" width="18.3557" height="8.01153" transform="rotate(180 217.052 70.0593)" fill="#D8D8D8" stroke="#989898" stroke-width="0.393122"/>
<rect x="92.0523" y="116.608" width="18.3557" height="8.01153" transform="rotate(180 92.0523 116.608)" fill="#D8D8D8" stroke="#989898" stroke-width="0.393122"/>
<rect x="92.0523" y="101.092" width="18.3557" height="8.01153" transform="rotate(180 92.0523 101.092)" fill="#D8D8D8" stroke="#989898" stroke-width="0.393122"/>
<rect x="92.0523" y="85.5756" width="18.3557" height="8.01153" transform="rotate(180 92.0523 85.5756)" fill="#D8D8D8" stroke="#989898" stroke-width="0.393122"/>
<rect x="92.0523" y="70.0593" width="18.3557" height="8.01153" transform="rotate(180 92.0523 70.0593)" fill="#D8D8D8" stroke="#989898" stroke-width="0.393122"/>
<path d="M101.205 25.0047H83.8033" stroke="#A9B6C3" stroke-width="0.756583"/>
<path d="M138.181 24.3891L138.181 17.3045" stroke="#A9B6C3" stroke-width="0.756583"/>
<path d="M101.205 43.0903H83.8033" stroke="#A9B6C3" stroke-width="0.756583"/>
<path d="M122.665 24.3891L122.665 17.3045" stroke="#A9B6C3" stroke-width="0.756583"/>
<path d="M80.3232 29.1367H78.6346V37.7708C78.6346 38.8467 79.3019 39.3914 80.3096 39.3914C80.6909 39.3914 81.0042 39.3097 81.2765 39.2144L81.0995 38.0568C80.9906 38.0704 80.8952 38.084 80.8135 38.084C80.4458 38.084 80.3232 37.9206 80.3232 37.5257V29.1367Z" fill="#8D9EB0"/>
<path d="M133.47 11.5939C133.47 9.29235 132.312 8.06668 130.338 8.06668C128.322 8.06668 127.096 9.5511 127.096 11.5122V12.2612C127.096 14.2222 128.349 15.6794 130.556 15.6794C131.604 15.6794 132.585 15.2845 133.198 14.8215L132.598 13.8137C132.04 14.1269 131.454 14.4129 130.665 14.4129C129.412 14.4129 128.772 13.8001 128.744 12.411H133.415C133.443 12.1931 133.47 11.8935 133.47 11.5939ZM131.958 11.3079H128.744C128.772 9.98689 129.316 9.30597 130.351 9.30597C131.4 9.30597 131.958 9.98689 131.958 11.2398V11.3079Z" fill="#8D9EB0"/>
<path d="M92.55 26.1806L93.9994 31.0119L90.859 31.0119L92.55 26.1806Z" fill="#8D9EB0"/>
<path d="M92.55 41.6408L91.1006 36.8095L94.2409 36.8095L92.55 41.6408Z" fill="#8D9EB0"/>
<path d="M92.7915 31.0119L92.7915 37.7758L92.3084 37.7758L92.3084 31.0119L92.7915 31.0119Z" fill="#8D9EB0"/>
<path d="M137.561 20.9676L132.729 22.417L132.729 19.2766L137.561 20.9676Z" fill="#8D9EB0"/>
<path d="M123.365 20.726L128.196 19.2766L128.196 22.417L123.365 20.726Z" fill="#8D9EB0"/>
<path d="M132.729 21.0884L127.804 21.0884L127.804 20.6052L132.729 20.6052L132.729 21.0884Z" fill="#8D9EB0"/>
<path d="M71.9014 62.0047L54.5 62.0047" stroke="#A9B6C3" stroke-width="0.756583"/>
<path d="M71.9014 70.0047L54.5 70.0047" stroke="#A9B6C3" stroke-width="0.756583"/>
<path d="M48.0351 70.1817C48.9067 70.1817 49.8055 69.8277 50.4047 69.3238L49.7102 68.3296C49.2608 68.6429 48.7841 68.9152 48.1168 68.9152C47.0273 68.9152 46.4281 68.1798 46.4281 66.709V66.0417C46.4281 64.5573 47.0682 63.8491 48.1304 63.8491C48.7705 63.8491 49.2063 64.0262 49.6557 64.4211L50.4592 63.5223C49.7919 62.8822 49.0429 62.569 48.0623 62.569C45.9242 62.569 44.7394 63.9717 44.7394 66.069V66.6818C44.7394 68.779 45.9515 70.1817 48.0351 70.1817Z" fill="#8D9EB0"/>
</svg>
