<svg width="20" height="22" viewBox="0 0 20 22" xmlns="http://www.w3.org/2000/svg" role="img" title="">
    <path d="M19.0442354,17.4210088 L14.9932354,13.0790088 C15.9662354,11.6010088 16.4232354,9.85500882 16.2772354,8.06300882 C16.1052354,5.93800882 15.1132354,4.00700882 13.4892354,2.62700882 C10.5102354,0.0960088204 6.0412354,0.11800882 3.0942354,2.67600882 C2.7902354,2.94200882 2.5012354,3.23200882 2.2392354,3.54200882 C-0.610764603,6.89600882 -0.200764603,11.9430088 3.1542354,14.7920088 C5.5072354,16.7910088 8.7872354,17.1900088 11.5142354,16.0120088 C11.5472354,16.0520088 11.5722354,16.0970088 11.6072354,16.1360088 L15.7082354,20.5320088 C16.2072354,21.0660088 16.9012354,21.3080088 17.5772354,21.2480088 C18.0662354,21.2050088 18.5452354,21.0050088 18.9312354,20.6440088 C19.8532354,19.7850088 19.9022354,18.3420088 19.0442354,17.4210088 L19.0442354,17.4210088 Z M5.2222354,12.3590088 C3.2092354,10.6480088 2.9632354,7.62100882 4.6722354,5.60800882 C4.8312354,5.42100882 5.0052354,5.24600882 5.1872354,5.08700882 C6.9532354,3.55300882 9.6352354,3.54200882 11.4222354,5.06000882 C12.3972354,5.88800882 12.9912354,7.04700882 13.0952354,8.32200882 C13.1982354,9.59600882 12.8002354,10.8350088 11.9722354,11.8110088 C11.8132354,11.9970088 11.6392354,12.1730088 11.4562354,12.3320088 C9.6882354,13.8650088 7.0082354,13.8780088 5.2222354,12.3590088 L5.2222354,12.3590088 Z" fill="Gray" fill-rule="evenodd"></path>
</svg>