<svg width="290" height="175" viewBox="0 0 290 175" fill="none" xmlns="http://www.w3.org/2000/svg">
<rect x="50.8989" y="59.2129" width="68.3889" height="46.7618" fill="#D8D8D8" stroke="#989898" stroke-width="1.04552"/>
<rect x="181.088" y="59.2129" width="68.3889" height="46.7618" fill="#D8D8D8" stroke="#989898" stroke-width="1.04552"/>
<path d="M31.7491 87.6543C32.9535 87.6543 34.1956 87.165 35.0237 86.4687L34.0639 85.0949C33.4428 85.5277 32.7841 85.9041 31.862 85.9041C30.3565 85.9041 29.5284 84.8879 29.5284 82.8554V81.9332C29.5284 79.8819 30.4129 78.9033 31.8808 78.9033C32.7653 78.9033 33.3675 79.148 33.9886 79.6937L35.0989 78.4517C34.1768 77.5672 33.1417 77.1343 31.7867 77.1343C28.8321 77.1343 27.1948 79.0727 27.1948 81.9709V82.8177C27.1948 85.7159 28.8697 87.6543 31.7491 87.6543Z" fill="#8D9EB0"/>
<path d="M31.6822 58.6901L34.6866 68.0371L29.0117 68.0371L31.6822 58.6901Z" fill="#8D9EB0"/>
<path d="M32.3498 68.037L32.3498 73.3782L31.6822 73.3782L31.6822 68.037L32.3498 68.037Z" fill="#8D9EB0"/>
<path d="M152.278 48.9881L152.108 49.8726C151.393 49.1198 150.546 48.7246 149.38 48.7246C147.328 48.7246 145.409 50.3055 145.409 53.4671V54.314C145.409 57.6262 147.159 59 149.248 59C150.396 59 151.28 58.4919 151.92 57.7579V59.0188C151.92 60.5808 151.073 61.2583 149.587 61.2583C148.42 61.2583 147.592 61.0513 146.745 60.6561L146.011 62.0676C146.99 62.651 148.232 63.0085 149.756 63.0085C152.259 63.0085 154.197 61.6159 154.197 59.0376V48.9881H152.278ZM149.643 57.231C148.514 57.231 147.742 56.5911 147.742 54.314V53.4107C147.742 51.1523 148.646 50.4937 149.794 50.4937C150.678 50.4937 151.318 50.8512 151.845 51.4911V56.083C151.299 56.817 150.528 57.231 149.643 57.231Z" fill="#8D9EB0"/>
<path d="M216.426 116.84H214.092V128.771C214.092 130.258 215.014 131.011 216.407 131.011C216.934 131.011 217.367 130.898 217.743 130.766L217.498 129.166C217.348 129.185 217.216 129.204 217.103 129.204C216.595 129.204 216.426 128.978 216.426 128.432V116.84Z" fill="#8D9EB0"/>
<path d="M180.439 52.4798L171.029 55.6163L171.029 49.3432L180.439 52.4798Z" fill="#8D9EB0"/>
<path d="M171.219 53.349L157.866 53.349L157.866 52.6814L171.219 52.6814L171.219 53.349Z" fill="#8D9EB0"/>
<path d="M249.873 124.246L240.463 127.382L240.463 121.109L249.873 124.246Z" fill="#8D9EB0"/>
<path d="M240.653 124.786L223.962 124.786L223.962 124.119L240.653 124.119L240.653 124.786Z" fill="#8D9EB0"/>
<path d="M180.566 124.246L189.975 121.109L189.975 127.382L180.566 124.246Z" fill="#8D9EB0"/>
<path d="M189.786 123.705L206.477 123.705L206.477 124.373L189.786 124.373L189.786 123.705Z" fill="#8D9EB0"/>
<path d="M119.81 53.1145L129.22 49.978V56.2511L119.81 53.1145Z" fill="#8D9EB0"/>
<path d="M129.157 52.6814L143.178 52.6814V53.349L129.157 53.349V52.6814Z" fill="#8D9EB0"/>
<path d="M32.016 106.092L29.0117 96.7455L34.6866 96.7455L32.016 106.092Z" fill="#8D9EB0"/>
<path d="M31.6822 96.7455L31.6822 91.4044L32.3499 91.4044L32.3499 96.7455L31.6822 96.7455Z" fill="#8D9EB0"/>
</svg>
