<svg width="290" height="175" viewBox="0 0 290 175" fill="none" xmlns="http://www.w3.org/2000/svg">
<rect x="67.7405" y="19.2024" width="15.8311" height="44.9936" fill="#D8D8D8" stroke="#989898" stroke-width="0.694346"/>
<rect x="219.108" y="142.657" width="15.8311" height="44.9936" transform="rotate(-180 219.108 142.657)" fill="#D8D8D8" stroke="#989898" stroke-width="0.694346"/>
<rect x="121.899" y="19.2024" width="15.8311" height="44.9936" fill="#D8D8D8" stroke="#989898" stroke-width="0.694346"/>
<rect x="164.949" y="142.657" width="15.8311" height="44.9936" transform="rotate(-180 164.949 142.657)" fill="#D8D8D8" stroke="#989898" stroke-width="0.694346"/>
<rect x="176.058" y="19.2024" width="15.8311" height="44.9936" fill="#D8D8D8" stroke="#989898" stroke-width="0.694346"/>
<rect x="110.79" y="142.657" width="15.8311" height="44.9936" transform="rotate(-180 110.79 142.657)" fill="#D8D8D8" stroke="#989898" stroke-width="0.694346"/>
<rect x="94.9589" y="19.2024" width="15.8311" height="44.9936" fill="#D8D8D8" stroke="#989898" stroke-width="0.694346"/>
<rect x="191.89" y="142.657" width="15.8311" height="44.9936" transform="rotate(-180 191.89 142.657)" fill="#D8D8D8" stroke="#989898" stroke-width="0.694346"/>
<rect x="149.118" y="19.2024" width="15.8311" height="44.9936" fill="#D8D8D8" stroke="#989898" stroke-width="0.694346"/>
<rect x="137.731" y="142.657" width="15.8311" height="44.9936" transform="rotate(-180 137.731 142.657)" fill="#D8D8D8" stroke="#989898" stroke-width="0.694346"/>
<rect x="203.277" y="19.2024" width="15.8311" height="44.9936" fill="#D8D8D8" stroke="#989898" stroke-width="0.694346"/>
<rect x="83.5715" y="142.657" width="15.8311" height="44.9936" transform="rotate(-180 83.5715 142.657)" fill="#D8D8D8" stroke="#989898" stroke-width="0.694346"/>
<path d="M66.699 19.5496H50.729" stroke="#A9B6C3" stroke-width="0.694346"/>
<path d="M231.434 19.0757H220.699" stroke="#A9B6C3" stroke-width="0.694346"/>
<path d="M231.434 142.906H220.699" stroke="#A9B6C3" stroke-width="0.694346"/>
<path d="M66.699 63.9878H50.729" stroke="#A9B6C3" stroke-width="0.694346"/>
<path d="M67.3933 80.6521L67.3933 96.622" stroke="#A9B6C3" stroke-width="0.694346"/>
<path d="M84.0576 80.6521L84.0576 96.622" stroke="#A9B6C3" stroke-width="0.694346"/>
<path d="M58.1765 37.6524H56.6267V45.5762C56.6267 46.5636 57.2392 47.0635 58.164 47.0635C58.514 47.0635 58.8014 46.9885 59.0514 46.901L58.8889 45.8387C58.7889 45.8512 58.7015 45.8637 58.6265 45.8637C58.289 45.8637 58.1765 45.7137 58.1765 45.3513V37.6524Z" fill="#8D9EB0"/>
<path d="M54.3959 110.613C55.1957 110.613 56.0206 110.288 56.5706 109.825L55.9331 108.913C55.5207 109.2 55.0833 109.45 54.4708 109.45C53.471 109.45 52.9211 108.776 52.9211 107.426V106.813C52.9211 105.451 53.5085 104.801 54.4833 104.801C55.0708 104.801 55.4707 104.964 55.8831 105.326L56.6205 104.501C56.0081 103.914 55.3207 103.626 54.4209 103.626C52.4586 103.626 51.3713 104.914 51.3713 106.838V107.401C51.3713 109.325 52.4836 110.613 54.3959 110.613Z" fill="#8D9EB0"/>
<path d="M228.818 77.9765H224.081V79.1514H227.156L223.919 83.5007V84.6256H228.906V83.4382H225.581L228.818 79.0639V77.9765Z" fill="#8D9EB0"/>
<path d="M57.6725 21.6326L59.7555 27.8817L55.5894 27.8817L57.6725 21.6326Z" fill="#8D9EB0"/>
<path d="M58.0195 27.8818L58.0195 33.4365L57.3252 33.4365L57.3252 27.8818L58.0195 27.8818Z" fill="#8D9EB0"/>
<path d="M64.6158 88.9843L58.3667 91.0673L58.3667 86.9012L64.6158 88.9843Z" fill="#8D9EB0"/>
<path d="M58.3668 89.3314L52.8121 89.3314L52.8121 88.6371L58.3668 88.6371L58.3668 89.3314Z" fill="#8D9EB0"/>
<path d="M86.4679 88.9842L92.717 86.9012V91.0673L86.4679 88.9842Z" fill="#8D9EB0"/>
<path d="M92.717 88.6371H98.2718V89.3314H92.717V88.6371Z" fill="#8D9EB0"/>
<path d="M52.8121 96.622L52.8121 88.9842L53.5065 88.9842L53.5065 96.622L52.8121 96.622Z" fill="#8D9EB0"/>
<path d="M57.6724 61.9047L55.5894 55.6556L59.7554 55.6556L57.6724 61.9047Z" fill="#8D9EB0"/>
<path d="M57.3253 55.6556L57.3253 50.1008L58.0197 50.1008L58.0197 55.6556L57.3253 55.6556Z" fill="#8D9EB0"/>
<path d="M226.399 22.5639L228.482 28.813L224.316 28.813L226.399 22.5639Z" fill="#8D9EB0"/>
<path d="M226.746 28.813L226.746 70.4096L226.051 70.4096L226.051 28.813L226.746 28.813Z" fill="#8D9EB0"/>
<path d="M226.399 140.173L228.482 133.924L224.316 133.924L226.399 140.173Z" fill="#8D9EB0"/>
<path d="M226.746 133.924L226.746 92.3276L226.051 92.3276L226.051 133.924L226.746 133.924Z" fill="#8D9EB0"/>
<path d="M173.444 157.684C173.444 155.571 172.381 154.446 170.569 154.446C168.719 154.446 167.594 155.809 167.594 157.609V158.296C167.594 160.096 168.744 161.434 170.769 161.434C171.731 161.434 172.631 161.071 173.194 160.646L172.644 159.721C172.131 160.009 171.594 160.271 170.869 160.271C169.719 160.271 169.131 159.709 169.106 158.434H173.394C173.419 158.234 173.444 157.959 173.444 157.684ZM172.056 157.421H169.106C169.131 156.209 169.631 155.584 170.581 155.584C171.544 155.584 172.056 156.209 172.056 157.359V157.421Z" fill="#8D9EB0"/>
<path d="M157.757 151.213L163.23 149.271L163.23 153.114L157.757 151.213Z" fill="#8D9EB0"/>
<path d="M163.12 150.975L170.835 150.975L170.835 151.364L163.12 151.364L163.12 150.975Z" fill="#8D9EB0"/>
<path d="M182.974 151.213L177.502 149.271L177.502 153.114L182.974 151.213Z" fill="#8D9EB0"/>
<path d="M177.612 150.975L170.875 150.975L170.875 151.364L177.612 151.364L177.612 150.975Z" fill="#8D9EB0"/>
<path d="M157.033 158.749L157.033 143.854" stroke="#A9B6C3" stroke-width="0.756583"/>
<path d="M183.974 158.749L183.974 143.854" stroke="#A9B6C3" stroke-width="0.756583"/>
</svg>
