<svg width="290" height="175" viewBox="0 0 290 175" fill="none" xmlns="http://www.w3.org/2000/svg">
<rect x="57.0529" y="26.0747" width="17.2501" height="18.3093" fill="#D8D8D8" stroke="#989898" stroke-width="0.756583"/>
<rect x="236.514" y="121.622" width="17.2501" height="18.3093" transform="rotate(-180 236.514 121.622)" fill="#D8D8D8" stroke="#989898" stroke-width="0.756583"/>
<rect x="111.173" y="26.0747" width="17.2501" height="18.3093" fill="#D8D8D8" stroke="#989898" stroke-width="0.756583"/>
<rect x="155.348" y="121.685" width="17.2501" height="18.3093" transform="rotate(-180 155.348 121.685)" fill="#D8D8D8" stroke="#989898" stroke-width="0.756583"/>
<rect x="165.284" y="26.0747" width="17.2501" height="18.3093" fill="#D8D8D8" stroke="#989898" stroke-width="0.756583"/>
<rect x="192.34" y="26.0747" width="17.2501" height="18.3093" fill="#D8D8D8" stroke="#989898" stroke-width="0.756583"/>
<rect x="101.237" y="121.685" width="17.2501" height="18.3093" transform="rotate(-180 101.237 121.685)" fill="#D8D8D8" stroke="#989898" stroke-width="0.756583"/>
<rect x="84.118" y="26.0747" width="17.2501" height="18.3093" fill="#D8D8D8" stroke="#989898" stroke-width="0.756583"/>
<rect x="182.404" y="121.685" width="17.2501" height="18.3093" transform="rotate(-180 182.404 121.685)" fill="#D8D8D8" stroke="#989898" stroke-width="0.756583"/>
<rect x="209.459" y="121.685" width="17.2501" height="18.3093" transform="rotate(-180 209.459 121.685)" fill="#D8D8D8" stroke="#989898" stroke-width="0.756583"/>
<rect x="138.229" y="26.0747" width="17.2501" height="18.3093" fill="#D8D8D8" stroke="#989898" stroke-width="0.756583"/>
<rect x="128.293" y="121.685" width="17.2501" height="18.3093" transform="rotate(-180 128.293 121.685)" fill="#D8D8D8" stroke="#989898" stroke-width="0.756583"/>
<rect x="219.395" y="26.0747" width="17.2501" height="18.3093" fill="#D8D8D8" stroke="#989898" stroke-width="0.756583"/>
<rect x="74.303" y="121.685" width="17.2501" height="18.3093" transform="rotate(-180 74.303 121.685)" fill="#D8D8D8" stroke="#989898" stroke-width="0.756583"/>
<path d="M55.918 26.453H38.5166" stroke="#A9B6C3" stroke-width="0.756583"/>
<path d="M255.626 26.359H238.225" stroke="#A9B6C3" stroke-width="0.756583"/>
<path d="M255.401 122H238" stroke="#A9B6C3" stroke-width="0.756583"/>
<path d="M55.918 44.5385H38.5166" stroke="#A9B6C3" stroke-width="0.756583"/>
<path d="M57.1577 122.806L57.1577 140.207" stroke="#A9B6C3" stroke-width="0.756583"/>
<path d="M74.3494 122.806L74.3494 140.207" stroke="#A9B6C3" stroke-width="0.756583"/>
<path d="M35.0365 30.585H33.3478V39.2191C33.3478 40.2949 34.0151 40.8397 35.0229 40.8397C35.4042 40.8397 35.7174 40.758 35.9898 40.6626L35.8128 39.5051C35.7038 39.5187 35.6085 39.5323 35.5268 39.5323C35.1591 39.5323 35.0365 39.3689 35.0365 38.974V30.585Z" fill="#8D9EB0"/>
<path d="M42.0291 152.871C42.9007 152.871 43.7995 152.517 44.3987 152.013L43.7042 151.019C43.2547 151.332 42.7781 151.605 42.1108 151.605C41.0213 151.605 40.4221 150.869 40.4221 149.399V148.731C40.4221 147.247 41.0622 146.539 42.1244 146.539C42.7645 146.539 43.2003 146.716 43.6497 147.111L44.4532 146.212C43.7859 145.572 43.0368 145.259 42.0563 145.259C39.9182 145.259 38.7334 146.661 38.7334 148.759V149.371C38.7334 151.469 39.9454 152.871 42.0291 152.871Z" fill="#8D9EB0"/>
<path d="M248.097 70.1019H242.936V71.3821H246.286L242.759 76.1213V77.347H248.192V76.0532H244.57L248.097 71.2867V70.1019Z" fill="#8D9EB0"/>
<path d="M53.1651 131.885L46.3559 134.155L46.3559 129.615L53.1651 131.885Z" fill="#8D9EB0"/>
<path d="M46.3559 132.263L40.3032 132.263L40.3032 131.507L46.3559 131.507L46.3559 132.263Z" fill="#8D9EB0"/>
<path d="M76.4928 131.84L83.302 134.109L83.302 129.57L76.4928 131.84Z" fill="#8D9EB0"/>
<path d="M83.302 132.218L89.3546 132.218L89.3546 131.461L83.302 131.461L83.302 132.218Z" fill="#8D9EB0"/>
<path d="M40.3032 140.207L40.3032 131.885L41.0598 131.885L41.0598 140.207L40.3032 140.207Z" fill="#8D9EB0"/>
<path d="M47.2632 27.6289L48.7126 32.4602L45.5723 32.4602L47.2632 27.6289Z" fill="#8D9EB0"/>
<path d="M47.2632 43.0891L45.8138 38.2578L48.9542 38.2578L47.2632 43.0891Z" fill="#8D9EB0"/>
<path d="M245.087 30.2241L247.356 37.0333L242.817 37.0333L245.087 30.2241Z" fill="#8D9EB0"/>
<path d="M245.465 37.0333L245.465 66.7033L244.708 66.7033L244.708 37.0333L245.465 37.0333Z" fill="#8D9EB0"/>
<path d="M245.087 118.186L242.817 111.377L247.356 111.377L245.087 118.186Z" fill="#8D9EB0"/>
<path d="M244.708 111.377L244.708 81.7072L245.465 81.7072L245.465 111.377L244.708 111.377Z" fill="#8D9EB0"/>
<path d="M47.5048 32.4602L47.5048 39.2241L47.0217 39.2241L47.0217 32.4602L47.5048 32.4602Z" fill="#8D9EB0"/>
</svg>
