<svg width="290" height="175" viewBox="0 0 290 175" fill="none" xmlns="http://www.w3.org/2000/svg">
<rect x="165.304" y="146.696" width="42.7719" height="18.1919" transform="rotate(-90 165.304 146.696)" fill="#D8D8D8" stroke="#989898" stroke-width="0.608067"/>
<rect x="165.304" y="69.076" width="39.2719" height="18.1919" transform="rotate(-90 165.304 69.076)" fill="#D8D8D8" stroke="#989898" stroke-width="0.608067"/>
<rect x="74.304" y="146.696" width="42.7719" height="29.1919" transform="rotate(-90 74.304 146.696)" fill="#D8D8D8" stroke="#989898" stroke-width="0.608067"/>
<rect x="74.8679" y="69.076" width="39.2719" height="18.1919" transform="rotate(-90 74.8679 69.076)" fill="#D8D8D8" stroke="#989898" stroke-width="0.608067"/>
<path d="M61.9244 128.839C62.5644 128.839 63.2244 128.579 63.6644 128.209L63.1544 127.479C62.8244 127.709 62.4744 127.909 61.9844 127.909C61.1844 127.909 60.7444 127.369 60.7444 126.289V125.799C60.7444 124.709 61.2144 124.189 61.9944 124.189C62.4644 124.189 62.7844 124.319 63.1144 124.609L63.7044 123.949C63.2144 123.479 62.6644 123.249 61.9444 123.249C60.3744 123.249 59.5044 124.279 59.5044 125.819V126.269C59.5044 127.809 60.3944 128.839 61.9244 128.839ZM67.0989 127.759V121.709H66.1689L64.2089 122.849L64.6689 123.669L65.8789 123.069V127.759H64.4489V128.709H65.8789H68.3289V127.759H67.0989Z" fill="#8D9EB0"/>
<path d="M64.2584 52.2191C64.8984 52.2191 65.5584 51.9591 65.9984 51.5891L65.4884 50.8591C65.1584 51.0891 64.8084 51.2891 64.3184 51.2891C63.5184 51.2891 63.0784 50.7491 63.0784 49.6691V49.1791C63.0784 48.0891 63.5484 47.5691 64.3284 47.5691C64.7984 47.5691 65.1184 47.6991 65.4484 47.9891L66.0384 47.3291C65.5484 46.8591 64.9984 46.6291 64.2784 46.6291C62.7084 46.6291 61.8384 47.6591 61.8384 49.1991V49.6491C61.8384 51.1891 62.7284 52.2191 64.2584 52.2191Z" fill="#8D9EB0"/>
<path d="M63.8245 103.62L65.5718 109.056L62.2713 109.056L63.8245 103.62Z" fill="#8D9EB0"/>
<path d="M64.2128 109.056L64.2128 119.056L63.8245 119.056L63.8245 109.056L64.2128 109.056Z" fill="#8D9EB0"/>
<path d="M63.8245 29.5L65.5718 34.9361L62.2713 34.9361L63.8245 29.5Z" fill="#8D9EB0"/>
<path d="M64.2128 34.9361L64.2128 42.9361L63.8245 42.9361L63.8245 34.9361L64.2128 34.9361Z" fill="#8D9EB0"/>
<path d="M75 96.7473L80.4361 95V98.3005L75 96.7473Z" fill="#8D9EB0"/>
<path d="M80.4362 96.3591H94.2062V96.7474H80.4362V96.3591Z" fill="#8D9EB0"/>
<path d="M102.206 96.7473L96.7699 95V98.3005L102.206 96.7473Z" fill="#8D9EB0"/>
<path d="M96.7699 96.3591H82.9999V96.7474H96.7699V96.3591Z" fill="#8D9EB0"/>
<path d="M131.969 155.13C131.969 153.44 131.119 152.54 129.669 152.54C128.189 152.54 127.289 153.63 127.289 155.07V155.62C127.289 157.06 128.209 158.13 129.829 158.13C130.599 158.13 131.319 157.84 131.769 157.5L131.329 156.76C130.919 156.99 130.489 157.2 129.909 157.2C128.989 157.2 128.519 156.75 128.499 155.73H131.929C131.949 155.57 131.969 155.35 131.969 155.13ZM130.859 154.92H128.499C128.519 153.95 128.919 153.45 129.679 153.45C130.449 153.45 130.859 153.95 130.859 154.87V154.92ZM135.665 157.05V151H134.735L132.775 152.14L133.235 152.96L134.445 152.36V157.05H133.015V158H134.445H136.895V157.05H135.665Z" fill="#8D9EB0"/>
<path d="M132.352 24.1648C132.352 22.4748 131.502 21.5748 130.052 21.5748C128.572 21.5748 127.672 22.6648 127.672 24.1048V24.6548C127.672 26.0948 128.592 27.1648 130.212 27.1648C130.982 27.1648 131.702 26.8748 132.152 26.5348L131.712 25.7948C131.302 26.0248 130.872 26.2348 130.292 26.2348C129.372 26.2348 128.902 25.7848 128.882 24.7648H132.312C132.332 24.6048 132.352 24.3848 132.352 24.1648ZM131.242 23.9548H128.882C128.902 22.9848 129.302 22.4848 130.062 22.4848C130.832 22.4848 131.242 22.9848 131.242 23.9048V23.9548Z" fill="#8D9EB0"/>
<path d="M173.562 154.824L168.09 156.648L168.09 153L173.562 154.824Z" fill="#8D9EB0"/>
<path d="M168.2 155.33L140.2 155.33L140.2 154.941L168.2 154.941L168.2 155.33Z" fill="#8D9EB0"/>
<path d="M173.562 23.1807L167.598 25.0049L167.598 21.3565L173.562 23.1807Z" fill="#8D9EB0"/>
<path d="M167.718 23.6863L135.718 23.6863L135.718 23.298L167.718 23.298L167.718 23.6863Z" fill="#8D9EB0"/>
<path d="M197 124.565L195 119.065L199 119.065L197 124.565Z" fill="#8D9EB0"/>
<path d="M197 119.265L197 99.2646L197.388 99.2646L197.388 119.265L197 119.265Z" fill="#8D9EB0"/>
<path d="M197 51.44L199 56.94L195 56.94L197 51.44Z" fill="#8D9EB0"/>
<path d="M197 56.74L197 78.74L196.612 78.74L196.612 56.74L197 56.74Z" fill="#8D9EB0"/>
<path d="M89 155.298L94.4726 153.474V157.122L89 155.298Z" fill="#8D9EB0"/>
<path d="M94.4362 155.046L122.436 155.046V155.434L94.4362 155.434V155.046Z" fill="#8D9EB0"/>
<path d="M85.908 23.6863L91.3806 21.8621V25.5105L85.908 23.6863Z" fill="#8D9EB0"/>
<path d="M91.3441 23.4343L123.344 23.4343V23.8226L91.3441 23.8226V23.4343Z" fill="#8D9EB0"/>
<path d="M64.0186 147L62.2712 141.564L65.5717 141.564L64.0186 147Z" fill="#8D9EB0"/>
<path d="M63.8245 141.564L63.8245 132.564L64.2128 132.564L64.2128 141.564L63.8245 141.564Z" fill="#8D9EB0"/>
<path d="M64.0186 69.3799L62.2712 63.9438L65.5717 63.9438L64.0186 69.3799Z" fill="#8D9EB0"/>
<path d="M63.8245 63.9438L63.8245 55.9438L64.2128 55.9438L64.2128 63.9438L63.8245 63.9438Z" fill="#8D9EB0"/>
<path d="M201 125.31H185" stroke="#A9B6C3" stroke-width="0.756583"/>
<path d="M201 49.44H185" stroke="#A9B6C3" stroke-width="0.756583"/>
<path d="M198.022 85.54C197.382 85.54 196.882 85.78 196.522 86.19L196.452 85.68H195.392V93H196.632V90.7C196.982 90.98 197.382 91.13 197.862 91.13C199.092 91.13 200.032 90.08 200.032 88.59V88.06C200.032 86.53 199.202 85.54 198.022 85.54ZM198.792 88.63C198.792 89.67 198.352 90.2 197.642 90.2C197.252 90.2 196.932 90.07 196.632 89.82V87.04C196.902 86.69 197.292 86.48 197.742 86.48C198.402 86.48 198.792 86.99 198.792 88.02V88.63Z" fill="#8D9EB0"/>
<path d="M74 90L74 103" stroke="#A9B6C3" stroke-width="0.756583"/>
<path d="M165.246 70L165.246 83" stroke="#A9B6C3" stroke-width="0.756583"/>
<path d="M87.3212 147.75L87.3212 160.75" stroke="#A9B6C3" stroke-width="0.756583"/>
<path d="M83.9639 16.1065L83.9639 29.1065" stroke="#A9B6C3" stroke-width="0.756583"/>
<path d="M174.4 147.75L174.4 160.75" stroke="#A9B6C3" stroke-width="0.756583"/>
<path d="M174.4 16.1065L174.4 29.1065" stroke="#A9B6C3" stroke-width="0.756583"/>
<path d="M103 90L103 103" stroke="#A9B6C3" stroke-width="0.756583"/>
<path d="M183.512 70L183.512 83" stroke="#A9B6C3" stroke-width="0.756583"/>
<path d="M86.0281 83.6H84.7881V89.94C84.7881 90.73 85.2781 91.13 86.0181 91.13C86.2981 91.13 86.5281 91.07 86.7281 91L86.5981 90.15C86.5181 90.16 86.4481 90.17 86.3881 90.17C86.1181 90.17 86.0281 90.05 86.0281 89.76V83.6ZM90.3445 90.05V84H89.4145L87.4545 85.14L87.9145 85.96L89.1245 85.36V90.05H87.6945V91H89.1245H91.5745V90.05H90.3445Z" fill="#8D9EB0"/>
<path d="M175.238 85.7247H173.998V92.0647C173.998 92.8547 174.488 93.2547 175.228 93.2547C175.508 93.2547 175.738 93.1947 175.938 93.1247L175.808 92.2747C175.728 92.2847 175.658 92.2947 175.598 92.2947C175.328 92.2947 175.238 92.1747 175.238 91.8847V85.7247Z" fill="#8D9EB0"/>
<path d="M166.081 76.5971L171.518 74.8498V78.1503L166.081 76.5971Z" fill="#8D9EB0"/>
<path d="M182.716 76.5971L177.279 74.8497V78.1502L182.716 76.5971Z" fill="#8D9EB0"/>
<path d="M171.015 76.4103H177.785V76.7986H171.015V76.4103Z" fill="#8D9EB0"/>
</svg>
