<svg width="290" height="175" viewBox="0 0 290 175" fill="none" xmlns="http://www.w3.org/2000/svg">
<g id="SOT143-Labeled">
<g id="Group 22">
<path id="E1" fill-rule="evenodd" clip-rule="evenodd" d="M161.795 81.2686H156.488V85.0001H161.382V86.819H156.488V90.738H161.795V92.5757H154.125V79.4497H161.795V81.2686ZM169.164 90.7943H171.47V92.5757H164.195V90.7943H166.876V81.9999L164.607 83.125L163.745 81.5874L167.42 79.4497H169.164V90.7943Z" fill="#8D9EB0"/>
<path id="E" fill-rule="evenodd" clip-rule="evenodd" d="M189.201 81.2686H183.894V85.0001H188.788V86.819H183.894V90.738H189.201V92.5757H181.531V79.4497H189.201V81.2686Z" fill="#8D9EB0"/>
<g id="Group 6">
<g id="triangle">
<path id="Triangle 1" fill-rule="evenodd" clip-rule="evenodd" d="M61.2484 24.9871C60.8217 25.1517 60.8217 25.7554 61.2484 25.9201L65.8723 27.704C66.1999 27.8304 66.5523 27.5886 66.5523 27.2375V23.6696C66.5523 23.3185 66.1999 23.0768 65.8723 23.2032L61.2484 24.9871Z" fill="#8D9EB0"/>
</g>
<path id="Rectangle 144" fill-rule="evenodd" clip-rule="evenodd" d="M63.3563 25.3064C63.3563 25.0506 63.5637 24.8433 63.8195 24.8433H82.0369C82.2926 24.8433 82.5 25.0506 82.5 25.3064V25.3064C82.5 25.5622 82.2926 25.7696 82.0369 25.7696H63.8195C63.5637 25.7696 63.3563 25.5622 63.3563 25.3064V25.3064Z" fill="#8D9EB0"/>
</g>
<g id="Group 6_2">
<g id="triangle_2">
<path id="Triangle 1_2" fill-rule="evenodd" clip-rule="evenodd" d="M116.481 24.9871C116.908 25.1517 116.908 25.7554 116.481 25.9201L111.857 27.704C111.529 27.8304 111.177 27.5886 111.177 27.2375V23.6696C111.177 23.3185 111.529 23.0768 111.857 23.2032L116.481 24.9871Z" fill="#8D9EB0"/>
</g>
<path id="Rectangle 144_2" fill-rule="evenodd" clip-rule="evenodd" d="M114.373 25.3064C114.373 25.0506 114.166 24.8433 113.91 24.8433H96.2131C95.9574 24.8433 95.75 25.0506 95.75 25.3064V25.3064C95.75 25.5622 95.9574 25.7696 96.2131 25.7696H113.91C114.166 25.7696 114.373 25.5622 114.373 25.3064V25.3064Z" fill="#8D9EB0"/>
</g>
<g id="Group 9">
<g id="Group">
<g id="triangle_3">
<path id="Triangle 1_3" fill-rule="evenodd" clip-rule="evenodd" d="M42.0944 8.80886C41.6677 8.97348 41.6677 9.57721 42.0944 9.74183L46.7183 11.5258C47.0459 11.6521 47.3983 11.4104 47.3983 11.0593V7.49142C47.3983 7.14031 47.0459 6.89856 46.7183 7.02494L42.0944 8.80886Z" fill="#8D9EB0"/>
</g>
<path id="Rectangle 144_3" fill-rule="evenodd" clip-rule="evenodd" d="M44.2023 9.12819C44.2023 8.8724 44.4096 8.66504 44.6654 8.66504H84.7015C84.9573 8.66504 85.1646 8.8724 85.1646 9.12819V9.12819C85.1646 9.38398 84.9573 9.59134 84.7015 9.59134H44.6654C44.4096 9.59134 44.2023 9.38398 44.2023 9.12819V9.12819Z" fill="#8D9EB0"/>
</g>
<g id="Group_2">
<g id="triangle_4">
<path id="Triangle 1_4" fill-rule="evenodd" clip-rule="evenodd" d="M139.941 8.80886C140.367 8.97348 140.367 9.57721 139.941 9.74183L135.317 11.5258C134.989 11.6521 134.637 11.4104 134.637 11.0593V7.49142C134.637 7.14031 134.989 6.89856 135.317 7.02494L139.941 8.80886Z" fill="#8D9EB0"/>
</g>
<path id="Rectangle 144_4" fill-rule="evenodd" clip-rule="evenodd" d="M137.833 9.12819C137.833 8.8724 137.625 8.66504 137.37 8.66504H98.2132C97.9574 8.66504 97.75 8.8724 97.75 9.12819V9.12819C97.75 9.38398 97.9574 9.59134 98.2131 9.59134H137.37C137.625 9.59134 137.833 9.38398 137.833 9.12819V9.12819Z" fill="#8D9EB0"/>
</g>
<path id="D" fill-rule="evenodd" clip-rule="evenodd" d="M91.0819 2.70312C94.6447 2.70312 96.4261 4.80328 96.4261 7.95352V10.2787C96.4261 13.6914 94.4009 15.8291 90.6132 15.8291H86.7879V2.70312H91.0819ZM94.0634 10.3162V7.89726C94.0634 5.7596 93.0508 4.52201 90.9694 4.52201H89.1505V14.0102H90.6319C92.9196 14.0102 94.0634 12.8101 94.0634 10.3162Z" fill="#8D9EB0"/>
</g>
<path id="e" fill-rule="evenodd" clip-rule="evenodd" d="M93.5719 25.4225C93.5719 25.8351 93.5344 26.2476 93.4969 26.5476H87.0652C87.1027 28.4603 87.984 29.3041 89.7092 29.3041C90.7967 29.3041 91.6031 28.9103 92.3719 28.479L93.1969 29.8666C92.3531 30.5042 91.003 31.0479 89.5591 31.0479C86.5214 31.0479 84.7963 29.0415 84.7963 26.3413V25.31C84.7963 22.6098 86.4839 20.5659 89.2591 20.5659C91.9781 20.5659 93.5719 22.2535 93.5719 25.4225ZM91.4905 25.0288V24.935C91.4905 23.2099 90.7217 22.2723 89.2779 22.2723C87.8528 22.2723 87.1027 23.2099 87.0652 25.0288H91.4905Z" fill="#8D9EB0"/>
<path id="Rectangle 93" fill-rule="evenodd" clip-rule="evenodd" d="M39.3623 4.70166C39.3623 4.42552 39.5862 4.20166 39.8623 4.20166V4.20166C40.1384 4.20166 40.3623 4.42552 40.3623 4.70166V57.3945C40.3623 57.6706 40.1384 57.8945 39.8623 57.8945V57.8945C39.5862 57.8945 39.3623 57.6706 39.3623 57.3945V4.70166Z" fill="#8D9EB0"/>
<path id="Rectangle 93 Copy 2" fill-rule="evenodd" clip-rule="evenodd" d="M59.2637 22.2642C59.2637 21.988 59.4875 21.7642 59.7637 21.7642V21.7642C60.0398 21.7642 60.2637 21.988 60.2637 22.2642V30.002C60.2637 30.2781 60.0398 30.502 59.7637 30.502V30.502C59.4875 30.502 59.2637 30.2781 59.2637 30.002V22.2642Z" fill="#8D9EB0"/>
<path id="Rectangle 93 Copy 4" fill-rule="evenodd" clip-rule="evenodd" d="M118.105 22.2642C118.105 21.988 118.328 21.7642 118.605 21.7642V21.7642C118.881 21.7642 119.105 21.988 119.105 22.2642V30.002C119.105 30.2781 118.881 30.502 118.605 30.502V30.502C118.328 30.502 118.105 30.2781 118.105 30.002V22.2642Z" fill="#8D9EB0"/>
<path id="Rectangle 93 Copy 3" fill-rule="evenodd" clip-rule="evenodd" d="M141.054 4.70166C141.054 4.42552 141.278 4.20166 141.554 4.20166V4.20166C141.83 4.20166 142.054 4.42552 142.054 4.70166V57.3945C142.054 57.6706 141.83 57.8945 141.554 57.8945V57.8945C141.278 57.8945 141.054 57.6706 141.054 57.3945V4.70166Z" fill="#8D9EB0"/>
<path id="b1" fill-rule="evenodd" clip-rule="evenodd" d="M26.0261 147.969C28.3138 147.969 29.8139 149.807 29.8139 152.695V153.707C29.8139 156.464 28.0325 158.451 25.7449 158.451C24.676 158.451 23.8135 158.058 23.1197 157.345L22.9322 158.208H21.1133V144.332H23.4385V149.001C24.076 148.344 24.9386 147.969 26.0261 147.969ZM27.4888 153.782V152.62C27.4888 150.67 26.8325 149.732 25.5574 149.732C24.6573 149.732 23.9447 150.163 23.4385 150.801V155.864C23.9447 156.407 24.5823 156.707 25.3511 156.707C26.6449 156.707 27.4888 155.695 27.4888 153.782ZM36.8832 156.426H39.1896V158.208H31.9141V156.426H34.5955V147.632L32.3266 148.757L31.4641 147.219L35.1393 145.082H36.8832V156.426Z" fill="#8D9EB0"/>
<path id="b" fill-rule="evenodd" clip-rule="evenodd" d="M142.026 147.969C144.314 147.969 145.814 149.807 145.814 152.695V153.707C145.814 156.464 144.033 158.451 141.745 158.451C140.676 158.451 139.813 158.058 139.12 157.345L138.932 158.208H137.113V144.332H139.438V149.001C140.076 148.344 140.939 147.969 142.026 147.969ZM143.489 153.782V152.62C143.489 150.67 142.832 149.732 141.557 149.732C140.657 149.732 139.945 150.163 139.438 150.801V155.864C139.945 156.407 140.582 156.707 141.351 156.707C142.645 156.707 143.489 155.695 143.489 153.782Z" fill="#8D9EB0"/>
<path id="Rectangle 93_2" fill-rule="evenodd" clip-rule="evenodd" d="M111.791 143.088C111.791 142.812 112.015 142.588 112.291 142.588V142.588C112.567 142.588 112.791 142.812 112.791 143.088V157.698C112.791 157.975 112.567 158.198 112.291 158.198V158.198C112.015 158.198 111.791 157.975 111.791 157.698V143.088Z" fill="#8D9EB0"/>
<path id="Rectangle 93 Copy" fill-rule="evenodd" clip-rule="evenodd" d="M51.2637 143.088C51.2637 142.812 51.4875 142.588 51.7637 142.588V142.588C52.0398 142.588 52.2637 142.812 52.2637 143.088V157.698C52.2637 157.975 52.0398 158.198 51.7637 158.198V158.198C51.4875 158.198 51.2637 157.975 51.2637 157.698V143.088Z" fill="#8D9EB0"/>
<path id="Rectangle 93 Copy 3_2" fill-rule="evenodd" clip-rule="evenodd" d="M124.547 143.088C124.547 142.812 124.77 142.588 125.047 142.588V142.588C125.323 142.588 125.547 142.812 125.547 143.088V157.698C125.547 157.975 125.323 158.198 125.047 158.198V158.198C124.77 158.198 124.547 157.975 124.547 157.698V143.088Z" fill="#8D9EB0"/>
<path id="Rectangle 93 Copy 6" fill-rule="evenodd" clip-rule="evenodd" d="M76.3121 143.088C76.3121 142.812 76.536 142.588 76.8121 142.588V142.588C77.0883 142.588 77.3121 142.812 77.3121 143.088V157.698C77.3121 157.975 77.0883 158.198 76.8121 158.198V158.198C76.536 158.198 76.3121 157.975 76.3121 157.698V143.088Z" fill="#8D9EB0"/>
<g id="Group 3">
<g id="triangle_5">
<path id="Triangle 1_5" fill-rule="evenodd" clip-rule="evenodd" d="M161.682 61.1719C161.847 60.7452 162.45 60.7452 162.615 61.1719L164.399 65.7958C164.525 66.1233 164.283 66.4757 163.932 66.4757H160.365C160.013 66.4757 159.772 66.1233 159.898 65.7958L161.682 61.1719Z" fill="#8D9EB0"/>
</g>
<path id="Rectangle 134" fill-rule="evenodd" clip-rule="evenodd" d="M161.649 63.9272C161.649 63.6511 161.873 63.4272 162.149 63.4272V63.4272C162.425 63.4272 162.649 63.6511 162.649 63.9272V77.2145C162.649 77.4906 162.425 77.7145 162.149 77.7145V77.7145C161.873 77.7145 161.649 77.4906 161.649 77.2145V63.9272Z" fill="#8D9EB0"/>
</g>
<g id="Group 3_2">
<g id="triangle_6">
<path id="Triangle 1_6" fill-rule="evenodd" clip-rule="evenodd" d="M161.682 111.828C161.847 112.255 162.45 112.255 162.615 111.828L164.399 107.204C164.525 106.877 164.283 106.524 163.932 106.524H160.365C160.013 106.524 159.772 106.877 159.898 107.204L161.682 111.828Z" fill="#8D9EB0"/>
</g>
<path id="Rectangle 134_2" fill-rule="evenodd" clip-rule="evenodd" d="M161.649 109.073C161.649 109.349 161.873 109.573 162.149 109.573V109.573C162.425 109.573 162.649 109.349 162.649 109.073V95.7855C162.649 95.5094 162.425 95.2855 162.149 95.2855V95.2855C161.873 95.2855 161.649 95.5094 161.649 95.7855V109.073Z" fill="#8D9EB0"/>
</g>
<path id="Rectangle 132 Copy" fill-rule="evenodd" clip-rule="evenodd" d="M125.789 32.2168C125.789 31.9407 126.013 31.7168 126.289 31.7168H192.836C193.112 31.7168 193.336 31.9407 193.336 32.2168V32.2168C193.336 32.4929 193.112 32.7168 192.836 32.7168H126.289C126.013 32.7168 125.789 32.4929 125.789 32.2168V32.2168Z" fill="#8D9EB0"/>
<path id="Rectangle 132 Copy_2" fill-rule="evenodd" clip-rule="evenodd" d="M141.671 59.2168C141.671 58.9407 141.895 58.7168 142.171 58.7168H169.022C169.299 58.7168 169.522 58.9407 169.522 59.2168V59.2168C169.522 59.4929 169.299 59.7168 169.022 59.7168H142.171C141.895 59.7168 141.671 59.4929 141.671 59.2168V59.2168Z" fill="#8D9EB0"/>
<path id="Rectangle 132 Copy 8" fill-rule="evenodd" clip-rule="evenodd" d="M141.671 113.629C141.671 113.353 141.895 113.129 142.171 113.129H169.022C169.299 113.129 169.522 113.353 169.522 113.629V113.629C169.522 113.905 169.299 114.129 169.022 114.129H142.171C141.895 114.129 141.671 113.905 141.671 113.629V113.629Z" fill="#8D9EB0"/>
<path id="Rectangle 132 Copy 7" fill-rule="evenodd" clip-rule="evenodd" d="M125.789 140.896C125.789 140.62 126.013 140.396 126.289 140.396H192.836C193.112 140.396 193.336 140.62 193.336 140.896V140.896C193.336 141.173 193.112 141.396 192.836 141.396H126.289C126.013 141.396 125.789 141.173 125.789 140.896V140.896Z" fill="#8D9EB0"/>
<g id="Group 2">
<g id="triangle_7">
<path id="Triangle 1_7" fill-rule="evenodd" clip-rule="evenodd" d="M186.131 33.666C186.296 33.2393 186.9 33.2393 187.064 33.666L188.848 38.2899C188.975 38.6175 188.733 38.9699 188.382 38.9699H184.814C184.463 38.9699 184.221 38.6175 184.347 38.2899L186.131 33.666Z" fill="#8D9EB0"/>
</g>
<path id="Rectangle 134_3" fill-rule="evenodd" clip-rule="evenodd" d="M186.098 36.4214C186.098 36.1452 186.322 35.9214 186.598 35.9214V35.9214C186.874 35.9214 187.098 36.1452 187.098 36.4214V76.6931C187.098 76.9693 186.874 77.1931 186.598 77.1931V77.1931C186.322 77.1931 186.098 76.9693 186.098 76.6931V36.4214Z" fill="#8D9EB0"/>
</g>
<g id="Group 2_2">
<g id="triangle_8">
<path id="Triangle 1_8" fill-rule="evenodd" clip-rule="evenodd" d="M186.131 140.322C186.296 140.749 186.9 140.749 187.064 140.322L188.848 135.698C188.975 135.371 188.733 135.018 188.382 135.018H184.814C184.463 135.018 184.221 135.371 184.347 135.698L186.131 140.322Z" fill="#8D9EB0"/>
</g>
<path id="Rectangle 134_4" fill-rule="evenodd" clip-rule="evenodd" d="M186.098 135.617C186.098 135.893 186.322 136.117 186.598 136.117V136.117C186.874 136.117 187.098 135.893 187.098 135.617V96.2954C187.098 96.0193 186.874 95.7954 186.598 95.7954V95.7954C186.322 95.7954 186.098 96.0193 186.098 96.2954V135.617Z" fill="#8D9EB0"/>
</g>
<g id="Group 17">
<g id="triangle_9">
<path id="Triangle 1_9" fill-rule="evenodd" clip-rule="evenodd" d="M126.887 151.767C126.46 151.931 126.46 152.535 126.887 152.7L131.511 154.484C131.838 154.61 132.191 154.368 132.191 154.017V150.449C132.191 150.098 131.838 149.857 131.511 149.983L126.887 151.767Z" fill="#8D9EB0"/>
</g>
<rect id="Rectangle 144_5" x="131.142" y="151.734" width="4" height="1" rx="0.5" fill="#8D9EB0"/>
</g>
<g id="Group 17 Copy">
<g id="triangle_10">
<path id="Triangle 1_10" fill-rule="evenodd" clip-rule="evenodd" d="M78.7061 151.366C78.2794 151.53 78.2794 152.134 78.7061 152.298L83.33 154.082C83.6576 154.209 84.01 153.967 84.01 153.616V150.048C84.01 149.697 83.6576 149.455 83.33 149.582L78.7061 151.366Z" fill="#8D9EB0"/>
</g>
<rect id="Rectangle 144_6" x="82.9614" y="151.332" width="4" height="1" rx="0.5" fill="#8D9EB0"/>
</g>
<g id="Group 17 Copy_2">
<g id="triangle_11">
<path id="Triangle 1_11" fill-rule="evenodd" clip-rule="evenodd" d="M66.5186 163.521C66.0919 163.686 66.0919 164.29 66.5186 164.454L71.1424 166.238C71.47 166.365 71.8224 166.123 71.8224 165.772V162.204C71.8224 161.853 71.47 161.611 71.1424 161.737L66.5186 163.521Z" fill="#8D9EB0"/>
</g>
<rect id="Rectangle 144_7" x="70.7739" y="163.488" width="10.6011" height="1" rx="0.5" fill="#8D9EB0"/>
</g>
<g id="Group 17 Copy_3">
<g id="triangle_12">
<path id="Triangle 1_12" fill-rule="evenodd" clip-rule="evenodd" d="M117.058 163.521C117.485 163.686 117.485 164.29 117.058 164.454L112.434 166.238C112.107 166.365 111.754 166.123 111.754 165.772V162.204C111.754 161.853 112.107 161.611 112.434 161.737L117.058 163.521Z" fill="#8D9EB0"/>
</g>
<rect id="Rectangle 144_8" width="9.49841" height="1" rx="0.5" transform="matrix(-1 0 0 1 112.803 163.488)" fill="#8D9EB0"/>
</g>
<g id="SOT143">
<g id="Group_3">
<path id="Path 11" d="M228.317 121.273L249.643 126.873C250.189 127.198 250.524 127.785 250.524 128.419V139.207C250.524 140.201 249.717 141.006 248.722 141.006C247.726 141.006 246.919 140.201 246.919 139.207V130.459L225.593 124.776C225.047 124.451 224.712 123.864 224.712 123.23V111.454C224.712 110.46 225.519 109.655 226.515 109.655C227.51 109.655 228.317 110.46 228.317 111.454V121.273Z" fill="#D8D8D8" stroke="#979797" stroke-linecap="round" stroke-linejoin="round"/>
<path id="Path 11_2" d="M228.317 52.3881L249.643 46.7878C250.189 46.4635 250.524 45.8761 250.524 45.2419V34.4537C250.524 33.4602 249.717 32.6548 248.722 32.6548C247.726 32.6548 246.919 33.4602 246.919 34.4537V43.2026L225.593 48.8854C225.047 49.2097 224.712 49.7971 224.712 50.4313V62.2075C224.712 63.201 225.519 64.0064 226.515 64.0064C227.51 64.0064 228.317 63.201 228.317 62.2075V52.3881Z" fill="#D8D8D8" stroke="#979797" stroke-linecap="round" stroke-linejoin="round"/>
<path id="Combined Shape" d="M211.454 62.7009L226.075 59.0456C226.155 59.0257 226.238 59.0257 226.318 59.0456L240.939 62.7009C241.384 62.8122 241.696 63.2122 241.696 63.6711V109.329C241.696 109.788 241.384 110.188 240.939 110.299L226.318 113.954C226.238 113.974 226.155 113.974 226.075 113.954L211.454 110.299C211.009 110.188 210.696 109.788 210.696 109.329V63.6711C210.696 63.2122 211.009 62.8122 211.454 62.7009Z" fill="#585858" stroke="#505050"/>
<path id="Rectangle 158" fill-rule="evenodd" clip-rule="evenodd" d="M225.196 59.5H227.196V113.5H225.196V59.5Z" fill="#505050"/>
</g>
<g id="Group 2_3">
<g id="Rectangle 32">
<mask id="path-47-inside-1" fill="white">
<path fill-rule="evenodd" clip-rule="evenodd" d="M125.605 141.5H111.605V113.5H125.605V141.5"/>
</mask>
<path fill-rule="evenodd" clip-rule="evenodd" d="M125.605 141.5H111.605V113.5H125.605V141.5" fill="#D8D8D8"/>
<path d="M111.605 141.5H110.605V142.5H111.605V141.5ZM111.605 113.5V112.5H110.605V113.5H111.605ZM125.605 113.5H126.605V112.5H125.605V113.5ZM125.605 140.5H111.605V142.5H125.605V140.5ZM112.605 141.5V113.5H110.605V141.5H112.605ZM111.605 114.5H125.605V112.5H111.605V114.5ZM124.605 113.5V141.5H126.605V113.5H124.605Z" fill="#979797" mask="url(#path-47-inside-1)"/>
</g>
<g id="Rectangle 32_2">
<mask id="path-49-inside-2" fill="white">
<path fill-rule="evenodd" clip-rule="evenodd" d="M66.2637 59.5H52.2637V31.9995H66.2637V59.5"/>
</mask>
<path fill-rule="evenodd" clip-rule="evenodd" d="M66.2637 59.5H52.2637V31.9995H66.2637V59.5" fill="#D8D8D8"/>
<path d="M52.2637 59.5H51.2637V60.5H52.2637V59.5ZM52.2637 31.9995V30.9995H51.2637V31.9995H52.2637ZM66.2637 31.9995H67.2637V30.9995H66.2637V31.9995ZM66.2637 58.5H52.2637V60.5H66.2637V58.5ZM53.2637 59.5V31.9995H51.2637V59.5H53.2637ZM52.2637 32.9995H66.2637V30.9995H52.2637V32.9995ZM65.2637 31.9995V59.5H67.2637V31.9995H65.2637Z" fill="#979797" mask="url(#path-49-inside-2)"/>
</g>
<g id="Rectangle 413">
<mask id="path-51-inside-3" fill="white">
<path fill-rule="evenodd" clip-rule="evenodd" d="M112.605 128.5H124.605V129.5H112.605V128.5Z"/>
</mask>
<path fill-rule="evenodd" clip-rule="evenodd" d="M112.605 128.5H124.605V129.5H112.605V128.5Z" fill="#D8D8D8"/>
<path d="M112.605 128.5V127.5H111.605V128.5H112.605ZM124.605 128.5H125.605V127.5H124.605V128.5ZM124.605 129.5V130.5H125.605V129.5H124.605ZM112.605 129.5H111.605V130.5H112.605V129.5ZM112.605 129.5H124.605V127.5H112.605V129.5ZM123.605 128.5V129.5H125.605V128.5H123.605ZM124.605 128.5H112.605V130.5H124.605V128.5ZM113.605 129.5V128.5H111.605V129.5H113.605Z" fill="#979797" mask="url(#path-51-inside-3)"/>
</g>
<g id="Rectangle 413_2">
<mask id="path-53-inside-4" fill="white">
<path fill-rule="evenodd" clip-rule="evenodd" d="M53.2637 43.5H65.2637V44.5H53.2637V43.5Z"/>
</mask>
<path fill-rule="evenodd" clip-rule="evenodd" d="M53.2637 43.5H65.2637V44.5H53.2637V43.5Z" fill="#D8D8D8"/>
<path d="M53.2637 43.5V42.5H52.2637V43.5H53.2637ZM65.2637 43.5H66.2637V42.5H65.2637V43.5ZM65.2637 44.5V45.5H66.2637V44.5H65.2637ZM53.2637 44.5H52.2637V45.5H53.2637V44.5ZM53.2637 44.5H65.2637V42.5H53.2637V44.5ZM64.2637 43.5V44.5H66.2637V43.5H64.2637ZM65.2637 43.5H53.2637V45.5H65.2637V43.5ZM54.2637 44.5V43.5H52.2637V44.5H54.2637Z" fill="#979797" mask="url(#path-53-inside-4)"/>
</g>
<g id="Rectangle 32_3">
<mask id="path-55-inside-5" fill="white">
<path fill-rule="evenodd" clip-rule="evenodd" d="M125.605 59.5H111.605V31.9995H125.605V59.5"/>
</mask>
<path fill-rule="evenodd" clip-rule="evenodd" d="M125.605 59.5H111.605V31.9995H125.605V59.5" fill="#D8D8D8"/>
<path d="M111.605 59.5H110.605V60.5H111.605V59.5ZM111.605 31.9995V30.9995H110.605V31.9995H111.605ZM125.605 31.9995H126.605V30.9995H125.605V31.9995ZM125.605 58.5H111.605V60.5H125.605V58.5ZM112.605 59.5V31.9995H110.605V59.5H112.605ZM111.605 32.9995H125.605V30.9995H111.605V32.9995ZM124.605 31.9995V59.5H126.605V31.9995H124.605Z" fill="#979797" mask="url(#path-55-inside-5)"/>
</g>
<g id="Rectangle 413_3">
<mask id="path-57-inside-6" fill="white">
<path fill-rule="evenodd" clip-rule="evenodd" d="M112.605 43.5H124.605V44.5H112.605V43.5Z"/>
</mask>
<path fill-rule="evenodd" clip-rule="evenodd" d="M112.605 43.5H124.605V44.5H112.605V43.5Z" fill="#D8D8D8"/>
<path d="M112.605 43.5V42.5H111.605V43.5H112.605ZM124.605 43.5H125.605V42.5H124.605V43.5ZM124.605 44.5V45.5H125.605V44.5H124.605ZM112.605 44.5H111.605V45.5H112.605V44.5ZM112.605 44.5H124.605V42.5H112.605V44.5ZM123.605 43.5V44.5H125.605V43.5H123.605ZM124.605 43.5H112.605V45.5H124.605V43.5ZM113.605 44.5V43.5H111.605V44.5H113.605Z" fill="#979797" mask="url(#path-57-inside-6)"/>
</g>
<g id="Rectangle 32_4">
<mask id="path-59-inside-7" fill="white">
<path fill-rule="evenodd" clip-rule="evenodd" d="M77.7198 141.5H51.7198V113.5H77.7198V141.5"/>
</mask>
<path fill-rule="evenodd" clip-rule="evenodd" d="M77.7198 141.5H51.7198V113.5H77.7198V141.5" fill="#D8D8D8"/>
<path d="M51.7198 141.5H50.7198V142.5H51.7198V141.5ZM51.7198 113.5V112.5H50.7198V113.5H51.7198ZM77.7198 113.5H78.7198V112.5H77.7198V113.5ZM77.7198 140.5H51.7198V142.5H77.7198V140.5ZM52.7198 141.5V113.5H50.7198V141.5H52.7198ZM51.7198 114.5H77.7198V112.5H51.7198V114.5ZM76.7198 113.5V141.5H78.7198V113.5H76.7198Z" fill="#979797" mask="url(#path-59-inside-7)"/>
</g>
<rect id="Rectangle 413_4" x="52.9698" y="128.75" width="23.5" height="0.5" fill="#D8D8D8" stroke="#979797" stroke-width="0.5"/>
<path id="Rectangle 405" d="M41.6046 60.5H141.605V112.5H41.6046V60.5Z" fill="#585858" stroke="#505050" stroke-width="4" stroke-linecap="round" stroke-linejoin="round"/>
<circle id="Oval 5" cx="49.6959" cy="104.476" r="1.97607" fill="#D8D8D8" stroke="#979797"/>
</g>
</g>
<path id="Vector 2" d="M118.857 142.983V170.393" stroke="#8D9EB0" stroke-linecap="square" stroke-dasharray="4 4"/>
<path id="Vector 3" d="M64.7198 142.983V170.393" stroke="#8D9EB0" stroke-linecap="square" stroke-dasharray="4 4"/>
<g id="b_2">
<path d="M92.9614 165.011C92.9614 161.842 91.3676 160.155 88.6486 160.155C85.8734 160.155 84.1858 162.199 84.1858 164.899V165.93C84.1858 168.63 85.9109 170.637 88.9486 170.637C90.3925 170.637 91.7426 170.093 92.5864 169.455L91.7614 168.068C90.9925 168.499 90.1862 168.893 89.0987 168.893C87.3735 168.893 86.4922 168.049 86.4547 166.137H92.8864C92.9239 165.836 92.9614 165.424 92.9614 165.011ZM90.88 164.618H86.4547C86.4922 162.799 87.2423 161.861 88.6674 161.861C90.1112 161.861 90.88 162.799 90.88 164.524V164.618Z" fill="#8D9EB0"/>
<path d="M99.8914 168.612V157.267H98.1475L94.4723 159.405L95.3348 160.942L97.6037 159.817V168.612H94.9223V170.393H97.6037H102.198V168.612H99.8914Z" fill="#8D9EB0"/>
</g>
<g id="Group 17 Copy_4">
<g id="triangle_13">
<path id="Triangle 1_13" fill-rule="evenodd" clip-rule="evenodd" d="M110.672 151.228C111.099 151.393 111.099 151.997 110.672 152.161L106.049 153.945C105.721 154.072 105.369 153.83 105.369 153.479V149.911C105.369 149.56 105.721 149.318 106.049 149.444L110.672 151.228Z" fill="#8D9EB0"/>
</g>
<rect id="Rectangle 144_9" width="4" height="1" rx="0.5" transform="matrix(-1 0 0 1 106.417 151.195)" fill="#8D9EB0"/>
</g>
<g id="Group 17 Copy_5">
<g id="triangle_14">
<path id="Triangle 1_14" fill-rule="evenodd" clip-rule="evenodd" d="M50.275 151.227C50.7017 151.392 50.7017 151.996 50.275 152.16L45.6511 153.944C45.3236 154.071 44.9712 153.829 44.9712 153.478V149.91C44.9712 149.559 45.3236 149.317 45.6511 149.443L50.275 151.227Z" fill="#8D9EB0"/>
</g>
<rect id="Rectangle 144_10" width="4" height="1" rx="0.5" transform="matrix(-1 0 0 1 46.0197 151.194)" fill="#8D9EB0"/>
</g>
<g id="Group 21">
<g id="Group 8">
<path id="A" fill-rule="evenodd" clip-rule="evenodd" d="M234.723 30.0972L233.636 26.6469H229.098L228.104 30.0972H225.723L229.735 16.9712H232.942L237.161 30.0972H234.723ZM231.329 18.6213L229.623 24.753H233.073L231.329 18.6213Z" fill="#8D9EB0"/>
<path id="Rectangle 93_3" fill-rule="evenodd" clip-rule="evenodd" d="M249.75 22.2422C249.75 21.966 249.974 21.7422 250.25 21.7422V21.7422C250.527 21.7422 250.75 21.966 250.75 22.2422V35.481C250.75 35.7571 250.527 35.981 250.25 35.981V35.981C249.974 35.981 249.75 35.7571 249.75 35.481V22.2422Z" fill="#8D9EB0"/>
<path id="Rectangle 93_4" fill-rule="evenodd" clip-rule="evenodd" d="M210.051 22.2422C210.051 21.966 210.275 21.7422 210.551 21.7422V21.7422C210.827 21.7422 211.051 21.966 211.051 22.2422V61.2422C211.051 61.5183 210.827 61.7422 210.551 61.7422V61.7422C210.275 61.7422 210.051 61.5183 210.051 61.2422V22.2422Z" fill="#8D9EB0"/>
<g id="Group 6_3">
<g id="triangle_15">
<path id="Triangle 1_15" fill-rule="evenodd" clip-rule="evenodd" d="M213.075 24.9871C212.648 25.1517 212.648 25.7554 213.075 25.9201L217.699 27.704C218.026 27.8304 218.379 27.5886 218.379 27.2375V23.6696C218.379 23.3185 218.026 23.0768 217.699 23.2032L213.075 24.9871Z" fill="#8D9EB0"/>
</g>
<path id="Rectangle 144_11" fill-rule="evenodd" clip-rule="evenodd" d="M215.183 25.3059C215.183 25.0501 215.39 24.8428 215.646 24.8428H225.07C225.326 24.8428 225.533 25.0501 225.533 25.3059V25.3059C225.533 25.5617 225.326 25.7691 225.07 25.7691H215.646C215.39 25.7691 215.183 25.5617 215.183 25.3059V25.3059Z" fill="#8D9EB0"/>
</g>
<g id="Group 6_4">
<g id="triangle_16">
<path id="Triangle 1_16" fill-rule="evenodd" clip-rule="evenodd" d="M248.414 24.9871C248.841 25.1517 248.841 25.7554 248.414 25.9201L243.791 27.704C243.463 27.8304 243.111 27.5886 243.111 27.2375V23.6696C243.111 23.3185 243.463 23.0768 243.791 23.2032L248.414 24.9871Z" fill="#8D9EB0"/>
</g>
<path id="Rectangle 144_12" fill-rule="evenodd" clip-rule="evenodd" d="M246.307 25.3059C246.307 25.0501 246.099 24.8428 245.843 24.8428H236.419C236.163 24.8428 235.956 25.0501 235.956 25.3059V25.3059C235.956 25.5617 236.163 25.7691 236.419 25.7691H245.843C246.099 25.7691 246.307 25.5617 246.307 25.3059V25.3059Z" fill="#8D9EB0"/>
</g>
<g id="Group 10">
<g id="Group 4">
<g id="triangle_17">
<path id="Triangle 1_17" fill-rule="evenodd" clip-rule="evenodd" d="M257.835 30.5771C257.671 31.0039 257.067 31.0039 256.902 30.5771L255.118 25.9533C254.992 25.6257 255.234 25.2733 255.585 25.2733H259.153C259.504 25.2733 259.745 25.6257 259.619 25.9533L257.835 30.5771Z" fill="#8D9EB0"/>
</g>
<rect id="Rectangle 157" x="256.868" y="21.5078" width="1" height="5.82344" rx="0.5" fill="#8D9EB0"/>
<rect id="Rectangle 159" x="256.868" y="21.5078" width="6" height="1" rx="0.5" fill="#8D9EB0"/>
</g>
<path id="L" fill-rule="evenodd" clip-rule="evenodd" d="M266.821 29.6123H272.146V31.5249H264.458V18.3989H266.821V29.6123Z" fill="#8D9EB0"/>
<path id="Rectangle 132 Copy 3" fill-rule="evenodd" clip-rule="evenodd" d="M251.214 32.6353C251.214 32.3591 251.438 32.1353 251.714 32.1353H259.613C259.889 32.1353 260.113 32.3591 260.113 32.6353V32.6353C260.113 32.9114 259.889 33.1353 259.613 33.1353H251.714C251.438 33.1353 251.214 32.9114 251.214 32.6353V32.6353Z" fill="#8D9EB0"/>
<g id="Group 5">
<g id="triangle_18">
<path id="Triangle 1_18" fill-rule="evenodd" clip-rule="evenodd" d="M256.864 49.1465C257.029 48.7198 257.632 48.7198 257.797 49.1465L259.581 53.7704C259.707 54.0979 259.465 54.4503 259.114 54.4503H255.546C255.195 54.4503 254.954 54.0979 255.08 53.7704L256.864 49.1465Z" fill="#8D9EB0"/>
</g>
<path id="Rectangle 134_5" fill-rule="evenodd" clip-rule="evenodd" d="M256.831 51.9019C256.831 51.6257 257.054 51.4019 257.331 51.4019V51.4019C257.607 51.4019 257.831 51.6257 257.831 51.9019V55.8334C257.831 56.1095 257.607 56.3334 257.331 56.3334V56.3334C257.054 56.3334 256.831 56.1095 256.831 55.8334V51.9019Z" fill="#8D9EB0"/>
</g>
<path id="Rectangle 132 Copy 4" fill-rule="evenodd" clip-rule="evenodd" d="M251.214 46.7051C251.214 46.4289 251.438 46.2051 251.714 46.2051H259.613C259.889 46.2051 260.113 46.4289 260.113 46.7051V46.7051C260.113 46.9812 259.889 47.2051 259.613 47.2051H251.714C251.438 47.2051 251.214 46.9812 251.214 46.7051V46.7051Z" fill="#8D9EB0"/>
</g>
<path id="Rectangle 137" fill-rule="evenodd" clip-rule="evenodd" d="M241.004 111.5C241.004 111.224 241.228 111 241.504 111V111C241.78 111 242.004 111.224 242.004 111.5V158.197C242.004 158.473 241.78 158.697 241.504 158.697V158.697C241.228 158.697 241.004 158.473 241.004 158.197V111.5Z" fill="#8D9EB0"/>
<rect id="Rectangle 137_2" x="250.25" y="141.238" width="1" height="17.4586" rx="0.5" fill="#8D9EB0"/>
<path id="A1" fill-rule="evenodd" clip-rule="evenodd" d="M220.414 162L219.327 158.55H214.789L213.795 162H211.414L215.426 148.874H218.633L222.852 162H220.414ZM217.02 150.524L215.314 156.656H218.764L217.02 150.524ZM229.227 160.219H231.534V162H224.258V160.219H226.94V151.424L224.671 152.549L223.808 151.012L227.484 148.874H229.227V160.219Z" fill="#8D9EB0"/>
<g id="Group 12">
<g id="triangle_19">
<path id="Triangle 1_19" fill-rule="evenodd" clip-rule="evenodd" d="M252.749 153.768C252.322 153.932 252.322 154.536 252.749 154.701L257.372 156.485C257.7 156.611 258.052 156.369 258.052 156.018V152.45C258.052 152.099 257.7 151.858 257.372 151.984L252.749 153.768Z" fill="#8D9EB0"/>
</g>
<rect id="Rectangle 144_13" x="256.004" y="153.734" width="4" height="1" rx="0.5" fill="#8D9EB0"/>
</g>
</g>
<g id="Group 17 Copy_6">
<g id="triangle_20">
<path id="Triangle 1_20" fill-rule="evenodd" clip-rule="evenodd" d="M239.975 153.728C240.402 153.893 240.402 154.497 239.975 154.661L235.351 156.445C235.024 156.572 234.671 156.33 234.671 155.979V152.411C234.671 152.06 235.024 151.818 235.351 151.944L239.975 153.728Z" fill="#8D9EB0"/>
</g>
<rect id="Rectangle 144_14" width="4" height="1" rx="0.5" transform="matrix(-1 0 0 1 235.72 153.695)" fill="#8D9EB0"/>
</g>
</g>
</g>
</g>
</svg>
