<svg width="290" height="175" viewBox="0 0 290 175" fill="none" xmlns="http://www.w3.org/2000/svg">
<rect x="118.952" y="68.0571" width="39.7745" height="27.1963" transform="rotate(-90 118.952 68.0571)" fill="#D8D8D8" stroke="#989898" stroke-width="0.608067"/>
<rect x="118.952" y="144.939" width="39.7745" height="27.1963" transform="rotate(-90 118.952 144.939)" stroke="#989898" stroke-width="0.608067" stroke-dasharray="8 8"/>
<rect x="77.4046" y="144.939" width="39.7745" height="27.1963" transform="rotate(-90 77.4046 144.939)" fill="#D8D8D8" stroke="#989898" stroke-width="0.608067"/>
<rect x="77.4046" y="68.0571" width="39.7745" height="27.1963" transform="rotate(-90 77.4046 68.0571)" stroke="#989898" stroke-width="0.608067" stroke-dasharray="8 8"/>
<rect x="160.5" y="144.939" width="39.7745" height="27.1963" transform="rotate(-90 160.5 144.939)" fill="#D8D8D8" stroke="#989898" stroke-width="0.608067"/>
<rect x="160.5" y="68.0571" width="39.7745" height="27.1963" transform="rotate(-90 160.5 68.0571)" stroke="#989898" stroke-width="0.608067" stroke-dasharray="8 8"/>
<path d="M67.9769 128.256C68.6774 128.256 69.3998 127.972 69.8814 127.567L69.3232 126.768C68.962 127.019 68.5789 127.238 68.0426 127.238C67.167 127.238 66.6854 126.647 66.6854 125.465V124.929C66.6854 123.736 67.1998 123.167 68.0536 123.167C68.568 123.167 68.9182 123.309 69.2794 123.626L69.9252 122.904C69.3889 122.389 68.7869 122.138 67.9988 122.138C66.2804 122.138 65.3282 123.265 65.3282 124.951V125.443C65.3282 127.129 66.3023 128.256 67.9769 128.256Z" fill="#8D9EB0"/>
<path d="M67.5498 104.278L69.2971 109.714L65.9966 109.714L67.5498 104.278Z" fill="#8D9EB0"/>
<path d="M67.9381 109.715L67.9381 117.48L67.5498 117.48L67.5498 109.715L67.9381 109.715Z" fill="#8D9EB0"/>
<path d="M133.722 14.6775H132.365V21.6167C132.365 22.4814 132.901 22.9192 133.711 22.9192C134.018 22.9192 134.269 22.8535 134.488 22.7769L134.346 21.8466C134.258 21.8575 134.182 21.8685 134.116 21.8685C133.821 21.8685 133.722 21.7371 133.722 21.4197V14.6775Z" fill="#8D9EB0"/>
<path d="M119.467 19.7369L124.94 17.7955L124.94 21.638L119.467 19.7369Z" fill="#8D9EB0"/>
<path d="M124.829 19.4994L129.101 19.4994L129.101 19.8877L124.829 19.8877L124.829 19.4994Z" fill="#8D9EB0"/>
<path d="M146.453 19.7184L140.98 17.7769L140.98 21.6195L146.453 19.7184Z" fill="#8D9EB0"/>
<path d="M141.09 19.4808L136.819 19.4808L136.819 19.8691L141.09 19.8691L141.09 19.4808Z" fill="#8D9EB0"/>
<path d="M67.7439 144.661L65.9966 139.225L69.2971 139.225L67.7439 144.661Z" fill="#8D9EB0"/>
<path d="M67.5498 139.225L67.5498 131.459L67.9381 131.459L67.9381 139.225L67.5498 139.225Z" fill="#8D9EB0"/>
<path d="M205 49H148" stroke="#A9B6C3" stroke-width="0.756583"/>
<path d="M205 125H189" stroke="#A9B6C3" stroke-width="0.756583"/>
<path d="M207.989 83.0213C207.288 83.0213 206.74 83.2841 206.346 83.733L206.269 83.1746H205.109V91.19H206.466V88.6715C206.85 88.9781 207.288 89.1424 207.813 89.1424C209.16 89.1424 210.189 87.9926 210.189 86.361V85.7807C210.189 84.1053 209.281 83.0213 207.989 83.0213ZM208.832 86.4048C208.832 87.5437 208.35 88.124 207.572 88.124C207.145 88.124 206.795 87.9816 206.466 87.7079V84.6638C206.762 84.2805 207.189 84.0506 207.682 84.0506C208.405 84.0506 208.832 84.609 208.832 85.7369V86.4048Z" fill="#8D9EB0"/>
<path d="M207.086 49.1699L209.356 55.9791L204.817 55.9791L207.086 49.1699Z" fill="#8D9EB0"/>
<path d="M207.465 55.9791L207.465 76.9791L206.708 76.9791L206.708 55.9791L207.465 55.9791Z" fill="#8D9EB0"/>
<path d="M207.087 124.827L204.817 118.751L209.356 118.751L207.087 124.827Z" fill="#8D9EB0"/>
<path d="M206.708 118.751L206.708 97.7505L207.465 97.7505L207.465 118.751L206.708 118.751Z" fill="#8D9EB0"/>
<path d="M114.422 154.224C114.422 152.374 113.492 151.389 111.905 151.389C110.285 151.389 109.3 152.582 109.3 154.158V154.76C109.3 156.336 110.307 157.507 112.08 157.507C112.923 157.507 113.711 157.19 114.203 156.818L113.722 156.008C113.273 156.26 112.802 156.489 112.168 156.489C111.161 156.489 110.646 155.997 110.624 154.88H114.379C114.4 154.705 114.422 154.465 114.422 154.224ZM113.207 153.994H110.624C110.646 152.932 111.084 152.385 111.916 152.385C112.759 152.385 113.207 152.932 113.207 153.939V153.994Z" fill="#8D9EB0"/>
<path d="M92.3242 154.203L97.7968 152.262L97.7968 156.105L92.3242 154.203Z" fill="#8D9EB0"/>
<path d="M97.6865 153.966L106.874 153.966L106.874 154.354L97.6865 154.354L97.6865 153.966Z" fill="#8D9EB0"/>
<path d="M131.372 154.163L125.899 156.105L125.899 152.262L131.372 154.163Z" fill="#8D9EB0"/>
<path d="M126.009 154.401L117.104 154.401L117.104 154.012L126.009 154.012L126.009 154.401Z" fill="#8D9EB0"/>
<path d="M91.0029 161.721L91.0029 146.826" stroke="#A9B6C3" stroke-width="0.756583"/>
<path d="M132.55 161.721L132.55 146.826" stroke="#A9B6C3" stroke-width="0.756583"/>
</svg>
