<svg width="290" height="175" viewBox="0 0 290 175" fill="none" xmlns="http://www.w3.org/2000/svg">
<path d="M122.498 156.959C122.498 155.109 121.567 154.124 119.98 154.124C118.36 154.124 117.375 155.317 117.375 156.893V157.495C117.375 159.071 118.382 160.242 120.155 160.242C120.998 160.242 121.786 159.925 122.279 159.553L121.797 158.743C121.348 158.995 120.878 159.224 120.243 159.224C119.236 159.224 118.721 158.732 118.7 157.615H122.454C122.476 157.44 122.498 157.2 122.498 156.959ZM121.283 156.729H118.7C118.721 155.667 119.159 155.12 119.991 155.12C120.834 155.12 121.283 155.667 121.283 156.674V156.729Z" fill="#8D9EB0"/>
<path d="M101.365 156.938L106.838 154.997L106.838 158.839L101.365 156.938Z" fill="#8D9EB0"/>
<path d="M106.728 156.701L113.728 156.701L113.728 157.089L106.728 157.089L106.728 156.701Z" fill="#8D9EB0"/>
<path d="M138.481 156.898L133.008 158.839L133.008 154.997L138.481 156.898Z" fill="#8D9EB0"/>
<path d="M133.118 157.136L126.118 157.136L126.118 156.747L133.118 156.747L133.118 157.136Z" fill="#8D9EB0"/>
<path d="M100.044 164.456L100.044 149.561" stroke="#A9B6C3" stroke-width="0.756583"/>
<path d="M139.652 164.456L139.652 149.561" stroke="#A9B6C3" stroke-width="0.756583"/>
<rect x="170.226" y="147.942" width="38.8006" height="18.0667" transform="rotate(-90 170.226 147.942)" fill="#D8D8D8" stroke="#989898" stroke-width="0.548869"/>
<rect x="130.619" y="147.942" width="38.8006" height="18.0667" transform="rotate(-90 130.619 147.942)" fill="#D8D8D8" stroke="#989898" stroke-width="0.548869"/>
<rect x="91.0108" y="147.942" width="38.8006" height="18.0667" transform="rotate(-90 91.0108 147.942)" fill="#D8D8D8" stroke="#989898" stroke-width="0.548869"/>
<rect x="121.707" y="75.6781" width="50.3272" height="35.2961" transform="rotate(-90 121.707 75.6781)" fill="#D8D8D8" stroke="#989898" stroke-width="0.548869"/>
<path d="M85.4974 131.902C86.1374 131.902 86.7974 131.642 87.2374 131.272L86.7274 130.542C86.3974 130.772 86.0474 130.972 85.5574 130.972C84.7574 130.972 84.3174 130.432 84.3174 129.352V128.862C84.3174 127.772 84.7874 127.252 85.5674 127.252C86.0374 127.252 86.3574 127.382 86.6874 127.672L87.2774 127.012C86.7874 126.542 86.2374 126.312 85.5174 126.312C83.9474 126.312 83.0774 127.342 83.0774 128.882V129.332C83.0774 130.872 83.9674 131.902 85.4974 131.902Z" fill="#8D9EB0"/>
<path d="M112.205 53.5598C112.845 53.5598 113.505 53.2998 113.945 52.9298L113.435 52.1998C113.105 52.4298 112.755 52.6298 112.265 52.6298C111.465 52.6298 111.025 52.0898 111.025 51.0098V50.5198C111.025 49.4298 111.495 48.9098 112.275 48.9098C112.745 48.9098 113.065 49.0398 113.395 49.3298L113.985 48.6698C113.495 48.1998 112.945 47.9698 112.225 47.9698C110.655 47.9698 109.785 48.9998 109.785 50.5398V50.9898C109.785 52.5298 110.675 53.5598 112.205 53.5598ZM117.38 52.4798V46.4298H116.45L114.49 47.5698L114.95 48.3898L116.16 47.7898V52.4798H114.73V53.4298H116.16H118.61V52.4798H117.38Z" fill="#8D9EB0"/>
<path d="M85.0638 109.281L86.7939 114.663L83.5258 114.663L85.0638 109.281Z" fill="#8D9EB0"/>
<path d="M85.4482 114.663L85.4482 123.439L85.0638 123.439L85.0638 114.663L85.4482 114.663Z" fill="#8D9EB0"/>
<path d="M114.152 25.0765L115.883 30.4593L112.614 30.4593L114.152 25.0765Z" fill="#8D9EB0"/>
<path d="M114.537 30.4593L114.537 44.0943L114.152 44.0943L114.152 30.4593L114.537 30.4593Z" fill="#8D9EB0"/>
<path d="M137.544 14.144H136.304V20.484C136.304 21.274 136.794 21.674 137.534 21.674C137.814 21.674 138.044 21.614 138.244 21.544L138.114 20.694C138.034 20.704 137.964 20.714 137.904 20.714C137.634 20.714 137.544 20.594 137.544 20.304V14.144ZM141.86 20.594V14.544H140.93L138.97 15.684L139.43 16.504L140.64 15.904V20.594H139.21V21.544H140.64H143.09V20.594H141.86Z" fill="#8D9EB0"/>
<path d="M205.599 127.122L203.618 121.676L207.579 121.676L205.599 127.122Z" fill="#8D9EB0"/>
<path d="M205.599 121.874L205.599 99.9342L205.983 99.9342L205.983 121.874L205.599 121.874Z" fill="#8D9EB0"/>
<path d="M205.841 51.7379L207.822 57.184L203.861 57.184L205.841 51.7379Z" fill="#8D9EB0"/>
<path d="M205.841 56.9859L205.841 78.9257L205.457 78.9257L205.457 56.9859L205.841 56.9859Z" fill="#8D9EB0"/>
<path d="M121.432 18.426L126.851 16.5035L126.851 20.3084L121.432 18.426Z" fill="#8D9EB0"/>
<path d="M126.742 18.1908L133.324 18.1908L133.324 18.5752L126.742 18.5752L126.742 18.1908Z" fill="#8D9EB0"/>
<path d="M157.454 18.426L152.035 16.5035L152.035 20.3084L157.454 18.426Z" fill="#8D9EB0"/>
<path d="M152.144 18.1907L145.562 18.1907L145.562 18.5752L152.144 18.5752L152.144 18.1907Z" fill="#8D9EB0"/>
<path d="M101.223 92.0301H99.9826V98.3701C99.9826 99.1601 100.473 99.5601 101.213 99.5601C101.493 99.5601 101.723 99.5001 101.923 99.4301L101.793 98.5801C101.713 98.5901 101.643 98.6001 101.583 98.6001C101.313 98.6001 101.223 98.4801 101.223 98.1901V92.0301Z" fill="#8D9EB0"/>
<path d="M91.8333 105.594L97.2522 103.788V107.401L91.8333 105.594Z" fill="#8D9EB0"/>
<path d="M97.2163 105.345H100.979V105.729H97.2163V105.345Z" fill="#8D9EB0"/>
<path d="M109.755 105.594L104.336 103.788V107.401L109.755 105.594Z" fill="#8D9EB0"/>
<path d="M104.372 105.345L98.4152 105.345V105.729L104.372 105.729V105.345Z" fill="#8D9EB0"/>
<path d="M85.2558 148.216L83.5256 142.833L86.7938 142.833L85.2558 148.216Z" fill="#8D9EB0"/>
<path d="M85.0637 142.833L85.0637 134.057L85.4482 134.057L85.4482 142.833L85.0637 142.833Z" fill="#8D9EB0"/>
<path d="M114.345 75.9526L112.615 70.5698L115.883 70.5698L114.345 75.9526Z" fill="#8D9EB0"/>
<path d="M114.153 70.5698L114.153 56.9348L114.537 56.9348L114.537 70.5698L114.153 70.5698Z" fill="#8D9EB0"/>
<path d="M205.561 50.5145H158.884" stroke="#A9B6C3" stroke-width="0.682927"/>
<path d="M205.599 128.541H189.756" stroke="#A9B6C3" stroke-width="0.682927"/>
<path d="M206.644 85.0003C206.004 85.0003 205.504 85.2403 205.144 85.6503L205.074 85.1403H204.014V92.4603H205.254V90.1603C205.604 90.4403 206.004 90.5903 206.484 90.5903C207.714 90.5903 208.654 89.5403 208.654 88.0503V87.5203C208.654 85.9903 207.824 85.0003 206.644 85.0003ZM207.414 88.0903C207.414 89.1303 206.974 89.6603 206.264 89.6603C205.874 89.6603 205.554 89.5303 205.254 89.2803V86.5003C205.524 86.1503 205.914 85.9403 206.364 85.9403C207.024 85.9403 207.414 86.4503 207.414 87.4803V88.0903Z" fill="#8D9EB0"/>
</svg>
