<svg width="290" height="175" viewBox="0 0 290 175" fill="none" xmlns="http://www.w3.org/2000/svg">
<rect x="135.137" y="138.462" width="34.3919" height="14.3919" transform="rotate(-90 135.137 138.462)" fill="#D8D8D8" stroke="#989898" stroke-width="0.608067"/>
<rect x="161.105" y="138.462" width="34.3919" height="14.3919" transform="rotate(-90 161.105 138.462)" fill="#D8D8D8" stroke="#989898" stroke-width="0.608067"/>
<rect x="109.168" y="138.462" width="34.3919" height="14.3919" transform="rotate(-90 109.168 138.462)" fill="#D8D8D8" stroke="#989898" stroke-width="0.608067"/>
<path d="M99.2694 125.514C99.9699 125.514 100.692 125.229 101.174 124.824L100.616 124.025C100.254 124.277 99.8714 124.496 99.3351 124.496C98.4595 124.496 97.9779 123.905 97.9779 122.723V122.186C97.9779 120.993 98.4923 120.424 99.346 120.424C99.8605 120.424 100.211 120.567 100.572 120.884L101.218 120.162C100.681 119.647 100.079 119.395 99.2913 119.395C97.5729 119.395 96.6207 120.523 96.6207 122.208V122.701C96.6207 124.386 97.5948 125.514 99.2694 125.514Z" fill="#8D9EB0"/>
<path d="M96.3266 56.4925C97.0271 56.4925 97.7495 56.2079 98.2311 55.803L97.6729 55.004C97.3117 55.2557 96.9286 55.4746 96.3923 55.4746C95.5167 55.4746 95.0351 54.8836 95.0351 53.7015V53.1652C95.0351 51.9721 95.5495 51.403 96.4033 51.403C96.9177 51.403 97.2679 51.5453 97.6291 51.8627L98.2749 51.1403C97.7386 50.6259 97.1366 50.3741 96.3485 50.3741C94.6301 50.3741 93.6779 51.5015 93.6779 53.1871V53.6796C93.6779 55.3652 94.652 56.4925 96.3266 56.4925ZM101.99 55.3104V48.6886H100.972L98.827 49.9363L99.3305 50.8338L100.655 50.1771V55.3104H99.0897V56.3502H100.655H103.336V55.3104H101.99Z" fill="#8D9EB0"/>
<path d="M98.7944 104.282L100.542 109.718L97.2412 109.718L98.7944 104.282Z" fill="#8D9EB0"/>
<path d="M99.1826 109.718L99.1826 115.718L98.7943 115.718L98.7943 109.718L99.1826 109.718Z" fill="#8D9EB0"/>
<path d="M98.4062 24.202L100.154 29.6381L96.8531 29.6381L98.4062 24.202Z" fill="#8D9EB0"/>
<path d="M98.7944 29.6381L98.7944 45.6381L98.4061 45.6381L98.4061 29.6381L98.7944 29.6381Z" fill="#8D9EB0"/>
<path d="M117.432 146.847L122.868 145.1V148.401L117.432 146.847Z" fill="#8D9EB0"/>
<path d="M139.596 146.847L134.16 145.1V148.401L139.596 146.847Z" fill="#8D9EB0"/>
<path d="M122.502 146.552H135.229V146.94H122.502V146.552Z" fill="#8D9EB0"/>
<path d="M140.132 12.4344H138.775V19.3737C138.775 20.2384 139.311 20.6762 140.121 20.6762C140.428 20.6762 140.679 20.6105 140.898 20.5339L140.756 19.6035C140.668 19.6145 140.592 19.6254 140.526 19.6254C140.231 19.6254 140.132 19.4941 140.132 19.1767V12.4344ZM144.857 19.4941V12.8722H143.839L141.693 14.12L142.197 15.0175L143.521 14.3608V19.4941H141.956V20.5339H143.521H146.203V19.4941H144.857Z" fill="#8D9EB0"/>
<path d="M174.415 17.3581L168.942 19.1823L168.942 15.5339L174.415 17.3581Z" fill="#8D9EB0"/>
<path d="M169.052 17.5523L151.052 17.5523L151.052 17.164L169.052 17.164L169.052 17.5523Z" fill="#8D9EB0"/>
<path d="M188.608 136.825L186.608 131.325L190.608 131.325L188.608 136.825Z" fill="#8D9EB0"/>
<path d="M188.414 131.325L188.414 89.3245L188.802 89.3245L188.802 131.325L188.414 131.325Z" fill="#8D9EB0"/>
<path d="M188.608 26.3443L190.608 31.8443L186.608 31.8443L188.608 26.3443Z" fill="#8D9EB0"/>
<path d="M188.802 31.8443L188.802 73.8443L188.413 73.8443L188.413 31.8443L188.802 31.8443Z" fill="#8D9EB0"/>
<path d="M110.088 17.3581L115.56 15.5339V19.1823L110.088 17.3581Z" fill="#8D9EB0"/>
<path d="M115.524 17.1062L133.524 17.1062V17.4945L115.524 17.4945V17.1062Z" fill="#8D9EB0"/>
<path d="M98.9885 139.282L97.2412 133.846L100.542 133.846L98.9885 139.282Z" fill="#8D9EB0"/>
<path d="M98.7944 133.846L98.7944 127.846L99.1827 127.846L99.1827 133.846L98.7944 133.846Z" fill="#8D9EB0"/>
<path d="M98.6004 82.6226L96.853 77.1864L100.154 77.1864L98.6004 82.6226Z" fill="#8D9EB0"/>
<path d="M98.4062 77.1865L98.4063 61.1865L98.7945 61.1865L98.7945 77.1865L98.4062 77.1865Z" fill="#8D9EB0"/>
<path d="M192.608 139.032H176.608" stroke="#A9B6C3" stroke-width="0.756583"/>
<path d="M192.608 24.6774H176.608" stroke="#A9B6C3" stroke-width="0.756583"/>
<path d="M190.533 78.143H186.383V79.1723H189.077L186.241 82.9829V83.9684H190.61V82.9282H187.697L190.533 79.0957V78.143Z" fill="#8D9EB0"/>
<path d="M116.364 140.052L116.364 153.052" stroke="#A9B6C3" stroke-width="0.756583"/>
<path d="M161.338 140.052L161.338 153.052" stroke="#A9B6C3" stroke-width="0.756583"/>
<path d="M108.864 10.2839L108.864 23.2839" stroke="#A9B6C3" stroke-width="0.756583"/>
<path d="M175.443 10.2839L175.443 23.2839" stroke="#A9B6C3" stroke-width="0.756583"/>
<path d="M142.333 140.052L142.333 153.052" stroke="#A9B6C3" stroke-width="0.756583"/>
<path d="M175.282 140.052L175.282 153.052" stroke="#A9B6C3" stroke-width="0.756583"/>
<path d="M132.564 156.409C132.564 154.558 131.634 153.573 130.046 153.573C128.425 153.573 127.44 154.766 127.44 156.343V156.945C127.44 158.522 128.447 159.694 130.221 159.694C131.064 159.694 131.853 159.376 132.345 159.004L131.864 158.194C131.415 158.446 130.944 158.676 130.309 158.676C129.301 158.676 128.787 158.183 128.765 157.066H132.521C132.543 156.891 132.564 156.65 132.564 156.409ZM131.349 156.179H128.765C128.787 155.117 129.225 154.569 130.057 154.569C130.9 154.569 131.349 155.117 131.349 156.124V156.179Z" fill="#8D9EB0"/>
<path d="M189.937 143.389H188.579V150.331C188.579 151.196 189.116 151.634 189.926 151.634C190.233 151.634 190.485 151.568 190.704 151.492L190.561 150.561C190.474 150.572 190.397 150.583 190.331 150.583C190.036 150.583 189.937 150.451 189.937 150.134V143.389Z" fill="#8D9EB0"/>
<rect x="109.168" y="82.3186" width="57.8125" height="66.3289" transform="rotate(-90 109.168 82.3186)" fill="#D8D8D8" stroke="#989898" stroke-width="0.608067"/>
<path d="M160.587 146.847L155.151 145.1V148.401L160.587 146.847Z" fill="#8D9EB0"/>
<path d="M150.768 146.552H156.22V146.94H150.768V146.552Z" fill="#8D9EB0"/>
<path d="M176.608 146.847L182.044 145.1V148.401L176.608 146.847Z" fill="#8D9EB0"/>
<path d="M186.427 146.552H180.975V146.94H186.427V146.552Z" fill="#8D9EB0"/>
</svg>
