<?xml version="1.0" encoding="utf-8"?>
<!-- Generator: Adobe Illustrator 18.1.1, SVG Export Plug-In . SVG Version: 6.00 Build 0)  -->
<svg version="1.1" id="Calque_1" xmlns="http://www.w3.org/2000/svg" xmlns:xlink="http://www.w3.org/1999/xlink" x="0px" y="0px"
	 viewBox="157.2 415.6 500 150.9" height="75.45px" width="250px" enable-background="new 157.2 415.6 500 150.9" xml:space="preserve">
<g>
	<path fill="#009F8F" d="M226.4,482.1c-19.9-13.5-17.4-27.5,1.2-39.2l0,0c8.9-5.5,21.4-10.4,37-14.7l0,0c15.3-4,33.7-7.6,54.8-9.8
		l0,0c11.3-1.2,22.9-2.4,34.9-2.8l0,0c-26-0.3-52.9,1.2-78.3,4l0,0c-22.6,2.4-42.5,6.1-59.1,10.4l0,0c-17.1,4.6-31.2,9.8-41,15.6
		l0,0c-21.1,12.2-25.7,26.9-6.4,41.6l0,0c10.1,7.6,25.7,14.4,45.3,20.2l0,0c20.2,5.8,44.7,10.4,71.6,13.5l0,0
		c54.8,6.1,117.2,5.8,171.7-2.4l0,0c11.6-1.8,22.3-3.7,31.8-6.1l0,0c-49.6,6.1-105.9,5.8-155.1-0.3l0,0c-24.2-2.8-46.5-7-64.9-12.2
		l0,0C251.1,494.9,236.5,489.1,226.4,482.1z"/>
</g>
<path fill="#FFFFFF" d="M301.6,489.1c-1.2,0.3-2.8,0.6-4.9,0.6c-9.5,0-9.5-5.5-9.5-12.2v-22.9h-4.9v-5.2h4.9v-9.8l6.7-4v13.8h6.7
	v5.2H294v23.3c0,3.4,0,5.5,3.7,5.5c1.2,0,2.4-0.3,3.1-0.3L301.6,489.1z"/>
<path fill="#FFFFFF" d="M307.5,449.3h6.1v6.1h0.3c1.5-3.1,3.7-7,8.6-7c3.4,0,5.8,1.5,7,2.1l-2.4,6.1c-1.5-0.9-3.1-1.5-4.9-1.5
	c-7,0-7.6,8.9-7.6,12.9v21.1h-6.7L307.5,449.3L307.5,449.3z"/>
<path fill="#FFFFFF" d="M358.2,471.7c0,3.4-0.3,6.4-3.1,9.5c-3.1,3.4-7.6,3.7-9.8,3.7c-6.1,0-8-3.4-8-6.4c0-5.5,5.2-6.1,9.5-6.7
	c3.4-0.6,8.6-1.5,11.3-2.4V471.7L358.2,471.7z M338.1,461.6c0.9-3.4,1.8-7.6,10.4-7.6c9.8,0,9.8,5.5,9.8,9.8
	c-4,1.2-11.3,2.1-12.2,2.4c-4.6,0.6-15.6,1.8-15.6,12.2c0,6.4,4.9,11.3,13.5,11.3c4.3,0,9.2-0.9,14.7-5.8c0.3,0.9,0.3,2.8,1.2,4.9h7
	c-2.1-4-2.1-6.4-2.1-16.5v-9.2c0-7,0-15-15.6-15s-17.1,8.6-18.1,12.2L338.1,461.6z"/>
<path fill="#FFFFFF" d="M407.8,475.6c-2.1,13.5-13.2,14.7-16.5,14.7c-13.2,0-18.1-10.1-18.1-20.8c0-16.5,10.1-20.8,18.1-20.8
	c3.7,0,9.8,1.2,13.5,6.1c1.8,2.4,2.1,4.6,2.4,6.4l-6.4,0.9c-1.2-5.8-4.9-8.3-9.2-8.3c-10.4,0-11.6,10.4-11.6,15.3
	c0,2.4,0,15.6,11.3,15.6c8.6,0,9.8-8,10.1-10.1L407.8,475.6z"/>
<path fill="#FFFFFF" d="M418.8,465.5c0.3-5.2,4-11.3,11.3-11.3c4.9,0,8.6,3.1,10.1,6.4c0.9,1.8,0.9,3.7,1.2,4.9H418.8z M440.9,476.3
	c-0.9,2.4-2.8,8.3-10.4,8.3c-6.1,0-11.6-4-12.2-13.5h29.7c0.6-21.4-14.7-22.6-18.1-22.6c-12.2,0-18.7,9.2-18.7,21.1
	c0,12.2,6.7,20.5,19,20.5c9.8,0,15.6-5.5,17.4-12.9L440.9,476.3z"/>
<path fill="#FFFFFF" d="M475.4,462.2c1.2-1.5,2.8-2.4,4.9-2.4c1.8,0,3.4,0.9,4.6,2.4s1.8,4,1.8,7c0,3.4-0.6,6.1-1.8,7.3
	c-1.2,1.5-2.8,2.1-4.6,2.1s-3.7-0.9-4.9-2.4c-1.2-1.5-1.8-4-1.8-7C473.6,466.2,474.2,463.7,475.4,462.2z M473.6,504.4v-19
	c1.5,1.5,3.4,2.8,5.2,3.4c1.8,0.9,4,1.2,6.4,1.2c4.9,0,8.9-1.8,11.9-5.2s4.9-8.6,4.9-15c0-6.1-1.5-11-4.6-15c-2.8-4-7-6.1-12.2-6.1
	c-2.8,0-5.2,0.6-7.3,1.8c-1.8,0.9-3.4,2.4-5.5,4.9v-6.1H458v54.8L473.6,504.4L473.6,504.4z"/>
<path fill="#FFFFFF" d="M532.7,472.9c0,1.8-0.3,3.4-0.9,4.6c-0.6,1.2-1.5,2.1-3.1,2.8c-1.2,0.9-3.1,1.2-4.6,1.2
	c-1.5,0-2.8-0.3-3.7-1.2c-0.9-0.9-1.2-1.8-1.2-2.8c0-0.9,0.3-1.8,1.2-2.8c0.9-0.9,2.8-1.5,5.8-2.4c2.4-0.6,4.6-1.2,6.4-1.8V472.9z
	 M521.6,458.8c1.2-0.9,3.1-1.2,5.5-1.2c1.8,0,3.4,0.3,4,1.2c0.9,0.9,1.2,2.1,1.2,4c-1.8,0.9-3.7,1.2-5.5,1.8
	c-1.8,0.3-5.5,1.2-11,2.4c-4.9,0.9-8,2.4-9.8,4.3s-2.8,4.6-2.8,7.6c0,3.4,1.2,6.1,3.7,8.3c2.4,2.1,6.1,3.4,10.7,3.4
	c3.4,0,6.7-0.6,9.2-1.5c1.8-0.9,4-2.1,6.1-4c0.3,1.2,0.3,1.8,0.6,2.4c0.3,0.6,0.6,1.2,1.2,2.4h14.4c-0.9-1.8-1.2-3.1-1.5-4
	c-0.3-0.9-0.3-2.4-0.3-4.6V464c0-1.8-0.3-4-1.2-6.1s-1.8-3.7-3.1-4.9c-1.8-1.5-4-2.8-7-3.4c-2.8-0.6-6.4-0.9-11-0.9
	c-2.8,0-5.5,0.3-8,0.6c-2.4,0.3-4.6,0.9-5.8,1.8c-1.8,1.2-3.4,2.4-4.6,4c-0.9,1.5-1.8,3.4-2.4,6.1l14.7,1.5
	C520.1,460.3,520.7,459.4,521.6,458.8z"/>
<path fill="#FFFFFF" d="M553.2,449.3h14.4v6.4c1.2-2.8,2.8-4.9,4.3-5.8c1.5-0.9,3.4-1.5,5.5-1.5c2.4,0,4.6,0.9,7.3,2.1l-4.9,10.7
	c-1.8-0.9-3.4-1.2-4.3-1.2c-1.8,0-3.4,0.9-4.6,2.4c-1.5,2.4-2.4,6.7-2.4,13.2v13.5h-15.3V449.3L553.2,449.3z"/>
<path fill="#FFFFFF" d="M605.5,434.3v15h8.6v11.3h-8.6v14.1c0,1.8,0.3,2.8,0.6,3.4c0.6,0.9,1.2,1.2,2.8,1.2c1.2,0,2.8-0.3,4.6-0.9
	l1.2,10.4c-4,0.9-7.3,1.2-10.7,1.2c-4,0-6.4-0.6-8.3-1.5c-1.8-0.9-3.1-2.4-4-4.6c-0.9-1.8-1.2-5.2-1.2-9.8v-13.8H585V449h5.5v-7.3
	L605.5,434.3z"/>
<rect x="141.3" y="405" fill="none" width="529.7" height="130.7"/>
<path fill="#FFFFFF" d="M614.4,478.1l15-1.5c0.6,1.8,1.5,3.1,2.8,4c1.2,0.9,2.8,1.2,4.6,1.2c2.1,0,3.7-0.3,4.9-1.2
	c0.9-0.6,1.2-1.5,1.2-2.4c0-1.2-0.6-1.8-1.8-2.4c-0.9-0.3-3.1-0.9-6.4-1.5c-5.2-0.9-9.2-1.8-11-2.4c-2.1-0.9-4-2.1-5.2-4
	s-2.1-4-2.1-6.4c0-2.8,0.9-4.9,2.4-6.7c1.5-1.8,3.7-3.4,6.4-4.3c2.8-0.9,6.1-1.2,10.7-1.2c4.9,0,8.3,0.3,10.7,1.2
	c2.4,0.9,4.3,1.8,5.5,3.4c1.5,1.5,2.8,3.7,4,6.1l-14.4,1.5c-0.3-1.2-0.9-2.1-1.8-2.8c-1.2-0.9-2.8-1.2-4.6-1.2s-3.1,0.3-4,0.9
	c-0.9,0.6-1.2,1.2-1.2,2.1c0,0.9,0.6,1.8,1.5,2.1c0.9,0.6,3.1,0.9,6.4,1.2c4.9,0.6,8.9,1.2,11.3,2.4c2.4,0.9,4.6,2.4,5.5,4.6
	c1.2,1.8,1.8,4,1.8,6.1c0,2.4-0.9,4.6-2.1,6.7c-1.2,2.1-3.7,4-6.4,5.2c-2.8,1.2-7,1.8-12.2,1.8c-7.3,0-12.5-0.9-15.6-3.1
	C617.4,484.8,615.6,482.1,614.4,478.1z"/>
<path fill="#FFFFFF" d="M294.6,548.2H290c-0.3,0-0.3,0.3-0.3,0.3v9.5c0,0.3-0.3,0.3-0.3,0.3h-1.5c-0.3,0-0.3-0.3-0.3-0.3v-21.1
	c0-0.3,0.3-0.3,0.3-0.3h6.7c3.7,0,6.1,2.4,6.1,6.1C300.7,545.7,298.3,548.2,294.6,548.2z M298.6,542c0-1.8-1.8-3.7-3.7-3.7h-4.6
	c-0.3,0-0.3,0.3-0.3,0.3v7c0,0.3,0.3,0.3,0.3,0.3h4.6c2.1,0,3.7-1.8,3.7-3.7V542z"/>
<path fill="#FFFFFF" d="M309.9,545.4h-0.6c-2.1,0-3.7,1.5-3.7,3.7v9.2c0,0.3-0.3,0.3-0.3,0.3h-1.8c-0.3,0-0.3-0.3-0.3-0.3v-14.7
	c0-0.3,0.3-0.3,0.3-0.3h1.2c0.3,0,0.3,0.3,0.3,0.3v1.8c0,0.3,0.3,0.3,0.3,0.3s0.3,0,0.3-0.3c1.2-1.5,2.4-2.4,3.4-2.4h0.6
	c0.3,0,0.3,0.3,0.3,0.3v1.8C310.5,545.4,310.2,545.4,309.9,545.4z"/>
<path fill="#FFFFFF" d="M318.8,558.6c-3.7,0-6.1-2.4-6.1-5.8v-4.6c0-3.4,2.4-5.5,6.1-5.5c3.7,0,6.1,2.4,6.1,5.5v4.6
	C324.9,556.4,322.4,558.6,318.8,558.6z M322.4,548.5c0-1.8-1.8-3.7-3.7-3.7c-2.1,0-3.7,1.5-3.7,3.7v4.6c0,1.8,1.8,3.7,3.7,3.7
	c1.8,0,3.7-1.8,3.7-3.7V548.5z"/>
<path fill="#FFFFFF" d="M340.5,558.6h-1.2c-0.3,0-0.3-0.3-0.3-0.3v-1.5c0-0.3-0.3-0.3-0.3-0.3s-0.3,0-0.3,0.3
	c-1.2,1.5-2.8,2.1-3.4,2.1c-3.7,0-6.1-2.4-6.1-5.8v-4c0-3.4,2.4-5.5,5.5-5.5c0.9,0,2.4,0.3,3.4,1.8c0.3,0.3,0.3,0.3,0.3,0.3
	c0.3,0,0.3-0.3,0.3-0.3v-8c0-0.3,0.3-0.3,0.3-0.3h1.8c0.3,0,0.3,0.3,0.3,0.3v21.1C340.8,558.3,340.8,558.6,340.5,558.6z
	 M338.7,548.5c0-1.8-1.8-3.7-3.7-3.7c-2.1,0-3.7,1.5-3.7,3.7v4c0,1.8,1.8,3.7,3.7,3.7c1.8,0,3.7-1.8,3.7-3.7V548.5z"/>
<path fill="#FFFFFF" d="M356.7,558.6h-1.2c-0.3,0-0.3-0.3-0.3-0.3v-1.5c0-0.3-0.3-0.3-0.3-0.3c-0.3,0-0.3,0-0.3,0.3
	c-1.2,1.5-2.4,2.1-3.4,2.1c-3.7,0-6.1-2.4-6.1-5.8v-9.2c0-0.3,0.3-0.3,0.3-0.3h1.5c0.3,0,0.3,0.3,0.3,0.3v9.2c0,1.8,1.8,3.7,3.7,3.7
	c2.1,0,3.7-1.5,3.7-3.7v-9.2c0-0.3,0.3-0.3,0.3-0.3h1.5c0.3,0,0.3,0.3,0.3,0.3V558.6C357,558.3,357,558.6,356.7,558.6z"/>
<path fill="#FFFFFF" d="M371.4,556.7c-0.9,1.2-2.4,1.8-4.6,1.8c-3.7,0-6.1-2.4-6.1-5.8v-4.6c0-3.4,2.4-5.5,6.1-5.5
	c2.4,0,3.7,0.9,4.6,1.8c0.3,0.6,0.9,0.9,0.9,1.2S372,546,372,546l-1.2,0.6c-0.3,0-0.3,0.3-0.3,0.3c-0.3,0-0.3,0-0.3-0.3
	c-0.9-1.2-2.1-1.8-3.4-1.8c-2.1,0-3.7,1.5-3.7,3.7v4.6c0,1.8,1.8,3.7,3.7,3.7c1.2,0,2.4-0.9,3.4-1.8c0-0.3,0.3-0.3,0.3-0.3
	c0.3,0,0.3,0.3,0.3,0.3l1.2,0.6c0.3,0,0.3,0.3,0.3,0.3C372.3,555.8,372,556.4,371.4,556.7z"/>
<path fill="#FFFFFF" d="M381.8,558.6c-0.3,0-0.9-0.3-1.2-0.3c-2.4-0.9-4-2.8-4-5.5v-7.6c0-0.3-0.3-0.3-0.3-0.3h-1.8
	c-0.3,0-0.3-0.3-0.3-0.3v-0.6l4-4c0.3-0.3,0.3-0.3,0.3-0.3h0.6c0.3,0,0.3,0.3,0.3,0.3v2.4c0,0.3,0.3,0.3,0.3,0.3h2.4
	c0.3,0,0.3,0.3,0.3,0.3v1.2c0,0.3-0.3,0.3-0.3,0.3h-2.4c-0.3,0-0.3,0.3-0.3,0.3v7.6c0,1.8,1.2,3.4,2.8,3.7c0.3,0,0.3,0.3,0.3,0.3
	v1.2C382.1,558.6,382.1,558.6,381.8,558.6z"/>
<path fill="#FFFFFF" d="M404.1,556.7c-0.9,1.2-2.4,1.8-4.6,1.8h-1.2c-3.7,0-6.1-2.4-6.1-5.8v-11.3c0-3.4,2.4-5.8,6.1-5.8h1.2
	c2.4,0,3.7,0.9,4.6,1.8c0.3,0.3,0.9,0.9,0.9,1.2c0,0.3-0.3,0.3-0.3,0.3l-1.2,0.6c-0.3,0-0.3,0.3-0.3,0.3s-0.3,0-0.3-0.3
	c-0.9-1.2-2.1-1.8-3.4-1.8h-1.2c-2.1,0-3.7,1.5-3.7,3.7v11.3c0,1.8,1.5,3.7,3.7,3.7h1.2c1.2,0,2.4-0.9,3.4-1.8
	c0-0.3,0.3-0.3,0.3-0.3c0.3,0,0.3,0,0.3,0.3l1.2,0.6c0.3,0,0.3,0.3,0.3,0.3C404.8,555.8,404.5,556.4,404.1,556.7z"/>
<path fill="#FFFFFF" d="M413.9,558.6c-3.7,0-6.1-2.4-6.1-5.8v-4.6c0-3.4,2.4-5.5,6.1-5.5s6.1,2.4,6.1,5.5v4.6
	C420.1,556.4,417.6,558.6,413.9,558.6z M417.6,548.5c0-1.8-1.8-3.7-3.7-3.7c-2.1,0-3.7,1.5-3.7,3.7v4.6c0,1.8,1.8,3.7,3.7,3.7
	c1.8,0,3.7-1.8,3.7-3.7V548.5z"/>
<path fill="#FFFFFF" d="M435.7,558.6h-1.8c-0.3,0-0.3-0.3-0.3-0.3v-9.2c0-1.8-1.8-3.7-3.7-3.7c-2.1,0-3.7,1.5-3.7,3.7v9.2
	c0,0.3-0.3,0.3-0.3,0.3H424c-0.3,0-0.3-0.3-0.3-0.3v-14.7c0-0.3,0.3-0.3,0.3-0.3h1.2c0.3,0,0.3,0.3,0.3,0.3v1.2
	c0,0.3,0.3,0.3,0.3,0.3c0.3,0,0.3,0,0.3-0.3c1.2-1.5,2.4-1.8,3.4-1.8c3.7,0,6.1,2.4,6.1,5.5v9.2C436,558.3,435.7,558.6,435.7,558.6z
	"/>
<path fill="#FFFFFF" d="M446.4,558.6c-0.3,0-0.9-0.3-1.2-0.3c-2.4-0.9-4-2.8-4-5.5v-7.6c0-0.3-0.3-0.3-0.3-0.3h-2.1
	c-0.3,0-0.3-0.3-0.3-0.3v-0.6l4-4c0.3-0.3,0.3-0.3,0.3-0.3h0.6c0.3,0,0.3,0.3,0.3,0.3v2.4c0,0.3,0.3,0.3,0.3,0.3h2.4
	c0.3,0,0.3,0.3,0.3,0.3v1.2c0,0.3-0.3,0.3-0.3,0.3h-2.8c-0.3,0-0.3,0.3-0.3,0.3v7.6c0,1.8,1.2,3.4,2.8,3.7c0.3,0,0.3,0.3,0.3,0.3
	L446.4,558.6C446.7,558.6,446.4,558.6,446.4,558.6z"/>
<path fill="#FFFFFF" d="M461.1,550.6h-9.2c-0.3,0-0.3,0.3-0.3,0.3v1.8c0,1.8,1.8,3.7,3.7,3.7c1.2,0,2.4-0.9,3.4-1.8
	c0-0.3,0.3-0.3,0.3-0.3c0.3,0,0.3,0,0.3,0.3l1.2,0.6c0.3,0,0.3,0.3,0.3,0.3s-0.3,0.6-0.9,1.2c-0.9,1.2-2.4,1.8-4.6,1.8
	c-3.7,0-6.1-2.4-6.1-5.8v-4.6c0-2.8,2.4-5.5,6.1-5.5s6.1,2.8,6.1,5.5L461.1,550.6C461.4,550.6,461.4,550.6,461.1,550.6z
	 M459.2,548.5c0-1.8-1.8-3.7-3.7-3.7c-2.1,0-3.7,1.5-3.7,3.7v0.6c0,0.3,0.3,0.3,0.3,0.3h6.7c0.3,0,0.3-0.3,0.3-0.3L459.2,548.5
	L459.2,548.5z"/>
<path fill="#FFFFFF" d="M477,558.6h-1.8c-0.3,0-0.3-0.3-0.3-0.3v-9.2c0-1.8-1.8-3.7-3.7-3.7c-2.1,0-3.7,1.5-3.7,3.7v9.2
	c0,0.3-0.3,0.3-0.3,0.3h-1.8c-0.3,0-0.3-0.3-0.3-0.3v-14.7c0-0.3,0.3-0.3,0.3-0.3h1.2c0.3,0,0.3,0.3,0.3,0.3v1.2
	c0,0.3,0.3,0.3,0.3,0.3s0.3,0,0.3-0.3c1.2-1.5,2.4-1.8,3.4-1.8c3.7,0,6.1,2.4,6.1,5.5v9.2C477.3,558.3,477.3,558.6,477,558.6z"/>
<path fill="#FFFFFF" d="M487.7,558.6c-0.3,0-0.9-0.3-1.2-0.3c-2.4-0.9-4-2.8-4-5.5v-7.6c0-0.3-0.3-0.3-0.3-0.3h-1.8
	c-0.3,0-0.3-0.3-0.3-0.3v-0.6l4-4c0.3-0.3,0.3-0.3,0.3-0.3h0.6c0.3,0,0.3,0.3,0.3,0.3v2.4c0,0.3,0.3,0.3,0.3,0.3h2.4
	c0.3,0,0.3,0.3,0.3,0.3v1.2c0,0.3-0.3,0.3-0.3,0.3h-2.4c-0.3,0-0.3,0.3-0.3,0.3v7.6c0,1.8,1.2,3.4,2.8,3.7c0.3,0,0.3,0.3,0.3,0.3
	v1.2C488,558.6,487.7,558.6,487.7,558.6z"/>
<path fill="#009F8F" d="M510.9,558.6h-12.2c-0.3,0-0.3-0.3-0.3-0.3v-21.1c0-0.3,0.3-0.3,0.3-0.3h12.2c0.3,0,0.3,0.3,0.3,0.3v2.8
	c0,0.3-0.3,0.3-0.3,0.3h-8.3c-0.3,0-0.3,0.3-0.3,0.3v4.6c0,0.3,0.3,0.3,0.3,0.3h6.7c0.3,0,0.3,0.3,0.3,0.3v2.8
	c0,0.3-0.3,0.3-0.3,0.3h-6.7c-0.3,0-0.3,0.3-0.3,0.3v4.9c0,0.3,0.3,0.3,0.3,0.3h8.3c0.3,0,0.3,0.3,0.3,0.3v2.8
	C511.2,558.3,511.2,558.6,510.9,558.6z"/>
<path fill="#009F8F" d="M527.2,543.3l-6.1,15c0,0.3-0.3,0.3-0.3,0.3h-2.4c-0.3,0-0.3,0-0.3-0.3l-6.1-15c-0.3-0.3-0.3-0.6-0.3-0.6
	c0-0.3,0.3-0.3,0.3-0.3h3.4c0.3,0,0.3,0,0.3,0.3l3.1,8.3c0,0.3,0.3,1.2,0.3,1.5h0.3c0-0.3,0.3-1.2,0.3-1.5l3.1-8.3
	c0-0.3,0.3-0.3,0.3-0.3h3.4c0.3,0,0.3,0.3,0.3,0.3C527.5,542.7,527.5,543,527.2,543.3z"/>
<path fill="#009F8F" d="M540.9,551.5h-8.3c-0.3,0-0.3,0.3-0.3,0.3v0.9c0,1.2,1.2,2.4,2.4,2.4c0.9,0,1.8-0.6,2.4-2.1
	c0-0.3,0.3-0.3,0.3-0.3c0.3,0,0.3,0.3,0.6,0.3l2.4,1.2c0.3,0,0.3,0.3,0.3,0.3c0,0.3-0.3,0.6-0.6,0.9c-1.2,1.8-2.4,3.1-5.5,3.1
	c-4,0-6.4-2.4-6.4-6.1v-4.3c0-2.8,2.4-6.1,6.4-6.1c4,0,6.4,3.4,6.4,6.1v2.8C541.2,551.2,541.2,551.5,540.9,551.5z M534.8,545.7
	c-1.8,0-2.4,1.5-2.4,1.8s0.3,0.3,0.3,0.3h4c0.3,0,0.3-0.3,0.3-0.3C537.6,547.6,536.6,545.7,534.8,545.7z"/>
<path fill="#009F8F" d="M552.6,546.9c-0.3,0-0.6-0.3-1.2-0.3c-1.2,0-2.4,0.9-2.4,2.4v9.2c0,0.3-0.3,0.3-0.3,0.3h-3.4
	c-0.3,0-0.3-0.3-0.3-0.3V543c0-0.3,0.3-0.3,0.3-0.3h2.8c0.3,0,0.3,0,0.3,0.3v0.6c0,0.3,0.3,0.3,0.3,0.3c0.3,0,0.3,0,0.3-0.3
	c0.3-0.3,1.5-0.9,2.8-0.9c0.3,0,0.9,0,0.9,0.3c0.3,0,0.3,0.3,0.3,0.3L552.6,546.9C552.6,546.6,552.6,546.9,552.6,546.9z"/>
<path fill="#009F8F" d="M561.1,566.5c-2.8,0-4.3-0.9-5.5-2.4c-0.6-0.9-0.9-1.2-0.9-1.5s0-0.3,0.3-0.3l2.8-1.2
	c0.3-0.3,0.3-0.3,0.3-0.3c0.3,0,0.3,0,0.3,0.3c0.6,1.5,1.5,1.8,2.4,1.8c1.2,0,2.4-1.2,2.4-2.4v-2.1c0-0.3,0-0.3-0.3-0.3
	c-0.3,0-0.3,0-0.3,0c-0.6,0.3-1.2,0.3-1.8,0.3c-4,0-6.4-2.4-6.4-6.1v-9.5c0-0.3,0.3-0.3,0.3-0.3h3.4c0.3,0,0.3,0.3,0.3,0.3v9.5
	c0,1.2,1.2,2.4,2.4,2.4c1.2,0,2.4-1.2,2.4-2.4v-9.5c0-0.3,0.3-0.3,0.3-0.3h3.4c0.3,0,0.3,0.3,0.3,0.3v17.1
	C567.9,563.8,565.4,566.5,561.1,566.5z"/>
<path fill="#009F8F" d="M590.2,543.6l-4.6,14.4c0,0.3-0.3,0.3-0.3,0.3h-2.4c-0.3,0-0.3,0-0.3-0.3l-2.1-7.3c-0.3-0.6-0.3-1.2-0.3-1.8
	h-0.3c-0.3,0.6-0.3,1.2-0.3,1.8l-2.1,7.3c0,0.3-0.3,0.3-0.3,0.3h-2.4c-0.3,0-0.3,0-0.3-0.3l-4.6-14.4c-0.3-0.3-0.3-0.9-0.3-0.9
	c0-0.3,0.3-0.3,0.3-0.3h3.4c0.3,0,0.3,0,0.3,0.3l1.8,6.4c0.3,0.6,0.3,1.5,0.3,2.1h0.3c0.3-0.9,0.3-1.5,0.6-2.1l1.8-6.4
	c0-0.3,0.3-0.3,0.3-0.3h2.8c0.3,0,0.3,0,0.3,0.3l1.8,6.4c0.3,0.9,0.3,1.5,0.6,2.1h0.3c0-0.6,0.3-1.2,0.3-2.1l1.8-6.4
	c0-0.3,0.3-0.3,0.3-0.3h3.4c0.3,0,0.3,0.3,0.3,0.3C590.2,542.7,590.2,543.3,590.2,543.6z"/>
<path fill="#009F8F" d="M605.2,558.6h-3.4c-0.3,0-0.3-0.3-0.3-0.3v-9.5c0-1.2-1.2-2.4-2.4-2.4c-1.2,0-2.4,1.2-2.4,2.4v9.5
	c0,0.3-0.3,0.3-0.3,0.3h-3.4c-0.3,0-0.3-0.3-0.3-0.3v-21.1c0-0.3,0.3-0.3,0.3-0.3h3.4c0.3,0,0.3,0.3,0.3,0.3v6.1
	c0,0.3,0.3,0.3,0.3,0.3c0.3,0,0.3,0,0.3,0c0.9-0.3,1.5-0.6,2.4-0.6c3.4,0,6.1,2.4,6.1,6.1L605.2,558.6
	C605.5,558.3,605.5,558.6,605.2,558.6z"/>
<path fill="#009F8F" d="M621.4,551.5h-8.3c-0.3,0-0.3,0.3-0.3,0.3v0.9c0,1.2,1.2,2.4,2.4,2.4c0.9,0,1.8-0.6,2.4-2.1
	c0-0.3,0.3-0.3,0.3-0.3s0.3,0.3,0.6,0.3l2.4,1.2c0.3,0,0.3,0.3,0.3,0.3c0,0.3-0.3,0.6-0.6,0.9c-1.2,1.8-2.8,3.1-5.5,3.1
	c-4,0-6.4-2.4-6.4-6.1v-4.3c0-2.8,2.4-6.1,6.4-6.1c4,0,6.4,3.4,6.4,6.1v2.8C621.7,551.2,621.7,551.5,621.4,551.5z M615.3,545.7
	c-1.8,0-2.4,1.5-2.4,1.8s0.3,0.3,0.3,0.3h4c0.3,0,0.3-0.3,0.3-0.3C617.7,547.6,617.1,545.7,615.3,545.7z"/>
<path fill="#009F8F" d="M632.7,546.9c-0.3,0-0.6-0.3-1.2-0.3c-1.2,0-2.4,0.9-2.4,2.4v9.2c0,0.3-0.3,0.3-0.3,0.3h-3.4
	c-0.3,0-0.3-0.3-0.3-0.3V543c0-0.3,0.3-0.3,0.3-0.3h2.8c0.3,0,0.3,0,0.3,0.3v0.6c0,0.3,0.3,0.3,0.3,0.3c0.3,0,0.3,0,0.3-0.3
	c0.3-0.3,1.5-0.9,2.8-0.9c0.3,0,0.9,0,0.9,0.3c0.3,0,0.3,0.3,0.3,0.3L632.7,546.9C633.3,546.6,633,546.9,632.7,546.9z"/>
<path fill="#009F8F" d="M647.4,551.5h-8.3c-0.3,0-0.3,0.3-0.3,0.3v0.9c0,1.2,1.2,2.4,2.4,2.4c0.9,0,1.8-0.6,2.4-2.1
	c0-0.3,0.3-0.3,0.3-0.3c0.3,0,0.3,0.3,0.6,0.3l2.4,1.2c0.3,0,0.3,0.3,0.3,0.3c0,0.3-0.3,0.6-0.6,0.9c-1.2,1.8-2.4,3.1-5.5,3.1
	c-4,0-6.4-2.4-6.4-6.1v-4.3c0-2.8,2.4-6.1,6.4-6.1c4,0,6.4,3.4,6.4,6.1v2.8C648,551.2,648,551.5,647.4,551.5z M641.6,545.7
	c-1.8,0-2.4,1.5-2.4,1.8s0.3,0.3,0.3,0.3h4c0.3,0,0.3-0.3,0.3-0.3S643.1,545.7,641.6,545.7z"/>
<g>
	<path fill="#009F8F" d="M652.6,540.8h-0.9l0,0v4l0,0h-0.9l0,0v-4l0,0h-0.9l0,0v-0.6l0,0h2.8l0,0L652.6,540.8
		C652.6,540.5,652.6,540.8,652.6,540.8z"/>
	<path fill="#009F8F" d="M657.2,544.8h-0.9l0,0v-0.9c0-0.6,0-1.8,0-1.8l0,0c0,0-0.3,0.3-0.3,0.6l-0.6,1.2l0,0h-0.3l0,0l-0.6-1.2
		c0-0.3-0.3-0.6-0.3-0.6l0,0c0,0.3,0,1.2,0,1.8v0.9l0,0h-0.9l0,0v-4.6l0,0h0.6l0,0l0.9,2.4c0,0,0,0.3,0.3,0.3l0,0c0,0,0-0.3,0.3-0.3
		l0.9-2.4l0,0h0.6l0,0v4.6C657.2,544.8,657.2,544.8,657.2,544.8z"/>
</g>
</svg>
