<?xml version="1.0" encoding="UTF-8"?>
<svg width="18px" height="18px" viewBox="0 0 18 18" version="1.1" xmlns="http://www.w3.org/2000/svg" xmlns:xlink="http://www.w3.org/1999/xlink">
    <title>availability-message/icon/subscription</title>
    <g id="availability-message/icon/subscription" stroke="none" stroke-width="1" fill="none" fill-rule="evenodd">
        <g id="Oval" transform="translate(9.000000, 9.000487) rotate(-45.000000) translate(-9.000000, -9.000487) translate(0.508966, 0.526004)" fill="#0696D7" fill-rule="nonzero">
            <circle id="path-1" cx="8.49054723" cy="8.47448276" r="8.47448276"></circle>
        </g>
        <g id="16px/subscription-16" transform="translate(4.000000, 4.000000)" fill="#FFFFFF">
            <path d="M9.906875,4.943125 L10.9175,7.1775 L8.476875,7.404375 L8.985625,6.5175 C8.20546275,6.17928807 7.29574828,6.39508045 6.75061181,7.04766507 C6.20547533,7.70024968 6.15504733,8.63384691 6.62671881,9.34135413 C7.09839029,10.0488613 7.97956773,10.3613883 8.7916214,10.1091795 C9.60367507,9.85697064 10.1527582,9.10023129 10.140625,8.25 C10.1393697,8.14599542 10.1278555,8.04236844 10.10625,7.940625 L10.10625,7.940625 L10.95875,7.865 C10.9830307,7.99198557 10.9968272,8.12075287 11,8.25 C11,9.76878306 9.76878306,11 8.25,11 C6.73121694,11 5.5,9.76878306 5.5,8.25 C5.5,6.73121694 6.73121694,5.5 8.25,5.5 C8.65757365,5.5020526 9.05942991,5.59605406 9.425625,5.775 L9.425625,5.775 L9.906875,4.943125 Z M8.9375,0 L8.9375,4.88125 C8.48375,4.78958333 8.01625,4.78958333 7.5625,4.88125 L7.5625,4.88125 L7.5625,1.375 L1.375,1.375 L1.375,8.25 L4.8125,8.25 C4.80846148,8.99442235 5.05011577,9.71938523 5.5,10.3125 L5.5,10.3125 L0,10.3125 L0,0 L8.9375,0 Z M3.4375,6.1875 L3.4375,7.5625 L2.0625,7.5625 L2.0625,6.1875 L3.4375,6.1875 Z M5.5,6.1875 C5.19125572,6.59245037 4.97957164,7.06285944 4.88125,7.5625 L4.88125,7.5625 L4.125,7.5625 L4.125,6.1875 Z M3.4375,4.125 L3.4375,5.5 L2.0625,5.5 L2.0625,4.125 L3.4375,4.125 Z M6.875,4.125 L6.875,5.10125 C6.63253165,5.2097826 6.40210626,5.34342932 6.1875,5.5 L6.1875,5.5 L4.125,5.5 L4.125,4.125 L6.875,4.125 Z M3.4375,2.0625 L3.4375,3.4375 L2.0625,3.4375 L2.0625,2.0625 L3.4375,2.0625 Z M6.875,2.0625 L6.875,3.4375 L4.125,3.4375 L4.125,2.0625 L6.875,2.0625 Z" id="🌈--icon-color"></path>
        </g>
    </g>
</svg>