<svg width="12" height="12" viewBox="0 0 12 12" fill="none" xmlns="http://www.w3.org/2000/svg">
<path fill-rule="evenodd" clip-rule="evenodd" d="M6 0.750015C5.87261 0.742551 5.74489 0.742551 5.6175 0.750015L5.565 1.47326e-05H6C6.71257 -0.00136634 7.41933 0.128289 8.085 0.382515L7.83 1.08751C7.24577 0.864067 6.62551 0.749674 6 0.750015ZM1.095 4.14752C0.869216 4.73916 0.752334 5.36676 0.75 6.00002C0.742329 6.1299 0.742329 6.26013 0.75 6.39002L0 6.45002V6.00002C0.00155665 5.27728 0.133679 4.56077 0.39 3.88502L1.095 4.14752ZM1.23 8.17502L0.547505 8.49002C0.90671 9.27519 1.43115 9.97359 2.085 10.5375L2.5725 9.96752C2.00129 9.47353 1.54338 8.86212 1.23 8.17502ZM11.445 3.48751L10.7625 3.80251C10.4561 3.12362 10.0086 2.5177 9.45001 2.02501L9.94501 1.45501C10.5811 2.02068 11.092 2.71296 11.445 3.48751ZM11.25 6.00001C11.2491 6.61985 11.1373 7.23453 10.92 7.81502L11.625 8.07001C11.8725 7.40791 11.9995 6.70686 12 6.00001V5.54251L11.25 5.60251C11.2577 5.7349 11.2577 5.86763 11.25 6.00001ZM3.825 1.23002C3.1413 1.54212 2.53258 1.99738 2.04 2.56502L1.5 2.07752C2.0519 1.42546 2.74074 0.903062 3.5175 0.547516L3.825 1.23002ZM9.97501 9.42002C9.4805 9.99257 8.86935 10.4528 8.18251 10.77L8.50501 11.445C9.2909 11.0836 9.98935 10.5566 10.5525 9.90001L9.97501 9.42002ZM6 11.25C6.12988 11.2577 6.26011 11.2577 6.39 11.25L6.45 12H6C5.28289 11.9976 4.57189 11.8681 3.9 11.6175L4.155 10.9125C4.7456 11.1318 5.37002 11.246 6 11.25Z" fill="#9BD5EF"/>
</svg>
