<svg width="16" height="16" viewBox="0 0 16 16" fill="none" xmlns="http://www.w3.org/2000/svg">
<path fill-rule="evenodd" clip-rule="evenodd" d="M2.88676 11.2276L11.1418 2.97251C8.82965 1.54911 5.76116 1.83932 3.75736 3.84311C1.75356 5.84691 1.46336 8.9154 2.88676 11.2276ZM4.7529 13.1327C7.0765 14.6308 10.2083 14.3628 12.2426 12.3284C14.277 10.294 14.5451 7.16226 13.0469 4.83866L4.7529 13.1327ZM12.9497 13.0355C10.2161 15.7692 5.78392 15.7692 3.05025 13.0355C0.316583 10.3018 0.316582 5.86968 3.05025 3.13601C5.78392 0.402337 10.2161 0.402337 12.9497 3.13601C15.6834 5.86968 15.6834 10.3018 12.9497 13.0355Z" fill="#F2F2F2"/>
</svg>
