<svg width="32" height="32" viewBox="0 0 32 32" fill="none" xmlns="http://www.w3.org/2000/svg">
<path fill-rule="evenodd" clip-rule="evenodd" d="M5.77353 22.4552L22.2837 5.94503C17.6593 3.09823 11.5223 3.67862 7.51472 7.68623C3.50711 11.6938 2.92672 17.8308 5.77353 22.4552ZM9.50584 26.2654C14.153 29.2617 20.4166 28.7255 24.4853 24.6568C28.554 20.5881 29.0902 14.3245 26.0939 9.67734L9.50584 26.2654ZM25.8995 26.071C20.4322 31.5383 11.5678 31.5383 6.10051 26.071C0.633165 20.6037 0.633165 11.7394 6.10051 6.27201C11.5678 0.804674 20.4322 0.804674 25.8995 6.27201C31.3668 11.7394 31.3668 20.6037 25.8995 26.071Z" fill="#F2F2F2"/>
</svg>
