<?xml version="1.0" encoding="UTF-8"?>
<svg xmlns="http://www.w3.org/2000/svg" xmlns:xlink="http://www.w3.org/1999/xlink" width="16pt" height="16pt" viewBox="0 0 16 16" version="1.1">
<g id="surface1">
<path style=" stroke:none;fill-rule:nonzero;fill:rgb(40%,40%,40%);fill-opacity:1;" d="M 16 8 C 16 12.417969 12.417969 16 8 16 C 3.582031 16 0 12.417969 0 8 C 0 3.582031 3.582031 0 8 0 C 12.417969 0 16 3.582031 16 8 Z M 16 8 "/>
<path style=" stroke:none;fill-rule:nonzero;fill:rgb(100%,100%,100%);fill-opacity:1;" d="M 2.667969 13.960938 C 2.683594 11.628906 4.210938 9.578125 6.441406 8.894531 C 5.292969 8.199219 4.75 6.820312 5.109375 5.523438 C 5.472656 4.226562 6.65625 3.332031 8 3.332031 C 9.34375 3.332031 10.527344 4.226562 10.890625 5.523438 C 11.25 6.820312 10.707031 8.199219 9.558594 8.894531 C 11.789062 9.578125 13.320312 11.628906 13.332031 13.964844 C 10.296875 16.679688 5.703125 16.679688 2.667969 13.964844 Z M 2.667969 13.960938 "/>
<path style="fill:none;stroke-width:1;stroke-linecap:butt;stroke-linejoin:miter;stroke:rgb(40%,40%,40%);stroke-opacity:1;stroke-miterlimit:4;" d="M 23.501953 12 C 23.501953 18.351562 18.351562 23.501953 12 23.501953 C 5.648438 23.501953 0.498047 18.351562 0.498047 12 C 0.498047 5.648438 5.648438 0.498047 12 0.498047 C 18.351562 0.498047 23.501953 5.648438 23.501953 12 Z M 23.501953 12 " transform="matrix(0.666667,0,0,0.666667,0,0)"/>
</g>
</svg>
