<svg width="12" height="12" viewBox="0 0 12 12" fill="none" xmlns="http://www.w3.org/2000/svg">
<path fill-rule="evenodd" clip-rule="evenodd" d="M1.82808 8.7577L8.7577 1.82808C6.81633 0.541877 4.17493 0.754004 2.46447 2.46447C0.754004 4.17493 0.541877 6.81633 1.82808 8.7577ZM10.1719 3.2423L3.2423 10.1719C5.18367 11.4581 7.82507 11.246 9.53553 9.53553C11.246 7.82507 11.4581 5.18367 10.1719 3.2423ZM10.2426 10.2426C7.8995 12.5858 4.1005 12.5858 1.75736 10.2426C-0.585787 7.89949 -0.585786 4.1005 1.75736 1.75736C4.10051 -0.585786 7.89949 -0.585786 10.2426 1.75736C12.5858 4.1005 12.5858 7.89949 10.2426 10.2426Z" fill="#EEEEEE"/>
</svg>
