<?xml version="1.0" encoding="iso-8859-1"?>
<!-- Generator: Adobe Illustrator 21.1.0, SVG Export Plug-In . SVG Version: 6.00 Build 0)  -->
<svg version="1.1" id="&#x56FE;&#x5C42;_1" xmlns="http://www.w3.org/2000/svg" xmlns:xlink="http://www.w3.org/1999/xlink" x="0px"
	 y="0px" viewBox="0 0 32 32" style="enable-background:new 0 0 32 32;" xml:space="preserve">
<polygon style="fill:#666666;" points="-75.586,-31 -61.414,-31 -58.414,-28 -57,-28 -61,-32 -76,-32 -80,-28 -78.586,-28 "/>
<path style="fill:#666666;" d="M-58.414-28L-58-27.586v15.169C-58-12.191-58.2-12-58.438-12h-20.125C-78.8-12-79-12.191-79-12.417
	v-15.169L-78.586-28H-80v15.583C-80-11.638-79.353-11-78.562-11h20.125C-57.647-11-57-11.638-57-12.417V-28H-58.414z"/>
<path style="fill:#666666;" d="M-35.446,187l0.446,0.432V215.5c0,1.93-1.492,3.5-3.354,3.5h-36.291c-1.862,0-3.354-1.57-3.354-3.5
	v-28.068l0.446-0.432H-79v28.5c0,1.867,1.094,3.465,2.658,4.147c0.521,0.227,1.095,0.353,1.697,0.353h36.29
	c0.602,0,1.176-0.126,1.697-0.353c1.564-0.682,2.658-2.28,2.658-4.147V187H-35.446z"/>
<text transform="matrix(1 0 0 1 -208.5 12.2501)" style="font-family:'ArialMT'; font-size:12px;">Dark</text>
<text transform="matrix(1 0 0 1 -143.5 -94.0833)" style="fill:#FFFFFF; font-family:'ArialMT'; font-size:10px;">100%</text>
<text transform="matrix(1 0 0 1 0.5 -94.0833)" style="fill:#FFFFFF; font-family:'ArialMT'; font-size:10px;">200%</text>
<text transform="matrix(1 0 0 1 96.5 -94.0833)" style="fill:#FFFFFF; font-family:'ArialMT'; font-size:10px;">300%</text>
<text transform="matrix(1 0 0 1 224.1875 -94.0833)" style="fill:#FFFFFF; font-family:'ArialMT'; font-size:10px;">400%</text>
<rect x="-144" y="-30" style="display:none;fill:#333333;" width="9" height="1"/>
<polygon style="display:none;fill:#333333;" points="-135,-31.809 -131,-29.5 -135,-27.191 "/>
<image style="overflow:visible;" width="1920" height="1080" xlink:href="46F6DA2C3FE4A98B.png"  transform="matrix(0.9999 0 0 0.9999 -2147 -331.865)">
</image>
<image style="overflow:visible;" width="90" height="97" xlink:href="46F6DA2C3FE4A989.jpg"  transform="matrix(0.7499 0 0 0.7499 -247.75 203.9167)">
</image>
<polygon style="fill:#F3F3F3;" points="-71.354,181 -77.554,187 -35.446,187 -41.646,181 "/>
<path style="fill:#D9D9D9;" d="M-78,187.432V215.5c0,1.93,1.493,3.5,3.354,3.5h36.291c1.862,0,3.354-1.57,3.354-3.5v-28.068
	L-35.446,187h-42.108L-78,187.432z"/>
<path style="fill:#666666;" d="M-74.645,220L-74.645,220c-0.602,0-1.176-0.126-1.697-0.353C-75.821,219.874-75.248,220-74.645,220z"
	/>
<path style="fill:#666666;" d="M-38.355,220c0.602,0,1.176-0.126,1.697-0.353C-37.179,219.874-37.752,220-38.355,220L-38.355,220z"
	/>
<polygon style="fill:#666666;" points="-71.354,181 -41.646,181 -35.446,187 -34,187 -41.258,180 -71.742,180 -79,187 -77.554,187 
	"/>
<rect x="-41" y="188" style="fill:#666666;" width="4" height="4"/>
<path style="fill:#666666;" d="M-37,211.5c0,2.485-2.015,4.5-4.5,4.5h-30c-2.485,0-4.5-2.015-4.5-4.5v-14c0-2.485,2.015-4.5,4.5-4.5
	h30c2.485,0,4.5,2.015,4.5,4.5V211.5z"/>
<polygon style="fill:#F3F3F3;" points="-46.905,199 -48.873,199 -49.857,199 -50,199 -52,199 -52,200.315 -56.5,206.744 
	-61,200.315 -61,199 -62,199 -63,199 -66.095,199 -72,211 -41,211 "/>
<polygon style="fill:#178FE6;" points="-60,194 -60,200 -56.5,205 -53,200 -53,194 "/>
<polygon style="fill:#F3F3F3;" points="-34,251 -79,251 -71.742,244 -41.258,244 "/>
<path style="fill:#D9D9D9;" d="M-34,251v28.5c0,2.49-1.945,4.5-4.355,4.5h-36.29c-2.41,0-4.355-2.01-4.355-4.5V251H-34z"/>
<rect x="-41" y="252" style="fill:#666666;" width="4" height="4"/>
<path style="fill:#666666;" d="M-37,275.5c0,2.485-2.015,4.5-4.5,4.5h-30c-2.485,0-4.5-2.015-4.5-4.5v-14c0-2.485,2.015-4.5,4.5-4.5
	h30c2.485,0,4.5,2.015,4.5,4.5V275.5z"/>
<polygon style="fill:#F3F3F3;" points="-46.905,263 -48.873,263 -49.857,263 -50,263 -52,263 -52,264.315 -56.5,270.744 
	-61,264.315 -61,263 -62,263 -63,263 -66.095,263 -72,275 -41,275 "/>
<polygon style="fill:#178FE6;" points="-60,258 -60,264 -56.5,269 -53,264 -53,258 "/>
<polygon style="fill:#F3F3F3;" points="-75.586,-31 -78.586,-28 -58.414,-28 -61.414,-31 "/>
<path style="fill:#D9D9D9;" d="M-79-27.586v15.169C-79-12.191-78.8-12-78.562-12h20.125C-58.2-12-58-12.191-58-12.417v-15.169
	L-58.414-28h-20.172L-79-27.586z"/>
<path style="fill:#666666;" d="M-60-15.624C-60-14.777-60.985-14-62.089-14h-12.777C-75.969-14-77-14.777-77-15.624v-7.433
	C-77-23.904-75.969-25-74.866-25h12.777C-60.985-25-60-23.904-60-23.058V-15.624z"/>
<polygon style="fill:#F3F3F3;" points="-61.6,-15.6 -75.4,-15.6 -72.333,-21.733 -64.667,-21.733 "/>
<rect x="-70" y="-24" style="fill:#178FE6;" width="3" height="3"/>
<polygon style="fill:#178FE6;" points="-67,-21 -68.5,-18 -70,-21 "/>
<rect x="-63" y="-28" style="fill:#666666;" width="3" height="2"/>
<polygon style="fill:#F3F3F3;" points="-57,5 -80,5 -76,1 -61,1 "/>
<path style="fill:#D9D9D9;" d="M-57,5v15.583C-57,21.362-57.647,22-58.438,22h-20.125C-79.353,22-80,21.362-80,20.583V5H-57z"/>
<path style="fill:#666666;" d="M-60,17.376C-60,18.223-60.985,19-62.089,19h-12.777C-75.969,19-77,18.223-77,17.376V9.942
	C-77,9.096-75.969,8-74.866,8h12.777C-60.985,8-60,9.096-60,9.942V17.376z"/>
<polygon style="fill:#F3F3F3;" points="-61.6,17.4 -75.4,17.4 -72.333,11.267 -64.667,11.267 "/>
<rect x="-70" y="9" style="fill:#178FE6;" width="3" height="3"/>
<polygon style="fill:#178FE6;" points="-67,12 -68.5,15 -70,12 "/>
<rect x="-63" y="5" style="fill:#666666;" width="3" height="2"/>
<polygon style="fill:#F3F3F3;" points="-140.586,-24 -142.586,-22 -130.414,-22 -132.414,-24 "/>
<polygon style="fill:#D9D9D9;" points="-143,-21.586 -143,-12 -130,-12 -130,-21.586 -130.414,-22 -142.586,-22 "/>
<path style="fill:#666666;" d="M-131-14c0,0.552-0.448,1-1,1h-9c-0.552,0-1-0.448-1-1v-5c0-0.552,0.448-1,1-1h9c0.552,0,1,0.448,1,1
	V-14z"/>
<polygon style="fill:#F3F3F3;" points="-132,-14 -141,-14 -139,-18 -134,-18 "/>
<rect x="-137.5" y="-19" style="fill:#178FE6;" width="2" height="2"/>
<polygon style="fill:#178FE6;" points="-135.5,-17 -136.5,-15 -137.5,-17 "/>
<rect x="-133" y="-22" style="fill:#666666;" width="2" height="1"/>
<polygon style="fill:#F3F3F3;" points="-129,4 -144,4 -141,1 -132,1 "/>
<path style="fill:#D9D9D9;" d="M-129,4v10c0,0.55-0.45,1-1,1h-13c-0.55,0-1-0.45-1-1V4H-129z"/>
<path style="fill:#666666;" d="M-131,12c0,0.552-0.448,1-1,1h-9c-0.552,0-1-0.448-1-1V7c0-0.552,0.448-1,1-1h9c0.552,0,1,0.448,1,1
	V12z"/>
<polygon style="fill:#F3F3F3;" points="-132,12 -141,12 -139,8 -134,8 "/>
<rect x="-137.5" y="7" style="fill:#178FE6;" width="2" height="2"/>
<polygon style="fill:#178FE6;" points="-135.5,9 -136.5,11 -137.5,9 "/>
<rect x="-133" y="4" style="fill:#666666;" width="2" height="1"/>
<path style="fill:#666666;" d="M-132-25h-9l-3,3v10c0,0.55,0.45,1,1,1h13c0.55,0,1-0.45,1-1v-10L-132-25z M-130-12h-13v-9.586
	l2.414-2.414h8.172l2.414,2.414V-12z"/>
<polygon style="fill:#F3F3F3;" points="7.828,-38 3.828,-34 28.172,-34 24.172,-38 "/>
<polygon style="fill:#D9D9D9;" points="3,-33.172 3,-14 29,-14 29,-33.172 28.172,-34 3.828,-34 "/>
<path style="fill:#666666;" d="M27-18c0,1.105-0.895,2-2,2H7c-1.105,0-2-0.895-2-2v-10c0-1.105,0.895-2,2-2h18c1.105,0,2,0.895,2,2
	V-18z"/>
<polygon style="fill:#F3F3F3;" points="25,-18 7,-18 11,-26 21,-26 "/>
<rect x="14" y="-28" style="fill:#178FE6;" width="4" height="4"/>
<polygon style="fill:#178FE6;" points="18,-24 16,-20 14,-24 "/>
<rect x="23" y="-34" style="fill:#666666;" width="4" height="2"/>
<polygon style="fill:#F3F3F3;" points="31,8 1,8 7,2 25,2 "/>
<path style="fill:#D9D9D9;" d="M31,8v20c0,1.1-0.9,2-2,2H3c-1.1,0-2-0.9-2-2V8H31z"/>
<path style="fill:#666666;" d="M27,24c0,1.105-0.895,2-2,2H7c-1.105,0-2-0.895-2-2V14c0-1.105,0.895-2,2-2h18c1.105,0,2,0.895,2,2
	V24z"/>
<polygon style="fill:#F3F3F3;" points="25,24 7,24 11,16 21,16 "/>
<rect x="14" y="14" style="fill:#178FE6;" width="4" height="4"/>
<polygon style="fill:#178FE6;" points="18,18 16,22 14,18 "/>
<rect x="23" y="8" style="fill:#666666;" width="4" height="2"/>
<path style="fill:#666666;" d="M25-40H7l-6,6v20c0,1.1,0.9,2,2,2h26c1.1,0,2-0.9,2-2v-20L25-40z M29-14H3v-19.172L7.828-38h16.344
	L29-33.172V-14z"/>
<polygon style="fill:#F3F3F3;" points="107.242,-52 101.242,-46 137.758,-46 131.758,-52 "/>
<polygon style="fill:#D9D9D9;" points="100,-44.758 100,-16 139,-16 139,-44.758 137.758,-46 101.242,-46 "/>
<path style="fill:#666666;" d="M136-22c0,1.657-1.343,3-3,3h-27c-1.657,0-3-1.343-3-3v-15c0-1.657,1.343-3,3-3h27
	c1.657,0,3,1.343,3,3V-22z"/>
<polygon style="fill:#F3F3F3;" points="133,-22 106,-22 112,-34 127,-34 "/>
<rect x="116" y="-37" style="fill:#178FE6;" width="6" height="6"/>
<polygon style="fill:#178FE6;" points="122,-31 119,-25 116,-31 "/>
<rect x="130" y="-46" style="fill:#666666;" width="6" height="3"/>
<polygon style="fill:#F3F3F3;" points="142,12 97,12 106,3 133,3 "/>
<path style="fill:#D9D9D9;" d="M142,12v30c0,1.65-1.35,3-3,3h-39c-1.65,0-3-1.35-3-3V12H142z"/>
<path style="fill:#666666;" d="M136,36c0,1.657-1.343,3-3,3h-27c-1.657,0-3-1.343-3-3V21c0-1.657,1.343-3,3-3h27
	c1.657,0,3,1.343,3,3V36z"/>
<polygon style="fill:#F3F3F3;" points="133,36 106,36 112,24 127,24 "/>
<rect x="116" y="21" style="fill:#178FE6;" width="6" height="6"/>
<polygon style="fill:#178FE6;" points="122,27 119,33 116,27 "/>
<rect x="130" y="12" style="fill:#666666;" width="6" height="3"/>
<path style="fill:#666666;" d="M133-55h-27l-9,9v30c0,1.65,1.35,3,3,3h39c1.65,0,3-1.35,3-3v-30L133-55z M139-16h-39v-28.758
	L107.242-52h24.516L139-44.758V-16z"/>
<polygon style="fill:#F3F3F3;" points="239.656,-66 231.656,-58 280.344,-58 272.344,-66 "/>
<polygon style="fill:#D9D9D9;" points="230,-56.344 230,-18 282,-18 282,-56.344 280.344,-58 231.656,-58 "/>
<path style="fill:#666666;" d="M278-26c0,2.209-1.791,4-4,4h-36c-2.209,0-4-1.791-4-4v-20c0-2.209,1.791-4,4-4h36
	c2.209,0,4,1.791,4,4V-26z"/>
<polygon style="fill:#F3F3F3;" points="274,-26 238,-26 246,-42 266,-42 "/>
<rect x="252" y="-46" style="fill:#178FE6;" width="8" height="8"/>
<polygon style="fill:#178FE6;" points="260,-38 256,-30 252,-38 "/>
<rect x="270" y="-58" style="fill:#666666;" width="8" height="4"/>
<polygon style="fill:#F3F3F3;" points="286,16 226,16 238,4 274,4 "/>
<path style="fill:#D9D9D9;" d="M286,16v40c0,2.2-1.8,4-4,4h-52c-2.2,0-4-1.8-4-4V16H286z"/>
<path style="fill:#666666;" d="M278,48c0,2.209-1.791,4-4,4h-36c-2.209,0-4-1.791-4-4V28c0-2.209,1.791-4,4-4h36
	c2.209,0,4,1.791,4,4V48z"/>
<polygon style="fill:#F3F3F3;" points="274,48 238,48 246,32 266,32 "/>
<rect x="252" y="28" style="fill:#178FE6;" width="8" height="8"/>
<polygon style="fill:#178FE6;" points="260,36 256,44 252,36 "/>
<rect x="270" y="16" style="fill:#666666;" width="8" height="4"/>
<path style="fill:#666666;" d="M274-70h-36l-12,12v40c0,2.2,1.8,4,4,4h52c2.2,0,4-1.8,4-4v-40L274-70z M282-18h-52v-38.344
	L239.656-66h32.688L282-56.344V-18z"/>
<polygon style="fill:#F3F3F3;" points="-113,200 -144,200 -138,194 -119,194 "/>
<path style="fill:#D9D9D9;" d="M-113,200v19c0,1.66-1.34,3-3,3h-25c-1.66,0-3-1.34-3-3v-19H-113z"/>
<path style="fill:#666666;" d="M-119,194h-19l-6,6v19c0,1.66,1.34,3,3,3h25c1.66,0,3-1.34,3-3v-19L-119,194z M-114,219
	c0,1.103-0.897,2-2,2h-25c-1.103,0-2-0.897-2-2v-18.586l5.414-5.414h18.172l5.414,5.414V219z"/>
<rect x="-118" y="201" style="fill:#666666;" width="3" height="3"/>
<path style="fill:#666666;" d="M-115,217c0,1.657-1.343,3-3,3h-21c-1.657,0-3-1.343-3-3v-9c0-1.657,1.343-3,3-3h21
	c1.657,0,3,1.343,3,3V217z"/>
<polygon style="fill:#F3F3F3;" points="-122,209 -124,209 -125,209 -125,210.287 -128.5,215.887 -132,210.287 -132,209 -135,209 
	-139,217 -118,217 "/>
<polygon style="fill:#178FE6;" points="-131,206 -131,210 -128.5,214 -126,210 -126,206 "/>
<polygon style="fill:#F3F3F3;" points="-113,248 -144,248 -138,242 -119,242 "/>
<path style="fill:#D9D9D9;" d="M-113,248v19c0,1.66-1.34,3-3,3h-25c-1.66,0-3-1.34-3-3v-19H-113z"/>
<rect x="-118" y="249" style="fill:#666666;" width="3" height="3"/>
<path style="fill:#666666;" d="M-115,265c0,1.657-1.343,3-3,3h-21c-1.657,0-3-1.343-3-3v-9c0-1.657,1.343-3,3-3h21
	c1.657,0,3,1.343,3,3V265z"/>
<polygon style="fill:#F3F3F3;" points="-122,257 -124,257 -125,257 -125,258.287 -128.5,263.887 -132,258.287 -132,257 -135,257 
	-139,265 -118,265 "/>
<polygon style="fill:#178FE6;" points="-131,254 -131,258 -128.5,262 -126,258 -126,254 "/>
<polygon style="fill:#F3F3F3;" points="63,176 1,176 13,164 51,164 "/>
<path style="fill:#D9D9D9;" d="M63,176v38c0,3.32-2.68,6-6,6H7c-3.32,0-6-2.68-6-6v-38H63z"/>
<path style="fill:#666666;" d="M51,164H13L1,176v38c0,3.32,2.68,6,6,6h50c3.32,0,6-2.68,6-6v-38L51,164z M61,214
	c0,2.205-1.795,4-4,4H7c-2.205,0-4-1.795-4-4v-37.172L13.828,166h36.344L61,176.828V214z"/>
<rect x="53" y="178" style="fill:#666666;" width="6" height="6"/>
<path style="fill:#666666;" d="M59,210c0,3.314-2.686,6-6,6H11c-3.314,0-6-2.686-6-6v-18c0-3.314,2.686-6,6-6h42
	c3.314,0,6,2.686,6,6V210z"/>
<polygon style="fill:#F3F3F3;" points="45,194 41,194 39,194 39,196.574 32,207.773 25,196.574 25,194 19,194 11,210 53,210 "/>
<polygon style="fill:#178FE6;" points="27,188 27,196 32,204 37,196 37,188 "/>
<polygon style="fill:#F3F3F3;" points="63,256 1,256 13,244 51,244 "/>
<path style="fill:#D9D9D9;" d="M63,256v38c0,3.32-2.68,6-6,6H7c-3.32,0-6-2.68-6-6v-38H63z"/>
<rect x="53" y="258" style="fill:#666666;" width="6" height="6"/>
<path style="fill:#666666;" d="M59,290c0,3.314-2.686,6-6,6H11c-3.314,0-6-2.686-6-6v-18c0-3.314,2.686-6,6-6h42
	c3.314,0,6,2.686,6,6V290z"/>
<polygon style="fill:#F3F3F3;" points="45,274 41,274 39,274 39,276.574 32,287.773 25,276.574 25,274 19,274 11,290 53,290 "/>
<polygon style="fill:#178FE6;" points="27,268 27,276 32,284 37,276 37,268 "/>
<polygon style="fill:#F3F3F3;" points="190,152 97,152 115,134 172,134 "/>
<path style="fill:#D9D9D9;" d="M190,152v57c0,4.98-4.02,9-9,9h-75c-4.98,0-9-4.02-9-9v-57H190z"/>
<path style="fill:#666666;" d="M172,134h-57l-18,18v57c0,4.98,4.02,9,9,9h75c4.98,0,9-4.02,9-9v-57L172,134z M187,209
	c0,3.308-2.692,6-6,6h-75c-3.308,0-6-2.692-6-6v-55.758L116.242,137h54.516L187,153.242V209z"/>
<rect x="175" y="155" style="fill:#666666;" width="9" height="9"/>
<path style="fill:#666666;" d="M184,203c0,4.971-4.029,9-9,9h-63c-4.971,0-9-4.029-9-9v-27c0-4.971,4.029-9,9-9h63
	c4.971,0,9,4.029,9,9V203z"/>
<polygon style="fill:#F3F3F3;" points="163,179 157,179 154,179 154,182.861 143.5,199.66 133,182.861 133,179 124,179 112,203 
	175,203 "/>
<polygon style="fill:#178FE6;" points="136,170 136,182 143.5,194 151,182 151,170 "/>
<polygon style="fill:#F3F3F3;" points="190,264 97,264 115,246 172,246 "/>
<path style="fill:#D9D9D9;" d="M190,264v57c0,4.98-4.02,9-9,9h-75c-4.98,0-9-4.02-9-9v-57H190z"/>
<rect x="175" y="267" style="fill:#666666;" width="9" height="9"/>
<path style="fill:#666666;" d="M184,315c0,4.971-4.029,9-9,9h-63c-4.971,0-9-4.029-9-9v-27c0-4.971,4.029-9,9-9h63
	c4.971,0,9,4.029,9,9V315z"/>
<polygon style="fill:#F3F3F3;" points="163,291 157,291 154,291 154,294.861 143.5,311.66 133,294.861 133,291 124,291 112,315 
	175,315 "/>
<polygon style="fill:#178FE6;" points="136,282 136,294 143.5,306 151,294 151,282 "/>
<polygon style="fill:#F3F3F3;" points="350,127 226,127 250,103 326,103 "/>
<path style="fill:#D9D9D9;" d="M350,127v76c0,6.64-5.36,12-12,12H238c-6.64,0-12-5.36-12-12v-76H350z"/>
<path style="fill:#666666;" d="M326,103h-76l-24,24v76c0,6.64,5.36,12,12,12h100c6.64,0,12-5.36,12-12v-76L326,103z M346,203
	c0,4.41-3.59,8-8,8H238c-4.41,0-8-3.59-8-8v-74.344L251.656,107h72.688L346,128.656V203z"/>
<rect x="330" y="131" style="fill:#666666;" width="12" height="12"/>
<path style="fill:#666666;" d="M342,195c0,6.627-5.373,12-12,12h-84c-6.627,0-12-5.373-12-12v-36c0-6.627,5.373-12,12-12h84
	c6.627,0,12,5.373,12,12V195z"/>
<polygon style="fill:#F3F3F3;" points="314,163 306,163 302,163 302,168.148 288,190.547 274,168.148 274,163 262,163 246,195 
	330,195 "/>
<polygon style="fill:#178FE6;" points="278,151 278,167 288,183 298,167 298,151 "/>
<polygon style="fill:#F3F3F3;" points="350,272 226,272 250,248 326,248 "/>
<path style="fill:#D9D9D9;" d="M350,272v76c0,6.64-5.36,12-12,12H238c-6.64,0-12-5.36-12-12v-76H350z"/>
<rect x="330" y="276" style="fill:#666666;" width="12" height="12"/>
<path style="fill:#666666;" d="M342,340c0,6.627-5.373,12-12,12h-84c-6.627,0-12-5.373-12-12v-36c0-6.627,5.373-12,12-12h84
	c6.627,0,12,5.373,12,12V340z"/>
<polygon style="fill:#F3F3F3;" points="314,308 306,308 302,308 302,313.148 288,335.547 274,313.148 274,308 262,308 246,340 
	330,340 "/>
<polygon style="fill:#178FE6;" points="278,296 278,312 288,328 298,312 298,296 "/>
</svg>
