<?xml version="1.0" encoding="iso-8859-1"?>
<!-- Generator: Adobe Illustrator 21.1.0, SVG Export Plug-In . SVG Version: 6.00 Build 0)  -->
<svg version="1.1" id="&#x56FE;&#x5C42;_1" xmlns="http://www.w3.org/2000/svg" xmlns:xlink="http://www.w3.org/1999/xlink" x="0px"
	 y="0px" viewBox="0 0 64 64" style="enable-background:new 0 0 64 64;" xml:space="preserve">
<text transform="matrix(1 0 0 1 -208.5 -227.7499)" style="font-family:'ArialMT'; font-size:12px;">Dark</text>
<text transform="matrix(1 0 0 1 -143.5 -334.0833)" style="fill:#FFFFFF; font-family:'ArialMT'; font-size:10px;">100%</text>
<text transform="matrix(1 0 0 1 0.5 -334.0833)" style="fill:#FFFFFF; font-family:'ArialMT'; font-size:10px;">200%</text>
<text transform="matrix(1 0 0 1 96.5 -334.0833)" style="fill:#FFFFFF; font-family:'ArialMT'; font-size:10px;">300%</text>
<text transform="matrix(1 0 0 1 224.1875 -334.0833)" style="fill:#FFFFFF; font-family:'ArialMT'; font-size:10px;">400%</text>
<rect x="-144" y="-270" style="display:none;fill:#333333;" width="9" height="1"/>
<polygon style="display:none;fill:#333333;" points="-135,-271.809 -131,-269.5 -135,-267.191 "/>
<image style="overflow:visible;" width="1920" height="1080" xlink:href="2B4C9AF9BCCD555F.png"  transform="matrix(0.9999 0 0 0.9999 -2147 -571.8649)">
</image>
<image style="overflow:visible;" width="20" height="20" xlink:href="2B4C9AF9BCCD555D.jpg"  transform="matrix(0.7499 0 0 0.7499 -113.7907 -300.2898)">
</image>
<rect x="-143" y="-265" style="fill:#666666;" width="6" height="6"/>
<rect x="-142" y="-264" style="fill:#F3F3F3;" width="4" height="4"/>
<rect x="-135" y="-265" style="fill:#67B1E6;" width="6" height="6"/>
<rect x="-135" y="-265" style="opacity:0.1;" width="6" height="6"/>
<rect x="-134" y="-264" style="fill:#67B1E6;" width="4" height="4"/>
<rect x="-135" y="-257" style="fill:#67B1E6;" width="6" height="6"/>
<rect x="-135" y="-257" style="opacity:0.1;" width="6" height="6"/>
<rect x="-134" y="-256" style="fill:#67B1E6;" width="4" height="4"/>
<rect x="-143" y="-257" style="fill:#67B1E6;" width="6" height="6"/>
<rect x="-143" y="-257" style="opacity:0.1;" width="6" height="6"/>
<rect x="-142" y="-256" style="fill:#67B1E6;" width="4" height="4"/>
<rect x="-143" y="-239" style="fill:#D9D9D9;" width="6" height="6"/>
<rect x="-135" y="-239" style="fill:#89CBFA;" width="6" height="6"/>
<rect x="-135" y="-231" style="fill:#89CBFA;" width="6" height="6"/>
<rect x="-143" y="-231" style="fill:#89CBFA;" width="6" height="6"/>
<rect x="-143" y="-47" style="fill:#666666;" width="13" height="13"/>
<rect x="-142" y="-46" style="fill:#F3F3F3;" width="11" height="11"/>
<rect x="-127" y="-47" style="fill:#67B1E6;" width="13" height="13"/>
<rect x="-127" y="-47" style="opacity:0.1;" width="13" height="13"/>
<rect x="-126" y="-46" style="fill:#67B1E6;" width="11" height="11"/>
<rect x="-127" y="-31" style="fill:#67B1E6;" width="13" height="13"/>
<rect x="-127" y="-31" style="opacity:0.1;" width="13" height="13"/>
<rect x="-126" y="-30" style="fill:#67B1E6;" width="11" height="11"/>
<rect x="-143" y="-31" style="fill:#67B1E6;" width="13" height="13"/>
<rect x="-143" y="-31" style="opacity:0.1;" width="13" height="13"/>
<rect x="-142" y="-30" style="fill:#67B1E6;" width="11" height="11"/>
<rect x="-187" y="-51" style="fill:#666666;" width="14" height="14"/>
<rect x="-186" y="-50" style="fill:#F3F3F3;" width="12" height="12"/>
<rect x="-169" y="-51" style="fill:#67B1E6;" width="14" height="14"/>
<rect x="-169" y="-51" style="opacity:0.1;" width="14" height="14"/>
<rect x="-168" y="-50" style="fill:#67B1E6;" width="12" height="12"/>
<rect x="-187" y="-33" style="fill:#67B1E6;" width="14" height="14"/>
<rect x="-187" y="-33" style="opacity:0.1;" width="14" height="14"/>
<rect x="-186" y="-32" style="fill:#67B1E6;" width="12" height="12"/>
<rect x="-169" y="-33" style="fill:#67B1E6;" width="14" height="14"/>
<rect x="-169" y="-33" style="opacity:0.1;" width="14" height="14"/>
<rect x="-168" y="-32" style="fill:#67B1E6;" width="12" height="12"/>
<g>
	<rect x="-143" y="1" style="fill:#D9D9D9;" width="13" height="13"/>
	<rect x="-127" y="1" style="fill:#89CBFA;" width="13" height="13"/>
	<rect x="-127" y="17" style="fill:#89CBFA;" width="13" height="13"/>
	<rect x="-143" y="17" style="fill:#89CBFA;" width="13" height="13"/>
</g>
<rect x="-79" y="-63" style="fill:#666666;" width="21" height="21"/>
<rect x="-78" y="-62" style="fill:#F3F3F3;" width="19" height="19"/>
<rect x="-54" y="-63" style="fill:#67B1E6;" width="21" height="21"/>
<rect x="-54" y="-63" style="opacity:0.1;" width="21" height="21"/>
<rect x="-53" y="-62" style="fill:#67B1E6;" width="19" height="19"/>
<rect x="-79" y="-38" style="fill:#67B1E6;" width="21" height="21"/>
<rect x="-79" y="-38" style="opacity:0.1;" width="21" height="21"/>
<rect x="-78" y="-37" style="fill:#67B1E6;" width="19" height="19"/>
<rect x="-54" y="-38" style="fill:#67B1E6;" width="21" height="21"/>
<rect x="-54" y="-38" style="opacity:0.1;" width="21" height="21"/>
<rect x="-53" y="-37" style="fill:#67B1E6;" width="19" height="19"/>
<rect x="-79" y="1" style="fill:#F3F3F3;" width="21" height="21"/>
<rect x="-54" y="1" style="fill:#89CBFA;" width="21" height="21"/>
<rect x="-79" y="26" style="fill:#89CBFA;" width="21" height="21"/>
<rect x="-54" y="26" style="fill:#89CBFA;" width="21" height="21"/>
<rect x="-80" y="-274" style="fill:#666666;" width="10" height="10"/>
<rect x="-79" y="-273" style="fill:#F3F3F3;" width="8" height="8"/>
<rect x="-67" y="-274" style="fill:#67B1E6;" width="10" height="10"/>
<rect x="-67" y="-274" style="opacity:0.1;" width="10" height="10"/>
<rect x="-66" y="-273" style="fill:#67B1E6;" width="8" height="8"/>
<rect x="-80" y="-261" style="fill:#67B1E6;" width="10" height="10"/>
<rect x="-80" y="-261" style="opacity:0.1;" width="10" height="10"/>
<rect x="-79" y="-260" style="fill:#67B1E6;" width="8" height="8"/>
<rect x="-67" y="-261" style="fill:#67B1E6;" width="10" height="10"/>
<rect x="-67" y="-261" style="opacity:0.1;" width="10" height="10"/>
<rect x="-66" y="-260" style="fill:#67B1E6;" width="8" height="8"/>
<rect x="-80" y="-240" style="fill:#D9D9D9;" width="10" height="10"/>
<rect x="-67" y="-240" style="fill:#89CBFA;" width="10" height="10"/>
<rect x="-80" y="-227" style="fill:#89CBFA;" width="10" height="10"/>
<rect x="-80" y="-227" style="fill:#89CBFA;" width="10" height="10"/>
<rect x="-79" y="-226" style="fill:#89CBFA;" width="8" height="8"/>
<rect x="-67" y="-227" style="fill:#89CBFA;" width="10" height="10"/>
<rect x="-67" y="-227" style="fill:#89CBFA;" width="10" height="10"/>
<rect x="-66" y="-226" style="fill:#89CBFA;" width="8" height="8"/>
<circle style="fill:#67B1E6;" cx="-154" cy="-263" r="2"/>
<circle style="opacity:0.1;" cx="-154" cy="-263" r="2"/>
<circle style="fill:#67B1E6;" cx="-154" cy="-263" r="1"/>
<circle style="fill:#666666;" cx="-159" cy="-260" r="2"/>
<circle style="fill:#F3F3F3;" cx="-159" cy="-260" r="1"/>
<circle style="fill:#67B1E6;" cx="-159" cy="-255" r="2"/>
<circle style="opacity:0.1;" cx="-159" cy="-255" r="2"/>
<circle style="fill:#67B1E6;" cx="-159" cy="-255" r="1"/>
<circle style="fill:#67B1E6;" cx="-149" cy="-260" r="2"/>
<circle style="opacity:0.1;" cx="-149" cy="-260" r="2"/>
<circle style="fill:#67B1E6;" cx="-149" cy="-260" r="1"/>
<circle style="fill:#67B1E6;" cx="-149" cy="-255" r="2"/>
<circle style="opacity:0.1;" cx="-149" cy="-255" r="2"/>
<circle style="fill:#67B1E6;" cx="-149" cy="-255" r="1"/>
<circle style="fill:#67B1E6;" cx="-154" cy="-252" r="2"/>
<circle style="opacity:0.1;" cx="-154" cy="-252" r="2"/>
<circle style="fill:#67B1E6;" cx="-154" cy="-252" r="1"/>
<rect x="2" y="-280" style="fill:#666666;" width="12" height="12"/>
<rect x="4" y="-278" style="fill:#F3F3F3;" width="8" height="8"/>
<rect x="18" y="-280" style="fill:#67B1E6;" width="12" height="12"/>
<rect x="18" y="-280" style="opacity:0.1;" width="12" height="12"/>
<rect x="20" y="-278" style="fill:#67B1E6;" width="8" height="8"/>
<rect x="18" y="-264" style="fill:#67B1E6;" width="12" height="12"/>
<rect x="18" y="-264" style="opacity:0.1;" width="12" height="12"/>
<rect x="20" y="-262" style="fill:#67B1E6;" width="8" height="8"/>
<rect x="2" y="-264" style="fill:#67B1E6;" width="12" height="12"/>
<rect x="2" y="-264" style="opacity:0.1;" width="12" height="12"/>
<rect x="4" y="-262" style="fill:#67B1E6;" width="8" height="8"/>
<rect x="2" y="-238" style="fill:#D9D9D9;" width="12" height="12"/>
<rect x="18" y="-238" style="fill:#89CBFA;" width="12" height="12"/>
<rect x="18" y="-222" style="fill:#89CBFA;" width="12" height="12"/>
<rect x="2" y="-222" style="fill:#89CBFA;" width="12" height="12"/>
<rect x="99" y="-295" style="fill:#666666;" width="18" height="18"/>
<rect x="102" y="-292" style="fill:#F3F3F3;" width="12" height="12"/>
<rect x="123" y="-295" style="fill:#67B1E6;" width="18" height="18"/>
<rect x="123" y="-295" style="opacity:0.1;" width="18" height="18"/>
<rect x="126" y="-292" style="fill:#67B1E6;" width="12" height="12"/>
<rect x="123" y="-271" style="fill:#67B1E6;" width="18" height="18"/>
<rect x="123" y="-271" style="opacity:0.1;" width="18" height="18"/>
<rect x="126" y="-268" style="fill:#67B1E6;" width="12" height="12"/>
<rect x="99" y="-271" style="fill:#67B1E6;" width="18" height="18"/>
<rect x="99" y="-271" style="opacity:0.1;" width="18" height="18"/>
<rect x="102" y="-268" style="fill:#67B1E6;" width="12" height="12"/>
<rect x="99" y="-237" style="fill:#D9D9D9;" width="18" height="18"/>
<rect x="123" y="-237" style="fill:#89CBFA;" width="18" height="18"/>
<rect x="123" y="-213" style="fill:#89CBFA;" width="18" height="18"/>
<rect x="99" y="-213" style="fill:#89CBFA;" width="18" height="18"/>
<rect x="228" y="-310" style="fill:#666666;" width="24" height="24"/>
<rect x="232" y="-306" style="fill:#F3F3F3;" width="16" height="16"/>
<rect x="260" y="-310" style="fill:#67B1E6;" width="24" height="24"/>
<rect x="260" y="-310" style="opacity:0.1;" width="24" height="24"/>
<rect x="264" y="-306" style="fill:#67B1E6;" width="16" height="16"/>
<rect x="260" y="-278" style="fill:#67B1E6;" width="24" height="24"/>
<rect x="260" y="-278" style="opacity:0.1;" width="24" height="24"/>
<rect x="264" y="-274" style="fill:#67B1E6;" width="16" height="16"/>
<rect x="228" y="-278" style="fill:#67B1E6;" width="24" height="24"/>
<rect x="228" y="-278" style="opacity:0.1;" width="24" height="24"/>
<rect x="232" y="-274" style="fill:#67B1E6;" width="16" height="16"/>
<rect x="228" y="-236" style="fill:#D9D9D9;" width="24" height="24"/>
<rect x="260" y="-236" style="fill:#89CBFA;" width="24" height="24"/>
<rect x="260" y="-204" style="fill:#89CBFA;" width="24" height="24"/>
<rect x="228" y="-204" style="fill:#89CBFA;" width="24" height="24"/>
<g>
	<rect x="3" y="-77" style="fill:#666666;" width="26" height="26"/>
	<rect x="5" y="-75" style="fill:#F3F3F3;" width="22" height="22"/>
	<rect x="35" y="-77" style="fill:#67B1E6;" width="26" height="26"/>
	<rect x="35" y="-77" style="opacity:0.1;" width="26" height="26"/>
	<rect x="37" y="-75" style="fill:#67B1E6;" width="22" height="22"/>
	<rect x="35" y="-45" style="fill:#67B1E6;" width="26" height="26"/>
	<rect x="35" y="-45" style="opacity:0.1;" width="26" height="26"/>
	<rect x="37" y="-43" style="fill:#67B1E6;" width="22" height="22"/>
	<rect x="3" y="-45" style="fill:#67B1E6;" width="26" height="26"/>
	<rect x="3" y="-45" style="opacity:0.1;" width="26" height="26"/>
	<rect x="5" y="-43" style="fill:#67B1E6;" width="22" height="22"/>
</g>
<g>
	<rect x="3" y="3" style="fill:#D9D9D9;" width="26" height="26"/>
	<rect x="35" y="3" style="fill:#89CBFA;" width="26" height="26"/>
	<rect x="35" y="35" style="fill:#89CBFA;" width="26" height="26"/>
	<rect x="3" y="35" style="fill:#89CBFA;" width="26" height="26"/>
</g>
<g>
	<rect x="100" y="-108" style="fill:#666666;" width="39" height="39"/>
	<rect x="103" y="-105" style="fill:#F3F3F3;" width="33" height="33"/>
	<rect x="148" y="-108" style="fill:#67B1E6;" width="39" height="39"/>
	<rect x="148" y="-108" style="opacity:0.1;" width="39" height="39"/>
	<rect x="151" y="-105" style="fill:#67B1E6;" width="33" height="33"/>
	<rect x="148" y="-60" style="fill:#67B1E6;" width="39" height="39"/>
	<rect x="148" y="-60" style="opacity:0.1;" width="39" height="39"/>
	<rect x="151" y="-57" style="fill:#67B1E6;" width="33" height="33"/>
	<rect x="100" y="-60" style="fill:#67B1E6;" width="39" height="39"/>
	<rect x="100" y="-60" style="opacity:0.1;" width="39" height="39"/>
	<rect x="103" y="-57" style="fill:#67B1E6;" width="33" height="33"/>
</g>
<g>
	<rect x="100" y="4" style="fill:#D9D9D9;" width="39" height="39"/>
	<rect x="148" y="4" style="fill:#89CBFA;" width="39" height="39"/>
	<rect x="148" y="52" style="fill:#89CBFA;" width="39" height="39"/>
	<rect x="100" y="52" style="fill:#89CBFA;" width="39" height="39"/>
</g>
<rect x="230" y="-138" style="fill:#666666;" width="52" height="52"/>
<rect x="234" y="-134" style="fill:#F3F3F3;" width="44" height="44"/>
<rect x="294" y="-138" style="fill:#67B1E6;" width="52" height="52"/>
<rect x="294" y="-138" style="opacity:0.1;" width="52" height="52"/>
<rect x="298" y="-134" style="fill:#67B1E6;" width="44" height="44"/>
<rect x="294" y="-74" style="fill:#67B1E6;" width="52" height="52"/>
<rect x="294" y="-74" style="opacity:0.1;" width="52" height="52"/>
<rect x="298" y="-70" style="fill:#67B1E6;" width="44" height="44"/>
<rect x="230" y="-74" style="fill:#67B1E6;" width="52" height="52"/>
<rect x="230" y="-74" style="opacity:0.1;" width="52" height="52"/>
<rect x="234" y="-70" style="fill:#67B1E6;" width="44" height="44"/>
<g>
	<rect x="230" y="6" style="fill:#D9D9D9;" width="52" height="52"/>
	<rect x="294" y="6" style="fill:#89CBFA;" width="52" height="52"/>
	<rect x="294" y="70" style="fill:#89CBFA;" width="52" height="52"/>
	<rect x="230" y="70" style="fill:#89CBFA;" width="52" height="52"/>
</g>
</svg>
