<?xml version="1.0" encoding="iso-8859-1"?>
<!-- Generator: Adobe Illustrator 21.1.0, SVG Export Plug-In . SVG Version: 6.00 Build 0)  -->
<svg version="1.1" id="&#x56FE;&#x5C42;_1" xmlns="http://www.w3.org/2000/svg" xmlns:xlink="http://www.w3.org/1999/xlink" x="0px"
	 y="0px" viewBox="0 0 64 64" style="enable-background:new 0 0 64 64;" xml:space="preserve">
<polygon style="display:none;fill:#BBBBBB;" points="-385,8 -390,14 -390,5 -385,-1 "/>
<path style="display:none;fill:#666666;" d="M-390,5v9l5-6v-9L-390,5z M-386,7.638l-3,3.601V5.362l3-3.601V7.638z"/>
<polygon style="display:none;fill:#D9D9D9;" points="-379,10 -390,14 -390,5 -379,1 "/>
<path style="display:none;fill:#666666;" d="M-390,5v9l11-4V1L-390,5z M-380,9.3l-9,3.272V5.7l9-3.272V9.3z"/>
<polygon style="display:none;fill:#BBBBBB;" points="-387,-15 -392,-9 -392,-18 -387,-24 "/>
<polygon style="display:none;fill:#D9D9D9;" points="-381,-13 -392,-9 -392,-18 -381,-22 "/>
<text transform="matrix(1 0 0 1 -432.5 -14.7499)" style="fill:#FFFFFF; font-family:'ArialMT'; font-size:12px;">Dark</text>
<text transform="matrix(1 0 0 1 -367.5 -94.0833)" style="fill:#FFFFFF; font-family:'ArialMT'; font-size:10px;">100%</text>
<text transform="matrix(1 0 0 1 -303.5 -94.0833)" style="fill:#FFFFFF; font-family:'ArialMT'; font-size:10px;">150%</text>
<text transform="matrix(1 0 0 1 -223.5 -94.0833)" style="fill:#FFFFFF; font-family:'ArialMT'; font-size:10px;">200%</text>
<text transform="matrix(1 0 0 1 -127.5 -94.0833)" style="fill:#FFFFFF; font-family:'ArialMT'; font-size:10px;">300%</text>
<text transform="matrix(1 0 0 1 0.1875 -94.0833)" style="fill:#FFFFFF; font-family:'ArialMT'; font-size:10px;">400%</text>
<text transform="matrix(1 0 0 1 -429.3333 12.0001)" style="fill:#FFFFFF; font-family:'ArialMT'; font-size:12px;">Light</text>
<text transform="matrix(1 0 0 1 -430.6668 209.0001)" style="fill:#FFFFFF; font-family:'ArialMT'; font-size:12px;">Dark</text>
<text transform="matrix(1 0 0 1 -430.6667 260.6667)" style="fill:#FFFFFF; font-family:'ArialMT'; font-size:12px;">Light</text>
<path style="display:none;fill:#666666;" d="M-386.922,282c-8.837,0-16,7.163-16,16s7.163,16,16,16s16-7.163,16-16
	S-378.085,282-386.922,282z M-386.922,313c-8.271,0-15-6.729-15-15s6.729-15,15-15c8.271,0,15,6.729,15,15S-378.65,313-386.922,313z
	"/>
<path style="display:none;fill:#D9D9D9;" d="M-386.922,291c-8.88,0-16.078,3.358-16.078,7.5s7.199,7.5,16.078,7.5
	s16.079-3.358,16.079-7.5S-378.042,291-386.922,291z M-386.922,305c-9.02,0-15.079-3.361-15.079-6.5s6.059-6.5,15.079-6.5
	s15.078,3.361,15.078,6.5S-377.902,305-386.922,305z"/>
<path style="display:none;fill:#96C44D;" d="M-381.091,294.674c-4.44-7.69-10.947-12.245-14.534-10.174
	c-3.587,2.071-2.896,9.984,1.544,17.674s10.947,12.246,14.534,10.174C-375.959,310.277-376.651,302.364-381.091,294.674z
	 M-393.215,301.674c-4.51-7.811-4.628-14.739-1.91-16.308s8.659,1.997,13.168,9.808c4.51,7.811,4.628,14.739,1.91,16.308
	S-388.705,309.485-393.215,301.674z"/>
<path style="display:none;fill:#BC5151;" d="M-392.752,294.674c-4.44,7.69-5.131,15.603-1.544,17.674
	c3.587,2.071,10.094-2.484,14.534-10.174c4.44-7.69,5.131-15.603,1.544-17.674C-381.805,282.429-388.312,286.984-392.752,294.674z
	 M-380.628,301.674c-4.51,7.811-10.45,11.378-13.168,9.808s-2.6-8.497,1.91-16.308c4.51-7.811,10.45-11.377,13.168-9.808
	S-376.118,293.863-380.628,301.674z"/>
<path style="display:none;fill:#666666;" d="M-367,24.288c0,0.049,0.012,0.099,0.022,0.15c-0.005-0.074-0.009-0.149-0.011-0.223
	C-366.992,24.239-367,24.264-367,24.288z"/>
<path style="display:none;fill:#D9D9D9;" d="M-368,24.288c0,0.085,0.015,0.168,0.027,0.252c-0.008-0.114-0.015-0.228-0.017-0.343
	C-367.992,24.227-368,24.257-368,24.288z"/>
<path style="display:none;fill:#666666;" d="M-379.5,19.5c-4.418,0-8,3.582-8,8s3.582,8,8,8s8-3.582,8-8S-375.082,19.5-379.5,19.5z
	 M-379.5,34.5c-3.86,0-7-3.141-7-7s3.14-7,7-7c3.859,0,7,3.141,7,7S-375.641,34.5-379.5,34.5z"/>
<path style="display:none;fill:#D9D9D9;" d="M-379.5,24.056c-4.418,0-8,1.671-8,3.732s3.582,3.732,8,3.732s8-1.671,8-3.732
	S-375.082,24.056-379.5,24.056z M-379.5,30.52c-4.273,0-7-1.618-7-2.731s2.727-2.731,7-2.731c4.273,0,7,1.618,7,2.731
	S-375.227,30.52-379.5,30.52z"/>
<path style="display:none;fill:#D9D9D9;" d="M-376.518,25.778c-2.209-3.826-5.447-6.093-7.232-5.062
	c-1.785,1.03-1.441,4.968,0.768,8.794s5.447,6.093,7.232,5.062C-373.964,33.542-374.308,29.604-376.518,25.778z M-382.115,29.01
	c-2.136-3.7-2.099-6.871-1.134-7.428c0.964-0.557,3.729,0.996,5.865,4.696c2.137,3.701,2.099,6.871,1.135,7.428
	C-377.214,34.263-379.978,32.711-382.115,29.01z"/>
<path style="display:none;fill:#D9D9D9;" d="M-382.482,25.778c-2.209,3.826-2.553,7.764-0.768,8.794
	c1.785,1.03,5.023-1.236,7.232-5.062s2.553-7.764,0.768-8.794C-377.036,19.685-380.273,21.952-382.482,25.778z M-376.885,29.01
	c-2.136,3.7-4.901,5.253-5.866,4.696c-0.964-0.557-1.002-3.727,1.135-7.428c2.137-3.701,4.901-5.253,5.865-4.696
	C-374.786,22.139-374.748,25.309-376.885,29.01z"/>
<path style="display:none;fill:#666666;" d="M-260-34c-6.627,0-12,5.373-12,12c0,6.627,5.373,12,12,12c6.627,0,12-5.373,12-12
	C-248-28.627-253.373-34-260-34z M-260-11c-6.065,0-11-4.935-11-11s4.935-11,11-11s11,4.935,11,11S-253.935-11-260-11z"/>
<path style="display:none;fill:#D9D9D9;" d="M-260-27.166c-6.627,0-12,2.506-12,5.598c0,3.091,5.373,5.598,12,5.598
	c6.627,0,12-2.506,12-5.598C-248-24.66-253.373-27.166-260-27.166z M-260-16.971c-6.482,0-11-2.423-11-4.598s4.518-4.598,11-4.598
	s11,2.423,11,4.598S-253.518-16.971-260-16.971z"/>
<path style="display:none;fill:#D9D9D9;" d="M-255.526-24.583c-3.314-5.74-8.17-9.139-10.848-7.594
	c-2.677,1.546-2.161,7.452,1.152,13.191c3.314,5.74,8.17,9.139,10.848,7.594C-251.697-12.938-252.213-18.843-255.526-24.583z
	 M-254.874-12.258c-0.278,0.161-0.596,0.239-0.969,0.239c-0.001,0-0.001,0-0.001,0c-2.088,0-5.682-2.565-8.512-7.467
	c-3.241-5.614-3.401-10.738-1.519-11.825c0.274-0.159,0.602-0.239,0.97-0.239c2.088,0,5.682,2.564,8.512,7.466
	C-253.151-18.469-252.991-13.345-254.874-12.258z"/>
<path style="display:none;fill:#D9D9D9;" d="M-253.626-32.176c-2.677-1.546-7.534,1.854-10.848,7.594s-3.83,11.645-1.152,13.191
	c2.677,1.546,7.534-1.854,10.848-7.594C-251.465-24.725-250.949-30.631-253.626-32.176z M-255.645-19.485
	c-2.83,4.902-6.424,7.467-8.512,7.467c-0.369,0-0.695-0.08-0.97-0.239c-1.883-1.087-1.723-6.211,1.519-11.825
	c2.83-4.902,6.424-7.466,8.512-7.466c0.368,0,0.695,0.081,0.97,0.239C-252.243-30.223-252.403-25.1-255.645-19.485z"/>
<path style="display:none;fill:#666666;" d="M-254.126-7.31c-0.038-0.022-0.084-0.03-0.123-0.049
	c0.097,0.06,0.197,0.115,0.293,0.178C-254.013-7.224-254.065-7.275-254.126-7.31z"/>
<path style="display:none;fill:#D9D9D9;" d="M-388,180c-8.837,0-16,7.163-16,16s7.163,16,16,16s16-7.163,16-16S-379.163,180-388,180
	z M-388,211c-8.271,0-15-6.729-15-15s6.729-15,15-15c8.271,0,15,6.729,15,15S-379.729,211-388,211z"/>
<path style="display:none;fill:#D9D9D9;" d="M-388,203c-8.254,0-14.014-2.815-14.934-5.699c0.071,0.824,0.217,1.625,0.417,2.406
	c2.579,2.535,8.101,4.292,14.517,4.292s11.938-1.757,14.517-4.292c0.2-0.781,0.346-1.583,0.417-2.408
	C-373.985,200.184-379.744,203-388,203z"/>
<path style="display:none;fill:#D9D9D9;" d="M-388,190c8.416,0,14.25,2.927,14.993,5.868c-0.007-0.791-0.086-1.563-0.212-2.32
	C-375.676,190.874-381.367,189-388,189c-6.633,0-12.324,1.874-14.782,4.548c-0.125,0.757-0.205,1.528-0.212,2.319
	C-402.248,192.926-396.415,190-388,190z"/>
<path style="display:none;fill:#D9D9D9;" d="M-394.294,199.674c-4.117-7.13-4.566-13.51-2.547-15.765
	c-0.669,0.49-1.3,1.026-1.878,1.618c-0.871,3.507,0.373,9.128,3.559,14.647c3.145,5.448,7.324,9.308,10.772,10.368
	c0.776-0.193,1.533-0.431,2.256-0.739C-385.131,210.21-390.277,206.632-394.294,199.674z"/>
<path style="display:none;fill:#D9D9D9;" d="M-383.035,193.174c4.148,7.184,4.574,13.609,2.502,15.817
	c0.635-0.366,1.241-0.776,1.813-1.228c1.094-3.464-0.128-9.338-3.449-15.089c-3.368-5.833-7.922-9.854-11.492-10.557
	c-0.707,0.289-1.382,0.639-2.03,1.028C-392.792,182.232-387.281,185.821-383.035,193.174z"/>
<path style="display:none;fill:#D9D9D9;" d="M-379.162,183.907c2.021,2.252,1.573,8.634-2.545,15.767
	c-4.016,6.956-9.16,10.535-12.159,10.129c0.722,0.308,1.479,0.546,2.254,0.738c3.447-1.06,7.626-4.92,10.772-10.368
	c3.186-5.519,4.43-11.14,3.559-14.647C-377.86,184.935-378.492,184.398-379.162,183.907z"/>
<path style="display:none;fill:#D9D9D9;" d="M-392.965,193.174c4.248-7.357,9.762-10.945,12.66-10.026
	c-0.65-0.391-1.325-0.741-2.034-1.031c-3.57,0.702-8.125,4.724-11.492,10.557c-3.32,5.751-4.542,11.625-3.449,15.088
	c0.572,0.452,1.177,0.861,1.811,1.227C-397.538,206.78-397.111,200.356-392.965,193.174z"/>
<rect x="-392" y="-18" style="display:none;fill:#F3F3F3;" width="14" height="9"/>
<rect x="-390" y="-16" style="display:none;fill:#89CBFA;" width="10" height="5"/>
<rect x="-390" y="5" style="display:none;fill:#F3F3F3;" width="14" height="9"/>
<rect x="-390" y="5" style="display:none;fill:#F3F3F3;" width="14" height="9"/>
<path style="display:none;fill:#666666;" d="M-390,5v9h14V5H-390z M-377,13h-12V6h12V13z"/>
<rect x="-388" y="7" style="display:none;fill:#89CBFA;" width="10" height="5"/>
<path style="display:none;opacity:0.1;" d="M-388,7v5h10V7H-388z M-379,11h-8V8h8V11z"/>
<polygon style="display:none;fill:#BBBBBB;" points="-380,-15 -387,-10 -387,-20 -380,-26 "/>
<polygon style="display:none;fill:#D9D9D9;" points="-374,-13 -387,-10 -387,-20 -374,-24 "/>
<rect x="-387" y="-20" style="display:none;fill:#F3F3F3;" width="16" height="10"/>
<rect x="-385" y="-18" style="display:none;fill:#89CBFA;" width="12" height="6"/>
<polygon style="display:none;fill:#BBBBBB;" points="-324,-17.5 -334,-10 -334,-25 -324,-34 "/>
<polygon style="display:none;fill:#D9D9D9;" points="-315,-14.5 -334,-10 -334,-25 -315,-31 "/>
<rect x="-334" y="-25" style="display:none;fill:#F3F3F3;" width="24" height="15"/>
<rect x="-331" y="-22" style="display:none;fill:#89CBFA;" width="18" height="9"/>
<polygon style="display:none;fill:#BBBBBB;" points="-324,16.5 -334,24 -334,9 -324,0 "/>
<path style="display:none;fill:#666666;" d="M-334,9v15l10-7.5V0L-334,9z M-325,16l-8,6V9.445l8-7.2V16z"/>
<polygon style="display:none;fill:#D9D9D9;" points="-315,19.5 -334,24 -334,9 -315,3 "/>
<path style="display:none;fill:#666666;" d="M-334,9v15l19-4.5V3L-334,9z M-316,18.709l-17,4.026V9.732l17-5.368V18.709z"/>
<rect x="-334" y="9" style="display:none;fill:#F3F3F3;" width="24" height="15"/>
<path style="display:none;fill:#666666;" d="M-334,9v15h24V9H-334z M-311,23h-22V10h22V23z"/>
<rect x="-331" y="12" style="display:none;fill:#89CBFA;" width="18" height="9"/>
<path style="display:none;opacity:0.1;" d="M-331,12v9h18v-9H-331z M-314,20h-16v-7h16V20z"/>
<polygon style="display:none;fill:#BBBBBB;" points="-380,11 -387,16 -387,6 -380,0 "/>
<path style="display:none;fill:#666666;" d="M-387,6v10l7-5V0L-387,6z M-381,10.485l-5,3.571V6.46l5-4.286V10.485z"/>
<polygon style="display:none;fill:#D9D9D9;" points="-374,13 -387,16 -387,6 -374,2 "/>
<path style="display:none;fill:#666666;" d="M-387,6v10l13-3V2L-387,6z M-375,12.204l-11,2.539V6.738l11-3.385V12.204z"/>
<rect x="-387" y="6" style="display:none;fill:#F3F3F3;" width="16" height="10"/>
<path style="display:none;fill:#666666;" d="M-387,6v10h16V6H-387z M-372,15h-14V7h14V15z"/>
<rect x="-385" y="8" style="display:none;fill:#67B1E6;" width="12" height="6"/>
<path style="display:none;opacity:0.1;" d="M-385,8v6h12V8H-385z M-374,13h-10V9h10V13z"/>
<polygon style="display:none;fill:#BBBBBB;" points="-247,22 -261,32 -261,12 -247,0 "/>
<path style="display:none;fill:#666666;" d="M-261,12v20l14-10V0L-261,12z M-249,20.971l-10,7.143V12.92l10-8.572V20.971z"/>
<polygon style="display:none;fill:#D9D9D9;" points="-235,26 -261,32 -261,12 -235,4 "/>
<path style="display:none;fill:#666666;" d="M-261,12v20l26-6V4L-261,12z M-237,24.408l-22,5.078v-16.01l22-6.77V24.408z"/>
<rect x="-261" y="12" style="display:none;fill:#F3F3F3;" width="32" height="20"/>
<path style="display:none;fill:#666666;" d="M-261,12v20h32V12H-261z M-231,30h-28V14h28V30z"/>
<rect x="-257" y="16" style="display:none;fill:#67B1E6;" width="24" height="12"/>
<path style="display:none;opacity:0.1;" d="M-257,16v12h24V16H-257z M-235,26h-20v-8h20V26z"/>
<polygon style="display:none;fill:#BBBBBB;" points="-161,-25 -182,-10 -182,-40 -161,-58 "/>
<polygon style="display:none;fill:#D9D9D9;" points="-143,-19 -182,-10 -182,-40 -143,-52 "/>
<rect x="-182" y="-40" style="display:none;fill:#F3F3F3;" width="48" height="30"/>
<rect x="-176" y="-34" style="display:none;fill:#89CBFA;" width="36" height="18"/>
<polygon style="display:none;fill:#BBBBBB;" points="-161,33 -182,48 -182,18 -161,0 "/>
<path style="display:none;fill:#666666;" d="M-182,18v30l21-15V0L-182,18z M-164,31.456l-15,10.714V19.38l15-12.858V31.456z"/>
<polygon style="display:none;fill:#D9D9D9;" points="-143,39 -182,48 -182,18 -143,6 "/>
<path style="display:none;fill:#666666;" d="M-182,18v30l39-9V6L-182,18z M-146,36.612l-33,7.617V20.215l33-10.154V36.612z"/>
<rect x="-182" y="18" style="display:none;fill:#F3F3F3;" width="48" height="30"/>
<path style="display:none;fill:#666666;" d="M-182,18v30h48V18H-182z M-137,45h-42V21h42V45z"/>
<rect x="-176" y="24" style="display:none;fill:#67B1E6;" width="36" height="18"/>
<path style="display:none;opacity:0.1;" d="M-176,24v18h36V24H-176z M-143,39h-30V27h30V39z"/>
<polygon style="display:none;fill:#BBBBBB;" points="-41,-30 -69,-10 -69,-50 -41,-74 "/>
<polygon style="display:none;fill:#D9D9D9;" points="-17,-22 -69,-10 -69,-50 -17,-66 "/>
<rect x="-69" y="-50" style="display:none;fill:#F3F3F3;" width="64" height="40"/>
<rect x="-61" y="-42" style="display:none;fill:#89CBFA;" width="48" height="24"/>
<polygon style="display:none;fill:#BBBBBB;" points="-41,44 -69,64 -69,24 -41,0 "/>
<path style="display:none;fill:#666666;" d="M-69,24v40l28-20V0L-69,24z M-45,41.941l-20,14.285V25.84l20-17.145V41.941z"/>
<polygon style="display:none;fill:#D9D9D9;" points="-17,52 -69,64 -69,24 -17,8 "/>
<path style="display:none;fill:#666666;" d="M-69,24v40l52-12V8L-69,24z M-21,48.816l-44,10.156v-32.02l44-13.539V48.816z"/>
<rect x="-69" y="24" style="display:none;fill:#F3F3F3;" width="64" height="40"/>
<path style="display:none;fill:#666666;" d="M-69,24v40h64V24H-69z M-9,60h-56V28h56V60z"/>
<rect x="-61" y="32" style="display:none;fill:#67B1E6;" width="48" height="24"/>
<path style="display:none;opacity:0.1;" d="M-61,32v24h48V32H-61z M-17,52h-40V36h40V52z"/>
<polygon style="display:none;fill:#BBBBBB;" points="-390,199.674 -390,194 -397.944,201.944 "/>
<rect x="-399" y="203" style="display:none;fill:#F3F3F3;" width="28" height="19"/>
<polygon style="display:none;fill:#D9D9D9;" points="-378,202 -378,197 -395.5,202 "/>
<rect x="-395" y="207" style="display:none;fill:#89CBFA;" width="20" height="11"/>
<polygon style="fill:#67B1E6;" points="-366,-21 -354,-18 -354,-20 -366,-23 "/>
<polygon style="fill:#67B1E6;" points="-366,-16 -354,-13 -354,-15 -366,-18 "/>
<polygon style="fill:#B2DFFF;" points="-354,-23 -366,-21 -366,-23 -354,-25 "/>
<polygon style="fill:#B2DFFF;" points="-354,-18 -366,-16 -366,-18 -354,-20 "/>
<polygon style="fill:#B2DFFF;" points="-354,-13 -366,-11 -366,-13 -354,-15 "/>
<polygon style="fill:#4795CC;" points="-366,5 -354,8 -354,6 -366,3 "/>
<polygon style="fill:#4795CC;" points="-366,10 -354,13 -354,11 -366,8 "/>
<polygon style="fill:#67B1E6;" points="-354,3 -366,5 -366,3 -354,1 "/>
<polygon style="fill:#67B1E6;" points="-354,8 -366,10 -366,8 -354,6 "/>
<polygon style="fill:#67B1E6;" points="-354,13 -366,15 -366,13 -354,11 "/>
<polygon style="fill:#67B1E6;" points="8,-54 56,-42 56,-50 8,-62 "/>
<polygon style="fill:#67B1E6;" points="8,-34 56,-22 56,-30 8,-42 "/>
<polygon style="fill:#B2DFFF;" points="56,-62 8,-54 8,-62 56,-70 "/>
<polygon style="fill:#B2DFFF;" points="56,-42 8,-34 8,-42 56,-50 "/>
<polygon style="fill:#B2DFFF;" points="56,-22 8,-14 8,-22 56,-30 "/>
<polygon style="fill:#4795CC;" points="8,20 56,32 56,24 8,12 "/>
<polygon style="fill:#4795CC;" points="8,40 56,52 56,44 8,32 "/>
<polygon style="fill:#67B1E6;" points="56,12 8,20 8,12 56,4 "/>
<polygon style="fill:#67B1E6;" points="56,32 8,40 8,32 56,24 "/>
<polygon style="fill:#67B1E6;" points="56,52 8,60 8,52 56,44 "/>
<polygon style="fill:#67B1E6;" points="-122,-43 -86,-34 -86,-40 -122,-49 "/>
<polygon style="fill:#67B1E6;" points="-122,-28 -86,-19 -86,-25 -122,-34 "/>
<polygon style="fill:#B2DFFF;" points="-86,-49 -122,-43 -122,-49 -86,-55 "/>
<polygon style="fill:#B2DFFF;" points="-86,-34 -122,-28 -122,-34 -86,-40 "/>
<polygon style="fill:#B2DFFF;" points="-86,-19 -122,-13 -122,-19 -86,-25 "/>
<polygon style="fill:#4795CC;" points="-122,15 -86,24 -86,18 -122,9 "/>
<polygon style="fill:#4795CC;" points="-122,30 -86,39 -86,33 -122,24 "/>
<polygon style="fill:#67B1E6;" points="-86,9 -122,15 -122,9 -86,3 "/>
<polygon style="fill:#67B1E6;" points="-86,24 -122,30 -122,24 -86,18 "/>
<polygon style="fill:#67B1E6;" points="-86,39 -122,45 -122,39 -86,33 "/>
<polygon style="fill:#67B1E6;" points="-301,-27 -283,-22.5 -283,-25.5 -301,-30 "/>
<polygon style="fill:#67B1E6;" points="-301,-19.5 -283,-15 -283,-18 -301,-22.5 "/>
<polygon style="fill:#B2DFFF;" points="-283,-30 -301,-27 -301,-30 -283,-33 "/>
<polygon style="fill:#B2DFFF;" points="-283,-22.5 -301,-19.5 -301,-22.5 -283,-25.5 "/>
<polygon style="fill:#B2DFFF;" points="-283,-15 -301,-12 -301,-15 -283,-18 "/>
<polygon style="fill:#4795CC;" points="-301,7 -283,11.5 -283,8.5 -301,4 "/>
<polygon style="fill:#4795CC;" points="-301,14.5 -283,19 -283,16 -301,11.5 "/>
<polygon style="fill:#67B1E6;" points="-283,4 -301,7 -301,4 -283,1 "/>
<polygon style="fill:#67B1E6;" points="-283,11.5 -301,14.5 -301,11.5 -283,8.5 "/>
<polygon style="fill:#67B1E6;" points="-283,19 -301,22 -301,19 -283,16 "/>
<polygon style="fill:#67B1E6;" points="-220,-32 -196,-26 -196,-30 -220,-36 "/>
<polygon style="fill:#67B1E6;" points="-220,-22 -196,-16 -196,-20 -220,-26 "/>
<polygon style="fill:#B2DFFF;" points="-196,-36 -220,-32 -220,-36 -196,-40 "/>
<polygon style="fill:#B2DFFF;" points="-196,-26 -220,-22 -220,-26 -196,-30 "/>
<polygon style="fill:#B2DFFF;" points="-196,-16 -220,-12 -220,-16 -196,-20 "/>
<polygon style="fill:#4795CC;" points="-220,10 -196,16 -196,12 -220,6 "/>
<polygon style="fill:#4795CC;" points="-220,20 -196,26 -196,22 -220,16 "/>
<polygon style="fill:#67B1E6;" points="-196,6 -220,10 -220,6 -196,2 "/>
<polygon style="fill:#67B1E6;" points="-196,16 -220,20 -220,16 -196,12 "/>
<polygon style="fill:#67B1E6;" points="-196,26 -220,30 -220,26 -196,22 "/>
<polygon style="fill:#67B1E6;" points="-364,202 -340,208 -340,204 -364,198 "/>
<polygon style="fill:#67B1E6;" points="-364,212 -340,218 -340,214 -364,208 "/>
<polygon style="fill:#B2DFFF;" points="-340,198 -364,202 -364,198 -340,194 "/>
<polygon style="fill:#B2DFFF;" points="-340,208 -364,212 -364,208 -340,204 "/>
<polygon style="fill:#B2DFFF;" points="-340,218 -364,222 -364,218 -340,214 "/>
<polygon style="fill:#4795CC;" points="-364,250 -340,256 -340,252 -364,246 "/>
<polygon style="fill:#4795CC;" points="-364,260 -340,266 -340,262 -364,256 "/>
<polygon style="fill:#67B1E6;" points="-340,246 -364,250 -364,246 -340,242 "/>
<polygon style="fill:#67B1E6;" points="-340,256 -364,260 -364,256 -340,252 "/>
<polygon style="fill:#67B1E6;" points="-340,266 -364,270 -364,266 -340,262 "/>
<polygon style="fill:#67B1E6;" points="16,136 112,160 112,144 16,120 "/>
<polygon style="fill:#67B1E6;" points="16,176 112,200 112,184 16,160 "/>
<polygon style="fill:#B2DFFF;" points="112,120 16,136 16,120 112,104 "/>
<polygon style="fill:#B2DFFF;" points="112,160 16,176 16,160 112,144 "/>
<polygon style="fill:#B2DFFF;" points="112,200 16,216 16,200 112,184 "/>
<polygon style="fill:#4795CC;" points="16,280 112,304 112,288 16,264 "/>
<polygon style="fill:#4795CC;" points="16,320 112,344 112,328 16,304 "/>
<polygon style="fill:#67B1E6;" points="112,264 16,280 16,264 112,248 "/>
<polygon style="fill:#67B1E6;" points="112,304 16,320 16,304 112,288 "/>
<polygon style="fill:#67B1E6;" points="112,344 16,360 16,344 112,328 "/>
<polygon style="fill:#67B1E6;" points="-116,158 -44,176 -44,164 -116,146 "/>
<polygon style="fill:#67B1E6;" points="-116,188 -44,206 -44,194 -116,176 "/>
<polygon style="fill:#B2DFFF;" points="-44,146 -116,158 -116,146 -44,134 "/>
<polygon style="fill:#B2DFFF;" points="-44,176 -116,188 -116,176 -44,164 "/>
<polygon style="fill:#B2DFFF;" points="-44,206 -116,218 -116,206 -44,194 "/>
<polygon style="fill:#4795CC;" points="-116,270 -44,288 -44,276 -116,258 "/>
<polygon style="fill:#4795CC;" points="-116,300 -44,318 -44,306 -116,288 "/>
<polygon style="fill:#67B1E6;" points="-44,258 -116,270 -116,258 -44,246 "/>
<polygon style="fill:#67B1E6;" points="-44,288 -116,300 -116,288 -44,276 "/>
<polygon style="fill:#67B1E6;" points="-44,318 -116,330 -116,318 -44,306 "/>
<polygon style="fill:#67B1E6;" points="-216,180 -168,192 -168,184 -216,172 "/>
<polygon style="fill:#67B1E6;" points="-216,200 -168,212 -168,204 -216,192 "/>
<polygon style="fill:#B2DFFF;" points="-168,172 -216,180 -216,172 -168,164 "/>
<polygon style="fill:#B2DFFF;" points="-168,192 -216,200 -216,192 -168,184 "/>
<polygon style="fill:#B2DFFF;" points="-168,212 -216,220 -216,212 -168,204 "/>
<polygon style="fill:#4795CC;" points="-216,260 -168,272 -168,264 -216,252 "/>
<polygon style="fill:#4795CC;" points="-216,280 -168,292 -168,284 -216,272 "/>
<polygon style="fill:#67B1E6;" points="-168,252 -216,260 -216,252 -168,244 "/>
<polygon style="fill:#67B1E6;" points="-168,272 -216,280 -216,272 -168,264 "/>
<polygon style="fill:#67B1E6;" points="-168,292 -216,300 -216,292 -168,284 "/>
<polygon style="fill:#67B1E6;" points="-298,191 -262,200 -262,194 -298,185 "/>
<polygon style="fill:#67B1E6;" points="-298,206 -262,215 -262,209 -298,200 "/>
<polygon style="fill:#B2DFFF;" points="-262,185 -298,191 -298,185 -262,179 "/>
<polygon style="fill:#B2DFFF;" points="-262,200 -298,206 -298,200 -262,194 "/>
<polygon style="fill:#B2DFFF;" points="-262,215 -298,221 -298,215 -262,209 "/>
<polygon style="fill:#4795CC;" points="-298,255 -262,264 -262,258 -298,249 "/>
<polygon style="fill:#4795CC;" points="-298,270 -262,279 -262,273 -298,264 "/>
<polygon style="fill:#67B1E6;" points="-262,249 -298,255 -298,249 -262,243 "/>
<polygon style="fill:#67B1E6;" points="-262,264 -298,270 -298,264 -262,258 "/>
<polygon style="fill:#67B1E6;" points="-262,279 -298,285 -298,279 -262,273 "/>
</svg>
