<?xml version="1.0" encoding="iso-8859-1"?>
<!-- Generator: Adobe Illustrator 21.1.0, SVG Export Plug-In . SVG Version: 6.00 Build 0)  -->
<svg version="1.1" id="&#x56FE;&#x5C42;_1" xmlns="http://www.w3.org/2000/svg" xmlns:xlink="http://www.w3.org/1999/xlink" x="0px"
	 y="0px" viewBox="0 0 32 32" style="enable-background:new 0 0 32 32;" xml:space="preserve">
<text transform="matrix(1 0 0 1 -208.5 -14.9999)" style="fill:#FFFFFF; font-family:'ArialMT'; font-size:12px;">Dark</text>
<text transform="matrix(1 0 0 1 -143.5 -94.0833)" style="fill:#FFFFFF; font-family:'ArialMT'; font-size:10px;">100%</text>
<text transform="matrix(1 0 0 1 -79.5 -94.0833)" style="fill:#FFFFFF; font-family:'ArialMT'; font-size:10px;">150%</text>
<text transform="matrix(1 0 0 1 0.5 -94.0833)" style="fill:#FFFFFF; font-family:'ArialMT'; font-size:10px;">200%</text>
<text transform="matrix(1 0 0 1 96.5 -94.0833)" style="fill:#FFFFFF; font-family:'ArialMT'; font-size:10px;">300%</text>
<text transform="matrix(1 0 0 1 224.1875 -94.0833)" style="fill:#FFFFFF; font-family:'ArialMT'; font-size:10px;">400%</text>
<text transform="matrix(1 0 0 1 -208.5 259.2501)" style="fill:#FFFFFF; font-family:'ArialMT'; font-size:12px;">Dark</text>
<polygon style="fill:#F3F3F3;" points="-62,-28 -80,-28 -74,-34 -56,-34 "/>
<polygon style="fill:#BBBBBB;" points="-56,-16 -62,-10 -62,-28 -56,-34 "/>
<polygon style="fill:#F3F3F3;" points="-61,6 -80,6 -74.5,1 -56,1 "/>
<polygon style="fill:#BBBBBB;" points="-57,18.5 -62,24 -62,6 -57,1 "/>
<path style="fill:#666666;" d="M-73.887,0L-80,5.558V24h18.442L-56,17.887V0H-73.887z M-57,17.5l-5,5.5h-17V6l5.5-5H-57V17.5z"/>
<polygon style="fill:#F3F3F3;" points="-132,-22 -144,-22 -140,-26 -128,-26 "/>
<polygon style="fill:#BBBBBB;" points="-128,-14.5 -132,-10 -132,-22 -128,-26 "/>
<rect x="-112" y="5" style="fill:#D9D9D9;" width="10.5" height="11"/>
<polygon style="fill:#F3F3F3;" points="-101,5 -112.5,5 -109,2 -97.5,2 "/>
<polygon style="fill:#BBBBBB;" points="-98,13 -101.5,16.5 -101.5,5 -98,2 "/>
<path style="fill:#666666;" d="M-108.87,1L-113,4.54V17h11.914L-97,12.914V1H-108.87z M-98,12.5l-3.5,3.5H-112V5l3.5-3H-98V12.5z"/>
<polygon style="fill:#F3F3F3;" points="-119,248 -144,248 -136.5,241 -112,241 "/>
<polygon style="fill:#BBBBBB;" points="-113,264.5 -120,272 -120,248 -113,241 "/>
<path style="fill:#666666;" d="M-135.894,240l-8.106,7.565V272h24.435l7.565-8.105V240H-135.894z M-113,263.5l-7,7.5h-23v-23l7.5-7
	h22.5V263.5z"/>
<polygon style="fill:#F3F3F3;" points="-120,200 -144,200 -136,192 -112,192 "/>
<polygon style="fill:#BBBBBB;" points="-112,216 -120,224 -120,200 -112,192 "/>
<polygon style="fill:#F3F3F3;" points="-44,188 -80,188 -68,176 -32,176 "/>
<polygon style="fill:#BBBBBB;" points="-32,212 -44,224 -44,188 -32,176 "/>
<polygon style="fill:#F3F3F3;" points="-44,252 -79,252 -67,241 -33,241 "/>
<polygon style="fill:#BBBBBB;" points="-33,276 -44,287 -44,252 -33,241 "/>
<g style="display:none;">
	<defs>
		<rect id="SVGID_1_" x="-628" y="-198" width="394" height="726"/>
	</defs>
	<clipPath id="SVGID_2_" style="display:inline;">
		<use xlink:href="#SVGID_1_"  style="overflow:visible;"/>
	</clipPath>
	<g style="display:inline;clip-path:url(#SVGID_2_);">
		
			<image style="overflow:visible;" width="1920" height="1080" xlink:href="6BB01A76846A07BF.png"  transform="matrix(0.9999 0 0 0.9999 -666 -447)">
		</image>
	</g>
</g>
<path style="fill:#D9D9D9;" d="M-144-22v12h12v-12H-144z M-138-12c-2.209,0-4-1.791-4-4c0-2.209,1.791-4,4-4s4,1.791,4,4
	C-134-13.791-135.791-12-138-12z"/>
<path style="fill:#89CBFA;" d="M-141-16c0,1.657,1.343,3,3,3c1.311,0,2.414-0.846,2.822-2.018c-2.064-0.093-3.711-1.74-3.804-3.804
	C-140.154-18.414-141-17.311-141-16z"/>
<polygon style="fill:#F3F3F3;" points="-132,4 -143,4 -140,1 -129,1 "/>
<polygon style="fill:#BBBBBB;" points="-129,11.5 -132,15 -132,4 -129,1 "/>
<path style="fill:#666666;" d="M-140.414,0L-144,3.586V16h12.46l3.54-4.13V0H-140.414z M-129,11.5l-3,3.5h-11V4l3-3h11V11.5z"/>
<rect x="-169" y="-7" style="fill:#D9D9D9;" width="11" height="11.524"/>
<polygon style="fill:#F3F3F3;" points="-157.5,-7 -170,-7 -166.5,-10 -154,-10 "/>
<polygon style="fill:#BBBBBB;" points="-155,1.5 -158.5,5 -158.5,-7 -155,-10 "/>
<path style="fill:#666666;" d="M-165.87-11L-170-7.46V5h11.914L-154,0.914V-11H-165.87z M-155,0.5l-3.5,3.5H-169V-7l3.5-3h10.5V0.5z
	"/>
<circle style="fill:#D9D9D9;" cx="-164" cy="-1" r="4"/>
<path style="fill:#D9D9D9;" d="M-143,4v11h11V4H-143z M-138,14c-2.209,0-4-1.791-4-4c0-2.209,1.791-4,4-4s4,1.791,4,4
	C-134,12.209-135.791,14-138,14z"/>
<path style="fill:#4795CC;" d="M-141,10c0,1.657,1.343,3,3,3c1.311,0,2.414-0.846,2.822-2.018c-2.064-0.093-3.711-1.74-3.804-3.804
	C-140.154,7.586-141,8.689-141,10z"/>
<path style="opacity:0.1;" d="M-138.982,7.178C-140.154,7.586-141,8.689-141,10c0,1.657,1.343,3,3,3
	c1.311,0,2.414-0.846,2.822-2.018C-137.242,10.89-138.89,9.242-138.982,7.178z M-138,12c-1.103,0-2-0.897-2-2
	c0-0.419,0.134-0.815,0.367-1.144c0.503,1.269,1.507,2.273,2.776,2.776C-137.185,11.866-137.582,12-138,12z"/>
<polygon style="fill:#F3F3F3;" points="24,8 2,8 8,2 30,2 "/>
<polygon style="fill:#BBBBBB;" points="30,23 24,30 24,8 30,2 "/>
<path style="fill:#666666;" d="M7.172,0L0,7.172V32h24.92L32,23.74V0H7.172z M30,23l-6,7H2V8l6-6h22V23z"/>
<path style="fill:#D9D9D9;" d="M2,8v22h22V8H2z M12,28c-4.418,0-8-3.582-8-8c0-4.418,3.582-8,8-8s8,3.582,8,8
	C20,24.418,16.418,28,12,28z"/>
<path style="fill:#4795CC;" d="M6,20c0,3.314,2.686,6,6,6c2.622,0,4.827-1.692,5.644-4.036c-4.128-0.185-7.423-3.479-7.608-7.608
	C7.692,15.173,6,17.378,6,20z"/>
<path style="opacity:0.1;" d="M10.036,14.356C7.692,15.173,6,17.378,6,20c0,3.314,2.686,6,6,6c2.622,0,4.827-1.692,5.644-4.036
	C13.515,21.779,10.221,18.485,10.036,14.356z M12,24c-2.206,0-4-1.795-4-4c0-0.838,0.268-1.631,0.734-2.287
	c1.006,2.537,3.015,4.547,5.552,5.553C13.631,23.732,12.837,24,12,24z"/>
<polygon style="fill:#F3F3F3;" points="132,12 99,12 108,3 141,3 "/>
<polygon style="fill:#BBBBBB;" points="141,34.5 132,45 132,12 141,3 "/>
<path style="fill:#666666;" d="M106.758,0L96,10.758V48h37.38L144,35.61V0H106.758z M141,34.5L132,45H99V12l9-9h33V34.5z"/>
<path style="fill:#D9D9D9;" d="M99,12v33h33V12H99z M114,42c-6.628,0-12-5.373-12-12c0-6.628,5.372-12,12-12s12,5.372,12,12
	C126,36.627,120.628,42,114,42z"/>
<path style="fill:#4795CC;" d="M105,30c0,4.971,4.029,9,9,9c3.933,0,7.241-2.539,8.466-6.054
	c-6.193-0.278-11.134-5.219-11.412-11.412C107.539,22.759,105,26.067,105,30z"/>
<path style="opacity:0.1;" d="M111.054,21.534C107.539,22.759,105,26.067,105,30c0,4.971,4.029,9,9,9
	c3.933,0,7.241-2.539,8.466-6.054C116.273,32.669,111.331,27.727,111.054,21.534z M114,36c-3.309,0-6-2.692-6-6
	c0-1.257,0.401-2.446,1.102-3.431c1.509,3.806,4.522,6.82,8.328,8.329C116.446,35.599,115.255,36,114,36z"/>
<polygon style="fill:#F3F3F3;" points="272,16 228,16 240,4 284,4 "/>
<polygon style="fill:#BBBBBB;" points="284,46 272,60 272,16 284,4 "/>
<path style="fill:#666666;" d="M238.344,0L224,14.344V64h49.84L288,47.48V0H238.344z M284,46l-12,14h-44V16l12-12h44V46z"/>
<path style="fill:#D9D9D9;" d="M228,16v44h44V16H228z M248,56c-8.837,0-16-7.164-16-16c0-8.837,7.163-16,16-16s16,7.163,16,16
	C264,48.836,256.837,56,248,56z"/>
<path style="fill:#4795CC;" d="M236,40c0,6.627,5.373,12,12,12c5.244,0,9.654-3.385,11.287-8.072
	c-8.257-0.37-14.845-6.959-15.216-15.216C239.385,30.346,236,34.756,236,40z"/>
<path style="opacity:0.1;" d="M244.072,28.713C239.385,30.346,236,34.756,236,40c0,6.627,5.373,12,12,12
	c5.244,0,9.654-3.385,11.287-8.072C251.031,43.558,244.442,36.969,244.072,28.713z M248,48c-4.412,0-8-3.59-8-8
	c0-1.676,0.535-3.262,1.469-4.574c2.012,5.074,6.029,9.094,11.104,11.105C251.262,47.465,249.674,48,248,48z"/>
<polygon style="fill:#F3F3F3;" points="272,-58 224,-58 240,-74 288,-74 "/>
<polygon style="fill:#BBBBBB;" points="288,-28 272,-10 272,-58 288,-74 "/>
<path style="fill:#D9D9D9;" d="M224-58v48h48v-48H224z M248-18c-8.837,0-16-7.164-16-16c0-8.837,7.163-16,16-16s16,7.163,16,16
	C264-25.164,256.837-18,248-18z"/>
<path style="fill:#89CBFA;" d="M236-34c0,6.627,5.373,12,12,12c5.244,0,9.654-3.385,11.287-8.072
	c-8.257-0.37-14.845-6.959-15.216-15.216C239.385-43.654,236-39.244,236-34z"/>
<polygon style="fill:#F3F3F3;" points="132,-46 96,-46 108,-58 144,-58 "/>
<polygon style="fill:#BBBBBB;" points="144,-23.5 132,-10 132,-46 144,-58 "/>
<path style="fill:#D9D9D9;" d="M96-46v36h36v-36H96z M114-16c-6.628,0-12-5.373-12-12c0-6.628,5.372-12,12-12s12,5.372,12,12
	C126-21.373,120.628-16,114-16z"/>
<path style="fill:#89CBFA;" d="M105-28c0,4.971,4.029,9,9,9c3.933,0,7.241-2.539,8.466-6.054
	c-6.193-0.278-11.134-5.219-11.412-11.412C107.539-35.241,105-31.933,105-28z"/>
<polygon style="fill:#F3F3F3;" points="24,-34 0,-34 8,-42 32,-42 "/>
<polygon style="fill:#BBBBBB;" points="32,-19 24,-10 24,-34 32,-42 "/>
<path style="fill:#D9D9D9;" d="M0-34v24h24v-24H0z M12-14c-4.418,0-8-3.582-8-8c0-4.418,3.582-8,8-8s8,3.582,8,8
	C20-17.582,16.418-14,12-14z"/>
<path style="fill:#89CBFA;" d="M6-22c0,3.314,2.686,6,6,6c2.622,0,4.827-1.692,5.644-4.036c-4.128-0.185-7.423-3.479-7.608-7.608
	C7.692-26.827,6-24.622,6-22z"/>
<path style="fill:#D9D9D9;" d="M-80-28v18h18v-18H-80z M-71-13c-3.314,0-6-2.686-6-6s2.686-6,6-6s6,2.686,6,6S-67.686-13-71-13z"/>
<path style="fill:#89CBFA;" d="M-76-19c0,2.761,2.239,5,5,5c2.421,0,4.438-1.72,4.9-4.005c-3.233-0.054-5.841-2.661-5.895-5.895
	C-74.28-23.438-76-21.421-76-19z"/>
<rect x="-110" y="-26" style="fill:#D9D9D9;" width="18" height="18"/>
<circle style="fill:#D9D9D9;" cx="-101" cy="-17" r="6"/>
<path style="fill:#89CBFA;" d="M-106-17c0,2.761,2.239,5,5,5c2.421,0,4.438-1.72,4.9-4.005c-3.233-0.054-5.841-2.661-5.895-5.895
	C-104.28-21.438-106-19.421-106-17z"/>
<path style="fill:#D9D9D9;" d="M-79,6v17h17V6H-79z M-71,21c-3.314,0-6-2.686-6-6s2.686-6,6-6s6,2.686,6,6S-67.686,21-71,21z"/>
<path style="fill:#4795CC;" d="M-76,15c0,2.761,2.239,5,5,5c2.421,0,4.438-1.72,4.9-4.005c-3.233-0.054-5.841-2.661-5.895-5.895
	C-74.28,10.562-76,12.579-76,15z"/>
<path style="opacity:0.1;" d="M-71.995,10.1C-74.28,10.562-76,12.579-76,15c0,2.761,2.239,5,5,5c2.421,0,4.438-1.72,4.9-4.005
	C-69.334,15.941-71.941,13.334-71.995,10.1z M-71,19c-2.206,0-4-1.794-4-4c0-1.516,0.86-2.873,2.153-3.548
	c0.564,2.713,2.682,4.83,5.395,5.395C-68.127,18.14-69.484,19-71,19z"/>
<path style="fill:#D9D9D9;" d="M-144,200v24h24v-24H-144z M-132,220c-4.418,0-8-3.582-8-8s3.582-8,8-8s8,3.582,8,8
	S-127.582,220-132,220z"/>
<path style="fill:#D9D9D9;" d="M-143,248v23h23v-23H-143z M-132,268c-4.418,0-8-3.582-8-8s3.582-8,8-8s8,3.582,8,8
	S-127.582,268-132,268z"/>
<path style="fill:#D9D9D9;" d="M-80,188v36h36v-36H-80z M-62,218c-6.627,0-12-5.373-12-12c0-6.627,5.373-12,12-12
	c6.627,0,12,5.373,12,12C-50,212.627-55.373,218-62,218z"/>
<path style="fill:#D9D9D9;" d="M-79,252v35h35v-35H-79z M-62,282c-6.627,0-12-5.373-12-12c0-6.627,5.373-12,12-12
	c6.627,0,12,5.373,12,12C-50,276.627-55.373,282-62,282z"/>
<path style="fill:#666666;" d="M-67.389,240L-80,251.561V288h36.414L-32,276.414V240H-67.389z M-33,276l-11,11h-35v-35l12-11h34V276
	z"/>
<path style="fill:#89CBFA;" d="M-52,208c-6.627,0-12-5.373-12-12c0-0.275,0.016-0.546,0.038-0.815C-69.1,196.111-73,200.596-73,206
	c0,6.075,4.925,11,11,11c5.404,0,9.889-3.9,10.815-9.038C-51.454,207.984-51.725,208-52,208z"/>
<path style="fill:#4795CC;" d="M-52,272c-6.627,0-12-5.373-12-12c0-0.275,0.016-0.546,0.038-0.815C-69.1,260.111-73,264.596-73,270
	c0,6.075,4.925,11,11,11c5.404,0,9.889-3.9,10.815-9.038C-51.454,271.984-51.725,272-52,272z"/>
<path style="opacity:0.1;" d="M-52,272c-6.627,0-12-5.373-12-12c0-0.275,0.016-0.546,0.038-0.815C-69.1,260.111-73,264.596-73,270
	c0,6.075,4.925,11,11,11c5.404,0,9.889-3.9,10.815-9.038C-51.454,271.984-51.725,272-52,272z M-62,280c-5.514,0-10-4.486-10-10
	c0-4.418,2.882-8.25,7.008-9.536c0.24,6.801,5.728,12.288,12.528,12.528C-53.75,277.118-57.582,280-62,280z"/>
<path style="fill:#89CBFA;" d="M-132.996,205.079c-3.393,0.485-6.004,3.394-6.004,6.921c0,3.866,3.134,7,7,7
	c3.527,0,6.436-2.611,6.921-6.004C-129.434,212.953-132.953,209.434-132.996,205.079z"/>
<path style="fill:#4795CC;" d="M-132.996,253.079c-3.393,0.485-6.004,3.394-6.004,6.921c0,3.866,3.134,7,7,7
	c3.527,0,6.436-2.611,6.921-6.004C-129.434,260.953-132.953,257.434-132.996,253.079z"/>
<path style="opacity:0.1;" d="M-132.996,253.079c-3.393,0.485-6.004,3.394-6.004,6.921c0,3.866,3.134,7,7,7
	c3.527,0,6.436-2.611,6.921-6.004C-129.434,260.953-132.953,257.434-132.996,253.079z M-132,266c-3.309,0-6-2.691-6-6
	c0-2.599,1.703-4.881,4.101-5.684c0.581,3.889,3.694,7.002,7.583,7.583C-127.12,264.298-129.401,266-132,266z"/>
<polygon style="fill:#F3F3F3;" points="320,128 224,128 256,96 352,96 "/>
<polygon style="fill:#BBBBBB;" points="352,192 320,224 320,128 352,96 "/>
<path style="fill:#D9D9D9;" d="M224,128v96h96v-96H224z M272,208c-17.673,0-32-14.327-32-32s14.327-32,32-32s32,14.327,32,32
	S289.673,208,272,208z"/>
<path style="fill:#89CBFA;" d="M268.016,148.316C254.444,150.254,244,161.892,244,176c0,15.464,12.536,28,28,28
	c14.108,0,25.745-10.444,27.684-24.016C282.264,179.814,268.186,165.736,268.016,148.316z"/>
<polygon style="fill:#F3F3F3;" points="168,152 96,152 120,128 192,128 "/>
<polygon style="fill:#BBBBBB;" points="192,200 168,224 168,152 192,128 "/>
<path style="fill:#D9D9D9;" d="M96,152v72h72v-72H96z M132,212c-13.255,0-24-10.745-24-24s10.745-24,24-24s24,10.745,24,24
	S145.255,212,132,212z"/>
<path style="fill:#89CBFA;" d="M129.012,167.237C118.833,168.691,111,177.419,111,188c0,11.598,9.402,21,21,21
	c10.581,0,19.309-7.833,20.763-18.012C139.698,190.86,129.14,180.302,129.012,167.237z"/>
<polygon style="fill:#F3F3F3;" points="48,176 0,176 16,160 64,160 "/>
<polygon style="fill:#BBBBBB;" points="64,208 48,224 48,176 64,160 "/>
<path style="fill:#D9D9D9;" d="M0,176v48h48v-48H0z M24,216c-8.837,0-16-7.163-16-16s7.163-16,16-16s16,7.163,16,16
	S32.837,216,24,216z"/>
<path style="fill:#89CBFA;" d="M22.008,186.158C15.222,187.127,10,192.946,10,200c0,7.732,6.268,14,14,14
	c7.054,0,12.873-5.222,13.842-12.008C29.132,201.907,22.093,194.868,22.008,186.158z"/>
<path style="fill:#666666;" d="M-132,251c-4.962,0-9,4.037-9,9s4.038,9,9,9c4.963,0,9-4.037,9-9S-127.037,251-132,251z M-132,268
	c-4.418,0-8-3.582-8-8s3.582-8,8-8s8,3.582,8,8S-127.582,268-132,268z"/>
<polygon style="fill:#F3F3F3;" points="324,272 224,272 254,244 352,244 "/>
<polygon style="fill:#BBBBBB;" points="348,338 320,368 320,272 348,244 "/>
<path style="fill:#666666;" d="M256.424,240L224,270.262V368h97.738L352,335.578V240H256.424z M348,334l-28,30h-92v-92l30-28h90V334
	z"/>
<path style="fill:#D9D9D9;" d="M228,272v92h92v-92H228z M272,352c-17.673,0-32-14.327-32-32s14.327-32,32-32s32,14.327,32,32
	S289.673,352,272,352z"/>
<path style="fill:#4795CC;" d="M268.016,292.316C254.444,294.254,244,305.892,244,320c0,15.464,12.536,28,28,28
	c14.108,0,25.745-10.444,27.684-24.016C282.264,323.814,268.186,309.736,268.016,292.316z"/>
<path style="opacity:0.1;" d="M268.016,292.316C254.444,294.254,244,305.892,244,320c0,15.464,12.536,28,28,28
	c14.108,0,25.745-10.444,27.684-24.016C282.264,323.814,268.186,309.736,268.016,292.316z M272,344c-13.234,0-24-10.766-24-24
	c0-10.395,6.811-19.523,16.402-22.734c2.324,15.555,14.777,28.008,30.332,30.332C291.52,337.191,282.395,344,272,344z"/>
<path style="fill:#666666;" d="M272,284c-19.85,0-36,16.148-36,36s16.15,36,36,36c19.852,0,36-16.148,36-36S291.852,284,272,284z
	 M272,352c-17.673,0-32-14.327-32-32s14.327-32,32-32s32,14.327,32,32S289.673,352,272,352z"/>
<polygon style="fill:#F3F3F3;" points="171,264 96,264 118.5,243 192,243 "/>
<polygon style="fill:#BBBBBB;" points="189,313.5 168,336 168,264 189,243 "/>
<path style="fill:#666666;" d="M120.318,240L96,262.696V336h73.304L192,311.684V240H120.318z M189,310.5L168,333H99v-69l22.5-21H189
	V310.5z"/>
<path style="fill:#D9D9D9;" d="M99,264v69h69v-69H99z M132,324c-13.255,0-24-10.745-24-24s10.745-24,24-24s24,10.745,24,24
	S145.255,324,132,324z"/>
<path style="fill:#4795CC;" d="M129.012,279.237C118.833,280.691,111,289.419,111,300c0,11.598,9.402,21,21,21
	c10.581,0,19.309-7.833,20.763-18.012C139.698,302.86,129.14,292.302,129.012,279.237z"/>
<path style="opacity:0.1;" d="M129.012,279.237C118.833,280.691,111,289.419,111,300c0,11.598,9.402,21,21,21
	c10.581,0,19.309-7.833,20.763-18.012C139.698,302.86,129.14,292.302,129.012,279.237z M132,318c-9.926,0-18-8.074-18-18
	c0-7.796,5.108-14.643,12.302-17.051c1.743,11.666,11.083,21.006,22.749,22.749C146.64,312.894,139.796,318,132,318z"/>
<path style="fill:#666666;" d="M132,273c-14.887,0-27,12.111-27,27s12.113,27,27,27c14.889,0,27-12.111,27-27S146.889,273,132,273z
	 M132,324c-13.255,0-24-10.745-24-24s10.745-24,24-24s24,10.745,24,24S145.255,324,132,324z"/>
<polygon style="fill:#F3F3F3;" points="50,256 0,256 15,242 64,242 "/>
<polygon style="fill:#BBBBBB;" points="62,289 48,304 48,256 62,242 "/>
<path style="fill:#666666;" d="M16.212,240L0,255.131V304h48.869L64,287.789V240H16.212z M62,287l-14,15H2v-46l15-14h45V287z"/>
<path style="fill:#D9D9D9;" d="M2,256v46h46v-46H2z M24,296c-8.837,0-16-7.163-16-16s7.163-16,16-16s16,7.163,16,16
	S32.837,296,24,296z"/>
<path style="fill:#4795CC;" d="M22.008,266.158C15.222,267.127,10,272.946,10,280c0,7.732,6.268,14,14,14
	c7.054,0,12.873-5.222,13.842-12.008C29.132,281.907,22.093,274.868,22.008,266.158z"/>
<path style="opacity:0.1;" d="M22.008,266.158C15.222,267.127,10,272.946,10,280c0,7.732,6.268,14,14,14
	c7.054,0,12.873-5.222,13.842-12.008C29.132,281.907,22.093,274.868,22.008,266.158z M24,292c-6.617,0-12-5.383-12-12
	c0-5.197,3.405-9.762,8.201-11.367c1.162,7.777,7.389,14.004,15.166,15.166C33.76,288.596,29.197,292,24,292z"/>
<path style="fill:#666666;" d="M24,262c-9.925,0-18,8.074-18,18s8.075,18,18,18c9.926,0,18-8.074,18-18S33.926,262,24,262z M24,296
	c-8.837,0-16-7.163-16-16s7.163-16,16-16s16,7.163,16,16S32.837,296,24,296z"/>
<path style="fill:#666666;" d="M-62,257c-7.168,0-13,5.832-13,13s5.832,13,13,13s13-5.832,13-13S-54.832,257-62,257z M-62,282
	c-6.627,0-12-5.373-12-12c0-6.627,5.373-12,12-12s12,5.373,12,12C-50,276.627-55.373,282-62,282z"/>
</svg>
