<?xml version="1.0" encoding="iso-8859-1"?>
<!-- Generator: Adobe Illustrator 21.1.0, SVG Export Plug-In . SVG Version: 6.00 Build 0)  -->
<svg version="1.1" id="&#x56FE;&#x5C42;_1" xmlns="http://www.w3.org/2000/svg" xmlns:xlink="http://www.w3.org/1999/xlink" x="0px"
	 y="0px" viewBox="0 0 16 16" style="enable-background:new 0 0 16 16;" xml:space="preserve">
<circle style="fill:#67B1E6;" cx="76" cy="-5" r="3"/>
<circle style="opacity:0.1;" cx="76" cy="-5" r="3"/>
<circle style="fill:#67B1E6;" cx="76" cy="-5" r="2"/>
<circle style="fill:#67B1E6;" cx="76" cy="13" r="3"/>
<circle style="opacity:0.1;" cx="76" cy="13" r="3"/>
<circle style="fill:#67B1E6;" cx="76" cy="13" r="2"/>
<circle style="fill:#666666;" cx="68" cy="0" r="3"/>
<circle style="fill:#F3F3F3;" cx="68" cy="0" r="2"/>
<circle style="fill:#67B1E6;" cx="68" cy="8" r="3"/>
<circle style="opacity:0.1;" cx="68" cy="8" r="3"/>
<circle style="fill:#67B1E6;" cx="68" cy="8" r="2"/>
<circle style="fill:#67B1E6;" cx="84" cy="0" r="3"/>
<circle style="opacity:0.1;" cx="84" cy="0" r="3"/>
<circle style="fill:#67B1E6;" cx="84" cy="0" r="2"/>
<circle style="fill:#67B1E6;" cx="84" cy="8" r="3"/>
<circle style="opacity:0.1;" cx="84" cy="8" r="3"/>
<circle style="fill:#67B1E6;" cx="84" cy="8" r="2"/>
<circle style="fill:#89CBFA;" cx="76" cy="29" r="3"/>
<circle style="fill:#89CBFA;" cx="76" cy="47" r="3"/>
<circle style="fill:#F3F3F3;" cx="68" cy="34" r="3"/>
<circle style="fill:#89CBFA;" cx="68" cy="42" r="3"/>
<circle style="fill:#89CBFA;" cx="84" cy="34" r="3"/>
<circle style="fill:#89CBFA;" cx="84" cy="42" r="3"/>
<g id="&#x56FE;&#x5C42;_128">
	<text transform="matrix(1 0 0 1 -64.5 38.2501)" style="font-family:'ArialMT'; font-size:12px;">Dark</text>
</g>
<g id="&#x56FE;&#x5C42;_127">
	<text transform="matrix(1 0 0 1 0.5 -68.0833)" style="fill:#FFFFFF; font-family:'ArialMT'; font-size:10px;">100%</text>
</g>
<g id="&#x56FE;&#x5C42;_126">
	<text transform="matrix(1 0 0 1 64.5 -68.0833)" style="fill:#FFFFFF; font-family:'ArialMT'; font-size:10px;">150%</text>
</g>
<g id="&#x56FE;&#x5C42;_125">
	<text transform="matrix(1 0 0 1 144.5 -68.0833)" style="fill:#FFFFFF; font-family:'ArialMT'; font-size:10px;">200%</text>
</g>
<g id="&#x56FE;&#x5C42;_124">
	<text transform="matrix(1 0 0 1 240.5 -68.0833)" style="fill:#FFFFFF; font-family:'ArialMT'; font-size:10px;">300%</text>
</g>
<g id="&#x56FE;&#x5C42;_123">
	<text transform="matrix(1 0 0 1 368.1875 -68.0833)" style="fill:#FFFFFF; font-family:'ArialMT'; font-size:10px;">400%</text>
</g>
<g id="&#x56FE;&#x5C42;_122">
	<text transform="matrix(1 0 0 1 -64.5 285.2501)" style="font-family:'ArialMT'; font-size:12px;">Dark</text>
</g>
<g id="&#x56FE;&#x5C42;_121">
</g>
<g id="&#x56FE;&#x5C42;_120">
</g>
<g id="&#x56FE;&#x5C42;_119">
</g>
<g id="&#x56FE;&#x5C42;_118">
</g>
<g id="&#x56FE;&#x5C42;_117">
</g>
<g id="&#x56FE;&#x5C42;_116">
</g>
<g id="&#x56FE;&#x5C42;_115">
</g>
<g id="&#x56FE;&#x5C42;_114">
</g>
<g id="&#x56FE;&#x5C42;_113">
</g>
<g id="&#x56FE;&#x5C42;_112">
	<g>
		<circle style="fill:#67B1E6;" cx="8" cy="2" r="2"/>
		<circle style="opacity:0.1;" cx="8" cy="2" r="2"/>
		<circle style="fill:#67B1E6;" cx="8" cy="2" r="1"/>
		<circle style="fill:#666666;" cx="3" cy="5" r="2"/>
		<circle style="fill:#F3F3F3;" cx="3" cy="5" r="1"/>
		<circle style="fill:#67B1E6;" cx="3" cy="10" r="2"/>
		<circle style="opacity:0.1;" cx="3" cy="10" r="2"/>
		<circle style="fill:#67B1E6;" cx="3" cy="10" r="1"/>
		<circle style="fill:#67B1E6;" cx="13" cy="5" r="2"/>
		<circle style="opacity:0.1;" cx="13" cy="5" r="2"/>
		<circle style="fill:#67B1E6;" cx="13" cy="5" r="1"/>
		<circle style="fill:#67B1E6;" cx="13" cy="10" r="2"/>
		<circle style="opacity:0.1;" cx="13" cy="10" r="2"/>
		<circle style="fill:#67B1E6;" cx="13" cy="10" r="1"/>
		<circle style="fill:#67B1E6;" cx="8" cy="13" r="2"/>
		<circle style="opacity:0.1;" cx="8" cy="13" r="2"/>
		<circle style="fill:#67B1E6;" cx="8" cy="13" r="1"/>
	</g>
	<g>
		<circle style="fill:#89CBFA;" cx="8" cy="28" r="2"/>
		<circle style="fill:#D9D9D9;" cx="3" cy="31" r="2"/>
		<circle style="fill:#89CBFA;" cx="3" cy="36" r="2"/>
		<circle style="fill:#89CBFA;" cx="13" cy="31" r="2"/>
		<circle style="fill:#89CBFA;" cx="13" cy="36" r="2"/>
		<circle style="fill:#89CBFA;" cx="8" cy="39" r="2"/>
	</g>
	<circle style="fill:#67B1E6;" cx="160" cy="-11" r="4"/>
	<circle style="opacity:0.1;" cx="160" cy="-11" r="4"/>
	<circle style="fill:#67B1E6;" cx="160" cy="-11" r="2"/>
	<circle style="fill:#666666;" cx="150" cy="-5" r="4"/>
	<circle style="fill:#F3F3F3;" cx="150" cy="-5" r="2"/>
	<circle style="fill:#67B1E6;" cx="150" cy="5" r="4"/>
	<circle style="opacity:0.1;" cx="150" cy="5" r="4"/>
	<circle style="fill:#67B1E6;" cx="150" cy="5" r="2"/>
	<circle style="fill:#67B1E6;" cx="170" cy="-5" r="4"/>
	<circle style="opacity:0.1;" cx="170" cy="-5" r="4"/>
	<circle style="fill:#67B1E6;" cx="170" cy="-5" r="2"/>
	<circle style="fill:#67B1E6;" cx="170" cy="5" r="4"/>
	<circle style="opacity:0.1;" cx="170" cy="5" r="4"/>
	<circle style="fill:#67B1E6;" cx="170" cy="5" r="2"/>
	<circle style="fill:#67B1E6;" cx="160" cy="11" r="4"/>
	<circle style="opacity:0.1;" cx="160" cy="11" r="4"/>
	<circle style="fill:#67B1E6;" cx="160" cy="11" r="2"/>
	<circle style="fill:#67B1E6;" cx="264" cy="-25" r="6"/>
	<circle style="opacity:0.1;" cx="264" cy="-25" r="6"/>
	<circle style="fill:#67B1E6;" cx="264" cy="-25" r="3"/>
	<circle style="fill:#666666;" cx="249" cy="-16" r="6"/>
	<circle style="fill:#F3F3F3;" cx="249" cy="-16" r="3"/>
	<circle style="fill:#67B1E6;" cx="249" cy="-1" r="6"/>
	<circle style="opacity:0.1;" cx="249" cy="-1" r="6"/>
	<circle style="fill:#67B1E6;" cx="249" cy="-1" r="3"/>
	<circle style="fill:#67B1E6;" cx="279" cy="-16" r="6"/>
	<circle style="opacity:0.1;" cx="279" cy="-16" r="6"/>
	<circle style="fill:#67B1E6;" cx="279" cy="-16" r="3"/>
	<circle style="fill:#67B1E6;" cx="279" cy="-1" r="6"/>
	<circle style="opacity:0.1;" cx="279" cy="-1" r="6"/>
	<circle style="fill:#67B1E6;" cx="279" cy="-1" r="3"/>
	<circle style="fill:#67B1E6;" cx="264" cy="8" r="6"/>
	<circle style="opacity:0.1;" cx="264" cy="8" r="6"/>
	<circle style="fill:#67B1E6;" cx="264" cy="8" r="3"/>
	<circle style="fill:#67B1E6;" cx="400" cy="-38" r="8"/>
	<circle style="opacity:0.1;" cx="400" cy="-38" r="8"/>
	<circle style="fill:#67B1E6;" cx="400" cy="-38" r="4"/>
	<circle style="fill:#666666;" cx="380" cy="-26" r="8"/>
	<circle style="fill:#F3F3F3;" cx="380" cy="-26" r="4"/>
	<circle style="fill:#67B1E6;" cx="380" cy="-6" r="8"/>
	<circle style="opacity:0.1;" cx="380" cy="-6" r="8"/>
	<circle style="fill:#67B1E6;" cx="380" cy="-6" r="4"/>
	<circle style="fill:#67B1E6;" cx="420" cy="-26" r="8"/>
	<circle style="opacity:0.1;" cx="420" cy="-26" r="8"/>
	<circle style="fill:#67B1E6;" cx="420" cy="-26" r="4"/>
	<circle style="fill:#67B1E6;" cx="420" cy="-6" r="8"/>
	<circle style="opacity:0.1;" cx="420" cy="-6" r="8"/>
	<circle style="fill:#67B1E6;" cx="420" cy="-6" r="4"/>
	<circle style="fill:#67B1E6;" cx="400" cy="6" r="8"/>
	<circle style="opacity:0.1;" cx="400" cy="6" r="8"/>
	<circle style="fill:#67B1E6;" cx="400" cy="6" r="4"/>
	<g>
		<circle style="fill:#89CBFA;" cx="160" cy="31" r="4"/>
		<circle style="fill:#D9D9D9;" cx="150" cy="37" r="4"/>
		<circle style="fill:#89CBFA;" cx="150" cy="47" r="4"/>
		<circle style="fill:#89CBFA;" cx="170" cy="37" r="4"/>
		<circle style="fill:#89CBFA;" cx="170" cy="47" r="4"/>
		<circle style="fill:#89CBFA;" cx="160" cy="53" r="4"/>
	</g>
	<g>
		<circle style="fill:#89CBFA;" cx="16" cy="270" r="4"/>
		<circle style="fill:#D9D9D9;" cx="6" cy="277" r="4"/>
		<circle style="fill:#89CBFA;" cx="6" cy="287" r="4"/>
		<circle style="fill:#89CBFA;" cx="26" cy="277" r="4"/>
		<circle style="fill:#89CBFA;" cx="26" cy="287" r="4"/>
		<circle style="fill:#89CBFA;" cx="16" cy="294" r="4"/>
	</g>
	<g>
		<circle style="fill:#67B1E6;" cx="16" cy="222" r="4"/>
		<circle style="opacity:0.1;" cx="16" cy="222" r="4"/>
		<circle style="fill:#67B1E6;" cx="16" cy="222" r="3"/>
		<circle style="fill:#666666;" cx="6" cy="229" r="4"/>
		<circle style="fill:#F3F3F3;" cx="6" cy="229" r="3"/>
		<circle style="fill:#67B1E6;" cx="26" cy="229" r="4"/>
		<circle style="opacity:0.1;" cx="26" cy="229" r="4"/>
		<circle style="fill:#67B1E6;" cx="26" cy="229" r="3"/>
		<circle style="fill:#67B1E6;" cx="26" cy="239" r="4"/>
		<circle style="opacity:0.1;" cx="26" cy="239" r="4"/>
		<circle style="fill:#67B1E6;" cx="26" cy="239" r="3"/>
		<circle style="fill:#67B1E6;" cx="16" cy="246" r="4"/>
		<circle style="opacity:0.1;" cx="16" cy="246" r="4"/>
		<circle style="fill:#67B1E6;" cx="16" cy="246" r="3"/>
		<circle style="fill:#67B1E6;" cx="6" cy="239" r="4"/>
		<circle style="opacity:0.1;" cx="6" cy="239" r="4"/>
		<circle style="fill:#67B1E6;" cx="6" cy="239" r="3"/>
	</g>
	<circle style="fill:#67B1E6;" cx="87.5" cy="208.5" r="6.5"/>
	<circle style="opacity:0.1;" cx="87.5" cy="208.5" r="6.5"/>
	<circle style="fill:#67B1E6;" cx="87.5" cy="208.5" r="5.5"/>
	<circle style="fill:#67B1E6;" cx="87.5" cy="243.5" r="6.5"/>
	<circle style="opacity:0.1;" cx="87.5" cy="243.5" r="6.5"/>
	<circle style="fill:#67B1E6;" cx="87.5" cy="243.5" r="5.5"/>
	<circle style="fill:#67B1E6;" cx="102.5" cy="218.5" r="6.5"/>
	<circle style="opacity:0.1;" cx="102.5" cy="218.5" r="6.5"/>
	<circle style="fill:#67B1E6;" cx="102.5" cy="218.5" r="5.5"/>
	<circle style="fill:#67B1E6;" cx="103.5" cy="233.5" r="6.5"/>
	<circle style="opacity:0.1;" cx="103.5" cy="233.5" r="6.5"/>
	<circle style="fill:#67B1E6;" cx="103.5" cy="233.5" r="5.5"/>
	<circle style="fill:#666666;" cx="72.5" cy="218.5" r="6.5"/>
	<circle style="fill:#F3F3F3;" cx="72.5" cy="218.5" r="5.5"/>
	<circle style="fill:#67B1E6;" cx="73.5" cy="233.5" r="6.5"/>
	<circle style="opacity:0.1;" cx="73.5" cy="233.5" r="6.5"/>
	<circle style="fill:#67B1E6;" cx="73.5" cy="233.5" r="5.5"/>
	<circle style="fill:#D9D9D9;" cx="72.5" cy="282.5" r="6.5"/>
	<g>
		<circle style="fill:#89CBFA;" cx="103.5" cy="297.5" r="6.5"/>
		<circle style="fill:#89CBFA;" cx="87.5" cy="272.5" r="6.5"/>
		<circle style="fill:#89CBFA;" cx="87.5" cy="307.5" r="6.5"/>
		<circle style="fill:#89CBFA;" cx="102.5" cy="282.5" r="6.5"/>
		<circle style="fill:#89CBFA;" cx="73.5" cy="297.5" r="6.5"/>
	</g>
	<g>
		<circle style="fill:#89CBFA;" cx="400" cy="36" r="8"/>
		<circle style="fill:#D9D9D9;" cx="380" cy="48" r="8"/>
		<circle style="fill:#89CBFA;" cx="380" cy="68" r="8"/>
		<circle style="fill:#89CBFA;" cx="420" cy="48" r="8"/>
		<circle style="fill:#89CBFA;" cx="420" cy="68" r="8"/>
		<circle style="fill:#89CBFA;" cx="400" cy="80" r="8"/>
	</g>
	<g>
		<circle style="fill:#67B1E6;" cx="176" cy="194" r="8"/>
		<circle style="opacity:0.1;" cx="176" cy="194" r="8"/>
		<circle style="fill:#67B1E6;" cx="176" cy="194" r="6"/>
		<circle style="fill:#666666;" cx="156" cy="208" r="8"/>
		<circle style="fill:#F3F3F3;" cx="156" cy="208" r="6"/>
		<circle style="fill:#67B1E6;" cx="196" cy="208" r="8"/>
		<circle style="opacity:0.1;" cx="196" cy="208" r="8"/>
		<circle style="fill:#67B1E6;" cx="196" cy="208" r="6"/>
		<circle style="fill:#67B1E6;" cx="196" cy="228" r="8"/>
		<circle style="opacity:0.1;" cx="196" cy="228" r="8"/>
		<circle style="fill:#67B1E6;" cx="196" cy="228" r="6"/>
		<circle style="fill:#67B1E6;" cx="176" cy="242" r="8"/>
		<circle style="opacity:0.1;" cx="176" cy="242" r="8"/>
		<circle style="fill:#67B1E6;" cx="176" cy="242" r="6"/>
		<circle style="fill:#67B1E6;" cx="156" cy="228" r="8"/>
		<circle style="opacity:0.1;" cx="156" cy="228" r="8"/>
		<circle style="fill:#67B1E6;" cx="156" cy="228" r="6"/>
	</g>
	<g>
		<circle style="fill:#67B1E6;" cx="288" cy="166" r="12"/>
		<circle style="opacity:0.1;" cx="288" cy="166" r="12"/>
		<circle style="fill:#67B1E6;" cx="288" cy="166" r="9"/>
		<circle style="fill:#666666;" cx="258" cy="187" r="12"/>
		<circle style="fill:#F3F3F3;" cx="258" cy="187" r="9"/>
		<circle style="fill:#67B1E6;" cx="318" cy="187" r="12"/>
		<circle style="opacity:0.1;" cx="318" cy="187" r="12"/>
		<circle style="fill:#67B1E6;" cx="318" cy="187" r="9"/>
		<circle style="fill:#67B1E6;" cx="318" cy="217" r="12"/>
		<circle style="opacity:0.1;" cx="318" cy="217" r="12"/>
		<circle style="fill:#67B1E6;" cx="318" cy="217" r="9"/>
		<circle style="fill:#67B1E6;" cx="288" cy="238" r="12"/>
		<circle style="opacity:0.1;" cx="288" cy="238" r="12"/>
		<circle style="fill:#67B1E6;" cx="288" cy="238" r="9"/>
		<circle style="fill:#67B1E6;" cx="258" cy="217" r="12"/>
		<circle style="opacity:0.1;" cx="258" cy="217" r="12"/>
		<circle style="fill:#67B1E6;" cx="258" cy="217" r="9"/>
	</g>
	<g>
		<circle style="fill:#67B1E6;" cx="432" cy="138" r="16"/>
		<circle style="opacity:0.1;" cx="432" cy="138" r="16"/>
		<path style="fill:#67B1E6;" d="M432,150c-6.617,0-12-5.383-12-12s5.383-12,12-12s12,5.383,12,12S438.617,150,432,150z"/>
		<circle style="fill:#666666;" cx="392" cy="166" r="16"/>
		<path style="fill:#F3F3F3;" d="M392,178c-6.617,0-12-5.383-12-12s5.383-12,12-12s12,5.383,12,12S398.617,178,392,178z"/>
		<circle style="fill:#67B1E6;" cx="472" cy="166" r="16"/>
		<circle style="opacity:0.1;" cx="472" cy="166" r="16"/>
		<path style="fill:#67B1E6;" d="M472,178c-6.617,0-12-5.383-12-12s5.383-12,12-12s12,5.383,12,12S478.617,178,472,178z"/>
		<circle style="fill:#67B1E6;" cx="472" cy="206" r="16"/>
		<circle style="opacity:0.1;" cx="472" cy="206" r="16"/>
		<path style="fill:#67B1E6;" d="M472,218c-6.617,0-12-5.383-12-12s5.383-12,12-12s12,5.383,12,12S478.617,218,472,218z"/>
		<circle style="fill:#67B1E6;" cx="432" cy="234" r="16"/>
		<circle style="opacity:0.1;" cx="432" cy="234" r="16"/>
		<path style="fill:#67B1E6;" d="M432,246c-6.617,0-12-5.383-12-12s5.383-12,12-12s12,5.383,12,12S438.617,246,432,246z"/>
		<circle style="fill:#67B1E6;" cx="392" cy="206" r="16"/>
		<circle style="opacity:0.1;" cx="392" cy="206" r="16"/>
		<path style="fill:#67B1E6;" d="M392,218c-6.617,0-12-5.383-12-12s5.383-12,12-12s12,5.383,12,12S398.617,218,392,218z"/>
	</g>
	<g>
		<circle style="fill:#89CBFA;" cx="176" cy="274" r="8"/>
		<circle style="fill:#D9D9D9;" cx="156" cy="288" r="8"/>
		<circle style="fill:#89CBFA;" cx="156" cy="308" r="8"/>
		<circle style="fill:#89CBFA;" cx="196" cy="288" r="8"/>
		<circle style="fill:#89CBFA;" cx="196" cy="308" r="8"/>
		<circle style="fill:#89CBFA;" cx="176" cy="322" r="8"/>
	</g>
	<g>
		<circle style="fill:#89CBFA;" cx="288" cy="278" r="12"/>
		<circle style="fill:#D9D9D9;" cx="258" cy="299" r="12"/>
		<circle style="fill:#89CBFA;" cx="258" cy="329" r="12"/>
		<circle style="fill:#89CBFA;" cx="318" cy="299" r="12"/>
		<circle style="fill:#89CBFA;" cx="318" cy="329" r="12"/>
		<circle style="fill:#89CBFA;" cx="288" cy="350" r="12"/>
	</g>
	<g>
		<circle style="fill:#89CBFA;" cx="432" cy="282" r="16"/>
		<circle style="fill:#D9D9D9;" cx="392" cy="310" r="16"/>
		<circle style="fill:#89CBFA;" cx="392" cy="350" r="16"/>
		<circle style="fill:#89CBFA;" cx="472" cy="310" r="16"/>
		<circle style="fill:#89CBFA;" cx="472" cy="350" r="16"/>
		<circle style="fill:#89CBFA;" cx="432" cy="378" r="16"/>
	</g>
	<g>
		<circle style="fill:#89CBFA;" cx="264" cy="33" r="6"/>
		<circle style="fill:#D9D9D9;" cx="249" cy="42" r="6"/>
		<circle style="fill:#89CBFA;" cx="249" cy="57" r="6"/>
		<circle style="fill:#89CBFA;" cx="279" cy="42" r="6"/>
		<circle style="fill:#89CBFA;" cx="279" cy="57" r="6"/>
		<circle style="fill:#89CBFA;" cx="264" cy="66" r="6"/>
	</g>
</g>
<g id="&#x56FE;&#x5C42;_111">
</g>
<g id="&#x56FE;&#x5C42;_110">
</g>
<g id="&#x56FE;&#x5C42;_109">
</g>
<g id="&#x56FE;&#x5C42;_108">
</g>
<g id="&#x56FE;&#x5C42;_107">
</g>
<g id="&#x56FE;&#x5C42;_106">
</g>
<g id="&#x56FE;&#x5C42;_105">
</g>
<g id="&#x56FE;&#x5C42;_104">
</g>
<g id="&#x56FE;&#x5C42;_103">
</g>
<g id="&#x56FE;&#x5C42;_102">
</g>
<g id="&#x56FE;&#x5C42;_101">
</g>
<g id="&#x56FE;&#x5C42;_100">
</g>
<g id="&#x56FE;&#x5C42;_99">
</g>
<g id="&#x56FE;&#x5C42;_98">
</g>
<g id="&#x56FE;&#x5C42;_97">
</g>
<g id="&#x56FE;&#x5C42;_96">
</g>
<g id="&#x56FE;&#x5C42;_95">
</g>
<g id="&#x56FE;&#x5C42;_94">
</g>
<g id="&#x56FE;&#x5C42;_93">
</g>
<g id="&#x56FE;&#x5C42;_92">
</g>
<g id="&#x56FE;&#x5C42;_91">
</g>
<g id="&#x56FE;&#x5C42;_90">
</g>
<g id="&#x56FE;&#x5C42;_89">
</g>
<g id="&#x56FE;&#x5C42;_88">
</g>
<g id="&#x56FE;&#x5C42;_87">
</g>
<g id="&#x56FE;&#x5C42;_86">
</g>
<g id="&#x56FE;&#x5C42;_85">
</g>
<g id="&#x56FE;&#x5C42;_84">
</g>
<g id="&#x56FE;&#x5C42;_83">
</g>
<g id="&#x56FE;&#x5C42;_82">
</g>
<g id="&#x56FE;&#x5C42;_81">
</g>
<g id="&#x56FE;&#x5C42;_80">
</g>
<g id="&#x56FE;&#x5C42;_79">
</g>
<g id="&#x56FE;&#x5C42;_78">
</g>
<g id="&#x56FE;&#x5C42;_77">
</g>
<g id="&#x56FE;&#x5C42;_76">
</g>
<g id="&#x56FE;&#x5C42;_75">
</g>
<g id="&#x56FE;&#x5C42;_74">
</g>
<g id="&#x56FE;&#x5C42;_73">
</g>
<g id="&#x56FE;&#x5C42;_72">
</g>
<g id="&#x56FE;&#x5C42;_71">
</g>
<g id="&#x56FE;&#x5C42;_70">
</g>
<g id="&#x56FE;&#x5C42;_69">
</g>
<g id="&#x56FE;&#x5C42;_68">
</g>
<g id="&#x56FE;&#x5C42;_67">
</g>
<g id="&#x56FE;&#x5C42;_66">
</g>
<g id="&#x56FE;&#x5C42;_65">
</g>
<g id="&#x56FE;&#x5C42;_64">
</g>
<g id="&#x56FE;&#x5C42;_63">
</g>
<g id="&#x56FE;&#x5C42;_62">
</g>
<g id="&#x56FE;&#x5C42;_61">
</g>
<g id="&#x56FE;&#x5C42;_60">
</g>
<g id="&#x56FE;&#x5C42;_59">
</g>
<g id="&#x56FE;&#x5C42;_58">
</g>
<g id="&#x56FE;&#x5C42;_57">
</g>
<g id="&#x56FE;&#x5C42;_56">
</g>
<g id="&#x56FE;&#x5C42;_55">
</g>
<g id="&#x56FE;&#x5C42;_54">
</g>
<g id="&#x56FE;&#x5C42;_53">
</g>
<g id="&#x56FE;&#x5C42;_52">
</g>
<g id="&#x56FE;&#x5C42;_51">
</g>
<g id="&#x56FE;&#x5C42;_50">
</g>
<g id="&#x56FE;&#x5C42;_49">
</g>
<g id="&#x56FE;&#x5C42;_48">
</g>
<g id="&#x56FE;&#x5C42;_47">
</g>
<g id="&#x56FE;&#x5C42;_46">
</g>
<g id="&#x56FE;&#x5C42;_45">
</g>
<g id="&#x56FE;&#x5C42;_44">
</g>
<g id="&#x56FE;&#x5C42;_43">
</g>
<g id="&#x56FE;&#x5C42;_42">
</g>
<g id="&#x56FE;&#x5C42;_41">
</g>
<g id="&#x56FE;&#x5C42;_40">
</g>
<g id="&#x56FE;&#x5C42;_39">
</g>
<g id="&#x56FE;&#x5C42;_38">
</g>
<g id="&#x56FE;&#x5C42;_37">
</g>
<g id="&#x56FE;&#x5C42;_36">
</g>
<g id="&#x56FE;&#x5C42;_35">
</g>
<g id="&#x56FE;&#x5C42;_34">
</g>
<g id="&#x56FE;&#x5C42;_33">
</g>
<g id="&#x56FE;&#x5C42;_32">
</g>
<g id="&#x56FE;&#x5C42;_31">
</g>
<g id="&#x56FE;&#x5C42;_30">
</g>
<g id="&#x56FE;&#x5C42;_29">
</g>
<g id="&#x56FE;&#x5C42;_28">
</g>
<g id="&#x56FE;&#x5C42;_27">
</g>
<g id="&#x56FE;&#x5C42;_26">
</g>
<g id="&#x56FE;&#x5C42;_25">
</g>
<g id="&#x56FE;&#x5C42;_24">
</g>
<g id="&#x56FE;&#x5C42;_23">
</g>
<g id="&#x56FE;&#x5C42;_22">
</g>
<g id="&#x56FE;&#x5C42;_21">
</g>
<g id="&#x56FE;&#x5C42;_20">
</g>
<g id="&#x56FE;&#x5C42;_19">
</g>
<g id="&#x56FE;&#x5C42;_18">
</g>
<g id="&#x56FE;&#x5C42;_17">
</g>
<g id="&#x56FE;&#x5C42;_16">
</g>
<g id="&#x56FE;&#x5C42;_15">
</g>
<g id="&#x56FE;&#x5C42;_14">
</g>
<g id="&#x56FE;&#x5C42;_13">
</g>
<g id="&#x56FE;&#x5C42;_12">
</g>
<g id="&#x56FE;&#x5C42;_11">
</g>
<g id="&#x56FE;&#x5C42;_10">
</g>
<g id="&#x56FE;&#x5C42;_9">
</g>
<g id="&#x56FE;&#x5C42;_8">
</g>
<g id="&#x56FE;&#x5C42;_7">
</g>
<g id="&#x56FE;&#x5C42;_6">
</g>
<g id="&#x56FE;&#x5C42;_5">
</g>
<g id="&#x56FE;&#x5C42;_4">
</g>
<g id="&#x56FE;&#x5C42;_3">
</g>
<g id="&#x56FE;&#x5C42;_2">
</g>
</svg>
