<?xml version="1.0" encoding="iso-8859-1"?>
<!-- Generator: Adobe Illustrator 21.1.0, SVG Export Plug-In . SVG Version: 6.00 Build 0)  -->
<svg version="1.1" id="&#x56FE;&#x5C42;_1" xmlns="http://www.w3.org/2000/svg" xmlns:xlink="http://www.w3.org/1999/xlink" x="0px"
	 y="0px" viewBox="0 0 64 64" style="enable-background:new 0 0 64 64;" xml:space="preserve">
<rect x="-304" y="314" style="fill:#E69963;" width="22" height="45"/>
<rect x="-368" y="74" style="fill:#E69963;" width="7" height="15"/>
<text transform="matrix(1 0 0 1 -400.6667 78.0001)" style="font-family:'ArialMT'; font-size:12px;">Dark</text>
<text transform="matrix(1 0 0 1 -412 286.6667)" style="font-family:'ArialMT'; font-size:12px;">Dark</text>
<text transform="matrix(1 0 0 1 -367.5 -20.0833)" style="fill:#FFFFFF; font-family:'ArialMT'; font-size:10px;">100%</text>
<text transform="matrix(1 0 0 1 -303.5 -20.0833)" style="fill:#FFFFFF; font-family:'ArialMT'; font-size:10px;">150%</text>
<text transform="matrix(1 0 0 1 -223.5 -20.0833)" style="fill:#FFFFFF; font-family:'ArialMT'; font-size:10px;">200%</text>
<text transform="matrix(1 0 0 1 -127.5 -20.0833)" style="fill:#FFFFFF; font-family:'ArialMT'; font-size:10px;">300%</text>
<text transform="matrix(1 0 0 1 0.1875 -20.0833)" style="fill:#FFFFFF; font-family:'ArialMT'; font-size:10px;">400%</text>
<rect x="-368" y="48" style="fill:#F7B688;" width="7" height="15"/>
<rect x="-360" y="48" style="fill:#F7B688;" width="7" height="15"/>
<rect x="-363" y="51" style="fill:#333333;" width="5" height="1"/>
<rect x="-363" y="55" style="fill:#333333;" width="5" height="1"/>
<rect x="-363" y="59" style="fill:#333333;" width="5" height="1"/>
<path style="fill:#FFFDFD;" d="M-366.143,77.143l0.057-0.057C-366.106,77.105-366.124,77.123-366.143,77.143z"/>
<path style="opacity:0.1;" d="M-368,74v15h7V74H-368z M-362,88h-5V75h5V88z"/>
<rect x="-360" y="74" style="fill:#E69963;" width="7" height="15"/>
<path style="opacity:0.1;" d="M-360,74v15h7V74H-360z M-354,88h-5V75h5V88z"/>
<rect x="-363" y="77" style="fill:#333333;" width="5" height="1"/>
<rect x="-363" y="81" style="fill:#333333;" width="5" height="1"/>
<rect x="-363" y="85" style="fill:#333333;" width="5" height="1"/>
<rect x="-293" y="40" style="fill:#F7B688;" width="10" height="23"/>
<rect x="-304" y="40" style="fill:#F7B688;" width="10" height="23"/>
<rect x="-298" y="45" style="fill:#333333;" width="9" height="1"/>
<rect x="-298" y="51" style="fill:#333333;" width="9" height="1"/>
<rect x="-298" y="57" style="fill:#333333;" width="9" height="1"/>
<path style="fill:#FFFDFD;" d="M-301.215,78.715l0.085-0.085C-301.158,78.658-301.187,78.685-301.215,78.715z"/>
<rect x="-293" y="74" style="fill:#E69963;" width="10" height="23"/>
<path style="opacity:0.1;" d="M-293,74v23h10V74H-293z M-284,96h-8V75h8V96z"/>
<rect x="-304" y="74" style="fill:#E69963;" width="10" height="23"/>
<path style="opacity:0.1;" d="M-304,74v23h10V74H-304z M-295,96h-8V75h8V96z"/>
<rect x="-298" y="79" style="fill:#333333;" width="9" height="1"/>
<rect x="-298" y="85" style="fill:#333333;" width="9" height="1"/>
<rect x="-298" y="91" style="fill:#333333;" width="9" height="1"/>
<rect x="-368" y="266" style="fill:#F7B688;" width="15" height="30"/>
<rect x="-352" y="266" style="fill:#F7B688;" width="15" height="30"/>
<rect x="-357" y="271" style="fill:#333333;" width="9" height="1"/>
<rect x="-357" y="277" style="fill:#333333;" width="9" height="1"/>
<rect x="-357" y="283" style="fill:#333333;" width="9" height="1"/>
<rect x="-357" y="289" style="fill:#333333;" width="9" height="1"/>
<rect x="-304" y="250" style="fill:#F7B688;" width="22" height="45"/>
<rect x="-281" y="250" style="fill:#F7B688;" width="22" height="45"/>
<rect x="-288" y="258" style="fill:#333333;" width="13" height="1"/>
<rect x="-288" y="267" style="fill:#333333;" width="13" height="1"/>
<rect x="-288" y="276" style="fill:#333333;" width="13" height="1"/>
<rect x="-288" y="285" style="fill:#333333;" width="13" height="1"/>
<rect x="-368" y="314" style="fill:#E69963;" width="15" height="30"/>
<path style="opacity:0.1;" d="M-368,314v30h15v-30H-368z M-354,343h-13v-28h13V343z"/>
<rect x="-352" y="314" style="fill:#E69963;" width="15" height="30"/>
<path style="opacity:0.1;" d="M-352,314v30h15v-30H-352z M-338,343h-13v-28h13V343z"/>
<rect x="-357" y="319" style="fill:#333333;" width="9" height="1"/>
<rect x="-357" y="325" style="fill:#333333;" width="9" height="1"/>
<rect x="-357" y="331" style="fill:#333333;" width="9" height="1"/>
<rect x="-357" y="337" style="fill:#333333;" width="9" height="1"/>
<path style="opacity:0.1;" d="M-304,314v45h22v-45H-304z M-283,358h-20v-43h20V358z"/>
<rect x="-281" y="314" style="fill:#E69963;" width="22" height="45"/>
<path style="opacity:0.1;" d="M-281,314v45h22v-45H-281z M-260,358h-20v-43h20V358z"/>
<rect x="-288" y="322" style="fill:#333333;" width="13" height="1"/>
<rect x="-288" y="331" style="fill:#333333;" width="13" height="1"/>
<rect x="-288" y="340" style="fill:#333333;" width="13" height="1"/>
<rect x="-288" y="349" style="fill:#333333;" width="13" height="1"/>
<g>
	<rect x="-223" y="236" style="fill:#F7B688;" width="30" height="60"/>
	<rect x="-191" y="236" style="fill:#F7B688;" width="30" height="60"/>
	<rect x="-201" y="246" style="fill:#333333;" width="18" height="2"/>
	<rect x="-201" y="258" style="fill:#333333;" width="18" height="2"/>
	<rect x="-201" y="270" style="fill:#333333;" width="18" height="2"/>
	<rect x="-201" y="282" style="fill:#333333;" width="18" height="2"/>
</g>
<g>
	<rect x="-127" y="205" style="fill:#F7B688;" width="45" height="90"/>
	<rect x="-79" y="205" style="fill:#F7B688;" width="45" height="90"/>
	<rect x="-94" y="220" style="fill:#333333;" width="27" height="3"/>
	<rect x="-94" y="238" style="fill:#333333;" width="27" height="3"/>
	<rect x="-94" y="256" style="fill:#333333;" width="27" height="3"/>
	<rect x="-94" y="274" style="fill:#333333;" width="27" height="3"/>
</g>
<g>
	<rect x="2" y="174" style="fill:#F7B688;" width="60" height="120"/>
	<rect x="66" y="174" style="fill:#F7B688;" width="60" height="120"/>
	<rect x="46" y="194" style="fill:#333333;" width="36" height="4"/>
	<rect x="46" y="218" style="fill:#333333;" width="36" height="4"/>
	<rect x="46" y="242" style="fill:#333333;" width="36" height="4"/>
	<rect x="46" y="266" style="fill:#333333;" width="36" height="4"/>
</g>
<g>
	<rect x="-223" y="316" style="fill:#E69963;" width="30" height="60"/>
	<path style="opacity:0.1;" d="M-223,316v60h30v-60H-223z M-195,374h-26v-56h26V374z"/>
	<rect x="-191" y="316" style="fill:#E69963;" width="30" height="60"/>
	<path style="opacity:0.1;" d="M-191,316v60h30v-60H-191z M-163,374h-26v-56h26V374z"/>
	<rect x="-201" y="326" style="fill:#333333;" width="18" height="2"/>
	<rect x="-201" y="338" style="fill:#333333;" width="18" height="2"/>
	<rect x="-201" y="350" style="fill:#333333;" width="18" height="2"/>
	<rect x="-201" y="362" style="fill:#333333;" width="18" height="2"/>
</g>
<g>
	<rect x="-127" y="317" style="fill:#E69963;" width="45" height="90"/>
	<path style="opacity:0.1;" d="M-127,317v90h45v-90H-127z M-85,404h-39v-84h39V404z"/>
	<rect x="-79" y="317" style="fill:#E69963;" width="45" height="90"/>
	<path style="opacity:0.1;" d="M-79,317v90h45v-90H-79z M-37,404h-39v-84h39V404z"/>
	<rect x="-94" y="332" style="fill:#333333;" width="27" height="3"/>
	<rect x="-94" y="350" style="fill:#333333;" width="27" height="3"/>
	<rect x="-94" y="368" style="fill:#333333;" width="27" height="3"/>
	<rect x="-94" y="386" style="fill:#333333;" width="27" height="3"/>
</g>
<g>
	<rect x="2" y="318" style="fill:#E69963;" width="60" height="120"/>
	<path style="opacity:0.1;" d="M2,318v120h60V318H2z M58,434H6V322h52V434z"/>
	<rect x="66" y="318" style="fill:#E69963;" width="60" height="120"/>
	<path style="opacity:0.1;" d="M66,318v120h60V318H66z M122,434H70V322h52V434z"/>
	<rect x="46" y="338" style="fill:#333333;" width="36" height="4"/>
	<rect x="46" y="362" style="fill:#333333;" width="36" height="4"/>
	<rect x="46" y="386" style="fill:#333333;" width="36" height="4"/>
	<rect x="46" y="410" style="fill:#333333;" width="36" height="4"/>
</g>
<g>
	<rect x="-223" y="75" style="fill:#E69963;" width="14" height="30"/>
	<path style="fill:#FFFDFD;" d="M-219.286,81.286l0.114-0.114C-219.211,81.21-219.249,81.247-219.286,81.286z"/>
	<path style="opacity:0.1;" d="M-223,75v30h14V75H-223z M-211,103h-10V77h10V103z"/>
	<rect x="-207" y="75" style="fill:#E69963;" width="14" height="30"/>
	<path style="opacity:0.1;" d="M-207,75v30h14V75H-207z M-195,103h-10V77h10V103z"/>
	<rect x="-213" y="81" style="fill:#333333;" width="10" height="2"/>
	<rect x="-213" y="89" style="fill:#333333;" width="10" height="2"/>
	<rect x="-213" y="97" style="fill:#333333;" width="10" height="2"/>
</g>
<g>
	<rect x="-127" y="75" style="fill:#E69963;" width="21" height="45"/>
	<path style="fill:#FFFDFD;" d="M-120.929,83.929l0.17-0.17C-120.817,83.815-120.873,83.87-120.929,83.929z"/>
	<path style="opacity:0.1;" d="M-127,75v45h21V75H-127z M-109,117h-15V78h15V117z"/>
	<rect x="-103" y="75" style="fill:#E69963;" width="21" height="45"/>
	<path style="opacity:0.1;" d="M-103,75v45h21V75H-103z M-85,117h-15V78h15V117z"/>
	<rect x="-112" y="84" style="fill:#333333;" width="15" height="3"/>
	<rect x="-112" y="96" style="fill:#333333;" width="15" height="3"/>
	<rect x="-112" y="108" style="fill:#333333;" width="15" height="3"/>
</g>
<g>
	<rect x="2" y="76" style="fill:#E69963;" width="28" height="60"/>
	<path style="fill:#FFFDFD;" d="M9.427,88.573l0.227-0.227C9.578,88.42,9.502,88.494,9.427,88.573z"/>
	<path style="opacity:0.1;" d="M2,76v60h28V76H2z M26,132H6V80h20V132z"/>
	<rect x="34" y="76" style="fill:#E69963;" width="28" height="60"/>
	<path style="opacity:0.1;" d="M34,76v60h28V76H34z M58,132H38V80h20V132z"/>
	<rect x="22" y="88" style="fill:#333333;" width="20" height="4"/>
	<rect x="22" y="104" style="fill:#333333;" width="20" height="4"/>
	<rect x="22" y="120" style="fill:#333333;" width="20" height="4"/>
</g>
<g>
	<rect x="-223" y="33" style="fill:#F7B688;" width="14" height="30"/>
	<rect x="-207" y="33" style="fill:#F7B688;" width="14" height="30"/>
	<rect x="-213" y="39" style="fill:#333333;" width="10" height="2"/>
	<rect x="-213" y="47" style="fill:#333333;" width="10" height="2"/>
	<rect x="-213" y="55" style="fill:#333333;" width="10" height="2"/>
</g>
<g>
	<rect x="-127" y="17" style="fill:#F7B688;" width="21" height="45"/>
	<rect x="-103" y="17" style="fill:#F7B688;" width="21" height="45"/>
	<rect x="-112" y="26" style="fill:#333333;" width="15" height="3"/>
	<rect x="-112" y="38" style="fill:#333333;" width="15" height="3"/>
	<rect x="-112" y="50" style="fill:#333333;" width="15" height="3"/>
</g>
<g>
	<rect x="2" y="2" style="fill:#F7B688;" width="28" height="60"/>
	<rect x="34" y="2" style="fill:#F7B688;" width="28" height="60"/>
	<rect x="22" y="14" style="fill:#333333;" width="20" height="4"/>
	<rect x="22" y="30" style="fill:#333333;" width="20" height="4"/>
	<rect x="22" y="46" style="fill:#333333;" width="20" height="4"/>
</g>
</svg>
