<?xml version="1.0" encoding="iso-8859-1"?>
<!-- Generator: Adobe Illustrator 21.1.0, SVG Export Plug-In . SVG Version: 6.00 Build 0)  -->
<svg version="1.1" id="&#x56FE;&#x5C42;_1" xmlns="http://www.w3.org/2000/svg" xmlns:xlink="http://www.w3.org/1999/xlink" x="0px"
	 y="0px" viewBox="0 0 128 128" style="enable-background:new 0 0 128 128;" xml:space="preserve">
<text transform="matrix(1 0 0 1 -432.5 -83.7499)" style="font-family:'ArialMT'; font-size:12px;">Dark</text>
<text transform="matrix(1 0 0 1 -367.5 -190.0833)" style="fill:#FFFFFF; font-family:'ArialMT'; font-size:10px;">100%</text>
<text transform="matrix(1 0 0 1 -223.5 -190.0833)" style="fill:#FFFFFF; font-family:'ArialMT'; font-size:10px;">200%</text>
<text transform="matrix(1 0 0 1 -127.5 -190.0833)" style="fill:#FFFFFF; font-family:'ArialMT'; font-size:10px;">300%</text>
<text transform="matrix(1 0 0 1 0.1875 -190.0833)" style="fill:#FFFFFF; font-family:'ArialMT'; font-size:10px;">400%</text>
<rect x="-368" y="-126" style="display:none;fill:#333333;" width="9" height="1"/>
<polygon style="display:none;fill:#333333;" points="-359,-127.809 -355,-125.5 -359,-123.191 "/>
<image style="overflow:visible;" width="1920" height="1080" xlink:href="48018F655D4950C6.png"  transform="matrix(0.9999 0 0 0.9999 -2371 -427.865)">
</image>
<image style="overflow:visible;" width="294" height="345" xlink:href="48018F655D4950CA.jpg"  transform="matrix(0.0288 0 0 0.0288 -381.3473 -124.1203)">
</image>
<path style="fill:#666666;" d="M-363-122v4h7v7h4v-11H-363z"/>
<polygon style="fill:#F3F3F3;" points="-353,-121 -353,-112 -356,-112 -356,-118 -362,-118 -362,-121 "/>
<rect x="-368" y="-117" style="fill:#E67E35;" width="11" height="11"/>
<rect x="-368" y="-117" style="opacity:0.1;" width="11" height="11"/>
<rect x="-367" y="-116" style="fill:#E67E35;" width="9" height="9"/>
<polygon style="fill:#D9D9D9;" points="-363,-96 -363,-92 -362,-92 -356,-92 -356,-86 -356,-85 -352,-85 -352,-96 "/>
<rect x="-368" y="-91" style="fill:#F7B688;" width="11" height="11"/>
<path style="fill:#666666;" d="M-383,102v4h7v7h4v-11H-383z"/>
<polygon style="fill:#F3F3F3;" points="-373,103 -373,112 -376,112 -376,106 -382,106 -382,103 "/>
<rect x="-388" y="107" style="fill:#E67E35;" width="11" height="11"/>
<rect x="-388" y="107" style="opacity:0.1;" width="11" height="11"/>
<rect x="-387" y="108" style="fill:#E67E35;" width="9" height="9"/>
<polygon style="fill:#D9D9D9;" points="-383,128 -383,132 -382,132 -376,132 -376,138 -376,139 -372,139 -372,128 "/>
<rect x="-388" y="133" style="fill:#F7B688;" width="11" height="11"/>
<polygon style="fill:#D9D9D9;" points="-214,-96 -214,-88 -212,-88 -200,-88 -200,-76 -200,-74 -192,-74 -192,-96 "/>
<rect x="-224" y="-86" style="fill:#F7B688;" width="22" height="22"/>
<polygon style="fill:#D9D9D9;" points="-113,-96 -113,-84 -110,-84 -92,-84 -92,-66 -92,-63 -80,-63 -80,-96 "/>
<rect x="-128" y="-81" style="fill:#F7B688;" width="33" height="33"/>
<polygon style="fill:#D9D9D9;" points="20,-96 20,-80 24,-80 48,-80 48,-56 48,-52 64,-52 64,-96 "/>
<rect y="-76" style="fill:#F7B688;" width="44" height="44"/>
<path style="fill:#666666;" d="M-214-138v8h14v14h8v-22H-214z"/>
<polygon style="fill:#F3F3F3;" points="-194,-136 -194,-118 -200,-118 -200,-130 -212,-130 -212,-136 "/>
<rect x="-224" y="-128" style="fill:#E67E35;" width="22" height="22"/>
<rect x="-224" y="-128" style="opacity:0.1;" width="22" height="22"/>
<rect x="-222" y="-126" style="fill:#E67E35;" width="18" height="18"/>
<path style="fill:#666666;" d="M-113-154v12h21v21h12v-33H-113z"/>
<polygon style="fill:#F3F3F3;" points="-83,-151 -83,-124 -92,-124 -92,-142 -110,-142 -110,-151 "/>
<rect x="-128" y="-139" style="fill:#E67E35;" width="33" height="33"/>
<rect x="-128" y="-139" style="opacity:0.1;" width="33" height="33"/>
<rect x="-125" y="-136" style="fill:#E67E35;" width="27" height="27"/>
<path style="fill:#666666;" d="M20-170v16h28v28h16v-44H20z"/>
<polygon style="fill:#F3F3F3;" points="60,-166 60,-130 48,-130 48,-154 24,-154 24,-166 "/>
<rect y="-150" style="fill:#E67E35;" width="44" height="44"/>
<rect y="-150" style="opacity:0.1;" width="44" height="44"/>
<rect x="4" y="-146" style="fill:#E67E35;" width="36" height="36"/>
<path style="fill:#666666;" d="M-296-130v7h9v9h7v-16H-296z"/>
<polygon style="fill:#F3F3F3;" points="-281,-129 -281,-115 -287,-115 -287,-123 -295,-123 -295,-129 "/>
<rect x="-304" y="-122" style="fill:#E67E35;" width="16" height="16"/>
<rect x="-304" y="-122" style="opacity:0.1;" width="16" height="16"/>
<rect x="-303" y="-121" style="fill:#E67E35;" width="14" height="14"/>
<polygon style="fill:#D9D9D9;" points="-296,-96 -296,-89 -295,-89 -287,-89 -287,-81 -287,-80 -280,-80 -280,-96 "/>
<rect x="-304" y="-88" style="fill:#F7B688;" width="16" height="16"/>
<path style="fill:#666666;" d="M-358,96v9h13v13h9V96H-358z"/>
<polygon style="fill:#F3F3F3;" points="-337,97 -337,117 -345,117 -345,105 -357,105 -357,97 "/>
<rect x="-368" y="106" style="fill:#E67E35;" width="22" height="22"/>
<rect x="-368" y="106" style="opacity:0.1;" width="22" height="22"/>
<rect x="-367" y="107" style="fill:#E67E35;" width="20" height="20"/>
<polygon style="fill:#D9D9D9;" points="-358,144 -358,153 -357,153 -345,153 -345,165 -345,166 -336,166 -336,144 "/>
<rect x="-368" y="154" style="fill:#F7B688;" width="22" height="22"/>
<path style="fill:#666666;" d="M40,0v36h52v52h36V0H40z"/>
<polygon style="fill:#F3F3F3;" points="124,4 124,84 92,84 92,36 44,36 44,4 "/>
<rect y="40" style="fill:#E67E35;" width="88" height="88"/>
<rect y="40" style="opacity:0.1;" width="88" height="88"/>
<rect x="4" y="44" style="fill:#E67E35;" width="80" height="80"/>
<polygon style="fill:#D9D9D9;" points="40,144 40,180 44,180 92,180 92,228 92,232 128,232 128,144 "/>
<rect y="184" style="fill:#F7B688;" width="88" height="88"/>
<path style="fill:#666666;" d="M-98,32v27h39v39h27V32H-98z"/>
<polygon style="fill:#F3F3F3;" points="-35,35 -35,95 -59,95 -59,59 -95,59 -95,35 "/>
<rect x="-128" y="62" style="fill:#E67E35;" width="66" height="66"/>
<rect x="-128" y="62" style="opacity:0.1;" width="66" height="66"/>
<rect x="-125" y="65" style="fill:#E67E35;" width="60" height="60"/>
<polygon style="fill:#D9D9D9;" points="-98,144 -98,171 -95,171 -59,171 -59,207 -59,210 -32,210 -32,144 "/>
<rect x="-128" y="174" style="fill:#F7B688;" width="66" height="66"/>
<path style="fill:#666666;" d="M-204,64v18h26v26h18V64H-204z"/>
<polygon style="fill:#F3F3F3;" points="-162,66 -162,106 -178,106 -178,82 -202,82 -202,66 "/>
<rect x="-224" y="84" style="fill:#E67E35;" width="44" height="44"/>
<rect x="-224" y="84" style="opacity:0.1;" width="44" height="44"/>
<rect x="-222" y="86" style="fill:#E67E35;" width="40" height="40"/>
<polygon style="fill:#D9D9D9;" points="-204,144 -204,162 -202,162 -178,162 -178,186 -178,188 -160,188 -160,144 "/>
<rect x="-224" y="164" style="fill:#F7B688;" width="44" height="44"/>
<path style="fill:#666666;" d="M-289,80v14h19v19h14V80H-289z"/>
<polygon style="fill:#F3F3F3;" points="-257,81 -257,112 -270,112 -270,94 -288,94 -288,81 "/>
<rect x="-304" y="95" style="fill:#E67E35;" width="33" height="33"/>
<rect x="-304" y="95" style="opacity:0.1;" width="33" height="33"/>
<rect x="-303" y="96" style="fill:#E67E35;" width="31" height="31"/>
<polygon style="fill:#D9D9D9;" points="-289,144 -289,158 -288,158 -270,158 -270,176 -270,177 -256,177 -256,144 "/>
<rect x="-304" y="159" style="fill:#F7B688;" width="33" height="33"/>
</svg>
