<?xml version="1.0" encoding="iso-8859-1"?>
<!-- Generator: Adobe Illustrator 21.1.0, SVG Export Plug-In . SVG Version: 6.00 Build 0)  -->
<svg version="1.1" id="&#x56FE;&#x5C42;_1" xmlns="http://www.w3.org/2000/svg" xmlns:xlink="http://www.w3.org/1999/xlink" x="0px"
	 y="0px" viewBox="0 0 32 32" style="enable-background:new 0 0 32 32;" xml:space="preserve">
<text transform="matrix(1 0 0 1 -61.8333 -205.9999)" style="fill:#FFFFFF; font-family:'ArialMT'; font-size:12px;">Dark</text>
<text transform="matrix(1 0 0 1 0.5 -286.0833)" style="fill:#FFFFFF; font-family:'ArialMT'; font-size:10px;">100%</text>
<text transform="matrix(1 0 0 1 64.5 -286.0833)" style="fill:#FFFFFF; font-family:'ArialMT'; font-size:10px;">150%</text>
<text transform="matrix(1 0 0 1 144.5 -286.0833)" style="fill:#FFFFFF; font-family:'ArialMT'; font-size:10px;">200%</text>
<text transform="matrix(1 0 0 1 240.5 -286.0833)" style="fill:#FFFFFF; font-family:'ArialMT'; font-size:10px;">300%</text>
<text transform="matrix(1 0 0 1 368.1875 -286.0833)" style="fill:#FFFFFF; font-family:'ArialMT'; font-size:10px;">400%</text>
<text transform="matrix(1 0 0 1 -69.6668 22.9255)" style="fill:#FFFFFF; font-family:'ArialMT'; font-size:12px;">Dark</text>
<path style="fill:#808080;" d="M5-211.979V-212h3v-3l8,4.619l-8,4.619V-209H5c-2.051,0-3.859,1.03-4.942,2.6
	C0.036-206.592,0-206.781,0-206.979C0-209.741,2-211.979,5-211.979z"/>
<path style="fill:#808080;" d="M72-216L72-216h4v-5l12,6.928l-12,6.928V-212h-4.5c-3.076,0-5.789,1.546-7.412,3.9
	C64.054-208.388,64-208.702,64-209C64-213.142,67-216,72-216z"/>
<path style="fill:#808080;" d="M154-220.958V-221h6v-6l16,9.238l-16,9.238V-215h-6c-4.102,0-7.719,2.061-9.883,5.201
	c-0.045-0.385-0.117-0.762-0.117-1.159C144-216.481,148-220.958,154-220.958z"/>
<path style="fill:#808080;" d="M10,13.042V13h6V7l16,9.238L16,25v-6h-6c-4.102,0-7.719,2.061-9.883,5.201
	C0.072,23.816,0,23.439,0,23.042C0,17.519,4,13.042,10,13.042z"/>
<path style="fill:#808080;" d="M79,3.062V3h9v-9l24,13.856L88,21v-9h-9c-6.153,0-11.578,3.091-14.825,7.801
	C64.108,19.224,64,18.658,64,18.062C64,9.778,71,3.062,79,3.062z"/>
<path style="fill:#808080;" d="M164-5.917V-6h12v-12l32,18.475L176,18V6h-12c-8.204,0-15.438,4.122-19.766,10.401
	c-0.09-0.77-0.234-1.524-0.234-2.318C144,3.038,153-5.917,164-5.917z"/>
<path style="fill:#808080;" d="M270-24.875V-25h18v-18l48,27.713L288,11V-7h-18c-12.305,0-23.157,6.183-29.65,15.602
	C240.215,7.447,240,6.316,240,5.125C240-11.444,253-24.875,270-24.875z"/>
<path style="fill:#808080;" d="M408-43.833V-44h24v-24l64,36.95L432,4v-24h-24c-16.407,0-30.875,8.244-39.533,20.802
	C368.287-0.737,368-2.246,368-3.833C368-25.925,386-43.833,408-43.833z"/>
<path style="fill:#808080;" d="M255-230.938V-231h9v-9l24,13.856l-24,13.857V-222h-9c-6.153,0-11.578,3.091-14.825,7.801
	c-0.068-0.577-0.175-1.143-0.175-1.738C240-224.222,247-230.938,255-230.938z"/>
<path style="fill:#808080;" d="M388-240.917V-241h12v-12l32,18.475l-32,18.475V-229h-12c-8.204,0-15.438,4.122-19.766,10.401
	c-0.09-0.77-0.234-1.524-0.234-2.318C368-231.962,377-240.917,388-240.917z"/>
<polygon style="display:none;fill-rule:evenodd;clip-rule:evenodd;fill:#F3F3F3;" points="28,-206.762 20,-211.381 28,-216 "/>
<path style="display:none;fill:#F3F3F3;" d="M31-212.979V-210c2.051,0,3.859,1.03,4.942,2.6c0.023-0.192,0.058-0.381,0.058-0.579
	C36-210.741,33.761-212.979,31-212.979z"/>
<path style="display:none;fill:#F3F3F3;" d="M31-213h-3v1.043c0.838-0.633,1.869-1.023,3-1.023V-213z"/>
<path style="display:none;fill:#F3F3F3;" d="M28-211.957V-210h3v-2.979C29.869-212.979,28.838-212.59,28-211.957z"/>
</svg>
