<?xml version="1.0" encoding="iso-8859-1"?>
<!-- Generator: Adobe Illustrator 21.1.0, SVG Export Plug-In . SVG Version: 6.00 Build 0)  -->
<svg version="1.1" id="&#x56FE;&#x5C42;_1" xmlns="http://www.w3.org/2000/svg" xmlns:xlink="http://www.w3.org/1999/xlink" x="0px"
	 y="0px" viewBox="0 0 128 128" style="enable-background:new 0 0 128 128;" xml:space="preserve">
<text transform="matrix(1 0 0 1 -429.8333 -109.9999)" style="fill:#FFFFFF; font-family:'ArialMT'; font-size:12px;">Dark</text>
<text transform="matrix(1 0 0 1 -367.5 -190.0833)" style="fill:#FFFFFF; font-family:'ArialMT'; font-size:10px;">100%</text>
<text transform="matrix(1 0 0 1 -303.5 -190.0833)" style="fill:#FFFFFF; font-family:'ArialMT'; font-size:10px;">150%</text>
<text transform="matrix(1 0 0 1 -223.5 -190.0833)" style="fill:#FFFFFF; font-family:'ArialMT'; font-size:10px;">200%</text>
<text transform="matrix(1 0 0 1 -127.5 -190.0833)" style="fill:#FFFFFF; font-family:'ArialMT'; font-size:10px;">300%</text>
<text transform="matrix(1 0 0 1 0.1875 -190.0833)" style="fill:#FFFFFF; font-family:'ArialMT'; font-size:10px;">400%</text>
<text transform="matrix(1 0 0 1 -437.6668 118.9255)" style="fill:#FFFFFF; font-family:'ArialMT'; font-size:12px;">Dark</text>
<path style="fill:#808080;" d="M-357-115.979V-116h-3v-3l-8,4.619l8,4.619V-113h3c2.051,0,3.859,1.03,4.942,2.6
	c0.023-0.192,0.058-0.381,0.058-0.579C-352-113.741-354.239-115.979-357-115.979z"/>
<path style="fill:#808080;" d="M-288-120L-288-120h-4v-5l-12,6.928l12,6.928V-116h4.5c3.076,0,5.789,1.546,7.412,3.9
	c0.034-0.289,0.088-0.603,0.088-0.9C-280-117.142-283-120-288-120z"/>
<path style="fill:#808080;" d="M-202-124.958V-125h-6v-6l-16,9.238l16,9.238V-119h6c4.102,0,7.719,2.061,9.883,5.201
	c0.045-0.385,0.117-0.762,0.117-1.159C-192-120.481-196.477-124.958-202-124.958z"/>
<path style="fill:#808080;" d="M-346,109.042V109h-6v-6l-16,9.238l16,8.762v-6h6c4.102,0,7.719,2.061,9.883,5.201
	c0.045-0.385,0.117-0.762,0.117-1.159C-336,113.519-340.477,109.042-346,109.042z"/>
<path style="fill:#808080;" d="M-271,99.062V99h-9v-9l-24,13.856L-280,117v-9h9c6.153,0,11.578,3.091,14.825,7.801
	c0.068-0.577,0.175-1.143,0.175-1.738C-256,105.778-262.716,99.062-271,99.062z"/>
<path style="fill:#808080;" d="M-180,90.083V90h-12V78l-32,18.475L-192,114v-12h12c8.204,0,15.438,4.122,19.766,10.401
	c0.09-0.77,0.234-1.524,0.234-2.318C-160,99.038-168.954,90.083-180,90.083z"/>
<path style="fill:#808080;" d="M-62,71.125V71h-18V53l-48,27.713L-80,107V89h18c12.305,0,23.157,6.183,29.65,15.602
	c0.135-1.155,0.35-2.286,0.35-3.477C-32,84.556-45.432,71.125-62,71.125z"/>
<path style="fill:#808080;" d="M88,52.167V52H64V28L0,64.95L64,100V76h24c16.407,0,30.875,8.244,39.533,20.802
	c0.18-1.54,0.467-3.048,0.467-4.636C128,70.075,110.091,52.167,88,52.167z"/>
<path style="fill:#808080;" d="M-95-134.938V-135h-9v-9l-24,13.856l24,13.857V-126h9c6.153,0,11.578,3.091,14.825,7.801
	c0.068-0.577,0.175-1.143,0.175-1.738C-80-128.222-86.716-134.938-95-134.938z"/>
<path style="fill:#808080;" d="M44-144.917V-145H32v-12L0-138.525l32,18.475V-133h12c8.204,0,15.438,4.122,19.766,10.401
	c0.09-0.77,0.234-1.524,0.234-2.318C64-135.962,55.046-144.917,44-144.917z"/>
<polygon style="display:none;fill-rule:evenodd;clip-rule:evenodd;fill:#F3F3F3;" points="-340,-110.762 -348,-115.381 -340,-120 
	"/>
<path style="display:none;fill:#F3F3F3;" d="M-337-116.979V-114c2.051,0,3.859,1.03,4.942,2.6c0.023-0.192,0.058-0.381,0.058-0.579
	C-332-114.741-334.239-116.979-337-116.979z"/>
<path style="display:none;fill:#F3F3F3;" d="M-337-117h-3v1.043c0.838-0.633,1.869-1.023,3-1.023V-117z"/>
<path style="display:none;fill:#F3F3F3;" d="M-340-115.957V-114h3v-2.979C-338.131-116.979-339.162-116.59-340-115.957z"/>
</svg>
