<svg width="16" height="16" viewBox="0 0 16 16" fill="none" xmlns="http://www.w3.org/2000/svg">
<path fill-rule="evenodd" clip-rule="evenodd" d="M0 8.01006L8.00144 8.01006L4.00004 1.07199C1.60878 2.45706 0 5.04547 0 8.01004C0 8.01005 0 8.01005 0 8.01006Z" fill="#3ECC77"/>
<path fill-rule="evenodd" clip-rule="evenodd" d="M4 1.07199L8.00138 8.01004L12.0028 1.07198C10.8257 0.390211 9.45908 0 8.0014 0C6.54371 0 5.17706 0.390216 4 1.07199Z" fill="#FFBB33"/>
<path fill-rule="evenodd" clip-rule="evenodd" d="M8.00143 8.01004H0C0 10.9746 1.60878 13.563 4.00005 14.9481L8.00143 8.01004Z" fill="#0AB6CC"/>
<path fill-rule="evenodd" clip-rule="evenodd" d="M11.4165 13.9304L10.6678 12.6323L8.73302 15.9871C9.31826 15.934 9.88531 15.8179 10.4273 15.6455L11.4165 13.9304ZM9.26649 10.2024L10.0206 11.51L7.43104 16C6.95809 15.9666 6.49648 15.8921 6.04977 15.78L9.26649 10.2024ZM8.61922 9.08014L8.00206 8.01004L4.00067 14.9481C4.30868 15.1265 4.62967 15.2849 4.96188 15.4216L8.61922 9.08014Z" fill="#7143FF"/>
<path fill-rule="evenodd" clip-rule="evenodd" d="M14.8309 8.01004H13.3336L10.6675 12.6328L11.4162 13.9309L14.8309 8.01004ZM12.1878 14.8376C12.285 14.7778 12.3808 14.7159 12.4752 14.6521C14.5475 13.2505 15.9288 10.9025 16 8.22759L12.1878 14.8376ZM10.5309 8.01004H12.0391L10.0203 11.5105L9.26619 10.203L10.5309 8.01004ZM8.00146 8.01004L8.61892 9.08066L9.23638 8.01004H8.00146Z" fill="#E54E4E"/>
<path fill-rule="evenodd" clip-rule="evenodd" d="M8.00146 8.01007L12.0029 1.07199C12.3133 1.25177 12.6105 1.45183 12.8927 1.67035L9.23636 8.01007H8.00146ZM10.5309 8.01007H12.0391L14.6286 3.52005C14.3662 3.13267 14.0708 2.76951 13.7464 2.43462L10.5309 8.01007ZM14.8309 8.01007H13.3336L15.269 4.65428C15.5088 5.17392 15.6947 5.72365 15.8193 6.29625L14.8309 8.01007Z" fill="#FF8533"/>
</svg>
