<svg width="33" height="32" viewBox="0 0 33 32" fill="none" xmlns="http://www.w3.org/2000/svg">
<path fill-rule="evenodd" clip-rule="evenodd" d="M0.666748 16.0201L16.6696 16.0201L8.66683 2.14395C3.88431 4.91409 0.666748 10.0909 0.666748 16.02C0.666748 16.0201 0.666748 16.0201 0.666748 16.0201Z" fill="#3ECC77"/>
<path fill-rule="evenodd" clip-rule="evenodd" d="M8.66681 2.14398L16.6696 16.0201L24.6723 2.14396C22.3182 0.780422 19.585 0 16.6696 0C13.7542 0 11.0209 0.780429 8.66681 2.14398Z" fill="#FFBB33"/>
<path fill-rule="evenodd" clip-rule="evenodd" d="M16.6696 16.0201H0.666748C0.666754 21.9492 3.88432 27.126 8.66686 29.8962L16.6696 16.0201Z" fill="#0AB6CC"/>
<path fill-rule="evenodd" clip-rule="evenodd" d="M23.4998 27.8607L22.0025 25.2645L18.1328 31.9742C19.3033 31.8681 20.4374 31.6358 21.5214 31.2911L23.4998 27.8607ZM19.1997 20.4048L20.7079 23.0199L15.5288 32C14.5829 31.9332 13.6597 31.7842 12.7663 31.5599L19.1997 20.4048ZM17.9052 18.1602L16.6709 16.0201L8.66815 29.8962C9.28415 30.253 9.9261 30.5699 10.5905 30.8433L17.9052 18.1602Z" fill="#7143FF"/>
<path fill-rule="evenodd" clip-rule="evenodd" d="M30.3287 16.0201L27.334 16.0201L22.0018 25.2656L23.4992 27.8618L30.3287 16.0201ZM25.0424 29.6752C25.2368 29.5555 25.4283 29.4318 25.617 29.3042C29.7618 26.501 32.5242 21.8051 32.6668 16.4552L25.0424 29.6752ZM21.7285 16.0201H24.7449L20.7073 23.021L19.1991 20.4059L21.7285 16.0201ZM19.1395 16.0201H16.6697L17.9046 18.1613L19.1395 16.0201Z" fill="#E54E4E"/>
<path fill-rule="evenodd" clip-rule="evenodd" d="M16.6697 16.0201L24.6725 2.14395C25.2932 2.50352 25.8876 2.90363 26.4521 3.34067L19.1395 16.0201H16.6697ZM21.7285 16.0201H24.7449L29.924 7.04006C29.3992 6.26529 28.8083 5.53897 28.1596 4.8692L21.7285 16.0201ZM30.3287 16.0201H27.334L31.2047 9.30853C31.6844 10.3478 32.0561 11.4473 32.3055 12.5925L30.3287 16.0201Z" fill="#FF8533"/>
</svg>
