<svg fill="none" height="16" viewBox="0 0 16 16" width="16" xmlns="http://www.w3.org/2000/svg"><path clip-rule="evenodd" d="m8 0v5h5l-7.29834 7.4773-1.11548 3.5227h-4.58618v-16zm-1.14 12.92 2.22 2.22h-.01l-3.07.86.86-3.07zm4.8139-4.80186 2.2132 2.21326-4.1012 4.1012-2.21325-2.2132zm2.4461-2.11814c.5056-.00011.99.20344 1.3437.56471.3537.36126.5471.84979.5363 1.35529v.15c-.0263.12239-.0891.23395-.18.32l-1.23 1.23-2.21-2.21 1.23-1.24c.0874-.08727.1988-.14646.32-.17zm-5.12-6v4h4z" fill="#d22" fill-rule="evenodd"/></svg>