<?xml version="1.0" encoding="UTF-8" standalone="no"?>
<svg width="32px" height="32px" viewBox="0 0 32 32" version="1.1" xmlns="http://www.w3.org/2000/svg" xmlns:xlink="http://www.w3.org/1999/xlink">
    <!-- Generator: Sketch 39.1 (31720) - http://www.bohemiancoding.com/sketch -->
    <title>Artboard Copy 45</title>
    <desc>Created with Sketch.</desc>
    <defs></defs>
    <g id="Page-1" stroke="none" stroke-width="1" fill="none" fill-rule="evenodd">
        <g id="Artboard-Copy-45" fill="#1FA1DB">
            <g id="Spinner-sprite">
                <g id="Group">
                    <path d="M15.7774986,2.34984022 C20.4897037,2.31614175 24.8788031,4.74081048 27.358854,8.74772452 L29.3927493,7.6221708 C26.545649,2.83633531 21.3449313,-0.0487618473 15.7774986,0.0691129477" id="Shape"></path>
                    <path d="M2.17212121,7.96773554 L4.21588981,9.15252893 C6.58734459,4.99180891 10.9886933,2.40211694 15.7774986,2.34984022 L15.7774986,0.0691129477 C10.1337905,-0.00464549728 4.906453,3.03009326 2.17212121,7.96773554 L2.17212121,7.96773554 Z" id="Shape" fill-opacity="0.75"></path>
                    <path d="M2.17212121,7.96773554 C-0.723061667,12.8355308 -0.723061667,18.8971854 2.17212121,23.7649807 L4.14677686,22.6098072 C1.75274582,18.4469945 1.75274582,13.3252149 4.14677686,9.1624022 L2.10300826,7.97760882" id="Shape" fill-opacity="0.6"></path>
                    <path d="M4.16652342,22.6098072 L2.19186777,23.7649807 C4.92788091,28.7057733 10.1598885,31.7410206 15.8071185,31.6636033 L15.8071185,29.382876 C10.9982075,29.3760888 6.56235188,26.7907049 4.18626997,22.6098072" id="Shape" fill-opacity="0.45"></path>
                    <path d="M29.3927493,23.7649807 C26.6567362,28.7057733 21.4247285,31.7410206 15.7774986,31.6636033 L15.7774986,29.382876 C20.5864096,29.3760888 25.0222652,26.7907049 27.3983471,22.6098072 L29.3927493,23.7649807 Z" id="Shape" fill-opacity="0.3"></path>
                    <path d="M29.4322424,7.64191736 C32.3260993,12.6337764 32.3260993,18.7928682 29.4322424,23.7847273 L27.4575868,22.6295537 C28.6283457,20.4677083 29.2425011,18.0484115 29.2446501,15.5899063 C29.2320583,13.1883024 28.5885503,10.8321777 27.3786006,8.7575978 L29.4618623,7.64191736" id="Shape" fill-opacity="0.15"></path>
                </g>
            </g>
        </g>
    </g>
</svg>