<svg width="16" height="16" viewBox="0 0 16 16" fill="none" xmlns="http://www.w3.org/2000/svg">
<path d="M15 8C15 11.866 11.866 15 8 15C4.134 15 1 11.866 1 8C1 4.134 4.134 1 8 1C11.866 1 15 4.134 15 8Z" fill="#FAA21B"/>
<path fill-rule="evenodd" clip-rule="evenodd" d="M2.98178 8.20307C2.98178 5.57235 5.11444 3.4397 7.74515 3.4397C8.9897 3.4397 10.1286 3.9281 10.9771 4.70959L12.6946 3.48483L13.0184 8.46161L8.00543 6.82048L9.83164 5.52548C9.25274 5.06944 8.53927 4.80066 7.74515 4.80066C5.86606 4.80066 4.34275 6.32394 4.34275 8.20307C4.34275 10.0822 5.86606 11.6055 7.74515 11.6055C9.31189 11.6055 10.6313 10.5464 11.0266 9.10516L12.3112 9.56403C11.7257 11.5317 9.90295 12.9665 7.74515 12.9665C5.11444 12.9665 2.98178 10.8338 2.98178 8.20307Z" fill="#F2F2F2"/>
</svg>
