<svg width="32" height="32" viewBox="0 0 32 32" fill="none" xmlns="http://www.w3.org/2000/svg">
<path d="M30 16C30 23.732 23.732 30 16 30C8.26801 30 2 23.732 2 16C2 8.26801 8.26801 2 16 2C23.732 2 30 8.26801 30 16Z" fill="#FAA21B"/>
<path fill-rule="evenodd" clip-rule="evenodd" d="M5.96356 16.4061C5.96356 11.1447 10.2289 6.87939 15.4903 6.87939C17.9794 6.87939 20.2572 7.85621 21.9542 9.41919L25.3893 6.96966L26.0368 16.9232L16.0109 13.641L19.6633 11.051C18.5055 10.1389 17.0785 9.60133 15.4903 9.60133C11.7321 9.60133 8.68549 12.6479 8.68549 16.4061C8.68549 20.1644 11.7321 23.211 15.4903 23.211C18.6238 23.211 21.2626 21.0928 22.0533 18.2103L24.6224 19.1281C23.4513 23.0633 19.8059 25.933 15.4903 25.933C10.2289 25.933 5.96356 21.6677 5.96356 16.4061Z" fill="#F2F2F2"/>
</svg>
