<?xml version="1.0" encoding="UTF-8"?>
<svg width="16px" height="16px" viewBox="0 0 500 499" version="1.1" xmlns="http://www.w3.org/2000/svg" xmlns:xlink="http://www.w3.org/1999/xlink">
    <title>Icon - Grey - Transparent</title>
    <defs>
        <circle id="path-1" cx="249.721977" cy="249.249493" r="249.249493"></circle>
    </defs>
    <g id="Icon---Grey---Transparent" stroke="none" stroke-width="1" fill="none" fill-rule="evenodd">
        <g id="Group-4" transform="translate(250.293001, 249.987659) rotate(-45.000000) translate(-250.293001, -249.987659) translate(0.793001, 0.487659)">
            <g id="Oval" transform="translate(2.004336, 0.004162)" fill="#656465" fill-rule="nonzero">
                <path d="M247.721977,9.09494702e-13 C385.378671,9.09494702e-13 496.97147,111.592799 496.97147,249.249493 C496.97147,386.906187 385.378671,498.498986 247.721977,498.498986 C121.115529,498.498986 16.5564247,404.10308 0.585522592,281.852126 L83.7972394,281.853713 C99.0758494,362.78655 170.151789,424.004367 255.525488,424.004367 C265.253418,424.004367 283.923297,418.759434 283.923297,408.448257 C283.923297,407.865127 283.959229,407.282492 284.030073,406.700145 L284.030073,406.700145 L284.03,328.113089 L401.239219,328.11359 C407.866636,328.11359 413.239219,322.741007 413.239219,316.11359 L413.239219,316.11359 L413.239219,293.37931 C413.239219,286.751893 407.866636,281.37931 401.239219,281.37931 L401.239219,281.37931 L284.03,281.379089 L284.03,216.618089 L400.766734,216.618529 C407.394151,216.618529 412.766734,211.245946 412.766734,204.618529 L412.766734,204.618529 L412.766734,181.884249 C412.766734,175.256832 407.394151,169.884249 400.766734,169.884249 L400.766734,169.884249 L284.03,169.884089 L284.030073,88.5371415 C283.959265,87.9872837 283.923297,87.4390422 283.923297,86.8922637 C283.923297,77.3139759 265.417019,74.4660891 255.525488,74.4660891 C170.151789,74.4660891 99.0758494,135.683809 83.7972394,216.616624 L83.7972394,216.616624 L0.589321048,216.617798 C16.5729962,94.3809456 121.125561,9.09494702e-13 247.721977,9.09494702e-13 Z" id="Combined-Shape"></path>
            </g>
            <g id="Rectangle-Clipped" transform="translate(0.004336, 0.004162)">
                <mask id="mask-2" fill="white">
                    <use xlink:href="#path-1"></use>
                </mask>
                <g id="path-1"></g>
            </g>
        </g>
    </g>
</svg>