<?xml version="1.0" encoding="utf-8"?>
<!-- Generator: Adobe Illustrator 22.0.1, SVG Export Plug-In . SVG Version: 6.00 Build 0)  -->
<svg version="1.1" id="Layer_1" xmlns="http://www.w3.org/2000/svg" xmlns:xlink="http://www.w3.org/1999/xlink" x="0px" y="0px"
	 viewBox="0 0 11 9" style="enable-background:new 0 0 11 9;" xml:space="preserve">
<path d="M1.2,3.7l3.3,3.4L2.9,3.7H1.2z M5.5,7.6l1.9-3.9H3.6L5.5,7.6z M2.9,3L4,0.7H2.6L1,3H2.9z M6.5,7.1l3.3-3.4H8.1L6.5,7.1z
	 M3.7,3h3.7L6.3,0.7H4.8L3.7,3z M8.1,3H10L8.4,0.7H7L8.1,3z M8.9,0.1l2.1,3C11,3.2,11,3.3,11,3.4s0,0.2-0.1,0.2L5.8,8.9
	C5.7,9,5.6,9,5.5,9S5.3,9,5.3,8.9L0.1,3.6C0.1,3.5,0,3.4,0,3.4c0-0.1,0-0.2,0.1-0.2l2.1-3C2.2,0,2.3,0,2.4,0h6.2
	C8.7,0,8.8,0,8.9,0.1z"/>
</svg>
