<?xml version="1.0" encoding="utf-8"?>
<!-- Generator: Adobe Illustrator 22.0.1, SVG Export Plug-In . SVG Version: 6.00 Build 0)  -->
<svg version="1.1" id="Layer_1" xmlns="http://www.w3.org/2000/svg" xmlns:xlink="http://www.w3.org/1999/xlink" x="0px" y="0px"
	 viewBox="0 0 16 16" style="enable-background:new 0 0 16 16;" xml:space="preserve">
<style type="text/css">
	.st0{fill:#333333;}
</style>
<title>hig-web-light/basic/icon/16/pause-16</title>
<desc>Created with Sketch.</desc>
<path class="st0" d="M4,1h2c0.6,0,1,0.4,1,1v12c0,0.6-0.4,1-1,1H4c-0.6,0-1-0.4-1-1V2C3,1.4,3.4,1,4,1z M10,1h2c0.6,0,1,0.4,1,1v12
	c0,0.6-0.4,1-1,1h-2c-0.6,0-1-0.4-1-1V2C9,1.4,9.4,1,10,1z"/>
</svg>
