<svg width="24" height="24" viewBox="0 0 24 24" fill="none" xmlns="http://www.w3.org/2000/svg">
<path d="M6.329 8.87875L2 6.5V17.5V17.5L6.329 8.87875V8.87875Z" fill="#9BD5EF"/>
<path d="M6.329 15.1213V8.87878L2 17.5V17.5L6.329 15.1213V15.1213Z" fill="#38ABDF"/>
<path d="M6.329 15.1212L2 17.5L12 23V23L6.329 15.1212V15.1212Z" fill="#9BD5EF"/>
<path d="M12 18.2425L6.32898 15.1212L12 23V23V18.2425V18.2425Z" fill="#38ABDF"/>
<path d="M12 18.2425V23L22 17.5V17.5L12 18.2425V18.2425Z" fill="#9BD5EF"/>
<path d="M17.671 15.1212L12 18.2425L22 17.5V17.5L17.671 15.1212V15.1212Z" fill="#38ABDF"/>
<path d="M17.6709 15.1212L21.9999 17.5V6.5V6.5L17.6709 15.1212V15.1212Z" fill="#9BD5EF"/>
<path d="M17.6709 8.87875V15.1212L21.9999 6.5V6.5L17.6709 8.87875V8.87875Z" fill="#38ABDF"/>
<path d="M17.671 8.87875L22 6.5L12 1V1L17.671 8.87875V8.87875Z" fill="#9BD5EF"/>
<path d="M12 5.7575L17.671 8.87875L12 1V1V5.7575V5.7575Z" fill="#38ABDF"/>
</svg>
